<svg xmlns="http://www.w3.org/2000/svg" viewBox="49.7 88.5 116.8 346">
<!-- SVG created with Arrow, by QuiverAI (https://quiver.ai) -->
  <style type="text/css">.f2c-0 {fill:#F8EDD3;}
.f2c-1 {fill:none;stroke:#332E25;stroke-width:6;stroke-miterlimit:10;}
.f2c-2 {fill:#2B271C;}
.f2c-3 {fill:#EAB308;}
.f2c-4 {fill:#E6AF14;}</style>
  <path class="f2c-0" d="m106 151c-7.2-11-25.3-41.3-18.8-44s15.3 23 18.9 42l-0.1 2z"/>
  <path class="f2c-0" d="m96.5 153.9c-10.3-7.6-31.5-25.9-28.5-35.4 1.9-5.6 16 1 31.6 32.5l-3.1 2.9z"/>
  <path class="f2c-0" d="m94 159.4c-12-3.6-39.5-12.6-40-21.6s20.4-3 41.9 15.5l-1.9 6.1z"/>
  <path class="f2c-0" d="m93.5 165.4c-10.6 0.6-37.4 0.6-43.5-6.9-3.7-4.5 4.6-11 35.9-0.5l8 2v5.4z"/>
  <path class="f2c-0" d="m93.7 166.9c-8.2 1.3-36.9 8.1-39.5 16.9-2 6.7 14.3 5.6 41.3-11.8l-1.8-5.1z"/>
  <path class="f2c-0" d="m96.7 172.4c-10.1 7.6-28.2 24.5-26.1 33.6s15.4-6.8 24.4-17.6l6-9-4.3-7z"/>
  <path class="f2c-0" d="m106.5 176c-5.5 10-16.4 39.1-12 43.5 4.7 5 12.5-6.5 12.8-40.5l-0.8-3z"/>
  <path class="f2c-0" d="m111.7 175.4c-1 10.6-2.2 46.6 6.3 46.6s2.5-33.2-4.4-47l-1.9 0.4z"/>
  <path class="f2c-0" d="m115.8 175.2c5.8 15.8 16.2 39.3 22.2 39.3 5.5 1.5 4-7.5-1.1-16.5-3.4-5.8-15.3-23.5-18.4-24l-2.6 1.2h-0.1z"/>
  <path class="f2c-0" d="m118.7 172.6c9.8 9.4 24.3 23.4 34.3 24s6.5-13.1-30.5-27.6l-3.8 3.6z"/>
  <path class="f2c-0" d="m121.1 169.4c11.5 4.1 33.4 14.5 41.9 10.5s-5-13.4-40-15.9l-1.9 5.4z"/>
  <path class="f2c-0" d="m123 163.5c11-0.4 42.5-1 43.5-11 0-5.5-12-7.5-44 5l0.5 6z"/>
  <path class="f2c-0" d="m122 157.5c9-4 36.1-16.5 34-28-1.5-4.5-10.5-2-20.5 6-7 5.6-13 11.5-17 16l3.5 6z"/>
  <path class="f2c-0" d="m117.5 152c5-5.4 22-24.5 21.5-37-2.1-9.5-13.5 1.5-25 31l-0.5 3 4 3z"/>
  <path class="f2c-0" d="m110.5 150.5c3-10.1 8.5-39.5 1.5-45.9-4-3.1-10 4.4-6 39.4l0.9 5.5 3.6 1z"/>
  <path class="f2c-1" d="m106 171c-6.5 12.5-12 20-14 22.5-11.6 23-23.5 52.5-23.5 83.5 0 39.2 29.1 73.5 37.2 122 2.2 12.6 2.3 24 1.8 35.5"/>
  <path class="f2c-2" d="m85 338c0-6 1.6-16.9 11.5-24.5 7.5-5.5 15.5-7 21.4-8-0.3 8.5-2.6 16.5-7.4 22-6.5 7.5-16.8 10.4-23.7 10.5h-1.8z"/>
  <path class="f2c-4" d="m116.6 150.5c-8.1-4-22.6-1-23.1 12s13 19.5 23.5 14c9-4.5 10.5-20.9-0.4-26z"/>
  <path class="f2c-3" d="m105.5 163"/>
</svg>