<svg xmlns="http://www.w3.org/2000/svg" viewBox="0 0 150 150">
<!-- SVG created with Arrow, by QuiverAI (https://quiver.ai) -->
  <style type="text/css">.cls-0 {fill:#F0E7D8;}
.cls-1 {fill:#FCF6EA;}
.cls-2 {fill:#FFF9EC;}
.cls-3 {fill:#DF4A09;}
.cls-4 {fill:#2B281C;}
.cls-5 {fill:#2E2A1A;}</style>
  <path class="cls-0" d="m133.7 47c0-14.4-11.7-26.4-27.4-26.4-7.5 0-14.6 3.2-20.8 7.4l-10.5 7.3-10.5-7.3c-6.2-4.2-13.3-7.4-20.8-7.4-15.7 0-27.3 12-27.3 26.4 0 14.8 9.7 26.8 27.3 34.1l31.3 12.8 31.3-12.8c17.6-7.3 27.4-19.3 27.4-34.1z"/>
  <path class="cls-0" d="m106.3 129.5c15.7 0.4 27.4-11.6 27.4-27.5 0-7.5-2.8-14.6-7.4-20.4l-7.3-10.1-12.7 2.8-31.3 6.8-31.3-6.8-12.7-2.8-7.3 10.1c-4.6 5.8-7.3 12.9-7.3 20.4 0 15.9 11.6 27.5 27.3 27.5 7.1 0 11.2-1.6 20.8-5.9l10.5-4.7 10.5 4.7c9.5 4.3 13.7 5.9 20.8 5.9z"/>
  <path class="cls-1" d="m75 6.5c-15 0-29 15.9-29 30.8 0 10.9 7.5 16 15.4 24.7h27.2c7.9-8.7 15.3-13.8 15.3-24.7 0-10.5-10.8-30.8-28.9-30.8z"/>
  <path class="cls-2" d="m103.8 52.4c-4.6 3.1-8.7 6.6-12.8 10.1l-1.2 7.5v17.4l1.2 1.2c4.1 3.5 8.2 7 12.8 9.7s8.7 4 11.8 4c10.5 0 28.2-10.2 28.2-26.9 0-12.9-14.6-27.9-27.9-27.9-4.1 0-7.9 1.2-12.1 3.9v1z"/>
  <path class="cls-2" d="m46.2 51.6c-4.2-2.6-7.6-4.1-12.1-4.1-11.3 0-27.9 11.9-27.9 27.5 0 13.2 14.3 27.2 28.3 27.2 3.1 0 7.2-0.8 11-3.1 4.6-2.8 9.1-5.9 13.3-9.4l1.5-1.5v-26.2l-1.2-1c-4.1-3.5-8.3-6.6-12.9-9.6v0.2z"/>
  <path class="cls-2" d="m75 87.4-14.7 1.6c-7.6 7.7-14.4 14-14.4 24.5 0 8.1 8.7 30 29.1 30s28.8-20.3 28.8-30c0-10.5-6.5-16.8-14-24.5l-14.8-1.6z"/>
  <path class="cls-3" d="m75 53.8c-10.9 0-20.9 8.7-20.9 21.2 0 10.5 7.7 20.7 20.9 20.7 12.9 0 20.9-9.4 20.9-20.4 0-11.3-8.8-21.5-20.9-21.5z"/>
  <path class="cls-4" d="m75 57.5c-9.3 0-17.4 7.3-17.4 17.8 0 9 7.3 17.1 17.4 17.1s17.6-7.7 17.6-17.1c0-8.7-7.5-17.8-17.6-17.8z"/>
  <path class="cls-5" d="m75 60.2c-8.6 0-14.7 7.2-14.7 15.2 0 7.3 6.1 14.3 14.7 14.3s14.8-6.6 14.8-14.3c0-7.6-6.2-15.2-14.8-15.2z"/>
</svg>