<svg xmlns="http://www.w3.org/2000/svg" viewBox="0 0 150 149.8">
<!-- SVG created with Arrow, by QuiverAI (https://quiver.ai) -->
  <style type="text/css">.cls-0 {fill:#9B2F11;}
.cls-1 {fill:#E2AA0C;}</style>
  <path class="cls-0" d="m75 6.3c-1.7 3.7-3.2 11.9-3.3 21.7-0.1 10.2 1.2 23.9 1.9 28.9h2.4c0.8-5.6 2.1-17.8 2.1-28.9 0-9.8-1.5-18-3.1-21.7z"/>
  <path class="cls-0" d="m63.8 7.5c-0.9 3.9-1.1 12.6 0.2 21.8 1.4 10.1 4.7 22.8 6.7 27.3l2.1-0.3c0.1-4.8-0.7-17.1-2.2-26.4-1.5-9.2-4.6-18.7-6.8-22.4z"/>
  <path class="cls-0" d="m52.8 10.1c-0.3 4 1.1 12.5 4.1 21.3 3.2 9.7 8.8 21.6 11.4 26.1l1.5-0.5c-0.6-4.7-3.2-17.2-6.5-26.4-3.1-8.8-7.7-17.4-10.5-20.5z"/>
  <path class="cls-0" d="m42.2 14.6c0.2 4.1 2.7 12.3 6.9 20.4 4.6 9 12.3 20 15.6 24.1l1.8-1c-1.3-4.5-5.9-16.2-10.4-24.8-4.3-8.1-10.6-16.4-13.9-18.7z"/>
  <path class="cls-0" d="m32.5 20.6c0.8 4.1 4.5 11.7 9.9 19.1 5.8 8.2 15.2 17.4 20 21.6l1.6-1.5c-2.1-4.2-8.7-14.8-14.5-22.4-5.4-7.3-13.3-14.9-17-16.8z"/>
  <path class="cls-0" d="m23.5 29.2c0.7 2.2 2.2 4.5 4 6.8-2.6-1.3-5.1-2.5-7.5-3 1.5 3.6 7.6 9.5 14.6 14.7 7.9 6 20 12.8 25.4 16.3l1.5-1.8c-2.8-3.8-13-14.2-20.1-20.7-6.5-6-14-11.6-17.9-12.3z"/>
  <path class="cls-0" d="m13.9 41.7c2.2 3.4 9.2 8.4 16.8 12.5 8.7 4.7 21.6 9.8 27.5 12.5l0.8-1.5c-3.4-3-15.1-10.3-23.3-14.9-7.6-4.1-17.5-8.6-21.8-8.6z"/>
  <path class="cls-0" d="m9.6 52c2.7 2.9 10.5 6.8 18.7 9.7 9.4 3.3 23 6.4 28.8 7.9l0.7-1.9c-3.9-2.3-16.6-7.8-25.4-10.7-8.3-2.7-18.7-5.7-22.8-5z"/>
  <path class="cls-0" d="m7 63.3c3.1 2.4 11.5 5.1 20.1 6.7 9.8 1.8 23.7 2.9 29.4 3l0.2-2c-4.3-1.5-17.7-5.2-26.8-6.8-8.6-1.4-19.1-2.3-22.9-0.9z"/>
  <path class="cls-0" d="m6.2 75c3.4 1.8 12.1 3.2 20.9 3.2 9.9 0.1 23.8-1.1 29.2-1.9v-2.3c-4.5-0.8-18.1-2.2-28-2.3-8.7 0-18.3 1.1-22.1 3.3z"/>
  <path class="cls-0" d="m7 85.8c3.7 1.3 12.5 1.3 21.1 0 9.8-1.4 23.3-4.9 28.6-6.8l-0.3-2.1c-4.8 0-17.9 0.8-27.2 2-8.6 1.3-18.8 4.5-22.2 6.9z"/>
  <path class="cls-0" d="m9.6 96.3c3.9 0.6 11.6-0.4 20.1-2.8 9.6-2.7 22.4-8.1 28-11.5l-0.7-1.7c-4.8 0.6-17.3 3.2-26.2 5.9-8.4 2.6-18.2 7.1-21.2 10.1z"/>
  <path class="cls-0" d="m13.9 107c4 0 12-2.5 19.8-6.3 8.7-4.2 20.3-11.7 25.3-16.2l-0.9-1.6c-4.6 1.3-16.5 5.8-25 10.2-7.7 4-16.7 10-19.2 13.9z"/>
  <path class="cls-0" d="m19.8 116.7c3.9-0.7 11.3-4.2 18.4-9.2l5.7-5c-4.3 4.2-13.7 13.6-16 19.2l-1.1 2.3c3.8-1.3 9-5.3 13.9-9.3-3.1 4.9-6.8 10.7-7.6 15 3.6-1.5 10.1-7.9 15.4-14.6 6.1-7.5 13.3-19 15.8-24.8l-2.8-4.5c-3.9 2-14.8 8.3-22.4 13.6-7.2 5.1-17 13.5-19.3 17.3z"/>
  <path class="cls-0" d="m42.5 135.5c3.3-2 8.9-9 13.3-16.6 4.8-8.4 10.1-21 11.3-27.2l-1.6-0.9c-2.7 3.7-10.1 14.3-14.4 21.9-4.3 7.8-8.7 18.4-8.6 22.8z"/>
  <path class="cls-0" d="m53 139.7c2.9-2.7 6.9-10 9.9-18 3.3-9 6.5-22.3 7.1-29l-1.9-0.6c-2.1 4-7.6 16-10.6 24.6-2.8 8.3-5.4 18.8-4.5 23z"/>
  <path class="cls-0" d="m63.8 142.5c2.4-3 5.3-11 6.9-19.4 1.8-9.4 2.7-23.1 2.5-29.9l-2-0.2c-1.4 4.2-5.3 17.1-6.9 26-1.5 8.5-1.9 19.5-0.5 23.5z"/>
  <path class="cls-0" d="m74.7 143.4c1.8-3.5 3.2-11.9 3.3-20.7 0.1-9.6-1.1-23-1.9-29.3h-2.1c-0.7 4.3-2.3 17.3-2.4 26.3 0 8.8 1.2 20 3.1 23.7z"/>
  <path class="cls-0" d="m85.8 142.5c1.3-3.8 1.3-12.4 0-21.4-1.3-9.4-4.7-22.2-7-28.2l-1.8 0.2c-0.1 4.6 0.7 17.4 1.9 26.4s4.5 19.9 6.9 22.4v0.6z"/>
  <path class="cls-0" d="m96.7 139.5c0.7-4-0.5-12.4-3-21-2.7-9.4-8.2-22-11.3-26.6l-1.9 0.6c0.6 4.6 3.2 17 5.9 25.6 2.6 8.6 7.2 18.4 10.3 21.4z"/>
  <path class="cls-0" d="m106.8 134.5h0.1z"/>
  <path class="cls-0" d="m106.8 134.5h0.1-0.1c0.4 0.2-0.1-0.1 0 0 0.1 0 0 0 0 0l0.9 0.6c-0.1-4.6-3.6-13.1-7.1-20-4.4-8.6-11.7-19.7-15.7-24.6l-1.9 1c1.4 4.4 5.9 16.2 10.1 24.4 3.8 7.5 10 16.1 13.7 18.6z"/>
  <path class="cls-0" d="m116.6 129.5h-0.1 0.1z"/>
  <path class="cls-0" d="m116.6 129.5 0.1 0.1-0.1-0.1c0.3 0.2-0.1 0 0 0s0 0 0 0c-0.7-4-4.6-11-10.4-19.1 6 5.7 13.3 11.5 17.5 13-0.8-2.9-3.6-7-7.3-11.8 4.5 2.6 9.3 5.4 12.8 6-1.5-3.7-8.1-10.1-14.8-15.4-7.5-6-18.9-13.1-24.5-16.3l-1.9 2.5 4.4 5.2-4.8-5.1-1.7 1.2c2.2 4 8.5 14.8 13.7 22.3 5 7 13 15.7 17 17.5z"/>
  <path class="cls-0" d="m135.4 108.2c-2-3.5-9.2-8.8-16.5-13-8.3-4.8-20.8-10.1-26.9-12.2l-1 1.7c3.6 2.7 13.6 9.8 21.6 14.2 7.6 4.2 18.5 9.2 22.8 9.3z"/>
  <path class="cls-0" d="m139.7 97.5c-2.6-2.8-10.1-6.8-18.1-9.6-8.9-3.2-22-6.2-28.6-7.4l-0.6 1.7c4 2.2 15.6 7.5 24.2 10.3 8.1 2.7 19 5.6 23.1 5z"/>
  <path class="cls-0" d="m142.7 86.9c-3-2.4-11.1-5.3-19.3-7-9.3-1.8-22.8-2.5-29.7-2.8l-0.3 1.9c4.2 1.4 16.5 5 25.3 6.7 8.4 1.5 20 2.5 24 1.2z"/>
  <path class="cls-0" d="m143.8 75.1c-3.3-1.9-11.7-3.4-20.4-3.4-9.5 0-23.3 1.3-29.7 2.2v2.1c4.4 0.7 17.4 2.2 26.9 2.2 8.6 0 19.5-1.1 23.2-3.1z"/>
  <path class="cls-0" d="m143.1 63.9c-3.6-1.4-11.7-1.3-20.2 0-9.4 1.3-22.8 4.8-29.4 7.2l0.2 1.9c4.7 0.1 17.5-0.6 26.5-2.1 8.5-1.3 19.5-4.4 22.9-7z"/>
  <path class="cls-0" d="m140.5 52.5c-3.9-0.6-11.6 0.5-19.6 2.9-8.9 2.7-21.5 8.1-28.4 12.2l0.7 2.1c4.7-0.7 17.4-3.3 26-5.8 8.2-2.5 18.4-7 21.3-11.4z"/>
  <path class="cls-0" d="m136.2 42.1c-4 0.1-11.5 2.5-19.2 6.3-8.4 4.1-19.9 11.3-25.9 16.8l1 1.8c4.5-1.3 16.5-5.9 24.6-10 7.7-3.8 17-10.1 19.5-14.9z"/>
  <path class="cls-0" d="m130.6 33.5c-4 0.5-11 4.1-20.5 10.2 6.3-6.1 12.3-13.2 13.8-17.5-3.3 0.9-8.2 4-13.7 9.2 3.7-5.5 6.8-11.3 7.3-14.9-3.6 1.5-10.3 7.9-15.4 14.5-5.9 7.5-13 18.4-16.4 24.6l3 2.8 10.7-9.2-10.2 9.5 1.2 1.4c4-2 14.7-7.9 22.2-13 7-4.9 15.8-12.6 18-17.6z"/>
  <path class="cls-0" d="m107.9 15.4z"/>
  <path class="cls-0" d="m107.9 15.4c-3.4 2.8-9.3 10.8-13.5 18.5-4.7 8.5-10 20.6-11.4 24.1l1.7 1c2.9-3.5 10.4-13.9 14.8-21.6 4.2-7.7 8.1-17.5 8.4-23v1z"/>
  <path class="cls-0" d="m97.5 10.1z"/>
  <path class="cls-0" d="m97.5 10.1 0.1-0.1-0.1 0.1c-2.9 2.9-7.6 11.3-10.6 19.5-3.4 8.9-6.5 21.8-7.2 27l1.9 0.8c2.1-3.9 7.8-15.5 11-23.9 2.9-8.1 5.5-19 4.9-23.4z"/>
  <path class="cls-0" d="m86.4 7.4z"/>
  <path class="cls-0" d="m86.4 7.4h0.1-0.1c-2.3 3.1-5.5 12-7 20.6-1.7 9.4-2.4 22.7-2.4 28.1l1.9 0.3c1.5-4.2 5.2-16.4 6.7-25.3 1.5-8.6 2-19.6 0.8-23.7z"/>
  <polygon class="cls-0" points="48.6 97.9 59.9 87.2 60.9 87.4"/>
  <path class="cls-1" d="m75.1 57.4c-8.9 0-17.4 7.2-17.4 17.6 0 9.5 7.9 17.1 17.4 17.1 8.8 0 17.3-6.9 17.3-17 0-8.7-7.4-17.7-17.3-17.7z"/>
</svg>