<svg xmlns="http://www.w3.org/2000/svg" viewBox="0 0 150 150">
<!-- SVG created with Arrow, by QuiverAI (https://quiver.ai) -->
  <style type="text/css">.cls-0 {fill:#9D3411;}
.cls-1 {fill:#F3E6C7;}
.cls-2 {fill:#DBA813;}</style>
  <path class="cls-0" d="m130 72c5.2-0.3 13.6-1.4 13.6-6.7 0-6.3-7-7.9-16.4-5.3 5.8-1.8 12-4.4 12-9.2-0.2-4-3.6-6.6-11.6-3.4l-4.2 1.6c5.2-2.4 10.6-5.6 10.4-9.4-0.2-2.4-3.2-6.4-9.6-2.6l-6.4 3.8c4.4-3.6 9-8 7.6-11.8-0.8-2.2-4.2-5.2-9.2-1.4l-5.8 5.2c3.4-4.2 6.4-9 5.2-12.2-1-2.2-4.2-4.8-8-1.6-2.2 1.6-4.4 5.2-6.4 8.2 2.2-4.6 4.2-10.2 2.6-13-1.2-2.2-4.6-3.8-7.4-1.2-2 1.8-3.8 5.8-5.2 9.4 1.2-4.8 2.2-10.6-0.2-12.8-1.6-1.6-5.2-2.6-7.4 0.4-1.8 2.2-2.8 6.6-3.2 10.4 0.4-5 0.2-11.2-2.6-12.8-1.8-1.2-5.2-1.2-6.8 2-1.4 2.6-1.4 7-1 10.8-0.8-5-2.6-11.4-6.2-12.2-2-0.4-5.6 0.4-6 4.8-0.2 2.6 0.6 6.6 1.2 9.6-1.6-4.6-4.2-10.2-7.6-10.8-2.4-0.4-6 1.2-5.8 5 0 2.8 1.6 6.6 3.2 9.8-2.4-4-6-9-9.4-8.8-2.4 0-5.4 2.2-5 5.6 0.4 3 2.8 6.6 5 9.6-3-3.4-7.2-7.6-10.8-7.2-2.4 0.2-5 2.6-4 6.2 0.8 2.6 3.6 5.6 6.8 8.4-3.8-2.8-8.8-6-12-4.6-2.4 0.8-4 4-2.4 6.6 1.4 2.6 5.2 5 8.6 6.6-4.2-2.2-10-4.6-12.8-2.6-2 1.4-3.2 4.6-0.8 7.2 1.8 2 5.6 3.8 9.4 5.6-4.6-1-10.2-2.2-12.4 0.4-1.6 1.6-2 5 0.6 7 2.2 1.8 6.4 2.6 10.2 3.2-4.8-0.2-11.4-0.4-13.2 3.2-0.8 1.8-0.8 5.2 2.8 6.4 2.6 1 7 1.2 10.6 1-5 0.4-11.6 1.6-12.5 5.2-0.5 2 0.3 5.4 4.1 6 2.8 0.4 7-0.2 10.8-1.2-4.8 1.4-11.4 4-11.7 7.4-0.3 2.2 1.1 5.4 4.9 5.4 2.8 0 7-1.6 10.4-3.2-4.2 2.4-10 5.8-9.4 9.8 0.2 2.2 2.4 5.4 6.4 4.6 2.8-0.6 6.4-2.6 9-4.4-3.8 3-7.8 6.6-7.5 10 0.3 2.4 2.9 4.8 6.1 3.8 3-0.8 6.2-3.6 8.8-6.4-2.8 3.6-5.8 7.6-5 11.2 0.6 2.2 3.2 4.6 6.4 3.2 2.8-1 5.6-4.6 7.6-8.2-2 4-4 9-2.4 12.2 1.2 2 4.2 3.4 7.2 1.6 2.4-1.6 4.4-5.8 5.6-9.8-1 4.4-2 10 0.6 12.8 1.6 1.6 5 2.2 7.2 0 1.8-2 2.6-6.2 2.8-10.4 0 4.8 0 12.8 5.6 13 4.8 0.2 5.6-4.8 5.2-13 0.4 4.8 2 11.4 6.4 11.6 2.2 0.2 5.6-1 5.8-5.2 0.2-2.8-0.8-6.8-1.6-10.2 1.6 4.8 4.2 11.4 8 11.8 2.4 0.4 5.6-1 5.4-5.2-0.2-2.8-1.6-6.4-3.4-10.2 2.4 4.4 6 9.6 9.8 9.6 2.4 0.2 5.2-1.6 5-4.8-0.2-3-2.6-6.6-5.4-10.4 3.4 3.6 8.2 7.8 11.6 7 2.2-0.4 4.4-2.6 3.4-6-0.8-2.6-3.8-5.6-6.8-8.4 4 2.8 9.2 6.2 12.2 5 2.2-0.8 4-3.6 2.4-6.8-1.4-2.6-5-5.2-8.8-7.4 4.4 2 10.4 4.4 13.2 2.2 1.6-1.2 2.8-4.2 0.8-6.8-1.8-2.2-5.8-4-9.8-5.2 4.8 1 11.4 2.6 13.6-1 1-1.8 1-5-2.2-6.6-2.4-1.4-5.8-2.2-9.6-2.6 5 0.2 13.2 0.6 13.4-4.8 0.2-6.2-7.4-6-13.6-5.8v2.2z"/>
  <path class="cls-1" d="m124 79.8c6.6 0.6 13.8 1.6 13.8-4.6 0-5.4-5.6-5.4-13.8-4.8 6.6-0.4 13-1.4 13-6-0.2-5-4-6.2-13.2-3.6 5.2-1.6 10.4-3.4 10-7.8-0.6-4.8-4.4-6.6-13.6-1.8 4.8-2.2 9.2-5.2 8.4-8.8-0.8-3.2-4-6.2-9-3l-5.8 4.2c3.8-2.8 8.6-6.4 7.4-9.8-0.8-2.4-3.8-5.2-7-3.4-2.2 1-4.8 4-8.2 7.4 3.6-3.6 7.8-8.4 6.4-11.8-0.8-2.2-4.2-4.4-7-3-2.2 1.2-4.4 4.8-6.4 8 2.4-4.4 4.8-9.6 2.4-12-1.6-1.8-5-3-7.2-1-1.8 1.4-3.2 5-4.4 8.4 1.4-4.8 2.6-10.2-0.8-11.8-2-1.2-5.4-1.6-7.2 1.4-1.4 2-2 6.4-2 10.2 0.4-6.6 0.6-13.2-4.8-13.4-6-0.2-5.6 5.6-5.2 12.6-0.4-5.6-2-12-7-11.6-5.6 0.6-4.8 5.6-3 12.8-1.4-4.4-3.6-10.2-8-9.4-2.4 0.4-4.6 2.4-4.2 5.4 0.2 2.6 1.8 5.8 3.8 8.8-2.4-4-5.2-9-9-8.8-2.6 0-5.4 2.4-4.9 5.4 0.3 2.6 2.9 6 5.9 9.4-3.2-3.4-7.2-8.4-10.8-7.4-2.2 0.6-4.8 3.2-4 6.2 0.8 2.6 4.2 5.4 7.2 7.8-4-3-9-7.2-12.2-4.8-1.8 1.4-3.2 4-1.6 6.2 1.4 2 4.6 4 7.8 5.8-4.4-2.2-10.2-5.4-12.8-1-2.6 5 1.6 8 9.4 10.4-4.8-1.2-12.2-3.4-13.4 2.6-0.8 5.2 4.2 6.4 13.2 7.4-7-0.6-14.2-1.2-14.2 4.8s6.6 5.2 14.4 4.4c-6 0.6-13.4 1-13.3 6 0.1 6 5.9 5.6 12.5 3.8-4.8 1.2-10.4 3.2-9.4 7.4 1.6 6.4 7 4.6 13.6 1.4-4.4 2.2-9.2 4.6-8.2 8.6 0.6 2.4 3 5.4 6.8 4.4 2.2-0.6 5.4-2.8 9.2-5.8-3.8 3-10 7-9 10.8 0.6 2.2 3 4.6 6 3.6 2.4-0.6 5.2-3 8.4-6.4-2.8 3.4-6.4 7.4-5 10.6 1 2.2 4 4 6.8 2.6 2.2-1 4.2-3.8 6.2-7.4-2.2 4.2-5 10.2-0.4 12.8 6 2.8 8.2-2.4 9.6-6.6-1.4 5.2-2.6 10 3.2 10.6 5 0.4 5.8-3.8 6.2-6.6l0.4-6.2c-0.4 6.8-1.2 13.8 5 13.8 5.6 0 5.2-5.6 5-10.2l-0.4-4.4c0.6 6.8 1.6 13.8 6.8 13.6 6.4-0.4 5.4-5.8 4-11.6l-0.8-2.6c1.8 5.4 3.8 11.4 8.4 10.8 6.2-0.8 5.2-6.2 2.6-11.2l-1.8-3c2.8 4.8 5.6 9.6 9.6 8.6 2.4-0.2 5.2-2.6 4.2-5.8-0.6-2.4-3-5.4-6-8.4 3.4 3.4 7.8 8.4 11.4 6.8 2.2-0.8 4.4-3.4 3.2-6-0.8-2.2-3.6-4.8-7.2-7.6 4 2.8 9 7 12 5 2.2-1.4 3.6-4.2 2-6.8-1.2-2-4.2-3.8-7.6-6 4.6 2.2 10.8 5.2 13 0 2.2-5-2.8-7.4-9.4-9 5.2 1.2 12.2 3.4 12.8-2.8 0.6-5.4-5.4-6-12.8-6.8z"/>
  <path class="cls-2" d="m96.8 77v-3.6c4.6-1.6 15-3 19.4-2.6-3.8-0.4-14.4 1-19.6 0.6-0.2-1.2-0.6-2.4-1-3.6 4-2.6 13.6-6.4 18.2-7.2-3.8 0.4-14 5.4-18.8 5.6-0.6-1.2-1.2-2.2-1.8-3.4 3.2-3.2 11.6-9.4 15.8-11.2-3.6 1.4-12.2 8.2-17 9.8-0.8-1-1.8-2-2.8-3 2.2-4 8.8-12 12.4-14.8-3 2.2-9.4 10.8-13.8 13.6-1-0.6-2.2-1.4-3.6-2.2 0.8-4.4 4.8-13.8 7.4-17.4-2.2 2.8-6.2 12.8-9.2 16.6-1.2-0.4-2.4-0.8-3.8-1-0.4-4.6 1.2-14.6 2.6-18.8-1.4 3.2-2.6 13.8-4.4 18.4h-3.8c-1.8-4.4-3-14.4-2.6-18.8-0.4 3.6 1.2 14 0.8 19.2-1.4 0.2-2.6 0.6-3.8 1-2.8-3.8-6.6-12.6-7.2-16.8 0.4 3.6 5.2 13.6 5.4 17.6-1.2 0.6-2.2 1.2-3.4 2.2-3.6-2.8-9.6-10.6-11.4-14.2 1.4 3.4 8.2 11.4 10 15.4-1 0.8-1.8 1.8-2.8 3-4.2-2-11.8-7.4-14.6-10.6 2.4 2.8 11 8.4 13.6 12-0.6 1-1.4 2.2-1.8 3.4-4.6-0.6-13.4-4.2-17-6.2 3 1.8 12.6 5.2 16.2 7.8-0.4 1.2-0.8 2.4-0.9 3.6-4.7 0.6-14.5-0.8-18.7-2 3.4 1.2 13.8 2 18.6 4v3.8c-4.4 1.6-14.2 2.8-18.6 2.6 3.8 0.2 13.8-1.4 18.7-0.8 0.3 1.2 0.5 2.4 0.9 3.6-3.8 2.6-12.8 6-17 6.8 3.6-0.4 13.4-5.2 17.8-5.2 0.4 1 1 2 1.8 3.2-3 3.2-10.6 8.8-14.4 10.6 3.4-1.4 11.4-7.6 15.4-9.2 0.8 1 1.6 2 2.8 2.8-1.8 4-8.2 11.2-11.2 13.8 2.8-2.2 8.8-10.4 12.6-12.8 1 0.8 2.2 1.4 3.6 2-0.8 4.4-4.6 12.8-7 16.2 2-2.8 5.8-12.2 8.6-15.6 1.2 0.4 2.4 0.8 3.8 1 0.4 4.4-1.2 14.2-2.6 18.2 1.2-3.2 2.6-13.4 4.6-17.8h3.6c1.8 4.4 3 14 2.6 18.2 0.4-3.6-1-13.4-0.8-18.6 1.4-0.2 2.6-0.6 3.8-1 2.8 3.4 6.6 12 7.4 16-0.6-3.6-5.2-12.8-5.6-16.8 1.2-0.6 2.2-1.2 3.6-1.8 3.6 2.8 9.6 10 11.6 13.4-1.8-3-8-10.4-10-14.4 1-0.8 1.8-1.8 2.8-2.8 4.2 1.6 11.6 7 14.4 9.8-2.4-2.6-10.2-8-13.4-11.2 0.6-1 1.2-2 1.8-3.4 4.6 0.4 13.4 4 17 6-3-1.6-12-4.6-16.2-7.4 0.4-1.2 0.8-2.4 1-3.6 4.6-0.6 14.4 0.8 18.4 1.8-3.4-1-13.4-1.8-18.4-3.8z"/>
</svg>