<svg xmlns="http://www.w3.org/2000/svg" viewBox="0 0 150 150">
<!-- SVG created with Arrow, by QuiverAI (https://quiver.ai) -->
  <style type="text/css">.cls-0 {fill:url(#SVGID_1_);}
.cls-1 {fill:#342D22;}</style>
  <linearGradient id="SVGID_1_" x1="75" x2="75" y1="-.1231" y2="131.4" gradientUnits="userSpaceOnUse">
    <stop stop-color="#fff" offset="0"/>
    <stop stop-color="#fff" stop-opacity="0" offset="1"/>
  </linearGradient>
  <path class="cls-0" d="m17.7 131.4c3.7-12.8 12.2-37.8 31.3-52.2 15.2-11.4 47.9-32.8 82.4-60.4 1.5 3.8 4.7 15-11.7 27.9-8.1 7.5-25.4 19.4-25.4 19.4l37.5-22.1c1.8 5.9 0.8 20.5-38.4 39.2l32.7-11.2c0.7 10.8-9.2 17.1-19.9 21.2-14.4 5.7-31.1 9.1-42.1 12.3-14.8 3.7-29 10.5-46.4 25.9z"/>
  <path class="cls-1" d="m17.7 131.4c3.7-12.8 12.2-37.8 31.3-52.2 15.2-11.4 47.9-32.8 82.4-60.4 1.6 3.8 4.8 15-11.7 27.9-8.1 7.5-25.4 19.4-25.4 19.4l37.5-22.1c1.8 5.9 0.8 20.5-38.4 39.2l32.7-11.2c0.7 10.8-9.2 17.1-19.9 21.2-14.4 5.7-31.1 9.1-42.1 11.7-14.8 3.7-29 10.5-46.4 26.5z"/>
</svg>