<svg xmlns="http://www.w3.org/2000/svg" viewBox="0 0 150 150">
<!-- SVG created with Arrow, by QuiverAI (https://quiver.ai) -->
  <style type="text/css">.cls-0 {fill:#FFFFFF;}
.cls-1 {fill:#383226;}
.cls-2 {fill:#F2E7CF;}
.cls-3 {fill:#DC440A;}
.cls-4 {fill:#F2E6CE;}
.cls-5 {fill:none;}</style>
  <path class="cls-1" d="m115.8 69c-1-2.1-3.9-6.4-10-6.9-4.9-0.5-8.8 1.8-10.8 3.3l-9.3 6.4-36.6-33c-2 3.2-4.8 9.3-4.8 17.4 0.1 10.6 5.1 23.6 17.4 29.7l3.8 1.7-39.2 28.7c2.4 1.5 6.9 2.7 11.6 0l21.3-14.6c3.3 0.7 7.6 1.5 12.1 1.8 3 0.1 11.2 0.9 19.1-2.5 9.2-3.6 14.5-11.6 17.2-17.1l7.2-8.9 1-6z"/>
  <path class="cls-1" d="m63.8 48.6 21.9 20.7 3.7-2.7-15.8-34.2c-2.9 2.4-7.8 8.2-9.8 16.2z"/>
  <path class="cls-2" d="m71.3 103.6c3 0.1 11.2 0.8 19.1-2.5 8.5-3.3 13.6-10.2 17.2-17.4-3.1-0.7-9.3-1.3-16.6 1-7.4 2.4-15.8 8.7-19.7 18.9z"/>
  <path class="cls-3" d="m115.7 69 8 3.6-8.9 2.2c-0.7-1.9-0.8-4 0.9-5.8z"/>
  <path class="cls-4" d="m107.4 68.1c-0.6 0.6-1.7 2.7 0.3 2.7s1.7-4.1-0.3-2.7z"/>
  <circle class="cls-4" cx="107.4" cy="69.2" r="1.6"/>
</svg>