<svg xmlns="http://www.w3.org/2000/svg" viewBox="0 0 150 150">
<!-- SVG created with Arrow, by QuiverAI (https://quiver.ai) -->
  <style type="text/css">.cls-0 {fill:#C43B06;}
.cls-1 {fill:#373022;}
.cls-2 {fill:#F0E8CD;}</style>
  <polygon class="cls-0" points="116 51.3 127.2 56 117.9 60.4"/>
  <path class="cls-1" d="m117.1 49.9c-1.7-4.7-6.4-11.1-17.1-11.1-6.4-0.2-12.6 2.4-17.9 6-8.8 5.8-18 15.6-26.3 24.5-9 9.6-25.7 25.6-37.4 39.3 4.7 0.2 8.2-1.2 11.9-3.3l12.5-8.7c6.5 8.4 18.1 18 37 18h0.9s0-34.3 38.2-45.5c0.1-4-0.6-15.8-1.8-19.2z"/>
  <path class="cls-2" d="m79.8 114.7c11.9-0.3 22.9-4.6 30.3-14 5.7-7.1 8.6-17.1 8.8-27l0.1-4.7c-14.5 1.3-39 14.7-39.2 45.7z"/>
  <path class="cls-2" d="m105.5 49.8c-2.4 0.8-3 4.2-0.3 5.1 3.2 1 4.6-3.7 1.7-4.9l-1.4-0.2z"/>
  <path class="cls-2" d="m105.5 49.7c-2.4 0.7-3.2 4.2-0.3 5.2 3.2 1 4.6-3.7 1.7-4.9l-1.4-0.3z"/>
</svg>