<svg xmlns="http://www.w3.org/2000/svg" viewBox="0 0 150 150">
<!-- SVG created with Arrow, by QuiverAI (https://quiver.ai) -->
  <style type="text/css">.cls-0 {fill:#F4E8CB;}
.cls-1 {fill:#332D23;}
.cls-2 {fill:#DC4709;}
.cls-3 {fill:#F6EACB;}</style>
  <path class="cls-0" d="m130.9 68c-4.9 10.6-15.4 27.5-39.4 27.6-18.7 0.1-31.5-9.1-39.1-17.2-2-2.1-4-4.6-5.9-7.3l24.5 0.8 31.8-17 28.1 13.1z"/>
  <path class="cls-1" d="m134.9 48c-2.3-3.7-6.5-7.6-14.2-7.6-3.9 0-7.5 1.2-10.1 3.2-2.7 2.2-8.1 6.5-13 10.2h-90.4c0.3 5.7 5 10.8 11.4 10.8h22.9c1.3 5.9 8.2 16.7 19.3 23.1l9.2-15.8-40.4 32.7c4.6 2.4 12.5 4.9 22.3 4.9 16.7 0 37.8-7.1 48.8-28.6 1.5-2.7 2.7-5.6 3.2-7.4v-1.8c3.4-1.6 10-4.9 17.7-4.9 2.8 0 5.7 0.3 9.2 1.3 1.8-3.8 3.7-10.7 4.3-13.5l-0.2-6.6z"/>
  <path class="cls-2" d="m134.9 48.1 7.9 4-8 4s-3.7-4.2 0.1-8.2"/>
  <path class="cls-3" d="m127 49.3c0 1.1-0.8 2.1-1.9 2.1s-2.2-0.9-2.2-2.1c0-1 0.8-2.2 2.2-2.2 1.1 0 1.9 1 1.9 2.2"/>
</svg>