<svg xmlns="http://www.w3.org/2000/svg" viewBox="0 0 150 150">
<!-- SVG created with Arrow, by QuiverAI (https://quiver.ai) -->
  <style type="text/css">.cls-0 {fill:#F4E6C8;}
.cls-1 {fill:#AD7000;}</style>
  <path class="cls-0" d="m99 23.3c-3.9-7.2-11.8-13.4-21.3-13.9-15.1-0.9-27.6 10.7-28.8 22.5-0.9 9.2 5.9 18.4 13.7 30.3-4.9-5.9-9.6-11.9-17.2-18.6-9.5-8-23.7-5.6-31.8 3.9-9.2 10.7-9.2 26 0.3 36.1 3.9 4 8.9 7.2 15.9 7.3 5.9 0 14.7-1.9 25.1-5.1l-0.1 0.2c-8 2.8-18.7 6.3-24.1 10.4-5.4 4.3-8.5 11-8.4 18.8 0.6 13.3 11 25.4 26.9 25.4 10.7 0 20.5-5.8 23.3-16 1.8-6.2 2.4-15 2.4-24.6 0.3 7.7 0.6 17.5 2.8 24.6 3 8.3 10.4 15.7 23.1 16 13.6 0 24.6-8.5 26.8-21.5 1.5-8.3-1.8-17.5-8.4-22.7-5.1-3.9-12.8-6.7-23.8-10.7 8 2.4 17.5 4.9 24.5 5.2 6.4 0.2 11.6-2.2 15.8-6.5 4.7-4.9 7.6-11.7 7.6-18.2-0.1-6.6-2.3-12.9-7-18.3-4.2-4.6-9.7-8.5-18.2-8.7-4-0.1-8.6 0.9-12.5 3.7-6.3 4.4-11.4 10.5-18 19.2 6.6-9.4 14-20.1 13.5-29.4-0.3-3.2-1.1-6.4-2.1-8.6"/>
  <path class="cls-1" d="m75 65c-6.9 0-13.4 5.6-13.4 13.6 0 6.8 5.5 13.1 13.4 13.1s13.5-5.4 13.5-13.1c0-7.1-5.9-13.5-13.5-13.6z"/>
</svg>