<svg xmlns="http://www.w3.org/2000/svg" viewBox="4 5.8 91.7 96">
<!-- SVG created with Arrow, by QuiverAI (https://quiver.ai) -->
  <path d="m49.8 10c-1.9 0-3.3 3.6-3.1 11.7-1.2-6.2-3-10.7-5.1-10.7-2.2 0-3.2 3.1-1.2 11.8-2.1-5.2-4.7-9.5-6.8-9.5s-3 3.1 1.1 12.2c-3.1-4.7-6.4-8.3-8.4-8.2-2.1 0.1-2.9 3 2.9 11.5-3.8-3.9-7.7-6.7-9.6-6.3-2.1 0.4-2.7 3.4 5 10.7-4.5-3.1-9-5.2-10.7-4.2-1.9 1-1.6 4 7.4 9.3-5-2.3-9.8-3.5-11.4-2.5-1.8 1.1-1.3 4.1 8.5 8.3-5.3-0.9-10.2-1.5-11.6 0.2-1.3 1.6 0.1 4 10.1 6-6-0.1-10.9 0.6-11.3 3.2-0.1 2.1 3.1 3.3 12 3.3-6.3 0.8-11 2.6-11 4.9 0 2.1 3.3 2.9 12 1.2-5.3 2-9.6 4.5-9.4 6.6 0.1 2.1 3.5 2.7 11.9-0.9-4.8 2.9-8.5 6.2-8 8.5 0.6 2.3 4.5 1.9 11.7-2.9-4.2 4.1-7.3 8.1-6.1 10.1 1.1 1.8 5.2 0.7 11.2-5.7-3.6 5-6.1 9.7-4.5 11.3 1.7 1.6 5.2-0.6 9.3-7.5-2.6 5.6-4 10.5-1.8 11.7 2 0.9 4.7-1.7 7.6-9.5-1.4 5.8-1.8 11.2 1 11.6 2.2 0.2 4.1-3.2 5.5-10.7-0.2 6 0.6 11.3 3 11.4 2.1 0.1 3.5-3.2 2.9-11.5 1 6 3 11 5.3 11s3.1-3.8 1.1-12c2.2 5.7 5 10 7.1 9.7 2.3-0.2 2.5-4-1.2-12 3.2 5.2 6.9 8.9 8.9 8.3s2.5-3.3-3.4-11.6c4.3 4.6 8.6 7.2 10.4 6s0.4-4.9-5.9-10.4c5.2 3.5 9.6 5.5 11.2 4s-0.5-4.8-8-9.6c5.7 2.3 10.7 3.6 12 1.8 1.2-1.8-1.1-4.5-9.3-7.6 5.9 1.3 10.8 1.6 11.8-0.4s-2-4.3-10.8-5.7c6.3 0 11.3-0.5 11.5-2.9 0.3-2.4-4-3.6-11.5-3.4 6.3-1 10.8-2.6 10.8-5 0-2.2-3.5-3.2-11.8-1.3 5.5-1.9 9.5-4.4 9.3-6.9-0.3-2.4-4.3-2.8-12 0.9 5-2.9 8.7-6.3 8.2-8.4-0.6-2.3-4.2-2-11.7 3.1 4.4-3.9 7.5-8 6.2-10-1.2-1.6-4.5-0.9-10.5 5.9 3.5-5 5.5-9.9 3.8-11.3-1.8-1.5-4.8 0.8-9.4 7.9 2.4-5.4 3.7-11.1 1.4-12.1-2-0.6-4.3 2-7.4 9.6 1.4-6.1 1.6-11.6-0.9-12-2.2-0.4-4.1 3.1-5.5 10.6 0.4-7.5-1-11.6-2.8-11.6z" fill="#E0A40D"/>
  <path d="m47 23c-0.9-7.4-6.6-13-7.6-9.4-1 3.5 1.6 13.3 3.2 17l5.3 14.4h1 2s1.2-11.4 1.7-16.9 2.3-16.7-1.5-18c-3.7-1.1-3.7 8.3-4.1 12.9z" fill="#CE900B"/>
  <path d="m34.7 25.5 5.7 10.1 6 9.3 1-0.3-4.5-14.7c-1.5-4.3-4.8-16-9.3-16.6-4.2-0.3-0.2 10.1 1.1 12.2z" fill="#D3940C"/>
  <path d="m29.2 28.9c1.7 2.2 9.4 11.5 9.4 11.5l5.5 6.2 0.8-0.6-9-15.6c-1.5-2.5-7-13.3-10.3-13-3.2 0.2 0.3 7.6 3.6 11.5z" fill="#CD8F0B"/>
  <path d="m24.6 33.1 8.8 7.3 9 7.5 0.6-0.8-7.6-10c-2.8-3.5-11.8-15.2-16-14.6-3.5 0.5 0 6.1 5.2 10.6z" fill="#CC8E0C"/>
  <path d="m21.1 38.3 11.8 6.8 8.7 3.8 0.4-0.8-10.1-7.7c-3.5-2.8-12.3-12-17.8-11.5-3.7 0.5-0.7 5 7 9.4z" fill="#CB8D0C"/>
  <path d="m18.4 44.1 13.2 3.8 9.9 2v-0.8l-10.6-6c-3.8-2.2-14.3-8.5-20-7.7-3.5 0.7-2.2 4.5 7.5 8.7z" fill="#DA9C0C"/>
  <path d="m16.9 50.4c4.7 0.7 14.7 1.5 14.7 1.5l9 0.7 0.3-1-10.5-4.7c-4-1.3-18.3-5-22-3.3-3.7 1.8-0.5 5.3 8.5 6.8z" fill="#CF910C"/>
  <path d="m17.6 56.6c5.5-0.5 14.3-1 14.3-1l8.5-1v-1s-5.5-1.2-10.3-1.7c-4.7-0.5-20-2.5-24.1 0.7-2.4 2.5 1.6 4.5 11.6 4z" fill="#CB8D0C"/>
  <path d="m18.6 62.9 12.8-3.3 9.2-3.2-0.2-1-10 0.5c-4.3 0.2-20.3 0.7-23.5 4.7-2.2 3.3 3 4.4 11.7 2.3z" fill="#D08F0B"/>
  <path d="m21.1 68.6 10.8-5.6 9.7-5.4-0.2-0.5-11 2.8c-4 1.2-17.3 3.5-20.8 8-2.7 4 3.8 4.5 11.5 0.7z" fill="#DF9F0C"/>
  <path d="m24.6 74.4 8.8-6.5 8.6-7.9-0.4-0.6-10.7 4.5c-3.8 1.7-16 7.5-17.8 12.2-1 4.3 5.3 2.5 11.5-1.7z" fill="#D0900B"/>
  <path d="m29.9 78.6 7-8.5 5.7-8-0.6-0.5-8.4 6.3c-3.2 2.5-13.2 10.2-15.2 14.7-1.8 5.3 5.2 3.4 11.5-4z" fill="#DD9D0C"/>
  <path d="m34.7 82.4 4.7-8.3 4.5-10-0.5-0.5-7.8 8.3c-2.5 3.1-11 12.2-11 16.7 0 3.8 5 2.4 10.1-6.2z" fill="#D0900B"/>
  <path d="m40.5 84.6 2.6-8.7 3-10.8-0.7-0.5-5.5 8.5c-2 3.5-8.5 13.8-8.3 18.8 0.5 5 5.3 2.7 8.9-7.3z" fill="#DB9C0C"/>
  <path d="m47 85.4 1.1-10.3 0.5-9.7-0.7-0.3-3.8 7.8c-1.5 3.7-5.2 15-4.7 20.2 0.7 5.3 5.5 5.3 7.6-7.7z" fill="#CF900B"/>
  <path d="m59.3 84.4-2.9-9.4-3.3-9.9-0.7 0.3-0.8 9.7c0.3 3.9 1.8 19.8 5.8 21.3 3.5 1 3.2-5.5 1.9-12z" fill="#D0900B"/>
  <path d="m65.2 82.1-4.8-8.2-5.3-9.3-0.7 0.3 2.5 10c1.2 3.7 5.2 18.5 9.5 19.2 3.5 0.5 2-6.2-1.2-12z" fill="#DB9C0C"/>
  <path d="m70.7 78.8-6.1-7.8-6-7.9-0.7 0.5 4.5 9.3c1.7 3.5 7.5 15.7 11.5 17 3.7 1.1 3.5-3.8-3.2-11.1z" fill="#D0900B"/>
  <path d="m75.2 74.4-7.6-6-7.2-6-0.5 0.6 5.2 8.1c2.3 3 10.3 14.3 14.8 13.9 3.7 0 1.2-4.9-4.7-10.6z" fill="#DE9E0C"/>
  <path d="m78.4 68.8-8.3-4.4-8.5-4-0.5 0.5 6.5 6.2c2.8 2.5 12 11 17.3 11.5 4.2 0.3 2.5-4.5-6.5-9.8z" fill="#CE8F0B"/>
  <path d="m81.1 63-9-2.6-9-2-0.2 0.5 7 5c3.2 2 14.5 8.2 19 7.7 4.2-0.6 2.2-5-7.8-8.6z" fill="#DC9C0C"/>
  <path d="m82.1 56.6-10-0.7-9-0.5v0.7l8 3.3c3.5 1.2 15.5 5 19.8 4.2 4.7-1 3.5-5-8.8-7z" fill="#D0900B"/>
  <path d="m82.1 50.6-10 1-9 0.5v1l9 2.5c3.8 0.8 19.8 2.3 22-0.7 1.5-2.5-2.5-4.8-12-4.3z" fill="#E0A40D"/>
  <path d="m82.1 44.4-10 2.5-9 3 0.3 1 9 0.5c4-0.3 17.2-1 20-4.5 2.2-2.8-1.8-4.8-10.3-2.5z" fill="#CF910C"/>
  <path d="m78.4 38.4-9 4.7-7.8 4.8 0.5 0.7 9-2.5c3.8-1.1 15.5-3.5 18.5-7.2 2.8-3.5-1.5-5.8-11.2-0.5z" fill="#E0A40D"/>
  <path d="m74.9 33.1-7.5 6-7 6.3 0.5 0.6 9-3.6c3.5-1.8 14.5-7 16.7-11 1.8-4-3.5-4.5-11.7 1.7z" fill="#D08F0B"/>
  <path d="m70.6 28.9-6 7.5-5.2 7.2 0.5 0.5 8.2-5.7c3-2.3 12-8.8 13.3-13 1.2-4.3-3.8-4.3-10.8 3.5z" fill="#E0A40D"/>
  <path d="m65 25.5-4.6 8.4-4.3 8.7 0.5 0.5 7.5-7.5c2.5-3 10.8-11.7 10.8-16.5 0-3.7-4.8-2.2-9.9 6.4z" fill="#CE900B"/>
  <path d="m59 23-2.6 9.4-3 10 0.7 0.2 5.5-7.5c2-3.5 8.5-13.7 8.3-19.2-0.3-5-5.3-2.8-8.9 7.1z" fill="#E0A40D"/>
  <path d="m52.6 21.6-1.2 10.5-0.5 10 0.7 0.3 3.8-7.8c1.5-3.7 5.2-15.2 4.6-20.7-0.9-5.3-5.4-4.8-7.4 7.7z" fill="#D5950C"/>
  <path d="m47.6 35.4c0-1.3 0-6.8 2.2-6.8 2.1 0 2.3 4.5 2.1 7.5l-1 8h-2l-1.3-8.7z" fill="#AC6C08"/>
  <path d="m47.4 35.4c-0.4-2.3-1.8-6.3-3.7-6-2.1 0.2-1.7 4.2-0.3 7.7l2.7 7.5 2.3-0.5-1-8.7z" fill="#AD6C08"/>
  <path d="m46.9 44.9-3.5-8c-1-1.9-3.5-5.9-5.3-5.3-2 0.5-1.2 4 1.3 7.5l4.7 6.8 2.8-1z" fill="#AA6A08"/>
  <path d="m43.9 46.4-4.5-5.8c-1.5-2-5-6.2-7.3-5.5-2 0.5-1 4 4 7.8l6.3 4.7 1.5-1.2z" fill="#AB6A08"/>
  <path d="m42.4 48.1-5.8-4.5c-2-1.5-6.5-4.2-8.5-3.2-1.7 1-0.2 3.7 5.8 6.2l7.5 3 1-1.5z" fill="#AE6D08"/>
  <path d="m41 50.6-6.4-2.7c-2.2-1-8-2.8-9.2-1-1 1.5 1.2 3.5 7.2 4.5l8 1 0.4-1.8z" fill="#AF6E08"/>
  <path d="m40.4 53-7.5-1.1c-2.3-0.3-8.5-0.5-8.5 2 0 2 4.2 2.5 8.2 2l7.8-0.9v-2z" fill="#AD6C08"/>
  <path d="m40.6 55.4-8 0.7c-2.2 0.3-7.5 1.5-7.2 3.8 0.2 2 4.2 2 8.5 0.5l7.2-3-0.5-2z" fill="#AA6A08"/>
  <path d="m41.4 57.6-7 2.5c-2 0.9-7 3.5-6.5 5.5s4.5 1.5 9.2-2l5-4-0.7-2z" fill="#A46608"/>
  <path d="m42.4 59.6-5.8 4.3c-2 1.5-6 5.2-4.7 7.2 1.2 1.5 4.5 0 7.2-3.5l4.8-6.2-1.5-1.8z" fill="#A46608"/>
  <path d="m44.1 61.6-4.7 5.8c-1.3 2-3.8 6-2 7.7 1.7 1 4.2-1.7 6-5.7l2.7-6.8-2-1z" fill="#A66708"/>
  <path d="m46.4 62.9-2.5 5.7c-0.8 2-2.5 7.8-0.3 8.8 2 0.5 3.5-2.8 4-7l0.8-7.3-2-0.2z" fill="#A66708"/>
  <path d="m48.6 63.1-1 8.5c0 2.3 0.4 6.8 2.4 6.8s2.4-3.8 1.9-8l-0.8-7.3h-2.5z" fill="#AD6C08"/>
  <path d="m51.6 63.1 0.8 6.8c0.2 2.2 1.7 8 4 8 2-0.3 1.7-4 0-8.5l-3-6.8-1.8 0.5z" fill="#A66708"/>
  <path d="m53.6 62.4 2.8 6.7c1 2 3.5 7 5.7 6.5 2-0.5 0.8-4.5-1.7-8l-4.8-6.2-2 1z" fill="#A46608"/>
  <path d="m55.6 61.4 4.3 5.7c1.5 2 5.2 5.8 7.2 4.8 1.8-0.8 0.3-4-3.2-7l-6.5-5.3-1.8 1.8z" fill="#A46608"/>
  <path d="m57.4 59.4 5.7 4.5c2 1.5 6.5 4 8.3 2.7 1.5-1.2-0.3-4-5.8-6.2l-7-2.8-1.2 1.8z" fill="#A46608"/>
  <path d="m58.6 57.1 6.3 2.5c2.2 0.8 7.7 2.8 9.2 1 1.5-1.5-1.5-4-7.2-4.5l-7.8-0.7-0.5 1.7z" fill="#A66708"/>
  <path d="m59.1 54.6 7.5 1c2.3 0.5 8.3 0.5 8.8-1.5s-3.3-3.1-7.5-2.7l-8.5 1.2-0.3 2z" fill="#AA6A08"/>
  <path d="m59.1 52.4 7.3-1c2.2-0.4 8-1.5 8-3.8 0-2-4-2-8-0.5l-7.3 3v2.3z" fill="#A66708"/>
  <path d="m58.6 50.1 7-2.5c2-1 6.8-3.2 6.5-5.7-0.5-2-4.5-1.5-8.7 1.7l-5.8 4.5 1 2z" fill="#A46608"/>
  <path d="m57.1 48.1 6-4.5c2-1.5 5.5-5.2 4.8-7.6-1-1.9-4.3-0.4-7.5 3.9l-4.5 6.2 1.2 2z" fill="#A46608"/>
  <path d="m55.6 46.4 4.5-5.8c1.3-2 3.8-6.5 2.3-8.6-1.8-1.4-4.3 1.6-6 5.6l-2.8 7.3 2 1.5z" fill="#A66708"/>
  <path d="m53.4 44.9 2.7-6.8c0.8-2 2.3-7.7 0-8.7-2-0.3-3.5 3.5-4 7l-0.7 8 2 0.5z" fill="#A66708"/>
  <path d="m59.4 53.9c0 5-3.8 9.2-9.4 9.2-5.1 0.3-9.6-4.2-9.6-9.2 0-4.8 3.7-9.8 9.2-9.8 5.3-0.2 9.8 4 9.8 9.8z" fill="#fff"/>
  <path d="m58 53.9c0 4-3.4 7.7-8 7.7-3.9 0-7.9-3-7.9-7.5-0.2-4 3-8.2 7.5-8.5 4-0.2 8.3 3 8.4 7.5v0.8z" fill="#B16E08"/>
</svg>