<svg xmlns="http://www.w3.org/2000/svg" viewBox="0 0 150 150">
<!-- SVG created with Arrow, by QuiverAI (https://quiver.ai) -->
  <style type="text/css">.cls-0 {fill:#D63A00;}
.cls-1 {fill:#E84400;}
.cls-2 {fill:#F74C09;}
.cls-3 {fill:#FF5510;}
.cls-4 {fill:#DD3B00;}
.cls-5 {fill:#EA4705;}
.cls-6 {fill:#DB4100;}
.cls-7 {fill:#DEAF12;}</style>
  <path class="cls-0" d="m94.8 25.3c-4.4-5.6-10.7-10.2-19.8-10.2s-14.9 4.1-19.5 10.3c-1.7-0.5-3.3-0.8-5.5-0.8-11.2 0-23 8.6-23.2 21.2l-0.1 12.2h96.3v-12.3c-0.4-12.2-10.1-21.1-22-21.1-2 0-4 0.2-6.2 0.7z"/>
  <path class="cls-0" d="m123.1 45.7c5.5 3.5 10.2 9.8 10.2 18.8 0 3.4-0.9 7.1-2.9 10.8l-11.4 3.9-4.9-20.8 9-12.7z"/>
  <path class="cls-0" d="m123 103.3c0 11.6-8.9 22-22.5 22-1.7 0-3.4-0.2-5.7-0.7l-6-6.9 11.3-18.3 22.9 3.9z"/>
  <path class="cls-0" d="m26.8 103.3c0.3 11.6 8.7 22 22.8 22 1.8 0 3.8-0.1 5.8-0.7l7.9-7.7-13.6-17.5-22.9 3.9z"/>
  <path class="cls-0" d="m55.4 124.6c3.8 5.5 10 10.3 19.8 10.3 8 0 15.2-3.7 19.6-10.3l-7.4-7.7h-24.1l-7.9 7.7z"/>
  <path class="cls-1" d="m122.9 45.7c1.5 7.7-0.8 13.6-4.5 19.7 6.7 2.5 14.9 8.5 14.9 20.3 0 10.9-8.7 21-21.5 21-1.5 0-3-0.2-5.3-0.6v-6.7l3.3-41.8 13.1-11.9z"/>
  <path class="cls-1" d="m26.8 45.7c0-11.3 9.6-21.1 22.8-21.1 1.8 0 3.8 0.2 5.9 0.8l4.9 6.3-10.8 16-22.8-2z"/>
  <path class="cls-1" d="m19.8 75.2c-1.7 2.9-2.9 6.2-2.9 10.5 0 10.9 8.6 21 21.2 21 1.8 0 3.5-0.2 5.3-0.5l4.4-6.8-9.2-22.2-18.8-2z"/>
  <path class="cls-0" d="m18.4 78.1c3.5 4.3 9.5 8.5 15.2 9.5v-1.2c-5.5-2.3-10.2-5.8-13.6-11.2l-1.6 2.9z"/>
  <path class="cls-2" d="m36.7 76.5c-1.8 2.9-3.1 6.6-3.1 10.4 0 10.5 7.8 19.3 20.5 19.3 5.5 0 10.8-1.6 14.8-4.8l-2-17.5-19.5-1.5-10.7-5.9z"/>
  <path class="cls-2" d="m43.4 43.5c-0.5-8.6 6.5-18.4 18.2-18.4 4.5 0 9.3 1.8 13.4 5.8v16.8l-20.1-4.3-11.5 0.1z"/>
  <path class="cls-2" d="m75.2 30.9c3.9-3.3 7.9-5.8 13.7-5.8 8 0 17.6 6.6 17.6 17.3v9.3l-19.6-4h-11.9l0.2-16.8z"/>
  <path class="cls-1" d="m43.4 43.5c-1.5-0.4-3-0.6-5.3-0.6-10.5 0-21.2 8.5-21.2 21.5 0 9.7 6.5 18.2 16.7 22l4.5-9.2 7.3-11.3-2-22.4z"/>
  <path class="cls-3" d="m54.6 43.4c-10.5 0-21 7.5-21 20 0 7.7 5.8 16.5 14.3 19.7l7-2.5 5.5-14.7-3.5-22.5h-2.3z"/>
  <path class="cls-3" d="m75 31.1c-10.9 0-20.2 9.5-20.2 21.3 0 1.7 0.3 3.7 0.6 5.2l11.5 2.8 13-10 13.2-8.5c-2.7-5.3-8.7-10.8-18.1-10.8z"/>
  <path class="cls-2" d="m79.9 47.1c3.5-2.7 8-4.7 13.2-5.2l4.3 6.5-10.5 12-7-13.3z"/>
  <path class="cls-3" d="m79.9 47.7c3.5-2.3 8-4.3 16.2-4.3 10 0 20.4 7 20.4 20 0 3.5-1.1 7-2.9 10.2h-13.2l-10-13.2-10.5-12.7z"/>
  <path class="cls-1" d="m96.1 106.4c10.4 0 20.4-7 20.4-19.5 0-9-7.1-17.8-15.4-20.3l-8 3.8-2.7 20 5.7 16z"/>
  <path class="cls-1" d="m76.4 119.9c3 2.5 7 4.7 12.5 4.7 9.5 0 17.6-7.2 17.6-17.7l-0.1-2.3-13.3-4.2-16.7 11.5v8z"/>
  <path class="cls-2" d="m56.6 107.9c2.5 6 9.3 12.2 18.4 12.2 11.9 0 20.9-10.2 20.9-22.2 0-2-0.3-4-0.8-6l-14.7-1.5-13.5 7.5-10.3 10z"/>
  <path class="cls-2" d="m43.4 106.1c0 10.3 7.2 18.5 18.2 18.6 5 0 9.5-1.8 12-4.6l-6.7-14h-12-11.5z"/>
  <path class="cls-1" d="m53.5 56.6 1.4-13.2h-0.3c-1 3-1.5 6-1.5 9 0 1.2 0.1 3 0.4 4.2z"/>
  <path class="cls-4" d="m86.6 54.4c-1.5-4-5.5-8.8-11.6-8.8s-12.4 4.5-12.4 13c0 3 1.3 6.3 3.3 9.3l15.5 5.7 17.7 1.6c2-2.1 2.9-4.8 2.9-8.3 0-6.3-5.1-12.7-12.9-12.7-0.7 0-1.7 0-2.5 0.2z"/>
  <path class="cls-5" d="m63.1 54.4c-0.7 0-1.5-0.2-2.2-0.2-5.8 0-13 4.2-13 12.7 0 3 1.2 6 3 8.3-1.8 2.2-3 4.9-3 7.9 0.5 6.8 5.5 12.3 13 12.3 1 0 1.7 0 2.5-0.3l3.5-11.2 3-10.3-6.8-19.2z"/>
  <path class="cls-5" d="m86.6 95.1c0.8 0.1 1.8 0.3 2.8 0.3 6.2 0 12.6-4.8 12.6-12.3 0-6.5-5.1-12.7-12.9-12.9-1 0-2 0.2-3 0.4l-6.2 4.6v8.7l6.7 11.2z"/>
  <path class="cls-6" d="m63.4 95.1c1.5 4.5 5.5 8.5 11.6 8.5s12.4-4.2 12.4-12.5c0-3.7-2-7.5-5-10l-7.4-1.9-8.1 3.9c-2.3 2-4.3 5-4.3 8 0 1.3 0.3 2.8 0.8 4z"/>
  <path class="cls-1" d="m56.5 107.7c5.1-0.1 10.1-2.3 12.9-5.1l-1.8-1.2c-3.2 2.5-8 4.7-13.5 4.8l2.4 1.5z"/>
  <path class="cls-1" d="m48.1 85.1c-5.2-2-8.7-5-11.4-8.6l0.2-1.6c3 4 6.5 6.7 11 8.2l0.2 2z"/>
  <path class="cls-1" d="m81.6 47.7 0.3 1.4c3.5-3.2 8.5-5.7 14.2-5.7l-3-1.5c-4.5 0.5-8.5 2.2-11.5 4.5v1.3z"/>
  <path class="cls-1" d="m101.9 64.9 0.1 2c4.4 1.5 9.4 5.5 11.6 8.3l1-1.6c-2.7-3.7-8-7.7-12.7-8.7z"/>
  <path class="cls-1" d="m96.9 92.9-1.5 1c0.2 1.2 0.4 2.7 0.4 4 0 3-0.7 6-1.7 8.5h1.8c1-2.8 1.5-5.5 1.5-8.5 0-1.8-0.3-3.5-0.5-5z"/>
  <circle class="cls-7" cx="75" cy="63.4" r="1.6"/>
  <circle class="cls-7" cx="75" cy="67.1" r="1.1"/>
  <circle class="cls-7" cx="70.6" cy="64.9" r="1.1"/>
  <circle class="cls-7" cx="78.9" cy="64.9" r="1.1"/>
  <ellipse class="cls-7" cx="66.7" cy="66.8" rx="1.6" ry="1.6"/>
  <circle class="cls-7" cx="64.9" cy="70.8" r="1.1"/>
  <circle class="cls-7" cx="63.3" cy="75.1" r="1.6"/>
  <circle class="cls-7" cx="67.1" cy="75.1" r="1.1"/>
  <circle class="cls-7" cx="65" cy="79.3" r="1.1"/>
  <circle class="cls-7" cx="66.8" cy="83.3" r="1.6"/>
  <circle class="cls-7" cx="70.7" cy="85.1" r="1.1"/>
  <circle class="cls-7" cx="75" cy="86.7" r="1.6"/>
  <circle class="cls-7" cx="79" cy="85.1" r="1.1"/>
  <circle class="cls-7" cx="82.9" cy="83.3" r="1.6"/>
  <circle class="cls-7" cx="84.8" cy="79.2" r="1.1"/>
  <circle class="cls-7" cx="86.6" cy="75.1" r="1.6"/>
  <circle class="cls-7" cx="82.7" cy="75.1" r="1.1"/>
  <circle class="cls-7" cx="84.8" cy="70.8" r="1.1"/>
  <circle class="cls-7" cx="82.9" cy="66.8" r="1.6"/>
  <path class="cls-7" d="m72.9 67.6 0.6 1.8c0.4 0.7 0 1.7-0.9 1.8-0.7 0.2-1.5-0.3-1.7-1.1l-0.7-1.5c-0.3-0.7 0.2-1.7 1-1.8 0.7-0.2 1.4 0.3 1.7 0.8z"/>
  <path class="cls-7" d="m68.4 70.5 1.7 0.7c0.8 0.4 1.3 1.2 0.8 1.9-0.3 0.8-1.3 1-1.8 0.5l-1.7-0.7c-0.8-0.3-1-1.2-0.7-1.8 0.4-0.6 1-0.9 1.7-0.6z"/>
  <path class="cls-7" d="m67.6 77.1 1.5-0.6c0.8-0.4 1.6-0.1 2 0.6 0.3 0.8 0 1.5-0.7 1.8l-1.8 0.7c-0.7 0.3-1.5 0-1.9-0.7-0.1-0.8 0.2-1.5 0.9-1.8z"/>
  <path class="cls-7" d="m70.3 81.4 0.8-1.8c0.3-0.7 1-1 1.8-0.7 0.7 0.3 1 1.2 0.7 1.7l-0.7 1.8c-0.3 0.7-1.2 1-1.8 0.7-0.7-0.2-1-1-0.8-1.7z"/>
  <path class="cls-7" d="m76.9 80.9 0.2-0.8c0.3-0.7 1-1.5 1.8-1 0.5 0.3 0.7 0.8 1 1.5l0.2 0.5c0.3 0.8 0 1.8-1 2-0.7 0.3-1.5 0-1.7-0.7l-0.5-1s-0.3-0.5 0-0.5z"/>
  <path class="cls-7" d="m79.6 78.4c-0.5-0.8-0.7-1.8 0.5-2 0.8-0.3 1.8 0.2 2.3 0.5 0.7 0.2 1.2 1 0.7 2s-1.5 0.7-2 0.5l-1.5-0.8c0.3 0 0-0.2 0-0.2z"/>
  <path class="cls-7" d="m79.9 71.4 1.5-0.8c0.7-0.4 1.5-0.5 2 0.3 0.5 0.7 0 1.7-0.8 2l-1.7 0.7c-0.8 0.3-1.5 0-1.8-0.7-0.2-0.5 0-1.2 0.8-1.5z"/>
  <path class="cls-7" d="m76.4 69.4 0.7-1.8c0.3-0.7 1-1.2 1.8-0.8 0.7 0.3 0.7 1.1 0.5 1.8l-0.8 1.8c-0.2 0.7-1 1-1.7 0.7-0.5-0.2-0.8-1-0.5-1.7z"/>
  <circle class="cls-7" cx="75" cy="72.4" r="1.6"/>
  <circle class="cls-7" cx="72.3" cy="75.1" r="1.6"/>
  <circle class="cls-7" cx="75" cy="77.7" r="1.6"/>
  <circle class="cls-7" cx="77.6" cy="75.1" r="1.6"/>
  <circle class="cls-7" cx="75" cy="82.9" r="1.1"/>
</svg>