<svg xmlns="http://www.w3.org/2000/svg" viewBox="0 0 150 149.8">
<!-- SVG created with Arrow, by QuiverAI (https://quiver.ai) -->
  <style type="text/css">.cls-0 {fill:#D63A0C;}
.cls-1 {fill:#E74B14;}
.cls-2 {fill:#FF6315;}
.cls-3 {fill:#DD4914;}
.cls-4 {fill:#FC6315;}</style>
  <polygon class="cls-0" points="74.2 6.3 71.1 10.3 68.6 6.9 67.4 11.2 63.9 7.5 61.4 12.4 56.5 9.3 55.3 14.5 50.4 10.6 51.2 19.6 46.6 13.4 46.4 18.9 40.7 15.3 40.4 20.8 35.2 18.4 35.6 23.9 30.1 22.1 30.9 27.7 25.5 26.7 26.2 31.8 22.2 30.9 24.2 34.9 19.1 34.6 20.8 39.6 15.2 40.7 18 44.9 11.7 45.4 18.6 51.6 11.3 50.5 14.9 54.9 8.7 56.3 12 60.7 6.9 62.7 10.7 66.5 6 69 10.2 72.5 6.1 75.7 10.3 78.9 6.6 81.2 10.8 82.7 7.2 86.3 12.1 88.8 9.1 93.6 14.3 94.5 10.5 99.5 18.8 98.5 13.6 102.9 18.9 103.3 15.3 109.2 20.7 109.5 18.4 114.9 23.9 114.6 22.2 119.6 28.1 118.6 27.5 124.1 33.6 123.4 32.3 128.9 37.3 126.6 37.3 132.6 42.5 130.2 42.3 133.9 45.9 131.5 46.4 137.7 52.5 131.4 51.6 138 55.7 134.8 57.2 140.9 61.3 137.3 63.3 142.7 66.9 138.5 69.3 143.5 72.7 138.8 76.1 143.1 79.6 138.5 82.4 142.9 84.4 138 88.8 142.2 91.1 136.7 94.1 139.4 94.6 135.2 99.6 138.9 99.1 130.7 103.3 136 103.8 130.9 109.2 134.3 109.5 128.8 114.9 131.3 114.6 125.5 119.7 127.3 118.7 121.5 124.5 122 123.6 116.2 129.3 117.4 127.1 112.8 133.3 112.7 131 106.9 134.4 107.2 132.1 103.6 138.3 103.1 131.6 96.9 138.4 98.1 135.1 94 141.1 92.9 137.7 88.8 143.1 86.7 139 83.2 144 80.8 139.6 77.4 143.9 74.4 139.6 71 143.4 68.6 139.1 67 142.9 63.5 137.9 60.8 140.9 55.6 135.8 54.5 139.5 49.3 131.2 50.2 136.7 45.7 131.4 45.4 135.1 40.5 129.5 40 131.9 35.3 126.3 35.4 128.1 30.3 122.3 31.1 123.2 25.7 118.1 26.4 118.9 22.3 115.2 24.5 115.5 19.2 110.1 21 108.6 15.3 104.1 18.2 103.5 12.1 97.7 19 98.8 11.6 94.8 15.3 93.3 9 89.2 12.6 87 7.3 83.3 11.2 80.6 6.3 77.4 10.7"/>
  <path class="cls-1" d="m69.7 19.6-2.1 3.9-3.4-3.4-1.2 3.8-2.6-2.6v3.4l-3.9-3.1-0.3 7.8-3.1-4.2-0.2 3.3-5.2-3.1 0.5 3.7-3.3-1.6-0.5 5.2-5.2-0.9 1.1 4.3-5.3-1.5 1.3 4.4-5-0.6 1.8 4.5-5.2-0.4 1.7 3.9-3.7-0.2 3.2 4.9-5.3 1.1 2.8 3-8-3.3 10.5 4.6 12.9 6.3-4.8-3.8 4.5-0.3-2.3-3.3 4.1-0.7-1.1-3.7 3.7 0.1-0.7-1.4-14.1-11.3 14.1 11.6h1.3l-0.6-1.5 0.9 0.5-0.6-3.6 4 0.7-0.6-3.3 3.8 1.1v-3.4l3.9 2.1v-3.6l3 3.6-1.2-5.5 3.4 2.3 0.5-3.2 3.3 2.2 1.5-3.1 2.4 2.3 0.9-2.5 1.5 2"/>
  <path class="cls-1" d="m111.6 30.9 7.3-8.6-7.7 8.8-11.6 13.8-1.1 0.2 0.1-3.2-3.3 1 7.7-10.3 2-5.4-3.6 2.4-0.3-4.9-3.2 2.6-1-4.3-3 2.6-1-4.1-3.1 2.8-1.6-3.9-2.8 2.5-1.2-3.1-1.7 3.1-1.9-3.8-2.7 3.4-2.7-3.5-2.1 3.7-2.7-3.9 1 16.3 1.4 2 2.1-2.7 2.1 3 2.2-2.8 1.6 3.4 2.7-2.5 1.3 4.1 2.7-2.5-0.3 4.4 3.7-4.4 0.3 4 3-2 1 3.8 1.2-0.4 6.6-9.9"/>
  <polyline class="cls-1" points="127.1 69.9 143.4 68.5 139 67 139.1 67 142.9 63.5 137.9 60.8 140.9 55.6 135.8 54.5 139.5 49.3 131.2 50.2 122.3 54.2 121.9 55.4 129.7 56.7 125.7 61.2 130.6 62.4 126.7 65.5 132.2 67.4"/>
  <polygon class="cls-1" points="122.3 93.1 131.6 96.9 138.4 98.1 135.1 94 141.1 92.9 137.7 88.8 143.1 86.9 139 83.2 144 80.8 139.6 77.4 143.9 74.4 139.6 71.2 139.6 71 143.4 68.6 127.1 69.9 131 70.2 128.7 71.4 132.6 73.8 128.2 76.7 132.8 79.7 127.8 82.1 132.1 85.6 126.6 87.8 130.2 90.7"/>
  <polygon class="cls-1" points="94.8 121.5 99.1 130.7 103.3 136 103.8 130.9 109.2 134.3 109.5 128.8 114.9 131.3 114.6 125.5 119.7 127.3 118.7 121.5 124.5 122 123.6 116.2 129.3 117.4 115.8 108.8 115.8 109.1 117.1 113.4 110.3 113.2 111.7 118.9 106.2 117.4 106.6 123 101.8 120.9 101.9 125.7"/>
  <polygon class="cls-1" points="56.6 121.5 52.5 131.4 46.4 137.7 45.9 131.5 42.3 133.9 42.5 130.2 37.3 132.6 37.3 126.6 32.3 128.9 39.8 118.5 40.1 119.1 44.1 117 44.6 122.7 49.8 120.2 51.4 126.2"/>
  <polygon class="cls-1" points="39.8 117 32.3 126.6 33.6 123.4 27.5 124.1 28 118.6 22.2 119.6 23.9 114.6 18.4 114.9 20.7 109.5 15.3 109.2 18.9 103.3 13.6 102.9 18.8 98.5 27.9 94.5 28.4 93.8 22.2 99.9 28 99.8 25.8 105 31.8 105.4 30.3 111 36.7 110 36.1 116.7 40.7 115.5"/>
  <path class="cls-3" d="m79 127.9 2.2 13-1.6-2.4-3.5 4.6-3.4-4.3-3.4 4.7-2.4-5-3.6 4.2-2-5.4-4.1 3.6-1.5-6.1-4.1 3.2 0.9-6.6 4.1-9.9 1.1-1"/>
  <path class="cls-3" d="m77.9 112.5 2 15.6 1.2 3.8 1.8-5.2 4.5 3.9 2-5.6 5.1 2.9s0.4-6.4 0-6.4l-4.1-8.1-3.5-2.9-0.7 3.6-2.6-2.4-1.6 3-1.6-2-1.2 2.8"/>
  <polygon class="cls-3" points="51.4 103.6 40.1 117 39.4 119.1 44.1 117 44.6 122.7 49.8 120.2 51.4 126.2 56.6 121.5 57.5 120.9 62.5 108.8 58.9 113 58.8 108 55.5 110.2 55.6 106.6 51.8 107.8 52.1 105.1 50.1 106.6"/>
  <polygon class="cls-3" points="18.4 80 6.6 81.2 10.8 82.7 7.2 86.3 12.1 88.8 9.1 93.6 14.3 94.5 10.5 99.5 18.8 98.5 27.9 94.5 21 94.1 24.8 89.8 20 88.9 23.6 85.6 18.2 83.9 22.5 81.2"/>
  <polygon class="cls-3" points="31.3 38.4 22.2 30.9 24.2 34.9 19.1 34.6 20.8 39.6 15.2 40.7 18 44.9 11.7 45.4 18.6 51.6 26.6 55.2 23.8 52.2 29.1 51.1 25.9 46.2 29.6 46.4 27.9 42.5 33.1 42.9"/>
  <polygon class="cls-3" points="56.2 29.4 51.2 19.6 55.3 25.6 56.5 29.4"/>
  <polygon class="cls-3" points="69.7 19.6 68.6 6.9 71.1 10.3 74.2 6.3 72.8 10.7"/>
  <polygon class="cls-3" points="96.9 23 98.8 19 97.7 19"/>
  <polygon class="cls-3" points="103.5 31.9 107.2 28.7 107.1 28.7 107.1 28.7 107.2 28.7 107.2 28.7 107.2 28.7 107.2 28.7 107.2 28.7 107.2 28.7 107.2 28.7 107.2 28.7 107.2 28.7 107.2 28.7 107.2 28.7 107.2 28.7 107.2 28.7 107.2 28.7 107.2 28.7 107.2 28.7 107.2 28.7 107.2 28.7 107.2 28.7 107.2 28.7 107.2 28.7 107.2 28.7 107.2 28.7 107.2 28.7 107.2 28.7 107.2 28.7 107.2 28.7 107.2 28.7 107.2 28.7 107.2 28.7 107.2 28.7 107.2 28.7 107.2 28.7 107.2 28.7 107.2 28.7 107.2 28.7 107.2 28.7 107.2 28.7 107.2 28.7 107.2 28.7 107.2 28.7 107.2 28.7 107.2 28.7 107.2 28.7 107.2 28.7 107.2 28.7 107.2 28.7 107.2 28.7 107.2 28.7 107.2 28.7 107.2 28.7 107.2 28.7 107.2 28.7 107.2 28.7 107.2 28.7 107.2 28.7 107.2 28.7 107.2 28.7 107.2 28.7 107.2 28.7 107.2 28.7 107.2 28.7 107.2 28.7 107.2 28.7 107.2 28.7 107.2 28.7 107.2 28.7 107.2 28.7 107.2 28.7 107.2 28.7 107.2 28.7 107.2 28.7 107.2 28.7 107.2 28.7 107.2 28.7 107.2 28.7 107.2 28.7 107.2 28.7 107.2 28.7 107.2 28.7 107.2 28.7 107.2 28.7 107.2 28.7 107.2 28.7 107.2 28.7 107.2 28.7 107.2 28.7 107.2 28.7 107.2 28.7 107.2 28.7 107.2 28.7 107.2 28.7 107.2 28.7 107.2 28.7 107.2 28.7 107.2 28.7 107.2 28.7 107.2 28.7 107.2 28.7 107.2 28.7 107.2 28.7 107.2 28.7 107.2 28.7 107.2 28.7 107.2 28.7 107.2 28.7 107.2 28.7 107.2 28.7 107.2 28.7 107.2 28.7 107.2 28.7 107.2 28.7 107.2 28.7 107.2 28.7 107.2 28.7 107.2 28.7 107.2 28.7 107.2 28.7 107.2 28.7 107.2 28.7 107.2 28.7 107.2 28.7 107.2 28.7 107.2 28.7 107.2 28.7 107.2 28.7 107.2 28.7 107.2 28.7 107.2 28.7 107.2 28.7 107.2 28.7 107.2 28.7 107.2 28.7 107.2 28.7 107.2 28.7 107.2 28.7 107.2 28.7 107.2 28.7 107.2 28.7 107.2 28.7 107.2 28.7 107.2 28.7 107.2 28.7 107.2 28.7 107.2 28.7 107.2 28.7 107.2 28.7 107.2 28.7 107.2 28.7 107.2 28.7 107.2 28.7 107.2 28.7 107.2 28.7 107.2 28.7 107.2 28.7 107.2 28.7 107.2 28.7 107.2 28.7 107.2 28.7 107.2 28.7 107.2 28.7 107.2 28.7 107.2 28.7 107.2 28.7 107.2 28.7 107.2 28.7 107.2 28.7 107.2 28.7 107.2 28.7 107.2 28.7 107.2 28.7 107.2 28.7 107.2 28.7 107.2 28.7 107.2 28.7 107.2 28.7 107.2 28.7 107.2 28.7 107.2 28.7 107.2 28.7 107.2 28.7 107.2 28.7 107.2 28.7 107.2 28.7 107.2 28.7 107.2 28.7 107.2 28.7 107.2 28.7 107.2 28.7 107.2 28.7 107.2 28.7 107.2 28.7 107.2 28.7 107.2 28.7 107.2 28.7 107.2 28.7 107.2 28.7 107.2 28.7 107.2 28.7 107.2 28.7 107.2 28.7 107.2 28.7 107.2 28.7 107.2 28.7 107.2 28.7 107.2 28.7 107.2 28.7 107.2 28.7 107.2 28.7 107.2 28.7 107.2 28.7 107.2 28.7 107.2 28.7 107.2 28.7 107.2 28.7 107.2 28.7 107.2 28.7 107.2 28.7 107.2 28.7 107.2 28.7 107.2 28.7 107.2 28.7 107.2 28.7 107.2 28.7 107.2 28.7 107.2 28.7 107.2 28.7 107.2 28.7 107.2 28.7 107.2 28.7 107.2 28.7 107.2 28.7 107.2 28.7 107.2 28.7 107.2 28.7 107.2 28.7 107.2 28.7 107.2 28.7 107.2 28.7 107.2 28.7 107.2 28.7 107.2 28.7 107.2 28.7 107.2 28.7 107.2 28.7 107.2 28.7 107.2 28.7 107.2 28.7 107.2 28.7 107.2 28.7 107.2 28.7 107.2 28.7 107.2 28.7 107.2 28.7 107.2 28.7 107.2 28.7 107.2 28.7 107.2 28.7 107.2 28.7 107.2 28.7 107.2 28.7 107.2 28.7 107.2 28.7 107.2 28.7 107.2 28.7 107.2 28.7 107.2 28.7 107.2 28.7 107.2 28.7 107.2 28.7 107.2 28.7 107.2 28.7 107.2 28.7 107.2 28.7 107.2 28.7 107.2 28.7 107.2 28.7 107.2 28.7 107.2 28.7 107.2 28.7 107.2 28.7 107.2 28.7 107.2 28.7 107.2 28.7 107.2 28.7 107.2 28.7 107.2 28.7 107.2 28.7 107.2 28.7 107.2 28.7 107.2 28.7 107.2 28.7 107.2 28.7 107.2 28.7 107.2 28.7 107.2 28.7 107.2 28.7 107.2 28.7 107.2 28.7 107.2 28.7 107.2 28.7 107.2 28.7 107.2 28.7 107.2 28.7 107.2 28.7 107.2 28.7 107.2 28.7 107.2 28.7 107.2 28.7 107.2 28.7 107.2 28.7 107.2 28.7 107.2 28.7 107.2 28.7 107.2 28.7 107.2 28.7 107.2 28.7 107.2 28.7 107.2 28.7 107.2 28.7 107.2 28.7 107.2 28.7 107.2 28.7 107.2 28.7 107.2 28.7"/>
  <polygon class="cls-3" points="122.3 54.2 136.7 45.7 131.4 45.4 135.1 40.5 129.5 40 131.9 35.3 126.3 35.4 128.1 30.3 122.3 31.1 123.2 25.7 118.1 26.4 118.9 22.3 111.6 30.9 111.6 31.4 106.1 33.1 107.2 28.7 103.5 31.4 103 32.6 96.4 42.5 98.6 41.9 98.5 45.1 99.6 44.9 111.6 31.4 110.4 36.4 115.3 35.1 114.4 39.8 119.1 39.1 118 43.7 123.8 44.3 121.8 49 126.4 49"/>
  <polygon class="cls-3" points="111.9 60 122.3 55.4 129.7 56.7 125.7 61.2 130.6 62.4 126.7 65.5 132.2 67.4 127.1 69.9 112.6 71.5 115.9 69.2 111.1 66.9 114.2 62.8 109.6 62.4"/>
  <polygon class="cls-3" points="109.2 87.1 121.6 93.1 126.7 97.9 120.5 99.6 123.1 104.9 117.1 105.4 119.7 110.2 115.8 109.1 104.4 100 106.4 99.4 104.6 97.2 107.9 97.6 106.4 93.8 110 94 108.1 90.7 112.9 90.7"/>
  <path class="cls-4" d="m74.9 75.1-15.4-13.2-6.1-5.5 2.3 0.1-0.7-2.6 3.2 0.5-0.5-3.2 3 1.2-0.2-3.1 3.4 1.9 0.3-3.1 3 5"/>
  <path class="cls-4" d="m74.9 75.1-15.7 1.3-13.1 0.3 2.1-1.1-2.5-1.4 2.8-1.5-2.6-1.7 3.1-1.3-2.4-2 3.9-0.8-2.3-2.4 5.7 1.5"/>
  <path class="cls-4" d="m74.9 75.1-20.8 7.6-5.5 3.1 3.3 0.2-1.9 3.4 3-0.3-1.1 2.6 3.1-0.3-0.5 3 2.5-0.6-0.4 2.2 10-10.4"/>
  <path class="cls-4" d="m74.9 75.1-7.5 18-2.7 8 2.2-2.2 1 4 1.8-2.4 1 3.1 1.9-2.7 1.5 3 1.4-2.5 1.2 2.2-0.6-15.2"/>
  <path class="cls-4" d="m75.1 75.1 7.1 19.4 3.5 6.4 0.4-3.4 3.3 2.1v-3.1l2.7 1-0.4-3 3.1 0.6-0.7-2.6 2.3 0.4-11-10"/>
  <path class="cls-4" d="m75.1 75.1 19.5-7.7 6.6-3.4-3.3-0.1 2-3.4h-3l1.2-3-3 0.5 0.6-3.3-2.7 0.7 0.4-2.5-9.3 10.5"/>
  <path class="cls-2" d="m75.1 75.1 12.6-1.3 16.1-0.7-2.2 1.3 2.4 1.3-2.6 1.5 2.4 1.8-2.8 1.2 2.1 1.7-3.7 0.8 2.2 2.3-5.1-1.4"/>
  <path class="cls-2" d="m75.1 75.1-1.5-14-0.5-15.7 1.1 2 1.5-2.4 1.5 2.5 1.6-2.4 1.1 2.9 1.8-2.3 1.2 3.9 2-2.1-1.3 4.4"/>
  <path class="cls-2" d="m77.4 112.5-2.2 3-2.4-2.8-2.5 3-1.5-3.6-2.7 2.6-1.1-4.3-2.8 2.3 0.7-4.9-4 5.2-2 6.1-0.3 2.9 1.8 7.7 3.2-3.5 2.1 5.2 3.5-4.5 2.5 5.3 3.4-5.5 4.3 5 1.6-3.8 1.1 1.8"/>
  <path class="cls-2" d="m90.4 113.4-0.6-5.3 2.6 3.1 0.1-3.8 3.7 2.2v-4.2l3.7 1.7-0.7-4.4 3.9 0.4-0.5-4.7 1.8 0.5 11.4 9.1 1.3 5.4-6.8-0.2 1.4 5.7-5.5-1.5 0.4 5.6-4.8-2.1 0.1 4.8-7.4-4.2"/>
  <path class="cls-2" d="m36.7 90-8.3 3.6-4.8 6.3 4.4-0.1-2.2 5.2 6 0.4-1.5 5.6 6.4-1-0.6 6.7 4.6-1.2-1.3 3.6 12-15.5v-1.1l-4.7 0.4 0.1-4-4 0.6 1.4-3.8-4.1 0.1 2.4-3.7-3.9-0.2 2.1-2"/>
  <path class="cls-2" d="m28.7 56.4-5.5-0.5 1.3 2.2-5.1 1.4 3.5 4-5 1.9 4 3.6-4.7 2.5 4.4 3.1-3.9 3 3.3 1.4-2.6 1 19.2-1.9-3.4-1.1 3-0.6-3-2 3.3-1.9-3-2.5 3.6-1.4-2.6-2.7 4.2-0.9-2.5-2.6 4.8 0.4"/>
  <path class="cls-2" d="m56.5 29.4-3.4-4.2-0.2 3.3-5.2-3.1 0.5 3.7-3.3-1.6-0.5 5.2-5.2-0.9 1.1 4.3-5.3-1.5 1.3 4.4-5-0.6 14.1 11.6 0.7-0.3 0.3 1.4-4-0.1 1.1 3.7-4.1 0.7 2.3 3.3-4.5 0.3 4.8 3.8-5.3-2.3"/>
  <path class="cls-2" d="m70.9 34.9 0.5-16.1 1.7 3.9 2.1-3.7 2.7 3.5 2.7-3.4 1.9 3.8 1.7-3.1 1.2 3.1 2.8-2.5 1.6 3.9 3.1-2.8 1 4.1 3-2.6 1 4.3 3.2-2.6 0.3 4.9 3.2-2.4-1.6 5.4-7.3 10.3h-0.5l-1-3.8-3 2-0.3-4-3.7 4.4 0.3-4.4-2.7 2.5-1.3-4.1-2.7 2.5-1.6-3.4-2.3 2.8-2-3-2.1 2.7"/>
  <path class="cls-2" d="m111.6 31.4-1.2 5 4.9-1.3-0.9 4.7 4.7-0.7-1.1 4.6 5.8 0.6-2 4.7h4.6l-4.5 6.4-10 4.6 1-1.5-4.4 1.1 2.9-2.4-4.2 0.2 2.4-4.3h-3.9l1.3-4-3.8 0.6 0.6-3.6-3.3 0.1 0.7-2.3-2.6 1.2 1-0.2"/>
  <path class="cls-2" d="m121.6 93.1 8.6-2.4-3.6-2.9 5.5-2.2-4.3-3.5 5-2.4-4.6-3 4.4-2.9-3.9-2.4 2.3-1.2-3.9-0.3-14.5 1.6 3.3 1.4-3 0.6 3 2.4-3.4 1.7 3.2 2.4-4 1.4 2.9 2.6-4.7 0.9 3 2.9-5.2-1.1 5.2 4h-4.8l1.9 3.3-3.6-0.2 1.5 3.8-3.3-0.4 1.8 2.2"/>
  <path class="cls-2" d="m37.6 78.1-3.4 2.4 4.2 2-2.5 3.9 4 0.6-2.8 3.4 3.6-0.4-2.1 1.9 3.9 0.2-2.4 3.7 4.1-0.1-1.4 3.8 4-0.6-0.1 4 4.7-0.4-1.3 4.1 2-1.5-0.3 2.7 3.8-1.2-0.1 3.6 3.3-2.2 0.1 5 4-5.2"/>
</svg>