<svg xmlns="http://www.w3.org/2000/svg" viewBox="0 0 100 96">
<!-- SVG created with Arrow, by QuiverAI (https://quiver.ai) -->
  <style type="text/css">.cls-0 {opacity:0.1;fill:#E8B415;}
.cls-1 {fill:#E7AF0D;}
.cls-2 {fill:#DBA30C;}
.cls-3 {fill:#D49F0C;}</style>
  <path class="cls-0" d="m50 2c-4.9 0-6.8 4.3-6.8 11.6 0 7.4 2.5 16.4 4.7 19.4h4.1c2-0.1 4.9-9.1 5.4-15.2s-0.3-15.8-7.4-15.8z"/>
  <path class="cls-0" d="m26.4 9c-3.9 2.8-2.8 7.4 0.6 13.3 3.5 6.1 9.1 11.2 11.9 12.7l4.6-3c1.2-1.6-1.1-10.2-4.5-16.3-3.4-5.9-7.4-10.2-12.6-6.7z"/>
  <path class="cls-0" d="m10.2 25.4c-2.6 4.6 0.4 8.3 6.4 11.5 6.2 3.3 13.7 5.1 16.8 4.9l1.5-4.8c0.2-2-6-8.1-11.8-11.6-5.8-3.4-10.8-4.7-12.9 0z"/>
  <path class="cls-0" d="m4.1 48c0 4.9 3.9 6.9 10.6 6.9 6.7 0.1 14.2-1.8 16.8-3.3v-6.5c-1.6-1.8-8.6-4-16.2-4-6.3 0-11.2 1.5-11.2 6.9z"/>
  <path class="cls-0" d="m10.4 69.9c2.2 4.4 6.4 5.2 12.6 2.5 6.2-2.9 12.3-8.8 13.6-11.3l-3.8-6.6c-2.2-0.6-9.7 1.1-15.7 4.2-5.7 3.1-9.2 6.9-6.7 11.2z"/>
  <path class="cls-0" d="m26.4 87.1c4.1 2.9 8.1 1.9 11.5-2.8 4.1-5.5 6.5-13.4 6.2-16.4l-7.5-4.4c-2 0.8-7.3 6.6-10.4 12.1-2.8 5.4-3.6 9.3 0.2 11.5z"/>
  <path class="cls-0" d="m50 93.6c4.9 0 6.8-3.4 6.8-10.9 0-7.4-2.5-14.7-4.7-17.7h-5.1c-2 2-3.8 8.8-3.8 17.2 0 6.3 1.9 11.4 6.8 11.4z"/>
  <path class="cls-0" d="m73.6 87.6c4.3-2.3 3.6-6.8 0.2-12.7-3.5-6-9.1-11.5-11.9-13l-5.8 3.2c0 3 1.9 10.4 5.3 15.9s7.2 8.9 12.2 6.6z"/>
  <path class="cls-0" d="m89.6 70.6c2.3-4.2-0.5-8.1-6.2-11.4-5.8-3.3-12.3-5.1-15.4-4.9l-2.4 7.8c1.5 2 6.4 6.4 11 9 5.8 3 10.8 4 13-0.5z"/>
  <path class="cls-0" d="m95.9 48c0-4.9-3.5-6.9-10.8-6.9-7.2-0.1-14.2 2-16.6 3.5l1.4 7.8c2.2 1 7.7 2.5 14.7 2.5 6.4 0 11.3-1.3 11.3-6.9z"/>
  <path class="cls-0" d="m89.4 25.1c-2.3-4.1-6.3-3.7-10.8-1.7-6.2 3-12 8-13.5 10.5l4.5 7.7c2.3 0 9.3-1.7 14-4.2 5.5-2.9 8.5-7 6.3-11.3l-0.5-1z"/>
  <path class="cls-0" d="m73.6 8.5c-4.2-2.4-8-0.5-11.5 4.6-3.7 5.5-5.7 11.8-5.7 14.5l7.7 4c2-1 6.5-5.5 9.5-10.7 3-5.5 4-10.3 0-12.4z"/>
  <path class="cls-1" d="m50 25.5c-11 0-22.3 8.6-22.3 22.5 0 9.6 6.9 21.9 22.3 21.9 13.4 0.2 22.3-9.9 22.3-21.9 0-10.4-7.7-22.5-22.3-22.5z"/>
  <path class="cls-2" d="m60.1 27.9c4 3.2 7.8 8.7 7.8 16.6 0 10-8 19.9-20.5 20.4-8.8 0-16-4.8-19.3-12.8 1.8 9.4 9.3 18.3 22 18 13.5 0 22.2-10 22.2-22.1 0-7.9-4.4-16.4-12.2-20.1z"/>
  <path class="cls-3" d="m50 40.1c-4.1 0-7.8 3.4-7.8 7.9 0 4 3.2 7.6 7.7 7.7 4.7 0 7.9-3.3 7.9-7.7 0-3.9-3.2-7.9-7.8-7.9z"/>
</svg>