<svg xmlns="http://www.w3.org/2000/svg" viewBox="0 0 150 150">
<!-- SVG created with Arrow, by QuiverAI (https://quiver.ai) -->
  <style type="text/css">.cls-0 {fill:#A46000;}
.cls-1 {fill:#C78409;}
.cls-2 {fill:#9E5B00;}
.cls-3 {fill:#D19408;}</style>
  <path class="cls-0" d="m75 6.5c-4.4 0-5.2 9.8-5 13.5-1.9-4.1-4.6-8.8-7.9-8.8-3 0.1-4.8 3.8-3.3 13.8-0.9 1.7-0.6 6.3-0.6 6.3l-3.8-11.5c-2.4-6.7-6.3-1.7-6.3 4.3-1.8-3.6-4.9-8.9-6.8-8.8-2.2 0.2-4.1 4.3 1.3 14-3.4-2.1-5.7-3.6-8.6-3.5-3.8 0.3-5.6 4.3-1.5 10.1l3.5 4.1c0.3 2.4 1.1 3.3 2.2 4.8-3.5-2.3-9.9-8.7-12.3-8.6-2.4 0.2-2.3 5.1 0.2 8-3-2.1-8.5-5.4-10.2-4.3-1.8 1.2-2.1 6 8.2 11.8-6.2-1-11.3 0.3-11.2 4.2 0.2 4.4 7.2 7.2 10.2 8.6 0.3 0.8 1.6 1.8 1.6 1.8-5.2-0.4-12.6-1.9-12.4 1.2s5.2 5.8 5.2 5.8c-5.6-0.5-11.3-0.8-11.4 1.6-0.3 4.8 10.4 5.1 13.5 5.2-2.7 1.2-8.1 3.7-8.1 7.2 0 4.5 7 5 13.3 3.8 0.5 0.4 1.8 0.7 1.8 0.7-4.4 2.1-10.7 4.3-10 6.6s5.6 2.9 7.5 2.8c-3.7 2-9.8 4.4-9.2 7.4 2.7 4.5 11.7 0 15.1-1.8-2.6 3.5-5.6 8.8-2.4 11.5 3.7 3 10.3-1.4 13.8-4.4 1.5-0.6 4.2-1.8 4.7-2.6-2.2 4.1-8.5 13.8-6.5 15.6 0.8 0.7 1.8 0.6 3.2 0.5-1.7 2.6-4.2 6.2-1.7 7.2 5.3 1.7 11.8-7.7 16.2-16.6-2 5.6-3.7 18.4 2.3 19.3 4.8 0.7 8-6.7 9.3-13.4 0.5 6.5 1.2 13 3.7 13.4 2.7 0.3 6-6.2 6.2-6.7-0.4 5.5 0.1 12.8-3.2 12.8 3.8 0.5 3-6 3.3-12.3 1.5 3 4.5 7.7 8 7.5 5.2-0.2 4.5-8.2 3.9-13 1-0.2 1-1.5 1-1.5 0.8 3.5 3.1 10.5 5.5 9.8 2.3-0.6 3.6-5 3.8-8.6 1.8 3.6 5 10 7.3 9.5 2.4-0.4 3.7-4.9-1.5-14.2 3 1.7 9 5.2 11.7 2 3.3-3.7-1.7-9.8-4.5-12.8-0.2-1.7-1.5-4.2-1.5-4.2 3.8 2.8 10.3 8.8 12.5 8.5 2.2-0.5 1.5-5.2-1.2-8.7 3.2 2 9 6.2 10.7 4.2 2.3-3.2-3-8-9-12.1 2.8 0.4 10.8 1.1 11.5-3.6 0.7-4.5-6.5-7.1-9.8-8.3-0.4-1-2.4-2.5-2.4-2.5 5.9 0.5 12.4 2.2 12.7-0.2 0.5-2.5-4.3-5.8-4.7-5.9 3.5 0.3 11 0.8 11-2 0-3.9-7.3-5.1-13.3-5.2 3.5-1.2 7.8-3.7 8-7.4 0.3-4.8-6.5-5.6-13.2-4.3-1.3-0.5-4-0.8-4-0.8 5.2-2.2 12-4.5 12.4-6.2 0.6-2.7-4.7-4.5-9.4-4 4-1.5 11.5-5 10.5-7.2-1.8-3.5-7.8-1.5-14.5 2.5 2-2.8 4.2-6.3 3.5-9.1-0.5-1.7-2.8-4.2-8-1.7-2.5 1.3-6.1 4.2-6.1 4.2-1.7 0-5.7 2.3-5.7 2.3 2.5-3 9.3-10 9.8-11.5 1-3-3.3-3.5-8.8-0.5 2.3-3.2 6-8.8 4.5-10.3-3-3.2-8.7 3-11.5 8.6 0.8-5.8-0.2-11.3-4-11.4-4.2-0.1-7 5.6-8.7 10.6-2 1-4.3 6-4.3 6 0-7.5 4.5-15.8 2-17-2.5-0.7-5.2 2.8-6.2 4.7 0.5-5.2 0-10.8-1.9-10.8z"/>
  <path class="cls-1" d="m70 21.1c-1.4-3.5-5.9-9.3-8.6-7.3-0.8 0.6-1.3 2-0.8 2 3.5-1.2 7.5 7.8 8.2 14l1.2-8.7z"/>
  <path class="cls-1" d="m76.4 22.4c1.5-4.3 5-8.8 7.2-7.8 1.8 0.8-3 6.5-4.2 24.5v1.7l-0.5-0.7c0-6.7-0.8-13.2-2.5-16v-1.7z"/>
  <path class="cls-1" d="m81.9 39.6c1-5 4.7-15.2 5.5-16 3-1 4.2 7.5 1 16l-0.8 1.3-0.2 0.5-5.5-1.8z"/>
  <path class="cls-1" d="m95.9 26.6c1-5.2 0.7-12.2-3-11.8-0.8 0.1-1.8 1.1-1.8 1.1 3.8 0.7 3 9.2 0.7 16.5l4.1-5.8z"/>
  <path class="cls-1" d="m102.4 29.1c4-2.7 9.2-4 10.4-2.5 1.3 1.5-2.4 2.5-10.7 11.5l0.3-9z"/>
  <path class="cls-1" d="m95.4 46.4c3.7-5.5 7-12 7-17.6 3 2.6-3.8 15.1-7.3 19.8l0.3-2.2z"/>
  <path class="cls-1" d="m117.4 43.4c3.2-3.3 6-10 3.4-11.5-0.7-0.3-2.7-0.3-2.4 0.4 2.7 2.8-2.3 9.8-8.3 14.3l7.3-3.2z"/>
  <path class="cls-1" d="m95.1 48.6c3.3-5.2 5.5-9.2 8.8-10.7l-8.3 10.7h-0.5z"/>
  <path class="cls-1" d="m102.6 52.6 5.3-3.8c4.7-2.2 9.2-5.4 12.2-5.9 3.8-0.5 4 2.7 2 5.9l-19.5 3.8z"/>
  <path class="cls-1" d="m105.4 62.6 7-3.5c5-2.5 8.7-6.2 9.7-8.5l0.5-1.2-16.5 8-0.7 5.2z"/>
  <path class="cls-1" d="m105.4 63.1 5.7-3c5.8-2.8 12.8-5.5 18.8-6.7 4.2-1 1.2-5.5-8.3-4.3l-16.2 14z"/>
  <path class="cls-1" d="m127.4 69.4c7.5-2.8 10.5-6.8 8.5-9-0.5-0.6-1.8-1.3-1.8-0.8 1.3 4.3-8.5 7.8-15.2 9l8.5 0.8z"/>
  <path class="cls-1" d="m44.1 33.1c-3.5-3.2-9.7-6.5-11.7-4.2-0.8 0.7-0.8 2.7 0 2.5 2.7-2.3 9.5 2.2 14.2 7.7l-2.5-6z"/>
  <path class="cls-1" d="m28.4 46.9c-3-3.5-3.3-10-1-9.5 2.2 0.5 5.7 7.7 19.2 16.2l0.8 0.5h-1.5l-17.5-7.2z"/>
  <path class="cls-1" d="m25.1 53.6c-4.5-3-12.2 0.8-9.5 4.8 0.5 0.7 0.5 0.7 0.5 0.2 1-4.2 11.3-2.7 18.3 0l-9.3-5z"/>
  <path class="cls-1" d="m23.4 64.4c0.7 1.2 1.7 2 1.7 2-5.7-0.3-11.7-1.8-10.5 1 1 3.2 5.5 5.7 7.8 6.5l7.2-2.3 12.5-1-18.7-6.2z"/>
  <path class="cls-1" d="m20.4 74.9c-3.5 2.5-2.5 5.2 0.7 5.7l6.5-0.5-7.2-5.2z"/>
  <path class="cls-1" d="m22.4 80.6c-4.8 1.8-10 5.3-8.3 8.3 0.5 0.7 2.3 1.2 2 0.7-1-3.5 7.3-7.2 14-8.2l-7.7-0.8z"/>
  <path class="cls-1" d="m24.9 90.9c1.2 1 1.7 0.9 1.7 0.9-4 1.8-9.2 3.8-7.5 4.8l17.8-5.5 6-3.2 0.5-2-18.5 5z"/>
  <path class="cls-1" d="m28.1 99.6c-2.5 4-0.7 7 2.5 7l4.8-2 11.7-7 0.5-1.2c-7.2 4.2-16.5 10.5-18.5 8-1.2-1.3 0-4.5 2.8-7.5l-3.8 2.7z"/>
  <path class="cls-1" d="m32.6 105.6c-3.5 3.8-5.7 10.8-2.5 12 0.8 0.3 2.3 0 2-0.2-3-3 2.3-10 7-14.8l-6.5 3z"/>
  <path class="cls-1" d="m39.9 123.6c-0.5 3 4.2 2.5 8.2 0.5l-1-1.5-7.2 1z"/>
  <path class="cls-1" d="m47.4 113.1 3-4.7c2-2 4-5.5 4.2-6.8l-0.2-2-15.3 13.5c2.3-0.7 6.3-2.2 7-3l-4.7 8.5 6-5.5z"/>
  <path class="cls-1" d="m59.1 116.6c-2.7 5-3.2 19.3 1.5 19 1 0 2.3-0.7 2.3-1.5-4.3-0.5-3.8-10-2.5-14.7 0 3.2 0.5 7.5 3 7.2 0.7 0 5.2-15.5 5.2-18l-6-1-3.5 9z"/>
  <path class="cls-1" d="m70.6 115.9 1 10.7c0 7-0.2 10.3 1.8 9.3s3-4 3-5l-5.5-18.8-0.3 3.8z"/>
  <path class="cls-1" d="m79.6 128.9c1.8 4.5 6.3 9 8.8 7.5 0.7-0.3 1.2-2 1-2-3 1.2-7.3-5.5-8.8-10.5l-1 5z"/>
  <path class="cls-1" d="m87.6 105.6c4.5 6.5 8.5 13 12 15 0.5 6-1.5 11.8-3 11.3-1-0.3-3-15.3-7.2-21.3l-1.8-5z"/>
  <path class="cls-1" d="m104.4 113.1c3.7 5.8 12.2 10.5 13.5 7.5 0.7-0.7 0.2-3-0.3-2.7-1.5 2.7-7.5 0-13.2-4.8z"/>
  <path class="cls-2" d="m60.6 24.1c0.3 3.8 1.8 12.3 3.5 16.8l4.8-1.8c0-1.2 0-3.5-0.3-4.7-1.7-4.8-4.5-11.3-8-10.3z"/>
  <path class="cls-1" d="m58.4 37.1 4.2 6.3h1.3c-2.8-4.8-6-9.3-6.5-14l-3-10-4.5 9 8.5 8.7z"/>
  <path class="cls-1" d="m68.9 39.1c0 6.3 0.7 10.3 2.2 6.3l-0.2-5.5-2-0.8z"/>
  <path class="cls-1" d="m78.9 39.1 0.2 4 1 0.3c0-1 1.5-2.8 1.8-3.8l-3-0.5z"/>
  <path class="cls-1" d="m46.4 53.6 2.5 0.8h2.5l-2-2.5-8.8-7.8z"/>
  <path class="cls-1" d="m53.1 46.4 1.5 0.5 2.5 0.7-1.7-2.5-5-6.5z"/>
  <path class="cls-3" d="m60.6 42.1c-2.5-4.7-9.2-15.5-15.2-15.1-4.8 0.4-1.5 8.1 4.2 16.4l3.5 3.5 0.3-0.5c-3.3-4-11.5-17-7.3-17.3 4-0.7 10.3 6.3 13.8 13h0.7z"/>
  <path class="cls-1" d="m48.1 54.1h-2.2c-4.5-2.7-10.5-7.2-17.5-7.2-5.3 0-5.3 3.7-1.5 6.7 3.7 2.8 10.5 6.3 15 8.8h1.5c-5.8-2.8-17.8-8-17.5-11.8 0.5-4.2 12.7-2.2 20.5 3.5h1.7z"/>
  <path class="cls-1" d="m42.1 70.6-1.5 1c-5.5-0.5-13.5-1-20.2-4.2-5.3-2-6.8-1-4.8 1.7 2 2.5 5 4 6.8 4.8l2.5-0.8c4-1.7 11.5-2.2 17.2-2.5z"/>
  <path class="cls-1" d="m40.4 80.1-1 1c-5.5 0.3-15.3 0.8-19-0.5-3.8-1.5-2.8-6.5 6-8.2l14 7.7z"/>
  <path class="cls-1" d="m44.4 86.4-1.5 2.2c-5.3 3-12.3 6.5-14.8 11l3.8-2.7c2.5-2.5 6.7-5.5 10.5-7.3l2-3.2z"/>
  <path class="cls-1" d="m54.4 99.6 0.2 2c-2.2 3-4.2 5.8-5.2 7-1 2.5-3.3 7.5-8.8 14.3-2 3.2 2.8 3.2 6.5 0.2l0.3-1.5 7-22z"/>
  <path class="cls-1" d="m55.4 103.1-1-0.5c-3.8 5.3-9.8 18-6.5 21.5 4 3.8 9.5-6.2 14.7-16.5l-0.2-1c-3.3 5.8-9.3 17.3-12.3 16.5-4.5-1.5-0.7-11.5 5.3-20z"/>
  <path class="cls-1" d="m70.6 109.1h0.3c-0.3 8.8 2.5 22.3 7 22 4.5 0 3-13 3-21h-1c0.5 6.8 1 19.3-2.3 19-3.7-0.5-6.2-8.5-6-18.5l-1-1.5z"/>
  <path class="cls-1" d="m88.9 106.6 0.5 0.5c4 6.8 10.5 16 15.5 15.5s1.7-6.7-1.5-12.5l-5.8-8.5h-1.2c4.2 5.5 11.2 16.3 8.5 18.8-3.3 1.5-10-3.8-15-13l-1-0.8z"/>
  <path class="cls-1" d="m102.6 95.1-1.2-0.7c5.5 3 13.2 8 20 16.2 3.2 3.5 5.2 0-1.3-8.5l-0.7-0.2-5.5-1.3-11.3-5.5z"/>
  <path class="cls-1" d="m108.1 87.1-0.5 0.3c6.3 2.7 16.8 7.7 16.3 11-0.8 3.5-9.8 2.2-20.5-3.8l-0.3 0.3c5.8 3.2 11.3 7.2 18.8 7.2 7.5-0.5 4.5-6-2.5-9.5l-11.3-5.5z"/>
  <path class="cls-1" d="m106.9 79.9 1.7 1c6 0.5 12.8 0 23.8 2.5 4.5 1 4.7-3.3-4.3-7l-1.2 0.2-9.8 2-8 0.3-2.2 1z"/>
  <path class="cls-1" d="m110.1 69.4 0.5-0.5c5.8-0.5 18.5-1.3 21 1.7s-2.5 8.3-21 8.3l-1-0.8c11.3 0.3 21-2.2 20.3-6.2-0.5-3.3-12.8-2.8-19.8-2.5z"/>
  <path class="cls-1" d="m106.1 62.6 0.5 1c5.8-1.2 18.3-4.5 19-3.7 2.3 3.2-7.5 7.5-12.5 8.7l-4 0.3-3-6.3z"/>
  <path class="cls-1" d="m87.6 41.4c2.3-4.8 7.5-17.3 12.3-17 4.7 0.2 3.7 12-4.3 22h-0.2c3.7-5.5 7.5-18.3 4-20.3-3.3-1.5-8.5 9.5-11.5 15.5l-0.3-0.2z"/>
  <path class="cls-1" d="m69.4 39.9c-0.8-6.8-1-21.8 3-21.3 4.2 0 7 9 6.5 21.3l-0.8 0.2c0.3-8-2-19.5-6.2-19.5-3.3 0-2.5 14.3-1.8 19.3h-0.7z"/>
  <path class="cls-2" d="m23.4 62.9c0 1.5 9.5 3.5 16.5 5.2l1.2-0.2-0.2-4.8-2.3-1.5c-4.7-1-14.2-2.7-15.2 1.3z"/>
  <path class="cls-2" d="m20.4 77.6c0 3.3 10.5 3 19.5 2.5h0.5l0.7-1.2-1.2-6.8c-5.3-0.2-19.3 1-19.5 5.5z"/>
  <path class="cls-2" d="m24.4 89.1c0 2 8.7-1.2 16.5-3.2l-0.5-1.8-1.3-3c-5.7 0.3-15.2 4.5-14.7 8z"/>
  <path class="cls-2" d="m18.4 96.9c-0.3 2.5 6.5 3.5 10.5 2.2l1.7-2.2 6.3-5.8c-4.8 1-9.5 3.3-15.8 4.3-1.7 0.2-2.7 1-2.7 1.5z"/>
  <path class="cls-2" d="m38.1 113.4c1.8 0.2 1.3-1.5 11.8-11.3l-2.8-2h-3.7c-3.5 3.5-8 11.3-5.3 13.3z"/>
  <path class="cls-2" d="m49.4 122.9"/>
  <path class="cls-2" d="m48.6 122.1"/>
  <path class="cls-2" d="m48.6 122.1"/>
  <path class="cls-2" d="m48.1 123.1"/>
  <path class="cls-2" d="m72.1 101.4c-0.2 5 2.5 9.7 4 7.7 0.8-1 1-3.5 0.8-6l-2-16.2-2.8 14.5z"/>
  <path class="cls-2" d="m80.9 112.9c1.2 6.5 5.7 14 9 13 0.7-0.3-2.8-12.8-4.3-16.8l-4.5 0.5-0.2 3.3z"/>
  <path class="cls-2" d="m100.9 106.4c3.7 3.2 10 8.2 12.2 6.5 1.8-0.3-0.5-2-9-12l-2.2-0.8-3.8 1.5 2.8 4.8z"/>
  <path class="cls-2" d="m107.6 88.1v-0.7l2.5-0.3c4.3 2.5 16.5 3.5 16.3-0.2 0-1.3-10.3-3.8-16.8-5l-1 1.7-1 4.5z"/>
  <path class="cls-2" d="m106.9 79.9 2.2-1c4.8 0 3.5-3.8 0.8-6.5l-6.3 0.5-2.2 5 5.5 2z"/>
  <path class="cls-2" d="m102.1 65.6 3.3-0.5c4-0.7 5 1 2.5 3l-6 3-5.5-0.7 5.7-4.8z"/>
  <path class="cls-2" d="m98.9 58.6 2.5-1.2c4-1.5 4.7 0.2 3 2.5-1.3 2-5 4.5-5 4.5l-6 1.2 5.5-7z"/>
  <path class="cls-2" d="m93.9 52.6 2.5-2.5c3-2.2 4.5-0.2 3.5 2.8l-3.3 5-5.5 2 2.8-7.3z"/>
  <path class="cls-2" d="m87.4 47.4 1.7-2.5c2.3-2.5 4.5-1.5 4 2.5l-2 5.7-4.7 2.5 1-8.2z"/>
  <path class="cls-2" d="m80.1 44.4 1-3c1.8-3.3 5-3 6.5 0l0.3 0.7v2.8l-2 3.7-5.8 0.5v-4.7z"/>
  <path class="cls-1" d="m71.9 42.6c0.2-4 2.2-6.2 6-4l1.2 1.5 0.8 2.3v3.2l-1.5 2.3-6.3-1.5-0.2-3.8z"/>
  <path class="cls-2" d="m63.9 43.4c-0.5-4.5 2.7-6.3 5.5-4l1.2 0.7 1.3 2.3 0.5 3.2-1.3 2.3-5.7-0.5-1.5-4z"/>
  <path class="cls-1" d="m57.1 48.6c-2.7-4.5-1.2-7.2 2.3-7l3.2 1.5 1.8 1.8 1 3.2-2.8 3.3-5.5-2.8z"/>
  <path class="cls-2" d="m37.1 37.9c1.8-2.5 8.8 1.2 13 5.7l2 2.8-3.7 5c-4-3-11.8-12-11.3-13.5z"/>
  <path class="cls-3" d="m53.4 55.6c-2.5-2-7-9.5-1-9.2h1c2.7 0.5 5 2.2 5.7 3.7l-1 3.5-4.7 2z"/>
  <path class="cls-2" d="m53.4 56.4c-2-2-4.5-6.3-2-6.8 2-0.5 5.5 1.5 7 3.8l1.7 4-6.7-1z"/>
  <path class="cls-1" d="m45.4 61.9c-4.5-3-3.8-7.3 1-7.8 3 0 5.7 1 7 2.8l0.7 3.2-8.7 1.8z"/>
  <path class="cls-2" d="m49.4 63.1c-2.8-1.5-6-5-4.3-5.7 1.8-0.8 5-0.3 9 2l3 4.2-7.7-0.5z"/>
  <path class="cls-1" d="m42.1 62.4c4-1 6 0 8 1.5l0.5 2-5.2 4-4.8-1.3c-2.7-1.7-2.5-4.7 1.5-6.2z"/>
  <path class="cls-2" d="m46.6 69.6c-3.2-0.5-6.7-2.5-5.5-3.7 1.3-1.3 4.5-1.5 8.8-0.3l3.5 2.8-6.8 1.2z"/>
  <path class="cls-1" d="m42.1 70.6c2.5-1.2 5-0.5 6.8 0.8l0.5 1-5.5 3.5-5.5-0.5c-1.5-2.5 1.7-4.3 3.7-4.8z"/>
  <path class="cls-2" d="m47.4 72.1c-3 0-7.3 1.3-7.3 3.3 0 1.2 4.8 2 6.8 1.5l4.5-1-2-3.5-2-0.3z"/>
  <path class="cls-1" d="m42.1 78.6c2.3-1.2 4.3-1 6.3 0l1 0.5-4.5 4.5-5.5 1.5c-2-2.2 0-5.2 2.7-6.5z"/>
  <path class="cls-2" d="m48.4 79.1c-3 0.5-7.8 3-7.3 5 0.3 1.3 4.8 0.8 6.5 0l3.8-1.7-1.5-3-1.5-0.3z"/>
  <path class="cls-1" d="m45.4 85.6c1.5-1 3-1.2 5-0.5l1 0.5-3.8 4.5-4.2 3c-2.8-1.7-0.8-6 2-7.5z"/>
  <path class="cls-2" d="m51.4 85.6c-2.5 0.8-7.5 5.3-6.5 6.5 1 1.3 5-0.2 6.5-1.5l3.2-3-2-2h-1.2z"/>
  <path class="cls-1" d="m49.4 92.9c1.2-1 2.7-2.3 4.5-1.8l0.7 0.8-2.5 5.2-4 0.8c-1.5-1.5 0-3.8 1.3-5z"/>
  <path class="cls-2" d="m56.9 93.9-2.5 4.2c-1.5 1-3.3 2.3-4 1-1-2.2 2.2-6.5 4.2-8l2.3 2.8z"/>
  <path class="cls-1" d="m55.4 98.4c1-1.3 2-2.5 3.7-2.5l1-0.5-1.5 5.2-4 2c-0.7-1.2-0.2-3 0.8-4.2z"/>
  <path class="cls-2" d="m59.9 95.4c-1.8 2.7-3.5 9-1.5 9.5 1.5 0.2 3.7-3 4.5-4.5l1-2-4-3z"/>
  <path class="cls-1" d="m62.4 103.6 1.5-3.2 1.7-2 0.5 5-3.5 4.2c-0.7-1-0.7-2.7-0.2-4z"/>
  <path class="cls-2" d="m65.6 98.4c-1 3.5-1 10 1 10.5 1.5 0 2.8-3.8 3-6l0.3-2.3-4.3-2.2z"/>
  <path class="cls-1" d="m70.1 106.4 0.5-3.8 1.5-1.2 1 5.2-2 3.5c-0.7-0.7-1.2-2.5-1-3.7z"/>
  <path class="cls-1" d="m77.6 106.4-0.7-3.3 1.5-1.2-0.3 5-0.5 2.5c-0.5-0.5-0.2-2 0-3z"/>
  <path class="cls-1" d="m77.9 106.4v-4l1.5-1.8 2.5 4.8-0.8 4.7c-1.5-0.5-2.7-2.2-3.2-3.7z"/>
  <path class="cls-1" d="m85.4 104.4-0.8-3 0.5-1.3 2.5 4.3-1.5 2.5c-0.5-0.5-0.7-1.5-0.7-2.5z"/>
  <path class="cls-2" d="m85.1 100.1c0.8 2.5 0.8 8.5-1.7 8.5-1.5-0.2-4-4.2-4.5-7l0.5-4.7 5.7 3.2z"/>
  <path class="cls-1" d="m91.6 97.9h-1l1.8 4 2 0.7c0-1.2-1.5-3.5-2.8-4.7z"/>
  <path class="cls-2" d="m91.1 97.9c1 2 2.8 6.7 1 6.7-1.7 0.3-5.2-2.7-6.7-6l-0.5-4.2 6.2 3.5z"/>
  <path class="cls-1" d="m97.4 92.9h-0.8l2.8 3.7 2.5 1.8c0.2-1.3-2.8-4.5-4.5-5.5z"/>
  <path class="cls-2" d="m96.6 92.9c1.8 1.2 4.5 5.5 3.3 6.2-1.3 1-5.3-0.5-8-3.7l-1.3-4 6 1.5z"/>
  <path class="cls-1" d="m101.4 86.9-0.8-0.5 3.5 2.7 2.8 0.5c-0.3-1-3.8-2.7-5.5-2.7z"/>
  <path class="cls-2" d="m100.6 86.4c2 1 5.5 3.7 4.5 5-1.2 1.5-6.2 0.2-8.7-1.5l-2.3-3.5h6.5z"/>
  <path class="cls-1" d="m103.1 79.9-0.5-0.5 4 1 2.5 1c-0.5 0.5-4.5-0.8-6-1.5z"/>
  <path class="cls-2" d="m102.6 80.1c2.5 0 6.8 1.8 6.3 3.5-0.5 1.8-5.8 1.8-8.8 0.5l-3.2-2.2 5.7-1.8z"/>
  <path class="cls-3" d="m64.4 49.9c-1.5-3-5.3-6.3-6.8-5.8s-0.2 4.5 1.3 6.5l5.5-0.5v-0.2z"/>
  <path class="cls-3" d="m65.6 46.6c-0.7-2.5-1-6 0.8-5.7 2 0.2 4 3.5 4.7 6.5l-1.2 2.7-4.3-3.5z"/>
  <path class="cls-3" d="m73.1 45.1c-0.2-2.7 0.5-5.5 1.8-5.2 1.7 0.2 2.7 4.5 2.7 8l-3 2.2-1.5-5z"/>
  <path class="cls-3" d="m80.1 45.6c0.5-3 2.3-5.7 3.5-5 1.5 0.8 1.8 5 0.8 8.5l-4.3 1v-4.5z"/>
  <path class="cls-3" d="m87.4 47.9c1.2-3 3.7-4.8 4.7-4 1.3 1 0.8 5.2-1.2 9l-4.5 2.7 1-7.7z"/>
  <path class="cls-3" d="m93.9 52.6c2.2-2.5 5-4.2 5.5-3.5 1.2 1.3 0 5-2.8 8.3l-5.5 2.5 2.8-7.3z"/>
  <path class="cls-3" d="m98.9 58.6c3-2 6-2.5 6.2-1.2 0.5 1.7-2.7 5.2-5.7 7l-6 1.2 5.5-7z"/>
  <path class="cls-3" d="m102.1 65.6c3.5-1 6.5-1 6.5 0.3 0.3 1.7-3.5 4-6.7 5.2l-5.5-0.7 5.7-4.8z"/>
  <path class="cls-3" d="m103.6 72.9c3.5 0 6.3 0.5 6.3 2 0 1.2-3.5 2.7-8 3l-2.3-1 4-4z"/>
  <path class="cls-3" d="m68.4 65.9c-3.3-4.3-9-15.8-10-15.3-2.3 1 1 8.8 7.7 14.8l2.3 0.5z"/>
  <path class="cls-3" d="m69.9 64.9c-1.8-3.8-5.8-13.8-5-17.5 1.7-3.3 5.2 5.7 6.7 15l-1.7 2.5z"/>
  <path class="cls-3" d="m72.1 62.9c-1-3.8-2.7-17.5 0.5-17.5 1.8 0 2.5 9.7 2 17l-2.5 0.5z"/>
  <path class="cls-3" d="m75.4 62.4c0-7.3 2.2-17 4.7-16.8 2.5 0.5-1.5 14.3-3.2 18l-1.5-1.2z"/>
  <path class="cls-3" d="m78.4 63.4c0.7-7 6.2-16.3 8.7-15.5 2 1.2-4 11.7-6.5 15.7l-2.2-0.2z"/>
  <path class="cls-3" d="m81.1 64.9c3.3-5.8 9.8-13.5 12.5-12.3 2.3 1-5.5 9.3-10.2 13l-2.3-0.7z"/>
  <path class="cls-3" d="m84.4 68.4c5-4.5 13.5-12 14.5-10 1.7 2.2-8 7.2-12.5 10h-2z"/>
  <path class="cls-3" d="m86.4 71.6c5.5-2.2 16-4.2 16-6 0-3.2-9.5-0.7-16 2.8l-2 3.2h2z"/>
  <path class="cls-3" d="m87.6 74.9c5.8-0.3 16.3 0.2 16.3-2 0-2.8-10-3.5-17.5-1.3l-3 2.3 4.2 1z"/>
  <path class="cls-3" d="m88.4 78.4c5.7 1.5 15 4 15 1.5-0.3-2.5-9-4.8-15.8-4.8l-4 0.8-0.2 0.5 5 2z"/>
  <path class="cls-3" d="m86.4 81.4c5 2.5 13.5 7.5 14.7 5.5 0.8-2.3-7.2-7-13.5-8.5l-4.2-0.3-0.3 0.3 3.3 3z"/>
  <path class="cls-3" d="m83.6 83.6c4.3 4.3 11.5 11.3 13.3 9.8 1.5-1.5-4.8-8.8-11-12l-4-1.3-0.3 0.3 2 3.2z"/>
  <path class="cls-3" d="m80.9 85.4c3 5.2 9 14.7 10.5 12.5 1.7-2.3-4.8-12.8-10.8-16.3-1.5-0.7-0.2 2.3 0.3 3.8z"/>
  <path class="cls-3" d="m78.1 87.1c1.3 6 4 15.3 6.3 14.5 2.2-1-1.5-14.7-5.8-18.5-1.2-1-0.7 2.5-0.5 4z"/>
  <path class="cls-3" d="m75.4 88.1c0 6 0 15.3 1.7 15.3 2.8-0.5 3-11.8-0.5-19.5-1.2-1.3-1.2 2.5-1.2 4.2z"/>
  <path class="cls-3" d="m72.1 87.4c-1.7 5.7-4.2 15.5-2 15.5 2.8 0.2 6-12 4.5-18.5-0.7-2.5-2 1.5-2.5 3z"/>
  <path class="cls-3" d="m68.9 86.4c-2.8 5.2-7.8 13.5-6 14.2 2.5 1 7.5-6.5 9-14.2 0.5-5.8-1.8-2.3-3 0z"/>
  <path class="cls-3" d="m66.6 83.9c-4.2 4-11.5 11-10.2 12.5 1.7 1.5 8.2-3.3 12-10 3-6.5 0.2-4.3-1.8-2.5z"/>
  <path class="cls-3" d="m65.4 81.4c-5.3 2.5-15 7.5-14.3 9.5 1.3 2 9-1.3 14.5-6.8 4.3-5 1.8-4.2-0.2-2.7z"/>
  <path class="cls-3" d="m63.9 78.4c-5.8 1-17 3.7-16.3 6 1.3 2 11 0 16.8-3.3 5-3.5 2-3.2-0.5-2.7z"/>
  <path class="cls-3" d="m61.4 75.4c-6 0-15.5 0-15.3 2 0.5 2.2 8.3 3 16.3 1 6.5-1.5 5-3-1-3z"/>
  <path class="cls-3" d="m61.4 71.6c-5.8-2.2-14.3-4-14.8-2 0 2.3 7 4.8 14.8 5.3 7.5-0.3 6.2-1.5 0-3.3z"/>
  <path class="cls-3" d="m63.9 68.4c-5-3-13.8-7.8-14.8-5.5-0.7 2.5 7.5 7 14.3 9 6.5 1.2 4.5-0.8 0.5-3.5z"/>
  <path class="cls-3" d="m66.1 66.4c-3.7-4.5-11.2-12-12.7-10.5-1 2.5 5.2 9.2 11 12.5 5.5 2.7 5.7 2.2 1.7-2z"/>
</svg>