<svg xmlns="http://www.w3.org/2000/svg" viewBox="0 0 150 150">
<!-- SVG created with Arrow, by QuiverAI (https://quiver.ai) -->
  <style type="text/css">.cls-0 {fill:#E6D4B4;}
.cls-1 {fill:#EDDEBF;}
.cls-2 {fill:#E3CEA8;}
.cls-3 {fill:#F2E7CD;}
.cls-4 {fill:#FAF3DF;}</style>
  <path class="cls-0" d="m75 18.3c-1.1 0-2.4 3.7-2.4 10.1-0.8-4.7-2.7-9.6-4.6-9.6s-2.4 5.7-2.2 9.6c-1.4-4.7-3.7-8.4-4.9-8.2-1.8 0.4-1.7 5.9-0.3 10.4-2.2-3.9-5.3-8.6-6.9-7.8-1.8 0.8-0.9 7.5 0.4 11.2-2.6-4.2-5.9-8.9-7.3-7.9-1.3 0.9-0.2 6 2.5 10.6-3-3.5-6.9-7.5-8.6-6.5s0.1 6.1 3.5 10.7c-3.7-3.6-8-6.9-9.2-5.8-1.5 1.4 1.8 6.1 5.4 9.3-4.2-2.8-9.6-5.8-10.7-3.8-0.9 1.7 2.4 5.4 4.7 7.2-3.2-1.4-8.2-3.2-8.8-1.7-0.6 2 4.1 5.3 8.9 7.6-4.8-1.4-11.3-2.5-12.2-0.5-0.7 1.8 3.8 4.8 7.4 6.7-4.1-0.5-9.2-1.3-9.7 0.5-0.5 1.7 4.6 3.8 8.8 5.1-4.2-0.1-10.2 0.1-10.3 2.1 0 1.8 4.4 3.5 8.2 4.8-3.9 0.2-8.8 1-8.8 2.7 0 1.8 5 2.4 8.8 2.8-3.9 0.9-8.5 2.7-8.2 4.6s6.3 2.3 9.7 1.9c-4 1.2-8.7 3.3-8.2 5 0.5 1.8 6.2 1.1 9.4 0.4-3.5 1.8-7.8 4.4-7.2 6.4 0.6 1.4 6 1.3 9.7 0-3.3 2-6.9 4.7-6.4 6.8 0.6 1.6 5.7 0.2 9-1.6-2.9 2.7-5.9 6.4-5 8.1 1.1 1.9 6.4-0.4 10-2.6l3.9-2.1c-3.5 3.4-9.5 9.1-8.5 10.8 1.3 2 7.6-2.7 9.3-5-2.6 3.6-5.4 9-3.6 9.8 1.9 1 5.8-2.3 8.5-5-2.2 4.1-3.6 8.8-2 9.2 2 0.5 5.3-4.2 7.4-7.7-1.9 4.7-2.4 10.7-0.3 11 1.9 0.3 4.9-4 6.4-7.5-0.9 4.2-1.4 9.6 0.6 9.7 1.7 0.1 3.9-4.5 4.6-8.2-0.2 4 0.3 9.7 2.2 9.8 1.7 0.2 3.8-4.3 4.5-8.8 0.1 4.2 0.9 9.2 2.6 9.2s2.5-4.2 2.5-8.7c0.8 4 2.8 8.3 4.5 8.2 2 0 2.5-6 2.1-9.7 1.2 4.1 3.4 8.5 5.2 8 1.7-0.5 1.4-6.8 0.5-10.3 2.2 4.3 5 8.8 6.6 8.1 1.9-0.6 1.1-7.3 0-10.1 2.1 3.5 5.4 7.5 6.7 6.8 1.4-0.7 0.2-5-1.7-8.8 2.9 3 6.7 5.6 7.9 4.8 2-1 0.1-5.5-2.8-9.5 3 2.5 7.6 5.7 8.8 4.7 1.5-1-1.3-5.2-4.6-8.7 3.6 1.7 8.6 4.3 9.4 2.6 0.9-1.5-1.6-4.9-4.6-8.1 3.5 1.6 8.3 3.2 8.9 1.6 0.7-1.6-3.1-4.6-6.9-6.8 3.8 0.8 9.3 1.9 10.4 0 0.6-1.6-3.1-4.3-7.1-6.4 3.5 0.8 9 1.4 9.3-0.4 0.4-1.7-4.6-3.8-7.7-4.8 3.9 0.2 9.1-0.4 9.2-2.2 0.2-1.8-4.1-3.5-8.2-4.5 3.9-0.3 8.9-1 8.9-2.8 0-1.7-4.8-2.5-9-2.6 3.7-0.9 8.5-3 8.3-4.9-0.1-1.7-5.3-2.5-9.3-2.1 3.5-1.1 8.2-3.1 7.7-5s-6.5-1.1-9.7-0.4c3.5-1.5 8-5 7.3-6.7-0.6-1.8-6.3-1.3-11.7 0.7 3.9-2 9.1-6.2 8.2-8-0.8-1.5-5.6-0.2-8.8 1.5 2.5-2.2 5.2-5.5 4.5-7-0.8-1.6-5.3-0.2-9.5 2.4 2.7-2.9 5.8-6.6 4.7-7.9-1.1-1.2-4.7 1-8.5 4.1 2-3.6 4-8.1 2.5-9.1-1.5-0.9-5 1.5-8.5 5.3 1.9-3.8 3.8-8.7 2.3-9.5s-4.5 3-6.5 6.2c1-3.7 1.5-9-0.4-9.5-1.8-0.4-4.9 4.1-7.4 8.5 1.3-5 1.3-10.7 0.5-10.9-2-0.8-4.2 4.2-6 9.7 0.8-4.7 0.3-11-1.5-11.1-1.7-0.2-3.5 3.8-4.1 8.2-0.1-3.9-1.1-8.7-2.5-8.7z"/>
  <path class="cls-1" d="m77.4 35.4c0.5-5.8-0.6-15.3-2.4-15.3s-2.9 8-2.4 14.5c-1.2-5-2.7-8-4-7.7-1.2 0.3-1.2 5-0.7 6l2 11.6-3.4-12.6c-1.4-5.5-4.4-11.8-5.9-11.3s-0.9 7.8 2.8 17c-2-5-5.3-8-6.5-7.4-1.3 0.7-1 5.2 0.6 9-3.1-6.1-8.6-14.1-10.4-13.3-1.9 0.8 0 7.5 6 15.2-2.9-3.2-6.7-5.7-7.6-4.5-0.9 1.3 0.6 4 1.6 5l8.3 9-10-9.2c-4.3-4-9.2-7.4-10.3-6.3-1.6 1.5 3 7.4 12.4 13.5-4-3-10.4-5-11.1-3.5-0.8 1.5 2.2 5 5 7.5-6-4.2-14.7-8.1-15.8-6.5-1.1 1.5 4.5 6.4 13.3 10.8-4.5-1.3-9-1.9-9-0.3 0 1.4 3.1 3.5 4.2 3.8l10.9 3.1-11.1-0.9c-2.3-0.4-5-0.4-4.9 0.5 0.1 1.4 4.1 2.8 8 3.8-6.1-0.5-16.9-1.8-17-6.3v6.8l14 5.2-7.3-0.1c-3.3 0-8.6 0.9-8.8 2.6 0 1.8 6.3 2.8 9.3 2.8l7-0.4c-4.8 0.9-7.7 2.4-7.6 3.6 0.1 1.3 4 1.8 6 1.3 6.8-1.5 11.8-2.3 15.3-2.3-4.5 1-10.8 3-10.5 4.8 0.2 1.6 7.5 0.5 12.2-1-2.2 1-4.2 2.3-5.4 3-4.3 1.2-9.7 2.6-11.1 3.1-1.2 0.6-3.7 2.1-3.4 3.2 0.4 1.8 5.5 0.7 9.2-0.6-5 2.9-13.9 6.8-13.5 10.3 0.2 2.5 9.7-1.3 13.2-4l2.5-2c-2.5 2.2-5.5 5.7-4.7 7.5 0.6 1.1 4.7-0.5 6.1-1.8l13-11-14.6 13.8c-3.3 3-7.4 8.2-6.2 10.2 0.9 1.5 6.8-2.2 9.7-5.4l6.5-6.6-6.3 7.6c-2.2 2.9-5.1 8.2-4 9.2 1.3 1.2 5.9-2.3 8.5-5l4-6.3c-2.9 5-7.7 13.5-6.2 15.3 1.5 1.7 5.5-3.8 10.2-12.3-1.6 4.5-4.7 13.5-2.7 15.3 1.1 1 4.7-3.2 6.2-7l2.8-7.5c-1.9 5.2-4.8 16.6-2.2 17.2 1.7 0.4 3.9-4.5 5.2-9.2l0.5-2.8-1.3 9.3h3l3.9-4.5 0.1-7.3c-0.2 6 0.6 16.3 2.4 16.5 1.6 0 2.9-5.5 2.6-11l-0.2-5.5c0.7 5.5 3 16 4.7 16 1.8 0 3-7.2 2-12.5l-1.5-6c1 5 4.3 17.3 6.8 16.9 2-0.4 1.1-7.9-2.8-17.4 2 3.5 7 16 9.9 15.1 1.9-0.6 0.9-8.6-3.4-16.3 2.5 4.7 7.8 13.7 10 13 2-0.5-0.5-7-6-15.3 3.5 4.8 9.5 12 12.3 11.3 2-0.5-0.8-6.5-2.8-9.5l-9-10.4 9.3 10.4c2.5 2.5 7.2 5.5 8.5 4.7 1.5-1-1-4.7-4.6-8.7l-6.9-6 7 5.5c2.7 2 8 4.2 9.3 3.1 1.2-0.9-1.8-5.4-4.6-8.1l-5.2-4.4c4.2 2.6 12.5 7.6 14 6.4 1.7-1.3-2.3-5-13-10.8 5 2.5 14.7 5.8 16.5 3.8 1-1.3-3.7-4.9-7-6.5l-15-3.8 13 3.9 9 0.4v-3.5l-14.3-3.8c5 0.8 17 2.5 18-0.5 0.5-1.5-4.7-3.7-8.1-4.7l-7.6-0.5c5.2 0.5 16.2 0.5 16.5-2.3 0.2-1.7-6-2.7-9-2.6l-7.4 0.1 6.4-0.5 9.2-4v-4.2l-18 2.7c4-0.7 16.8-4 16.5-6.1-0.2-1.9-6.2-1.4-17.6 2.6 5.6-2 15.9-6.6 15.2-9.7-0.3-1.3-6.3-1.3-16.3 3.5 4.5-2.3 13.5-7.8 12.8-10.8-0.3-1.2-5.3-0.5-13.8 4.5l-2 1.9c3-2.1 6.2-6 5.5-7.4-0.8-1.5-4.5 0.5-5.5 1.4l-9.9 7.9 8.4-8.5c2.7-2.5 9-8 8.5-10.5-0.5-2.3-5 0.7-8.8 3.8l-9.5 1.9 4-6c1.5-2.5 3-8.1 1.8-9.2-1-0.9-4.5 3-6.5 6.2l-3.8 6.9c2-5.1 4.9-14.6 3.4-16.4-1.4-1.5-4.9 4.1-6.9 8.3l-2.5 7c2-5.4 4.5-17.3 2.5-17.7-1.7-0.3-4 4.2-6.2 16.7 1.2-5.8 1-17.5-1.3-18.1-1.5-0.2-4 5.6-4.2 10.8z"/>
  <path class="cls-2" d="m75 49.9c-1.6 0-2.4 25.1 0 25.1s1.6-25.1 0-25.1zm0 25.2s11.6-10.6 10.9-13.6c-0.8-3-8.5 10.6-10.9 13.6zm0 0 16.6-11.1c5.3-1.9 9.9-4.1 9.6-4.1-4.6-0.8-10.8 4.5-10.8 4.5l-15.4 10.7zm0 0 10.4-4c3.2-1.6 7.7-4.7 7.7-4.7 5-1.8 8.5-5 8.1-6.3l-26.2 15zm0 0 13.6-2c4.8-0.5 8.5-3 8.3-4-0.3-1-7.8-0.1-10.3 1.5l-11.6 4.5zm0 0s12.1 0.8 19.9-1.5c7.7-2.4 9.5-3.7 9.3-6.5-0.1-2.7-29.2 8-29.2 8zm0 0s14.9 3 20.1 1.3c5.3-1.8 10-0.5 10-1.3 0-0.9-4-2.2-10-1.5-6 0.8-20.1 1.5-20.1 1.5zm10.4 5c4.2 1.5 11.2 2 11.5 0.5 0.2-1.5-5.3-3.5-8.3-3.7l-13.6-1.8 10.4 5zm0 0-10.4-5 16.1 8.8c4.3 2.7 9.5 6 10.1 6 1.3-2.3-8.1-6-8.1-6l-7.7-3.8zm0 0-10.4-5 8.4 7.5c2.5 2.5 7 4.3 8.2 3.3l-6.2-5.8zm-3.3 4.5-7.1-9.5 10.4 16.4c2.2 2.6 4.7 6.6 4.7 6.6 0.8-4.2-4.2-9-4.2-9l-3.8-4.5zm-12.2 0 5.1-9.5-10.6 11c-2 2.5-4.5 6.8-4.5 6.8 3.2 0.5 6.5 0 6.5 0l3.5-8.3zm-11.3 1.5 16.4-11-16.4 9.5c-3.5 1-8.5 3-8.5 3 0 4 8.5-1.5 8.5-1.5zm0-1.5 16.4-9.5-16.4 5c-4.5 0.5-9.2 1.5-9.2 3s6.1 0.3 9.2-1v2.5zm-3.1-8.2c6.1 1.2 19.5-1.3 19.5-1.3s-14.6-2.2-19.5-1.2c-5 1-10.4 0.5-10.4 1.2 0 0.8 4.3 2.4 10.4 1.3zm0-2.8c4.6 0.5 19.5 1.5 19.5 1.5s-16.4-5.7-20.9-6.2c-4.6-0.5-8.6-1.8-8.6-1.3s3.9 5 10 6zm3.1-7.2c4.3 3.2 16.4 8.7 16.4 8.7s-10.4-9-16.4-11.1-8.5-4.4-9.5-3.9 2 4.3 9.5 6.3zm0-2.4 16.4 11.1-9.1-12c-1.8-3-5.5-4.5-6.8-4.5-1.2 0 2 5.4 5.3 7.8l-5.8-2.4zm7.8-6.9c3.5 4.3 8.6 18 8.6 18s-2.4-12-8.6-18z"/>
  <path class="cls-3" d="m75 27.9c-1.6 0-2.4 8.2 0 14.2 1.9-5 1.6-14.2 0-14.2zm4.1 12 3-7.8c0.4-2.2-0.5-5.5-1.5-5.2s-3.1 4.7-3.5 8.7l-0.5 13 2.5-8.7zm6.8-10.3c-1.3 1.5-3 7.3-3 7.3l-0.8 11.7 4.5-12c1.3-3.7 1.3-9.2-0.7-7zm7 0.5c-1.3 0.5-3 3.3-3.3 4.5l-3 9.5-1.2 5.8 7.2-11.3c1.8-4.5 2-9 0.3-8.5zm4.7 4c-2 1-5 6.5-5 7.5l-1.7 8.3 9.2-13.3c0.5-2 0-3.7-2.5-2.5zm6 2.3c-2 0.5-6.5 4.7-6.5 4.7l-5.5 8.8 11.5-8.3c1.5-2 2.5-5.7 0.5-5.2zm4 4.7c-2 0.5-6.5 4.4-6.5 4.4l-6 6.1 9.5-5.5c2.5-1.6 5-5.5 3-5zm0.5 0-16.5 13.8 8.8-5.3c2.5-1.5 9.2-6 7.7-8.5zm0 14.4 7-3.4c1.8-1.5 2-2.2-0.5-1.2l-8.7 4-10.8 5.6 13-5zm-2.2 0.6-10.8 7.9 10.8-4.1c2.2-1.3 5.5-5 0-3.8zm-0.8 6c-3 0-6.5 1.9-6.5 1.9l-7.7 4.9 12-3.8c2.5-1.1 5.2-3 2.2-3zm-4 5-6 1.8 9.5-0.5c3.5-0.8 8.3-2.3 8.3-3.3s-7.8 0-11.8 2zm-2.5 3.5-5.5 1 12-1.5c3-0.5 7.8-2.5 7.8-5l-14.3 5.5z"/>
  <path class="cls-4" d="m75 36.6c-1.6 0-2.9 10-1.4 18.3-1-4.3-2-13.5-3.2-13.3-1.3 0.3-0.5 9 1.2 14.5l-4.2-10.6c-1.5-3.9-3-8.1-2.3-7.9 1.3 0.3 4.3 10 4.3 10l-2-15.5 7.6 43 1.6-20.2c0.8-5.8 0-18.3-1.6-18.3zm4.1 5c-1 0-2.5 7-2.5 7l-1.6 26.5 4.1-23c0.5-3 1-10.5 0-10.5zm5.5-4c-1.7 1-4.5 10-4.5 10l-5.1 27.5 9.1-29.6c1.3-4.9 1.5-8.6 0.5-7.9zm3 6c-1 0-4.2 5.5-4.2 5.5l-8.4 26 11.6-23.5c1-2.5 2-8 1-8zm6.3-2.5c-1.3 0-3.8 3.4-7.3 8.8l-11.6 25.2 17.1-24.5c1.8-4 3-9.5 1.8-9.5zm1.2 6.5c-1 0-5 4.5-5 4.5l-15.1 23 17.6-19c2-2.5 3.5-8.5 2.5-8.5zm6.8-0.7c-2 0-10.3 8-10.3 8l-16.6 20.2 24.6-21c2-2.5 4-7.2 2.3-7.2zm-0.7 7.5c-1.1 0-6.1 3.2-6.1 3.2l-20.1 17.5 25.1-17.5c1.5-1.5 2.5-3.2 1.1-3.2zm6.4 1.1c-2.5 0-9 4.4-9 4.4l-23.6 15.2 30.9-15.2c2.2-1.3 5.5-4.4 1.7-4.4zm-2.5 6.6c-2.5 0-6.5 1.9-6.5 1.9l-23.6 11.1 28.6-10c2.3-1.1 5.5-3 1.5-3zm5.8 2.3c-3.3 0-9.8 2-9.8 2l-26.1 8.7 34.6-6.2c2.8-1 5.5-3.8 1.3-4.5zm-4.3 5.7-11.5 0.5-20.1 4.5 30.1-2.5c3.5-0.5 4.5-2 1.5-2.5zm-1.5 3.3-12 0.5-18.1 1.2 30.1 1.8c4.5 0 9-1.8 8.5-2.3s-2.7-1.2-8.5-1.2zm-4.7 3.5-25.4-1.8 23.6 5c4 0.5 9.5 0 9.5-0.7 0-0.8-4.5-1.8-7.7-2.5zm-5.3 2.2-20.1-4 20.1 7c3.5 1.5 8.5 1.5 9 0.5s-5-3.5-9-3.5zm-2.5 2.5-17.6-6.5 17.6 10.8c3 1.7 8.5 4.5 8.6 4 0.2-0.5-1.6-4-8.6-8.3zm-6 3-11.6-9.5 11.6 14c2.5 2.5 6.5 6 7.3 5.5 0.7-0.5-2.3-5.5-7.3-10zm-3.2 7-8.4-16.5 5.1 16.5c1.5 4 3.3 6.5 3.3 6s2-2.5 0-6zm-6.8-7-1.6-9.5 1.6 26c0.5 4 2.5 8 3 6.5s0-6.5-0.5-10l-2.5-13zm3.5 12-5.1-21.5 5.1 24.5c1.5 4 2.5 5 2.8 4 0.2-1 0.5-4-0.8-8l-2 1zm3.3 3-8.4-24.5 7.1 33c1.3 4 2.5 5.5 3 4.5s0.3-6-1.7-13zm-10-3 1.6-21.5-4.6 22.5c-0.5 3.5-1 10.5 0.5 10.5s2.5-8.5 2.5-11.5zm-4.8-2 6.4-19.5-7.1 20.5c-1.3 4-1.5 8.5-0.5 8.5s3-3.5 3-6.5l-1.8-3zm-2.2 5 8.6-24.5-9.9 28.5c-1.5 6-0.5 10.5 1.5 8s3.8-10.5 3.8-14l-4 2zm-2-1 10.6-23.5-12.6 27.5c-0.8 4 0.5 4 4-2l-2-2z"/>
  <path class="cls-4" d="m74.4 54.9c-1 5.6 0.6 20.2 0.6 20.2s2.4-14 1.1-20.2h-1.7zm0.6 20.2 5.9-17.5c0.5-3 0.2-5.5-0.8-4.7-1 0.7-3.5 7-3.5 10.2l-1.6 12zm5.1-17.5 2.8-7c0.5-4 0-6.1-0.8-5.5-0.7 0.5-3 4-3.5 10.4l1.5 2.1zm3.3 1 3.2-6.5c1-3 2.5-5.5 1-5.5s-3.5 4-4.2 7l-1.8 6.3 1.8-1.3zm-0.8 6.9 6.5-5.6c1.5-1.3 2.5-1.3 1.8 0.6-0.8 1.9-4.3 5.9-6.8 7.4l-9.1 7.2 7.6-9.6z"/>
  <path class="cls-3" d="m62.4 43.6-1.3-7c-1-4-3.5-7-4.5-6.5s-1 4.5 1 9l3.5 9.5 1.3-5zm-4.8-1.5c-1-2.5-5-9-6-8s1 6.5 6 11.4l5.8 5.1-5.8-8.5zm-4-1c-3-3.5-7.5-6-8.2-4.5-0.8 1.5 1.2 5 2.2 5.5l9 8.5-3-9.5zm-5 5c-2-2.5-6.5-6-7.2-5-0.8 1 2.2 5 5.2 7.5l8.9 9-6.9-11.5zm-6.5 0.5c-2-1.5-5.5-2.7-5.7-1.5-0.3 1.3 1.2 4 5 7.5l14.1 5-13.4-11zm0 8.3-4.5-2.8c-3-1.5-4.5-1.5-4-0.5s3 3.3 7.8 6l9.2 5.5-8.5-8.2zm-3.2 2.2c-3-1-8.8-2.5-9-0.5-0.3 2 4.2 3.9 5.2 3.9l10.3 2.6-6.5-6zm-1.3 6.3c-3.5-1-8.7-1.5-8.6-0.3 0.1 1.3 4.6 2.8 8.6 3.8l13-0.5-13-3zm-5 4.2c-3-0.5-6.5 0-6 1.5s5.5 3 8 3.8l14-0.8-16-4.5zm2 5.8c-4 0-7.5 0.7-7 2 0.5 1.2 5 1.2 10 1.2h11l-14-3.2zm0 4c-3.5 0.7-8.2 2.2-8 3.7 0.3 1.5 4 1.8 6 1.3l10-2.3 6-3.5-14 0.8zm2.5 5.7-7.5 2.5c-1 1-1.5 2 1 2l7-0.7 11-6.8-11.5 3zm-7.5 6.8c3-0.5 8-3 8-3l11-3.8-18 6.8c-3 1.5-7 3.5-7 5.7l6-5.7zm5 0.2 14-4.5-11 7c-3 2-8 2-7.7 0.3l4.7-2.8zm2 3.5 12-6.7-12 7.2c-2 1.5-4 3.5-2.5 4.3 1.5 0 6-1.8 8.5-3.3l11-8.2-17 6.7zm4.8 3 12.2-8-12.2 11c-1.8 1.5-4.8 5.5-4.8 4.5s0-3 4.8-7.5zm5.2 4.5-4 4.5c-1 2-1.5 3.5 1 2.5s5-4.5 7-5.5l8-8-12 6.5zm4 2.5-4 5.5c-1 2.5-2 5.5 0 5s5-3.5 7-6l5-5.5-8 1zm3 5.5-1.5 4c-0.5 3 0.5 4 3.4 0.5l7.9-12.5-9.8 8zm4 2c-1 3-2.5 9.5 0 8.8 2.5-0.8 4.8-8.3 5.8-12.3l1.7-6.5-7.5 10zm5.8 1.5-0.8 4.5c0 3.5 0.8 4.5 2.5 2 1.8-2.5 1.8-5.5 2.5-6l1-9.5-5.2 9zm4.5 5c-0.5 3 0.7 7 2.5 5 1.7-2 2.2-7 2.2-7l2.4-14.5-7.1 16.5zm5.5-5c0 4 0.2 10 1.7 9.8 1.5-0.3 2-6.3 1.5-10.8v-12l-3.2 13zm4 3c0.5 4 2.2 8 3.5 7.8 1.2-0.3 1.7-3.8 0.7-7.8l-2.5-12-1.7 12zm5.2-2.5 1.5 4.5c1.8 3.5 3 4 3.5 2s-1-7-1-7l-4-11.5v12zm2.8-9.5 3.7 12c1 2.5 3.5 5.5 4.5 4s0-6-1-8.5l-6-10-1.2 2.5zm8.2 2 3 7.5c2.5 4 3.5 3.5 2-0.5l-5-9v2zm3.5 3.5c2.5 3 6.5 5.5 7.3 5 0.7-0.5 0.7-2.5-1.8-6l-9-8.5 3.5 9.5z"/>
  <path class="cls-4" d="m62.4 43.6c-0.8 0 0 4 2 9l10.6 22.5-9.9-28.5c-0.7-1-1.7-3-2.7-3zm-2.3 0.9c-1.5-1.9-3.5-4.4-4.2-2.9-0.8 1.5 1.7 7 3.7 10.5l15.4 23-14.9-30.6zm-5 3.1c-1 1 1.5 5 3.5 7.3l16.4 20.2-15.4-24.5c-1-1-3.5-4-4.5-3zm-7.5-0.5c-1 1.5 3 6 5 8l22.4 20-21.4-24.5c-2-2-5-4-6-3.5zm1 7.5c-1 1 2 3.5 5 5.3l21.4 15.2-21.4-18.5c-2-1-4.5-3-5-2zm-7 1c-1 2 5 5.3 9 7.8l24.4 11.7-29.4-19c-2-0.5-3.5-1-4-0.5zm2.5 6.8c-1 1 2.5 2.7 6.5 4.2l24.4 8.5-26.4-12.2c-2-0.5-4-1-4.5-0.5zm-6.5 2.5c-1 1.5 5 3.5 9 4.5l28.4 5.7-31.4-10.2c-2-0.3-5.5-0.8-6 0zm4.5 5.7c-0.5 1 1.5 1.5 6.5 2.5l26.4 2-28.4-5c-2 0-4 0-4.5 0.5zm-5.5 4.5c0 1.5 6 2.3 10 1.8l28.4-1.8-32.4-1.7c-3 0.2-6 0.7-6 1.7zm5.5 4c-1 1.5 2.5 1 4.5 1l16.8-3.2-9.8-0.3c-4 0-11 1-11.5 2.5zm-4.5 5.5c-1 2 2.5 1.3 5 1l8-1.7 12.8-6-17.8 3.2c-3 1-7 2-8 3.5zm6.5 2.3c-1 1.7 1.5 1.7 6.5-0.3l14.5-6.5-11.5 3c-3 1-8.5 2.5-9.5 3.8zm-2.5 6.7c0 2 5 0 9-2l14.5-9.5-18.5 7.5c-2 1.5-5 3-5 4zm7 1c0 1.5 5-1 6.9-3l9.6-9.5-11.5 7.5c-2 1.5-5 4-5 5zm-1 7c0 2 4 0 7.9-4l9.6-9-11.5 8c-2 2-6 4-6 5zm7.3-1c-0.3 2 2.7 0.5 5.2-4l14.9-21.5-17.4 21.5c-1 2-2.7 3.5-2.7 4zm1 7c-0.3 3 2.7 1 5.2-3l7.5-13-9 9.5c-2 2.5-3.5 4.5-3.7 6.5z"/>
  <path class="cls-4" d="m73.6 94.6c-1 4.5 0 19.5 1.5 19.5s2.5-8.5 1-19.5h-2.5zm2.5-8 0.5 11c0 4-0.5 8-1.6 7.5s-2.1-5.5-1.1-10.5l1.1-19.5 1.1 11.5zm2.5 7 1.5 2c1.5 2 1.5-2 0.8-5l-5.9-15.5 3.6 18.5zm1.5 6 1.5 4c1.8 2.5 1.8 0 1-6l-7.6-22.5 5.1 24.5zm5.3 0 1.2 5c2 3 2 0 0-5l-11.6-24.5 10.4 24.5zm2.2 3 4 5c3 2.5 3.5 1.5 2.5-2l-5-9-14.1-21.5 12.6 27.5zm2.5-6 3.5 4.5c3 1.5 1.5-1.5-1-5.5l-17.6-20.5 15.1 21.5zm-2.5-7 4 4c3 2.5 5 3 4.5 1s-3.5-5.5-6-7l-15.1-12.5 12.6 14.5zm0-3 7.5 6c2.5 2 6 4 6.5 2l-6.5-6-20.1-13.5 12.6 11.5zm4-0.7 7 4.7c3 2 5.5 3 5.5 2l-4.5-4-24.6-13.5 16.6 10.8zm7.5 0.7 6 4c2.5 2 3.5 2 3.5 0l-7.5-4.7-26.1-10.8 24.1 11.5zm2-2 4 2c2.5 1 1.5 2-4 0l-26.1-11.5 26.1 9.5zm2.5-4 6 1.5c4 1.5 4.5 3.5 1 3.5l-9.5-1.7-26.1-8.8 28.6 5.5zm0-4 4.5 1.3c4 0 6-1.3 4-2.8l-8.5-1.7-28.6 1.7 28.6 1.5z"/>
</svg>