<svg xmlns="http://www.w3.org/2000/svg" viewBox="0 0 150 150">
<!-- SVG created with Arrow, by QuiverAI (https://quiver.ai) -->
  <style type="text/css">.cls-0 {fill:#A63817;}
.cls-1 {fill:#942C11;}
.cls-2 {fill:#332B1F;}
.cls-3 {fill:#9E7522;}</style>
  <path class="cls-0" d="m50.3 22.9c-3.2-1.2-4.3-0.9-5.7 0.1-1.4 0.8-3.7 1.2-4.7 2.8s-0.3 1.6 2.1 2.5l5.1 1.2 3.2-6.6z"/>
  <path class="cls-0" d="m99.8 23.1c2.8-1.3 4.3-1.6 5.6-0.6 1.7 0.9 4.3 1.5 5 3 0.9 1.1 0 2.2-2.4 2.8l-4.8 1.1-3.4-6.3z"/>
  <path class="cls-0" d="m45.3 31.8c-4.2-2.2-7.2-4.4-12.1-1.9-1.9 1.1-2.7 1.4-4.2 2-2.5 1.2-3.3 2.5-4 3.6-5.9 1-10.2 5.6-11 8.5l1.3 0.1c-1.3 2.4-1.9 4-2 7.2 4.3-2.7 13.2-7.8 21.2-8.4 4.3-0.3 8.4 0.1 9.9 0.1v-4.9l0.9-6.3z"/>
  <path class="cls-0" d="m104.5 32c4.2-2.3 7.1-4.5 11.1-3.2 1.7 0.6 2.8 1.6 4.6 2.3 2.5 1.1 3.6 2.2 4.9 4.4 4.5 0.8 9.4 4 11 8.5h-1.3c1.2 2.4 1.9 4.1 2 7.2-4.3-2.7-12.2-7.3-20.3-8.3-4.2-0.4-9.4 0-9.8 0l-0.6-5-1.6-5.9z"/>
  <path class="cls-0" d="m43.6 45.8c-12.7-0.3-21.5-0.8-28.4 4.7-5.3 3.8-7.8 9.5-7.6 15.5l1.3-0.3c-0.2 2.6 0.2 4.9 1 7.3 3-3.3 7.7-8.4 10.1-10.8 6.7-6.7 14.3-9.5 23.8-10.9l1.5 3c-11.9 4.3-25.9 8.1-33.1 17.8-4.2 5.4-6.2 10.2-6.2 17.8 1 0.1 2-0.3 2-0.3 0 1.9 0.5 3.3 1.2 4.6 3.7-3.8 10.4-10.7 15.4-16.6 5.9-7 15-13.5 23.1-18.2l3.7-1.9-1.9-5.9-5.9-5.8z"/>
  <path class="cls-0" d="m105.7 54.2 12.1 4.5c7.6 2.9 14.3 6.3 19.5 12.4 4 4.8 6.9 10.6 6.7 18.8-0.8 0-2-0.3-2-0.3 0 1.9-0.4 3.3-1.3 4.7-3.4-3.5-9.6-9.6-15.3-16.4-5.9-7-14.8-13.8-23.2-18.5l-2.8-3.3 2.8-3.4 3.5-2.6c9.4 1.5 17.4 3.6 23.9 10.4l10.3 12.4c1-2.5 1.1-4.6 0.8-7.2l1.7 0.3c0.3-5.9-3.6-12.3-8.8-15.2-7.1-4.4-14.5-5.4-26.9-5l-1 8.4z"/>
  <path class="cls-0" d="m55.6 65.2c-8.5 7.7-15.6 16.3-18.8 26.5-1.7 6.6-6.3 13.4-13.7 22.9-0.9-1.2-1.5-2.7-1.6-4.5-0.8 0.7-1.7 1.2-2.8 1.4-1.8-15 3.3-28 16-37.9l16.4-12.5 4.5 4.1z"/>
  <path class="cls-0" d="m56.7 66.8c-7.7 12.6-17.3 24.5-18.1 42.6-0.4 7.1 0.5 15.2 2.3 22.6 1.1-0.4 2.2-1.2 2.9-2.3 0.6 1.4 1.3 2.5 2.3 3.4 3.4-7.7 6.8-18.1 7-28.5 0.3-13.3 3.3-23.1 8-34.6l-4.4-3.2z"/>
  <path class="cls-0" d="m63.8 70.1c-4.2 12.3-10.2 23.4-10.7 41.4 0.3 8.9 1.8 17 4.7 25.5 1.1-0.5 2-1.4 2.6-2.4 0.5 1 1.5 2.1 2.7 2.8 3.3-8.3 5.1-18.3 4-29.3-1.6-12.7-0.7-24.6 2.4-36.8l-5.7-1.2z"/>
  <path class="cls-0" d="m72.1 71.7c-0.6 16.4-4.6 30.7-4.1 47 0.2 7 2.1 15.2 4.6 21.9 1-0.5 1.9-1.2 2.4-2.1 0.5 0.9 1.4 1.7 2.2 2.2 3.2-7.6 4.8-15.6 4.5-27.8-0.2-10-3.5-27.5-3.9-41.6l-5.7 0.4z"/>
  <path class="cls-0" d="m80.1 71.5c3 10.5 4.4 22 2.5 35.6-1.5 10.3 0.8 21.6 4.4 30.1 1.1-0.6 2.1-1.6 2.6-2.7 0.5 1.1 1.5 2 2.8 2.5 3.5-8.5 5.5-20.4 4.3-32.4-1.2-11.1-6.6-22.9-10.6-35.1l-6 2z"/>
  <path class="cls-0" d="m88.9 69c4.7 10.6 8 22.7 8 35.1 0.5 10.4 3.5 20.5 6.9 29 1.1-0.9 1.9-2 2.3-3.4 0.6 1.1 1.5 1.8 2.8 2.3 2.2-6.4 3.5-17.5 1.7-28.9-2.6-13.1-10.2-23.5-17.2-36.2l-4.5 2.1z"/>
  <path class="cls-0" d="m96.1 65.4c7.3 6.7 13.8 14.7 17 24.6 1.6 6.9 6.3 15 13.8 24.6 0.9-1.2 1.6-2.7 1.7-4.5 0.8 0.7 1.6 1.2 2.9 1.3 1.6-14.9-3.4-27.3-15-37l-16.1-12.9-4.3 3.9z"/>
  <path class="cls-1" d="m16.4 41.9c6.1-4 15.7-5.5 27.4-3.6l-0.2 0.8c-9-1.6-18.9-2-27.2 2.8z"/>
  <path class="cls-1" d="m15.9 47.4c5.6-4.9 13.5-7.5 27.5-6v1.1c-8.5-0.5-17.7-0.9-27.5 4.9z"/>
  <path class="cls-1" d="m8.9 63.7c2.5-7.2 10.5-15.2 34.5-17.8l0.2 0.7c-13 0.5-31 5.8-34.7 17.1z"/>
  <path class="cls-1" d="m10.1 68.7c3.8-9.3 14-15.8 33.5-19.7l0.2 1c-9.2 0.9-27.7 7.9-33.7 18.7z"/>
  <path class="cls-1" d="m28 34.6c3.9-1.5 9.9-2.6 16.5 0l-0.4 1.4c-4.6-1.9-10-3.4-17-1.3l0.9-0.1z"/>
  <path class="cls-1" d="m34.5 29.7c3.1-0.3 6 0.3 10.9 2.7l-0.4 1c-2.6-1.5-6.9-3.4-10.5-3.7z"/>
  <path class="cls-1" d="m7.6 87.5c3.5-13.1 17.5-22.9 37.9-31.9l0.4 0.8c-11.4 4.5-33.3 16.5-38.3 31.1z"/>
  <path class="cls-1" d="m9.5 90c6.9-11.5 20.1-22.5 37-32.5l0.4 0.6c-9.3 5.3-29.5 20.4-37.4 31.9z"/>
  <path class="cls-1" d="m20.2 107.6c1.9-18.5 15.3-31.2 29.7-45l0.7 0.5c-15 11.6-28.2 27.8-30.4 44.5z"/>
  <path class="cls-1" d="m23.4 110.4c6.2-14.8 14.1-30.8 29-46.3l0.6 0.5c-10.9 10.3-22.4 30.3-29.6 45.8z"/>
  <path class="cls-1" d="m42.4 128.1c-1.9-15.5 2-37.5 15-60.6l1.2 0.6c-10 17.4-17.1 43-16.2 60z"/>
  <path class="cls-1" d="m45.1 129.1c1.6-8 4-23.7 5.5-32.5 2-10.5 4.9-18.1 8.9-27.9l1.1 0.4c-3.5 7.8-6.6 16.5-8.7 29.4-1.5 10.4-4.8 25.6-6.8 30.6z"/>
  <path class="cls-1" d="m58.6 133.1c-3.5-19.7-1.2-42.5 5.9-63l0.6 0.3c-5.2 15.2-9.5 43-6.5 62.7z"/>
  <path class="cls-1" d="m62.1 133.7c0.5-6.8 1.4-16.6 1.3-24.8-0.3-10.8 0.7-23.4 4-38.3h0.9c-2.7 12.3-3.9 20.3-4.1 32.8 0.2 8.2 0.2 18.7-2.1 30.3z"/>
  <path class="cls-1" d="m73.4 137.6c-2.8-14.7-1.3-39 0-66h0.5c-0.8 27.5-2.5 50.8-0.5 66z"/>
  <path class="cls-1" d="m76.5 138.5c2.1-12.4 1.6-26.9-0.4-66.9l0.6-0.1c1.4 27.1 3.4 53.1-0.2 67z"/>
  <path class="cls-1" d="m87.9 133.7c-2.3-14.2-2-27.2-2.3-37.6-0.2-8.6-2.2-19.2-3.2-25h0.5c1.2 5.4 3.6 16.5 3.7 25.4 0.3 12.6-0.2 24.6 1.3 37.2z"/>
  <path class="cls-1" d="m91.1 133.5c3-15.9 1.5-42.9-6.5-63.1l0.8-0.3c6 17.8 10 44.4 5.7 63.4z"/>
  <path class="cls-1" d="m104.5 129.4c-2.6-13.3-4.4-24.8-5.6-33.5-1.5-9.4-6.3-23-8.3-27.4l1-0.4c2.8 5.5 8 18.4 9 28.5 1.3 11 2.8 24.5 3.9 32.8z"/>
  <path class="cls-1" d="m107.1 128.5c1.8-7 0.3-19.9-3-33.9-2.7-11-7.7-22-11.5-27.5l0.5-0.2c4.3 6.5 8.8 16.2 11.5 26.5 3.3 12 4.8 28.1 2.5 35.1z"/>
  <path class="cls-1" d="m126.5 110.6c-7.1-16-15-33.1-28.6-46.2l0.5-0.5c12.5 11.5 22.1 30.7 28.1 46.7z"/>
  <path class="cls-1" d="m130.1 107.9c-1.7-17-13.2-31.3-30.1-45l-0.5 0.5c15 11.2 28.6 28.5 30.6 44.5z"/>
  <path class="cls-1" d="m140.5 90.4c-6.1-11-22.1-24.4-37.1-32.3l0.2-0.5c11.5 5.8 31 20 36.9 32.8z"/>
  <path class="cls-1" d="m142.4 87.5c-4-13.1-16.8-22-37.9-31.6l-0.1 0.2c11.5 4.3 33.7 15.8 38 31.4z"/>
  <path class="cls-1" d="m139.5 68.9c-4.4-9.5-14.9-15.5-33.1-19.5l0.1-0.4c8.1 0.6 28.6 6.4 33 19.9z"/>
  <path class="cls-1" d="m141 64.4c-2.6-7.9-11.4-16.5-34.1-17.9v-0.1c10 0 30 2.2 34.1 18z"/>
  <path class="cls-1" d="m134 47.4c-6.1-5-13.5-7.5-27.5-6l-0.1-1c8.2-1 18-1.3 27.6 7z"/>
  <path class="cls-1" d="m133.6 42.1c-6.1-3.7-13.5-5.7-27.1-3l-0.1-1.2c7.5-2.5 19.2-3.3 27.2 4.2z"/>
  <path class="cls-1" d="m122.5 34.7c-3.9-1.3-8.9-2.2-16.6 0.2l-0.3-0.8c4.8-1.5 10-2.5 16.9 0.6z"/>
  <path class="cls-1" d="m115.6 29.9c-2.7-0.2-6 1-10.5 3l-0.4-0.5c2.7-1.5 6.9-3.4 10.9-2.5z"/>
  <path class="cls-1" d="m30.1 35c4.4-0.1 9.3-0.3 14.3 1.5l-0.5-0.1 0.2 0.1-0.2-0.1c-3.5-1-7.8-1.8-13.8-1.4z"/>
  <path class="cls-2" d="m75.1 9.5c-17.5 0-32.4 17.1-32.4 34s14.2 28.4 32.3 28.4c14.4 0 32-7.8 32-27.8 0-13.1-10.1-34.6-31.9-34.6z"/>
  <path class="cls-3" d="m70.6 12.3c-1-0.2-2 1.1-0.6 1.1 0.9 0 1.1-0.9 0.6-1.1z"/>
  <path class="cls-3" d="m69.5 17c0.1 1.1 2.2 0 1.5-0.6-0.4-0.5-1.5 0.1-1.5 0.6z"/>
  <path class="cls-3" d="m64.1 14.1c0.3 1 2.3 0.5 0.9-0.2-0.4-0.3-0.9 0-0.9 0.2z"/>
  <path class="cls-3" d="m63.8 16.9c0.1 0.7 1.6 0.7 0.8-0.1-0.2-0.3-0.7-0.2-0.8 0.1z"/>
  <path class="cls-3" d="m58.1 18.5c0.5 0.6 2-1 0.9-1-0.4 0-1.1 0.6-0.9 1z"/>
  <path class="cls-3" d="m60.6 20c-0.1 0.9 2 1 1.2 0-0.3-0.5-1.2-0.5-1.2 0z"/>
  <path class="cls-3" d="m54.5 22.6c-0.4 1.3 1.6 2.1 1.1 0.5-0.2-0.6-1-1.2-1.1-0.5z"/>
  <path class="cls-3" d="m65.2 19.6c-0.2 1.3 1.9 1.5 1.2 0.3-0.4-0.5-1-0.8-1.2-0.3z"/>
  <path class="cls-3" d="m63.6 21.9c-0.2 1.5 1.5 1.7 0.9 0-0.1-0.5-0.7-0.5-0.9 0z"/>
  <path class="cls-3" d="m59.7 24.9c-0.1 0.8 1.9 0.6 1.3-0.3-0.4-0.2-1.1-0.2-1.3 0.3z"/>
  <path class="cls-3" d="m56.6 27.5c0.3 0.6 1.3-1 0.4-0.9-0.3 0.3-0.4 0.8-0.4 0.9z"/>
  <path class="cls-3" d="m51.2 27.9c0 1.1 1.5 0.7 0.9-0.3-0.4-0.2-0.7-0.1-0.9 0.3z"/>
  <path class="cls-3" d="m53.8 31.4c0.1 0.5 1.3 0.2 0.8-0.3-0.2-0.2-0.7-0.1-0.8 0.3z"/>
  <path class="cls-3" d="m50.7 35.1c-0.1 1.3 0.9 0.9 0.5 0-0.1-0.1-0.3-0.1-0.5 0z"/>
  <path class="cls-3" d="m46.1 40.6c0.6 0.5 1.5-1.2 0.6-1-0.3 0-1 0.9-0.6 1z"/>
  <path class="cls-3" d="m53.1 41.1c0.5 0.4 1.4-1 0.5-0.9-0.2 0.2-0.6 0.7-0.5 0.9z"/>
  <path class="cls-3" d="m60.4 38.4c0.1 1 2.1 1 1.2 0-0.5-0.5-1.2-0.4-1.2 0z"/>
  <path class="cls-3" d="m63.5 33.7c-0.4 1.8 1.6 1.9 0.9 0-0.3-0.3-0.8-0.3-0.9 0z"/>
  <path class="cls-3" d="m62.7 28.1c0 1.6 1.9 1.3 0.8 0-0.4-0.4-0.8-0.2-0.8 0z"/>
  <path class="cls-3" d="m59.5 30.7c0.5 0.7 1.4-0.8 0.4-0.5-0.3 0.2-0.4 0.4-0.4 0.5z"/>
  <path class="cls-3" d="m66.4 29.4c0.3 1 2-0.5 1.1-0.9-0.5 0-1.1 0.5-1.1 0.9z"/>
  <path class="cls-3" d="m68 23.9c0.5 0.7 1.6-0.8 0.7-0.9-0.3 0.1-0.8 0.6-0.7 0.9z"/>
  <path class="cls-3" d="m70 26.9c0.6 1 1.7-1.4 0.7-1.3-0.5 0.3-1 1-0.7 1.3z"/>
  <path class="cls-3" d="m72.1 21.1c0 0.8 1.8 1.3 1.1-0.1-0.3-0.4-1.1-0.4-1.1 0.1z"/>
  <path class="cls-3" d="m73.1 15.9c0.8 0.5 0.8-1.8 0-0.9-0.2 0.4-0.2 0.9 0 0.9z"/>
  <path class="cls-3" d="m75 17.9c0.4 1.7 1.5 0.6 0.6-0.5-0.2-0.3-0.6 0.1-0.6 0.5z"/>
  <path class="cls-3" d="m75.1 11.9c0.8 0.7 0.9-1.3 0.3-0.8-0.3 0.3-0.4 0.6-0.3 0.8z"/>
  <path class="cls-3" d="m77.5 14.4c0.7 0.7 1.5-1.3 0.4-1-0.4 0.2-0.5 0.7-0.4 1z"/>
  <path class="cls-3" d="m78.6 20.4c0.4 1 2.3-0.7 1-0.9-0.5 0-1 0.4-1 0.9z"/>
  <path class="cls-3" d="m77.4 23.5c0.7 0.6 1.5-1 0.5-0.8-0.3 0.3-0.5 0.7-0.5 0.8z"/>
  <path class="cls-3" d="m73.7 25.4c0.2 1.2 1.7 1 0.7-0.2-0.3-0.2-0.7-0.1-0.7 0.2z"/>
  <path class="cls-3" d="m71.9 30.2c-0.5 1.7 1 1.2 0.5-0.1 0-0.1-0.3-0.1-0.5 0.1z"/>
  <path class="cls-3" d="m68 33.9c-0.4 1.6 1.1 0.8 0.5-0.2-0.1 0-0.5 0-0.5 0.2z"/>
  <path class="cls-3" d="m68.1 38.6c-0.5 1.8 1.3 0.8 0.6-0.5-0.2 0-0.5 0-0.6 0.5z"/>
  <path class="cls-3" d="m63.9 43.1c0.2 0.5 1.5 0 0.6-0.4-0.4 0-0.6 0.3-0.6 0.4z"/>
  <path class="cls-3" d="m59.7 50.1c0.3 0.8 2.2 0 1.3-0.6-0.5-0.3-1.3 0.1-1.3 0.6z"/>
  <path class="cls-3" d="m70.4 50.4c0.7 0.5 1-1.4 0.2-0.8-0.2 0.3-0.2 0.8-0.2 0.8z"/>
  <path class="cls-3" d="m73.2 40.9c0 1 1.8 0.7 0.8-0.3-0.3-0.2-0.8-0.1-0.8 0.3z"/>
  <path class="cls-3" d="m71.7 35.6c0.2 0.9 2.2 0 1.2-0.5-0.4-0.1-1.2 0-1.2 0.5z"/>
  <path class="cls-3" d="m76.1 34.1c0.6 0.6 0.9-1 0.3-0.6-0.3 0.1-0.4 0.5-0.3 0.6z"/>
  <path class="cls-3" d="m76.9 29.6c-0.3 1.8 2 2 0.7 0-0.2-0.2-0.6-0.2-0.7 0z"/>
  <path class="cls-3" d="m80.1 29.4c0 1.2 1.6 1.2 0.6-0.3-0.2-0.1-0.6 0-0.6 0.3z"/>
  <path class="cls-3" d="m80.2 25.5c0.2 1.1 2.3 0.5 1-0.4-0.3-0.1-1 0-1 0.4z"/>
  <path class="cls-3" d="m82.9 16.1c-0.5-0.6-1.8 0.8-1.3 0.8 0.4 0.6 0.9-0.5 0.3 0l1-0.8z"/>
  <path class="cls-3" d="m83.4 13.4c0 1.2 2 2 1 0.2-0.5-0.5-1-0.5-1-0.2z"/>
  <path class="cls-3" d="m86.1 17.9c0 1.1 2.6 0.7 1.8-0.3-0.5-0.6-1.8-0.2-1.8 0.3z"/>
  <path class="cls-3" d="m83 21.5c0.1 1.4 2.1 0.9 0.9-0.4-0.4-0.1-0.9 0-0.9 0.4z"/>
  <path class="cls-3" d="m82.6 27.4c0 1.7 1.5 0 0.6-0.3l-0.6 0.3z"/>
  <path class="cls-3" d="m84.5 30.5c0.5 0.6 1.6-0.9 0.5-0.6-0.4 0.1-0.5 0.5-0.5 0.6z"/>
  <path class="cls-3" d="m83.4 36.9c0 1.2 1.7 1.2 0.6-0.2-0.3-0.2-0.6-0.1-0.6 0.2z"/>
  <path class="cls-3" d="m83.5 42.6c0 1.5 1.4 0.8 0.5-0.5l-0.5 0.5z"/>
  <path class="cls-3" d="m81.6 46.5c-0.1 1.1 1.1 0.9 0.5-0.1-0.1 0-0.5 0-0.5 0.1z"/>
  <path class="cls-3" d="m80.7 57.6c-0.1 1.3 1.2 1 0.4-0.1l-0.4 0.1z"/>
  <path class="cls-3" d="m88.1 34.1c0 1.3 2.3 0.9 0.9-0.1-0.4-0.1-0.9 0-0.9 0.1z"/>
  <path class="cls-3" d="m88.1 24.1c-1 1.5 1 2.5 1 0.3 0-0.5-0.7-0.8-1-0.3z"/>
  <path class="cls-3" d="m87.6 21c0 0.9 1.4 0.7 0.4 0-0.1-0.1-0.4-0.1-0.4 0z"/>
  <path class="cls-3" d="m91.9 19c0 1.1 2.2 0.6 1.1-0.1-0.4-0.3-1.1-0.2-1.1 0.1z"/>
  <path class="cls-3" d="m91.5 25c0 1.4 1.9 1.1 0.6-0.1-0.2-0.3-0.6-0.2-0.6 0.1z"/>
  <path class="cls-3" d="m91.1 29.4c-0.5 1 2 2 1 0.2-0.4-0.5-0.9-0.5-1-0.2z"/>
  <path class="cls-3" d="m96.1 30.4c0.3 0.7 1.5 0 0.8-0.3l-0.8 0.3z"/>
  <path class="cls-3" d="m100.4 29.6c0 1.3 1.5 1.1 0.7 0-0.2-0.4-0.7-0.2-0.7 0z"/>
  <path class="cls-3" d="m101.1 39.6c0 0.9 1.5 0.8 0.9-0.1l-0.9 0.1z"/>
  <path class="cls-3" d="m93.1 38.1c-1 0.5 0.8 1.8 1.5 0.9 0-0.6-1-1.1-1.5-0.9z"/>
  <path class="cls-3" d="m93.1 45.5c-0.7 0.1 0 2.4 0.9 1.1 0-0.7-0.4-1.2-0.9-1.1z"/>
  <path class="cls-3" d="m78.1 38.6c-0.2 1.8 1.4 0.8 0.8-0.5-0.3-0.2-0.7 0-0.8 0.5z"/>
</svg>