<svg xmlns="http://www.w3.org/2000/svg" viewBox="0 0 150 149.8">
<!-- SVG created with Arrow, by QuiverAI (https://quiver.ai) -->
  <style type="text/css">.cls-0 {fill:#B03D0C;}
.cls-1 {fill:#871A0E;}
.cls-2 {fill:#363026;}
.cls-3 {fill:#2F2A23;}</style>
  <path class="cls-0" d="m75 6c-4.7 5.4-9.5 13.8-9.5 25.7s4.8 20.3 9.5 26c4.7-5.7 9.4-14.1 9.4-26 0-11.1-4.8-19.8-9.4-25.7z"/>
  <path class="cls-1" d="m65.5 31.7c0 11.9 4.8 20.3 9.5 26v-51.7c-4.7 5.4-9.5 13.8-9.5 25.7z"/>
  <path class="cls-0" d="m40.4 15c-1.3 7-0.9 16.6 4.5 26.4 5.5 9.8 13.7 14.8 21.5 18.5 1.2-7.3 0.8-16.9-4.7-26.2-5.3-9.3-14.2-16.1-21.3-18.7z"/>
  <path class="cls-1" d="m44.9 41.4c5.5 9.8 13.7 14.8 21.5 18.5l-26-44.9c-1.3 7-0.9 16.6 4.5 26.4z"/>
  <path class="cls-0" d="m14.6 40c2.3 6.7 7.2 14.9 16.8 20.6 9.5 5.7 19.2 6.8 28.5 5.8-2.7-6.9-7.6-15.1-16.9-20.7-8.9-5.6-18.9-7.2-28.4-5.7z"/>
  <path class="cls-1" d="m31.4 60.6c9.5 5.7 19.2 6.8 28.5 5.8l-45.3-26.4c2.3 6.7 7.2 14.9 16.8 20.6z"/>
  <path class="cls-0" d="m5.8 75.1c5.4 4.6 13.8 9.4 25.7 9.4 10 0 18.4-3.6 26.3-9.3-5.7-4.7-14.1-9.5-24.4-9.7-10.3-0.3-19 3.5-27.6 9.6z"/>
  <path class="cls-1" d="m31.5 84.5c10 0 18.4-3.6 26.3-9.3h-52c5.4 4.5 13.8 9.3 25.7 9.3z"/>
  <path class="cls-0" d="m14.6 109.7c7 1.3 16.6 0.9 26.4-3.5 9.8-4.6 15.6-12.9 18.9-22.5-7.3-1.2-16.9-0.8-26.2 4s-15.8 13.1-19.1 22z"/>
  <path class="cls-1" d="m41 106.2c9.8-4.6 15.6-12.9 18.9-22.5l-45.3 26c7 1.3 16.6 0.9 26.4-3.5z"/>
  <path class="cls-0" d="m40.2 135.1c6.7-2.2 14.9-6.6 20.6-15.2s7-19.1 5.6-29.9c-6.9 2.7-15.1 7.6-20.7 16.5s-7.2 19.1-5.5 28.6z"/>
  <path class="cls-1" d="m60.8 119.9c5.7-8.6 7-19.1 5.6-29.9l-26.2 45.1c6.7-2.2 14.9-6.6 20.6-15.2z"/>
  <path class="cls-0" d="m75 143.7c4.6-5.4 9.4-13.4 9.4-24.7s-4.8-19.7-9.4-27c-4.7 5.7-9.5 14.1-9.5 23.9-0.3 9.7 3.7 20.2 9.5 27.8z"/>
  <path class="cls-1" d="m84.4 119c0-11.3-4.8-19.7-9.4-27v51.7c4.6-5.4 9.4-13.4 9.4-24.7z"/>
  <path class="cls-0" d="m109.6 134.5c1.6-6.9 1.2-16.6-3.5-25.2s-12.2-15.4-22.5-19.3c-1.2 7.3-0.8 16.9 4 26.1 4.8 8.4 12.3 15.1 22 19v-0.6z"/>
  <path class="cls-1" d="m106.1 109.3c-4.7-8.6-12.2-15.4-22.5-19.3l26 45.1c1.6-7 1.2-17.2-3.5-25.8z"/>
  <path class="cls-0" d="m135.4 109.7c-2.3-6.7-7.2-14.9-16.4-20.4-7.9-5.3-17.5-7.3-28.9-5.8 2.7 6.9 7.6 14.2 15.1 19.1 7.5 5.5 18.3 8.7 30.2 7.1z"/>
  <path class="cls-1" d="m119 89.3c-7.9-5.3-17.5-7.3-28.9-5.8l45.3 26.2c-2.3-6.7-7.2-14.9-16.4-20.4z"/>
  <path class="cls-0" d="m144.2 75.2c-5.4-4.7-13.8-9.5-24.7-9.7s-18.4 3.8-27.1 9.6c5.7 4.6 14.1 8.9 23.5 9.4 9.3 0.6 20.2-2.5 28.3-9.3z"/>
  <path class="cls-1" d="m119.5 65.5c-10.9-0.2-18.4 3.8-27.1 9.6h51.8c-5.4-4.6-13.8-9.4-24.7-9.6z"/>
  <path class="cls-0" d="m135.4 40.1c-7-1.2-16.6-1.2-25.8 3.9-9.2 4.7-15.6 13-19.5 22.3 7.3 1.2 16.4 0.7 24.8-2.8 8.6-3.6 17-11.9 20.5-23.4z"/>
  <path class="cls-1" d="m109.6 44c-9.2 4.7-15.6 13-19.5 22.3l45.3-26.2c-7-1.2-16.6-1.2-25.8 3.9z"/>
  <path class="cls-0" d="m109.6 15.1c-6.7 2.3-14.9 7.3-20.4 16.1-5.5 8.7-7.1 18.3-5.7 28.8 6.9-2.7 14.6-7.2 19.4-14.1 4.8-6.8 9-18.5 6.7-30.8z"/>
  <path class="cls-1" d="m89.2 31.2c-5.5 8.7-7.1 18.3-5.7 28.8l26.1-44.9c-6.7 2.3-14.9 7.3-20.4 16.1z"/>
  <path class="cls-2" d="m75 57.6c-8.6 0-17.2 6.9-17.2 17.6 0 8.3 6.6 16.8 17.2 16.8 9.4 0 17.3-6.9 17.3-16.4s-7.9-18-17.3-18z"/>
  <path class="cls-3" d="m75 57.9c-8.3 0-16.4 6.9-16.8 16.5 0 8.1 6.2 17.2 16.8 17.2 9 0 16.9-6.8 17-16 0-9.2-7.6-17.7-17-17.7z"/>
</svg>