<svg xmlns="http://www.w3.org/2000/svg" viewBox="0 0 150 150">
<!-- SVG created with Arrow, by QuiverAI (https://quiver.ai) -->
  <style type="text/css">.cls-0 {fill:#84290B;}
.cls-1 {fill:#362A21;}</style>
  <path class="cls-0" d="m74.2 7.3-3.8 10.1-7.6-6.4 5.3 16.6-0.9 0.1-0.1 0.9c-1-1.9-2.5-5.7-2.5-5.7l-1.6 6.1-4.5-5.4-0.1 7.6-5.4-3.1c4.4 7.6 10.6 17.3 12.8 24.5l1.6 7.1-1.7-1.7c-5.6-6.6-13.4-20.5-18.1-42.2l-3.8 8.2-6-4.2c-0.4 2.3-0.8 6.3-0.7 9.4l-10.8-2.2 4.7 9.7-10.5 1.1c4.3 1.6 10.8 4.3 15.7 6.6v1.7l-5.9-1.8 2.5 5.9-6.5-0.5 4.2 4.9-5.9 2.3c11.7 2.1 21.9 5.2 31.1 10.1l2.4 2.3-8.8-5.4 9.3 4.8-0.5 0.9-14.5-1.5 13.5 5.3-10.8 1.8 10.3 2-10.1 1c-10.2 1.1-22.1 4.5-35.8 11l4.6-7-6.8-2.9 5.8-1.8-7-6.1 8.1-4.2c-1.5-2.1-4.3-6.7-5-8.3l7 0.9-2.8-9.7c8.2 8.5 18.1 17.3 27.6 20.6 4.3 1.5 9.7 2.7 14.9 2.7l-10.9 1.8 10.8 1.8c-13.4 4.9-26.1 7.8-46.6 9.9"/>
  <path class="cls-0" d="m74.2 7.3 4.4 9.2 5.5-7.3 1.6 8.8 8.6-4c-8.4 12.9-15.2 24.9-17.6 44h0.2l5.3-13.8-1.1 14.2 5.6-9-2.4 8.1 6.5-7.5-4.4 10.8c6-7.4 12.9-14.2 23.1-21.4l0.1-1.5-4.6-0.1 2.1-6.6-5.9 3.3 0.1-8.2-5.7 5.6-2.6-7.2c-1.5 12.1-4.4 23-8.7 32.8l6.5-7.5-4.4 10.8c6-7.4 12.9-14.2 23.2-21.5l-0.1-1.4h0.9c1.7-3.7 3.3-8.5 4.4-12.4l2.2 8.4 5.6-3.8c0 2.7-0.2 6.5-0.5 8.7l9.6-0.4-3.5 7.4 6.3-0.8-4.8 5.8 7.3 4.4c-11.5 0.2-22.4 2.7-33.1 7.2l-12 4.6v0.2l9.8-3.3-9.6 5.5 0.1 0.1 13.9-1.4-13.1 5.3 10.6 1.8-10.7 1.7c11.7 0.5 24 2 46.7 11.7l-4.7-7.5 7.7-2.4-7.4-4.2 7.5-6-10.1-2.1 4.7-8.9c-9.6 5.6-23.7 12.4-37.8 15l-6.5 0.9 10.6 1.8-10.7 1.7c11.7 0.5 24 2 46.7 11.7l-8.8 4.9 7.8 7.4-9.7 0.9 4.5 8.3-8.3-2.2 0.4 9.2c-7.7-11.5-19.9-24.4-34.1-33.7l9.3 2.7-8.6-5.4c11 4.9 24.8 8.5 47.5 8.1"/>
  <path class="cls-0" d="m57.5 136.9-4.9-8.1-5.9 6.6-0.9-9.2-8.9 5.1 1.3-8.5-6.1 1.8 3.9-5.9-7 0.2c10.7-6.3 25.8-16.3 34.2-28.9l-10.5 7 8.4-10.5-7.2 3.6-26.6 31.3 0.7-10.1-11.1 2.4 4.7-9.4-9-0.3 6-6.1-8.2-4.4c15.1-0.3 29.3-2.4 43.7-8.3l4.9-1.8-9.7 2.7 8.9-5.4-14.7 1.3 13.3-4.8h-0.2l2.9-0.2-13.2-1.8 10.8-1.8c-8.3 1.8 2.4 3.6-0.3 3.8l2.7-0.2-13.2-1.8 10.8-1.8c-5.2 0-10.6-1.2-14.9-2.7l14.4 6.5h0.2c-13.3 4.7-25.9 7.6-46.1 12m18.3 29.7c7.2-10.3 15.6-20.3 24.9-28.8l-4.9 2.6 10-9.3-4.9 1.8c-13.4 5.5-28.6 8-43.7 8.3l8.2 4.4-6 6.1 9 0.3-4.7 9.4 11.1-2.4-0.7 10.1"/>
  <path class="cls-0" d="m92.7 135.6-5.9-3 0.5 6.5-4.7-4.1-2.7 7.7-5.2-7.8-4.7 7.3-2.1-8.2-7.7 4.7c6.7-12.6 12.4-26.7 12.9-46h3.5c1.3 13.7 7 28.4 16.1 42.5v0.4z"/>
  <path class="cls-0" d="m83.4 91.1c6.2 14 9.2 28.3 9.3 45.6l4.7-8 5.7 6.7 0.8-9.3 9.2 5.2-1.8-12.3 10.8 0.8c-12-7.1-27.4-18.7-35.4-29.8l-3.3 1.1z"/>
  <path class="cls-0" d="m65.7 52.6 3.6 5.5-0.9-13.9 4.5 12.8c0-7.3-1.3-15.6-3.4-23.3-1 7.4-1.1 15.5-0.2 24.4l-3.6-5.5z"/>
  <path class="cls-0" d="m40.8 46.9c4.4 7 10.6 13.6 18.2 20l-9.8-10 11.9 6.8-2.5-3.6-17.8-13.2z"/>
  <path class="cls-1" d="m75 45.7 1.7 12.3h0.1l5.4-13.8-1.4 14.2 5.9-9-2.4 8.1 6.5-7.5-4.4 10.8 10.7-8.2-8 11.1 11.9-6.9-10 10.1 10.7-3-9.6 5.6 14-1.4-13.1 5.3 10.6 1.8-10.7 1.7 13.2 5-14-1.2 8.6 5.4-9.8-2.9 9.8 9.7-11.7-6.5 8.2 10.5-10.8-7.5 5.5 11-8.7-9.2 2.7 8.9-5.5-8.3 1.1 14.1-4.8-13.3-1.8 10.9-1.8-10.8-5 13.2 1.2-14.3-5.3 8.6 2.2-8.6-8.1 8.8 5.4-11-10.8 7.6 8.4-10.5-12.1 6.4 10-9.5-9.7 2.7 8.9-5.4-14.7 1.3 13.5-5-10.7-1.8 10.8-1.8-13.5-5.3 14.5 1.4-8.8-5.6 9.7 3-9.8-10 11.9 6.8-8-11.1 10.5 8.2-4.6-10.8 8.4 9.7-1.7-7.1 3.6 5.5-0.9-13.9 4.6 12.8 2-11.3z"/>
  <path class="cls-0" d="m66.8 60.5c0.9 3 1.4 5.4 2.5 6.3l1.5 1.6-0.6-3c-0.5-1.4-2.3-3.4-3.4-4.9z"/>
  <path class="cls-0" d="m60.4 67.2 3.7 2.9c1 0.9 2.5 1 3.8 1.2-2-2.6-4-2.8-7.5-4.1z"/>
  <path class="cls-0" d="m57.9 75.2 5.5 0.9c1 0.1 2.5-0.4 3.5-0.7-2.8-1-2.8-1.7-9-0.2z"/>
  <path class="cls-0" d="m60.4 83.1 4.7-1.5c1.3-0.4 2.3-1.7 3-2.7-4 0.5-4.5 1.8-7.7 4.2z"/>
  <path class="cls-0" d="m66.8 89.4c1.6-1.7 3.2-3.8 3.4-4.7l0.7-2.9c-3 2.4-2.5 3.4-4.1 7.6z"/>
  <path class="cls-0" d="m75 82.9c-0.4 1.2-1.1 2.5-1 3.7 0.1 1.3 0.6 3.8 0.9 5 1.5-6.5 1.2-5.7 0.1-8.7z"/>
  <path class="cls-0" d="m78.7 81.8c0.3 1.3 0.4 2.9 1.2 4.1l2.8 3.6c-1.2-4.8-1.3-5.1-4-7.7z"/>
  <path class="cls-0" d="m81.7 78.9c0.9 1 1.7 2.1 2.9 2.5l5 1.6c-3.7-3.1-3.9-3.6-7.9-4.1z"/>
  <path class="cls-0" d="m82.7 75.2c1.3 0.4 2.7 1 3.9 0.9l5.5-0.9c-5.7-1.1-6-1.6-9.4 0z"/>
  <path class="cls-0" d="m81.7 71.3c1.4 0 3-0.3 4-0.9l4.2-3.5c-4.8 1.5-5.8 1.2-8.2 4.4z"/>
  <path class="cls-0" d="m78.7 68.4c2.7-1.8 3-3.8 4-7.8-3.6 4-3.6 4.5-4 7.8z"/>
  <path class="cls-0" d="m74.9 58.4c-1.3 6.2-1.2 5.8-0.2 8.8 1.7-3.3 1.2-3.8 0.2-8.8z"/>
</svg>