<svg xmlns="http://www.w3.org/2000/svg" viewBox="0 0 128 128">
<!-- SVG created with Arrow, by QuiverAI (https://quiver.ai) -->
  <path d="m64 4.5c-1.1 0-2.3 0.5-3.9 3.4-1.1-1.2-2.3-1.9-3.6-1.9-4.3 0-7.7 7.5-7.7 15.8 0 2.3 0.3 4.7 0.7 7.2-3.8-5.3-10.5-12.7-17.8-12.8-2.8 0-4.9 1.3-4.8 5.4-3.4-1.1-6.2-0.8-6.1 2.8 0 0.7 0.2 1.5 0.5 2.7-3.3-0.2-5.3 1.2-5.3 4.5 0.2 5.8 5.5 12.5 12.9 17.8-2.6-0.4-5.2-0.8-8.6-0.8-6.9 0-14.7 2.9-14.7 7.6 0 1.4 0.8 2.8 2 4-2 0.9-3.3 2-3.3 3.9s1.5 2.9 3.3 3.9c-1 0.9-2 2.1-2 4 0 3.9 5.7 7 14 7.1 3 0 5.9-0.3 9.3-0.9-6.3 4.4-12.8 11.4-12.9 18.4 0 3.2 1.9 4.5 5.4 4.4-1.2 3.8-0.3 6.4 3.8 5.7l1.7-0.4c-0.3 3.8 1.6 5.5 4.7 5.5 5 0 12.3-4.2 17.9-12.6h0.1c-0.4 2.4-0.7 4.8-0.7 7.1 0 8.3 3.4 15.6 7.6 15.6 1.3 0 2.6-0.6 3.6-2.1 1.2 2.2 2.5 3.6 3.9 3.6s2.7-0.9 3.7-3.7c1 1.3 2.5 2.2 3.8 2.2 4 0 7.6-6.3 7.6-15.3 0-2.3-0.2-4.7-0.6-7.4h0.1c5 7.5 12.5 12.6 17.8 12.7 3.2 0.1 5.1-1.5 4.6-5.5 4.6 1.6 7 0 5.6-5.3 3 0.2 5.5-0.7 5.5-4.4 0-5.1-4.7-12.6-13.1-18.5v-0.1c2.6 0.6 5.3 1 8.6 1 7 0 14.7-2.4 14.7-7.1 0-1.4-0.7-2.7-2-4 1.8-0.9 3.4-2 3.4-3.9s-1.3-3-3.4-3.9c1.1-1 2-2.3 2-4.1 0-3.7-5.6-7.5-13.9-7.6-3 0-5.8 0.1-9.3 0.9 6.3-3.8 13-10.8 13.1-17.9-0.1-2.9-1.8-4.5-5.6-4.4 1.4-4.4-0.2-6.9-5.5-5.5 0.2-3.2-1.2-5.4-4.5-5.4-5 0-12.2 4-18 12.7h-0.1c0.4-2.5 0.6-4.8 0.6-7.1 0-8.3-3.4-15.7-7.5-15.7-1.4 0-2.6 0.5-3.9 2.1-0.8-1.8-2-3.7-3.7-3.7z" fill="#7A250F"/>
  <path d="m64 7.7c-1 0.9-2.4 3.9-3.5 7.4-1.1-2.5-2.6-5.5-4-5.5-1.9 0-5 5-5 12.3 0 11.5 5.5 21.2 8.9 26.5l2.2 4.2h0.3c0-3 0.5-25.7 1.1-25.7s1.1 22.7 1.1 25.7h0.3l2.2-4c3.5-5.6 8.9-15 9-26.7 0-6.3-2.7-12.3-5.1-12.3-1.4 0-3 3-4.1 5.5-0.9-3-2.3-6.1-3.4-7.4zm-31.4 11.9c-4.2 0-1.7 5-0.8 7.3-2.2-1.3-5.6-2.7-7.9-2.8 0.1 2.3 1.7 5.8 2.7 7.6-2-0.7-3.2-1.3-5.2-1.3-1.7 0-2 1-2 2.1 0 10.4 17.7 21.1 32.5 23.7l1.7 0.2 3-2.8-0.2-1.7c-2.8-14.8-13.4-31.9-23.8-32.3zm63 0c-10.5 0.8-21.2 17.5-23.9 32.3l-0.2 1.7 2.9 2.8 1.7-0.2c7.5-1.3 16.8-4.3 23.8-10 3.7-2.8 8.8-8 8.8-13.6-0.1-3.7-4.3-2.2-7.6-0.9 1.3-2.3 2.8-5.8 2.9-7.6-2.3 0.3-5.4 1.5-7.7 2.8 1.1-2.5 3.3-7.3-0.7-7.3zm-75 31.7c-5 0-11.5 2.3-11.5 4.9 0 1.9 3.5 3.4 5.6 4.3-2.6 0.7-6.1 2.1-7.4 3.6 1.3 1 4.3 2.5 7.4 3.4-2.1 0.9-5.5 2.4-5.5 4.2 0 2.2 4.7 4.9 10.7 5 11.6 0 21.7-4 28.7-8.1l2.8-1.6v-4l-2.8-1.6c-6.2-4-16-9.8-28-10.1zm86 0c-11.2 0.1-21 4.3-27.2 8.3l-2.8 1.8v4l2.8 2.2c7.2 4.4 16.7 8.8 27.7 9.1 6 0 11.5-2.3 11.5-4.8 0-1.8-3.2-3.3-5.4-4.3 2.7-0.7 5.9-2.2 7.4-3.5-1.5-1.2-4.7-2.7-7.4-3.5 2.2-0.9 5.4-2.6 5.4-4.2 0-2.3-4.7-5-10.7-5l-1.3-0.1zm-54.7 20.7c-14.8 2.6-31.8 12.9-32.5 23.6 0 4.3 5.2 1.8 7.3 0.9-1.1 2.4-2.6 5.4-2.8 7.5 2.2-0.3 5.5-1.4 8-2.9-1 2.5-3.3 7.4 0.5 7.4 10.2 0 21.7-15.9 24-30.6l0.2-1.8-3-4-1.7-0.1zm24.2 0-1.7 0.1-2.9 4 0.2 1.8c2.7 14.7 13.7 30 23.9 30.6 4.5 0.2 1.8-4.9 0.8-7.4 2.2 1.3 5.5 2.5 7.6 2.9-0.1-2.1-1.6-5.4-2.9-7.6 2.3 1 7.6 3.2 7.6-0.3 0-10-16.3-21-32.6-24.1zm-15.7 5.4c-3.8 6-8.9 16.2-8.9 29 0.1 6 2.9 11.7 5 11.8 1.5 0 3.1-3.1 4-5.2 0.9 3 2.1 5.6 3.4 7.2 1.2-1.2 2.7-4.3 3.5-7.2 1 2.9 2.6 5.2 4 5.2 2.2 0 5.2-4.8 5.2-11.3 0-11.3-5.5-23.3-9.2-29.3l-2.3-2.2h-1.1-1.4l-2.2 2z" fill="#9E3214"/>
  <path d="m37.4 37c-0.3 0.4 10.5 12 15.7 17.6l1.5 0.8 1.8-1.8-1.5-1.2c-5.8-5.5-17.2-15.5-17.5-15.4zm53.2 0.2c-1.7 1.2-11.2 9.7-17.5 15.4l-1.5 1 1.8 1.8 1.5-0.8c4.8-5 16.2-17.1 15.7-17.4zm-40.5 25.8c-7.7 0-23.4 0.6-23.4 1s15.9 1 23.4 1.2l1.3-0.1v-2.1h-1.3zm27.8 0v2.2l1.2-0.1c7.5-0.1 22-0.6 22-1 0-0.5-14.5-1-22-1.1h-1.2zm-24.8 10.6-15.7 16.9 0.1 0.1c1-0.5 12.4-10.7 17.1-15.2l0.3-0.8-1.8-1zm21.8 0-1.8 1 0.3 0.8c5.2 5 16.5 15.2 17.1 15.2l0.1-0.1-15.7-16.9zm-11 1.8h-1c0 3.5 0.7 26 1.1 26s1.1-22.5 1.1-26h-1.2z" fill="#7A250F"/>
  <path d="m64 49.1c-7.9 0-14 6.3-14.6 13.5-0.7 9.5 6.2 16 14.6 16s14.6-6.5 14.6-14.2c0.3-7.8-6.2-15.3-14.6-15.3z" fill="#DFA815"/>
  <circle cx="64" cy="64.1" r="6.3" fill="#C7900B"/>
  <circle cx="64" cy="64.1" r="5.1" fill="none" stroke="#C7900B" stroke-miterlimit="10" stroke-width="2"/>
  <g fill="none" stroke="#C7900B" stroke-linecap="round" stroke-miterlimit="10" stroke-width="2">
    <circle cx="64" cy="51.9" r=".4"/>
    <circle cx="64" cy="54.9" r=".4"/>
    <circle cx="64" cy="76.1" r=".4"/>
    <circle cx="64" cy="73.4" r=".4"/>
    <circle cx="52" cy="64.1" r=".4"/>
    <circle cx="55" cy="64.1" r=".4"/>
    <circle cx="76.1" cy="64.1" r=".4"/>
    <circle cx="73.1" cy="64.1" r=".4"/>
    <ellipse transform="matrix(.7071 -.7071 .7071 .7071 -24.99 57.99)" cx="57.9" cy="53.6" rx=".4" ry=".4"/>
    <ellipse transform="matrix(.7071 -.7071 .7071 .7071 -26.16 60.59)" cx="61.4" cy="55.2" rx=".4" ry=".4"/>
    <ellipse transform="matrix(.7071 -.7071 .7071 .7071 -34.01 75.99)" cx="73.6" cy="72.7" rx=".4" ry=".4"/>
    <ellipse transform="matrix(.7071 -.7071 .7071 .7071 -31.41 74.82)" cx="72.1" cy="68.6" rx=".4" ry=".4"/>
    <ellipse transform="matrix(.7071 -.7071 .7071 .7071 -39.39 54.01)" cx="54.4" cy="70.2" rx=".4" ry=".4"/>
    <ellipse transform="matrix(.7071 -.7071 .7071 .7071 -36.79 55.18)" cx="56.4" cy="68.7" rx=".4" ry=".4"/>
    <ellipse transform="matrix(.7071 -.7071 .7071 .7071 -21.01 69.97)" cx="73.6" cy="55.6" rx=".4" ry=".4"/>
    <ellipse transform="matrix(.7071 -.7071 .7071 .7071 -22.18 67.37)" cx="70.1" cy="53.6" rx=".4" ry=".4"/>
    <ellipse transform="matrix(.7071 -.7071 .7071 .7071 -36.01 61.99)" cx="57.9" cy="74.5" rx=".4" ry=".4"/>
    <ellipse transform="matrix(.7071 -.7071 .7071 .7071 -34.84 64.59)" cx="60.9" cy="75.6" rx=".4" ry=".4"/>
    <ellipse transform="matrix(.7071 -.7071 .7071 .7071 -26.61 73.97)" cx="68.6" cy="75.6" rx=".4" ry=".4"/>
    <ellipse transform="matrix(.7071 -.7071 .7071 .7071 -27.78 71.37)" cx="65.6" cy="75.6" rx=".4" ry=".4"/>
    <ellipse transform="matrix(.7071 -.7071 .7071 .7071 -28.61 56.01)" cx="55.5" cy="55.5" rx=".4" ry=".4"/>
    <ellipse transform="matrix(.7071 -.7071 .7071 .7071 -29.78 58.61)" cx="56.9" cy="57.9" rx=".4" ry=".4"/>
    <ellipse transform="matrix(.7071 -.7071 .7071 .7071 -20.01 75.99)" cx="75.6" cy="67.1" rx=".4" ry=".4"/>
    <ellipse transform="matrix(.7071 -.7071 .7071 .7071 -21.18 73.39)" cx="72.9" cy="66.4" rx=".4" ry=".4"/>
    <ellipse transform="matrix(.7071 -.7071 .7071 .7071 -34.01 56.01)" cx="55.5" cy="72.7" rx=".4" ry=".4"/>
    <ellipse transform="matrix(.7071 -.7071 .7071 .7071 -32.84 58.61)" cx="57.6" cy="70.6" rx=".4" ry=".4"/>
    <ellipse transform="matrix(.7071 -.7071 .7071 .7071 -18.01 71.99)" cx="74.4" cy="70.1" rx=".4" ry=".4"/>
    <ellipse transform="matrix(.7071 -.7071 .7071 .7071 -19.18 69.39)" cx="70.4" cy="70.6" rx=".4" ry=".4"/>
    <ellipse transform="matrix(.7071 -.7071 .7071 .7071 -24.61 54.01)" cx="53.6" cy="57.9" rx=".4" ry=".4"/>
    <ellipse transform="matrix(.7071 -.7071 .7071 .7071 -25.78 56.61)" cx="56.1" cy="59.4" rx=".4" ry=".4"/>
    <ellipse transform="matrix(.7071 -.7071 .7071 .7071 -22.01 73.99)" cx="69.9" cy="74.5" rx=".4" ry=".4"/>
    <ellipse transform="matrix(.7071 -.7071 .7071 .7071 -23.18 71.39)" cx="68.4" cy="72.1" rx=".4" ry=".4"/>
    <ellipse transform="matrix(.7071 -.7071 .7071 .7071 -32.01 58.01)" cx="55.6" cy="66.4" rx=".4" ry=".4"/>
    <ellipse transform="matrix(.7071 -.7071 .7071 .7071 -33.18 60.61)" cx="57.6" cy="68.6" rx=".4" ry=".4"/>
    <ellipse transform="matrix(.7071 -.7071 .7071 .7071 -20.01 71.99)" cx="72.4" cy="59.4" rx=".4" ry=".4"/>
    <ellipse transform="matrix(.7071 -.7071 .7071 .7071 -21.18 69.39)" cx="69.9" cy="57.6" rx=".4" ry=".4"/>
    <ellipse transform="matrix(.7071 -.7071 .7071 .7071 -34.01 60.01)" cx="55.6" cy="68.6" rx=".4" ry=".4"/>
    <ellipse transform="matrix(.7071 -.7071 .7071 .7071 -32.84 62.61)" cx="59.4" cy="72.1" rx=".4" ry=".4"/>
    <ellipse transform="matrix(.7071 -.7071 .7071 .7071 -22.01 69.99)" cx="72.4" cy="57.9" rx=".4" ry=".4"/>
    <ellipse transform="matrix(.7071 -.7071 .7071 .7071 -23.18 67.39)" cx="68.4" cy="56.1" rx=".4" ry=".4"/>
    <circle cx="52.4" cy="67.1" r=".4"/>
    <circle cx="55.4" cy="61.6" r=".4"/>
    <circle cx="75.6" cy="60.9" r=".4"/>
    <circle cx="72.6" cy="61.6" r=".4"/>
    <circle cx="61.6" cy="72.9" r=".4"/>
    <circle cx="66.4" cy="72.9" r=".4"/>
    <circle cx="61" cy="52.4" r=".4"/>
    <circle cx="66.9" cy="55.2" r=".4"/>
    <circle cx="66.9" cy="52.4" r=".4"/>
    <circle cx="56.9" cy="56.1" r=".4"/>
    <circle cx="74.4" cy="57.9" r=".4"/>
    <circle cx="59.5" cy="56.1" r=".4"/>
  </g>
</svg>