<svg xmlns="http://www.w3.org/2000/svg" viewBox="0 0 150 150">
<!-- SVG created with Arrow, by QuiverAI (https://quiver.ai) -->
  <style type="text/css">.cls-0 {fill:#993114;}
.cls-1 {fill:#77260F;}
.cls-2 {fill:#68230D;}
.cls-3 {fill:#E1A512;}</style>
  <path class="cls-0" d="m138.3 69-0.4-0.3 3.1-6.4c-5.9-2.6-12-4.3-18-4.3-4.5 0-10.3 0.9-17.8 2.9 6-2.3 10.8-4.9 13.8-7.9 6.4-5.9 9.2-13.7 9.6-16.2l-7.6-2.3c0.4-2.1 0.6-4.3 0.5-6.5v-1h-1.5c-1.7 0-4 0.4-5.4 1l-1.9-7.3c-4.5 1.3-10.1 3.7-15.7 8.8-3.6 3.3-6.7 8.3-9.4 13.3 1.6-5.7 2.9-11.5 2.9-15.1 0-8.3-3.2-15.2-4.5-17.7l-6.6 3.3c-1.3-2.1-2.8-3.9-4.4-5.6-1.6 1.4-3.1 3.2-4.7 5.5l-6.3-3.2c-1.4 2.5-4.4 9.4-4.3 18.3 0.1 3.5 1.3 8.8 2.9 14.5-2.5-4.2-5-8.2-7.6-11.1-4.9-5.2-11-8.9-17.3-11l-1.9 7.3h-0.2c-1.8-0.4-3.7-0.9-7.4-0.8-0.1 2.3 0.2 5.1 0.6 7.3l-6.9 1.9c0.8 3.1 4.2 11.8 12.1 17.9 2.5 1.9 6.3 4.3 10.3 6.9-5.9-1.5-11.6-3-17.4-3s-11.6 1.2-17.9 4.4l2.7 6.4c-2 1.3-3.9 2.9-5.5 4.9 1.6 1.9 3.5 3.4 5.4 4.7l-2.9 6.3c5.3 2.5 10.9 4.3 18.2 4.3 4.1 0 9.8-0.9 17.1-2.7-4.1 2.5-8.9 5.4-12.1 8.1-6.2 5.4-10 11.9-11.9 18.5l6.6 2.3c-0.4 2.2-0.7 4.6-0.5 7.1 2.5 0.1 5-0.1 7.5-0.6l2.5 7c4.5-1.3 10.8-4.2 16.3-9.5 4-3.8 7.5-9.4 10.6-15.1-1.6 6.3-3 12.4-3 16.6 0 8.2 2.6 15.5 4.1 18.6l6.3-2.8c1.3 2.2 3 3.9 4.7 5.6 1.6-1.4 3.3-3.3 4.6-5.6l6.5 2.9c1.4-2.5 4.4-9.2 4.4-18.2 0-4-1.2-9.8-2.9-17 3.2 5.7 6.9 11.2 10.9 14.8 4.5 4.3 9.8 7.3 15.6 9.4l2.3-6.9c2.1 0.4 4.5 0.8 7.4 0.7 0.1-2.4-0.2-4.8-0.6-7l7.2-2.3c-1.4-4.5-5-11.7-11.9-18-2.9-2.5-7.2-5.5-13-8.9 6.1 1.7 12.3 3 17.8 3 5.6 0 12.5-1.3 17.8-4.2l-2.9-6.4c2-1.2 3.8-2.8 5.4-4.7-1.4-1.8-3.3-3.4-5.4-4.9z"/>
  <path class="cls-1" d="m28.2 27.1c-0.1 2.3 0.2 5.2 0.6 7.4l6.8-6.5c-1.7-0.5-3.7-0.9-7.4-0.9z"/>
  <path class="cls-2" d="m28.3 27.1 38.4 38.4 2.3-1.9c-7.6-11.3-16.3-26.5-31.3-42.9l-1.9 7.3c-1.9-0.5-3.9-0.9-7.5-0.9z"/>
  <path class="cls-1" d="m8.6 62.6 3.1 6.4c-2 1.3-3.9 2.9-5.5 4.9h57.7v-2.5c-13.3-3.3-30-7-55.3-8.8z"/>
  <path class="cls-2" d="m64.4 78.9c-8 3.2-16.5 6.5-20.4 7.6l-18 35.9c2.6 0.1 5.1-0.2 7.6-0.7l2.5 7 30.5-46.3-2.2-3.5z"/>
  <path class="cls-1" d="m72.4 84.9-8.4 54.6 6.4-2.9c1.3 2.1 3 4 4.6 5.6l0.2-57.3h-2.8z"/>
  <path class="cls-2" d="m80.6 83.4-0.7 0.5 34.3 44.8 2.3-7c2.1 0.4 4.5 0.8 7.4 0.7l-40.8-40.8-2.5 1.8z"/>
  <path class="cls-1" d="m86.1 76.4-0.5 1.2 55.6 7.4-2.9-6.4c2-1.2 3.8-2.8 5.4-4.7l-57.6-0.2v2.7z"/>
  <path class="cls-2" d="m121.6 27.1c-2-0.1-4.2 0.3-7 0.9l-1.9-7.3-30.1 44.8 2.4 2.6c11.1-6.7 28.9-16.7 43.1-31.6l-7.1-2c0.5-2.4 0.7-4.9 0.6-7.4z"/>
  <path class="cls-1" d="m75 7.7v55.4h2.9c3-10.6 8.1-26 8.1-53.1l-6.6 2.4c-1.3-2-2.8-3.8-4.4-4.7z"/>
  <path class="cls-2" d="m19.7 113.1 6.9 2.3c-0.5 2.2-0.7 4.6-0.5 7.1 11-11.1 27.8-26.9 40.5-40.1l-1.6-2.4c-11.6 6.9-30.4 19.1-45.3 33.1z"/>
  <path class="cls-2" d="m8.6 62.6c25.3 1.8 42 5 55.3 8.8l0.5-1.5c-6.7-2.5-13.3-5.4-20.1-8.8-5.9-1.5-11.6-3-17.4-3s-12 1.3-18.3 4.5z"/>
  <path class="cls-1" d="m121.6 27.1c-2-0.1-4.2 0-7 0.8l6.4 6.6c0.5-2.4 0.7-4.9 0.6-7.4z"/>
  <path class="cls-3" d="m75 62.1c-6.1 0-11.6 5-11.6 11.8 0 6.2 5 11.6 11.6 11.6 6.4 0.1 11.6-4.9 11.6-11.4s-5.2-12-11.6-12z"/>
</svg>