<svg xmlns="http://www.w3.org/2000/svg" viewBox="0 0 150 150">
<!-- SVG created with Arrow, by QuiverAI (https://quiver.ai) -->
  <style type="text/css">.cls-0 {fill:#7F1D0C;}
.cls-1 {fill:#942E16;}
.cls-2 {fill:#CF440D;}
.cls-3 {fill:#E2682A;}
.cls-4 {fill:#8B2712;}
.cls-5 {fill:#262319;}</style>
  <path class="cls-0" d="m75 3.3c-3.4 4.3-6.3 9.5-7.6 13.3-2.8-3.7-6.5-7.3-10.6-10.6-2.4 5.2-4 10.9-4.2 14.5-3.2-2.8-7.7-5.5-13.6-8-0.9 5.7-0.7 11.3 0.1 15.8-3.8-1.6-9-3.6-15.2-4.2 0.5 5.2 1.9 10.6 4 14.8-4.2-0.7-9.5-1-15.7-0.1 1.7 4.6 4.4 9.1 7.7 13.3-4.3 0.4-9.2 1.5-14.7 4.2 3.2 4.3 7.2 8.2 11 11.2-4.1 1.2-8.6 3.7-13.3 7.7 4 2.9 8.5 5.5 13.3 7.2-3.4 2.4-7.5 6-11 10.8 4.7 1.9 9.9 3.2 15.2 3.7-2.8 3.3-5.8 7.7-8.3 14.2 5.2 0.8 10.7 0.8 16.1-0.1-1.9 4.2-3.5 9.4-4.3 14.9 5-0.5 10.3-1.9 15.3-4.1-0.8 4.4-1.1 9.5-0.2 15.6 4.7-1.8 9.4-4.4 13.7-8.3 0.6 4.5 1.7 9 4 15 4.2-3.2 8.1-7 10.9-11 1.5 4.1 3.9 8.9 7.4 13.6 3.2-3.8 5.9-8.3 7.3-13.3l6.8-8.4-14.1-121.7z"/>
  <path class="cls-1" d="m126.1 24.1c-4.8 0.3-9.8 1.5-15.1 3.9 0.8-4.4 0.9-9.5 0.1-15.5-4.7 1.9-9.2 4.4-13.5 7.9-0.4-4.3-1.8-9.5-4.2-14.4-4 2.9-7.8 6.5-11.1 10.6-1.4-4.2-4-8.7-7.3-13.3-2.9 3.8-5.5 8.1-7.5 13.2-2.9-4-6.5-7.5-10.7-10.5-2.1 4.9-3.9 10.6-4.4 14.5-0.1 2-0.1 3.9-0.1 6.5-2.4-1.2-4.5-2.3-6.8-3.1-0.3 2.5-0.5 5-0.5 7.6-1.9-1.4-3.9-2.4-5.9-3.2 1 6.1 3.2 11.6 5.3 15.6l30.6 31.1 35.9-46.6c5-2.3 10.2-4 15.2-4.3z"/>
  <path class="cls-0" d="m133.8 82.5c4-1.4 8.3-3.5 13.3-7.3-4-3.1-8.7-5.8-13.3-7.6l-20 7.4 20 7.5z"/>
  <path class="cls-0" d="m130.1 52.1c2.9-3.5 5.5-7.7 7.7-13.3-4.7-0.7-9.9-1-15.9 0.1-1.8 3.7-3.8 6.7-5.8 9.6l3 3.9 11-0.3z"/>
  <path class="cls-0" d="m130.1 96.9h-11l-3 5c1.8 2.5 3.5 5.5 5.5 9.1 4.3 0.8 9.3 1.1 16.2 0.2-1.9-4.6-4.4-8.8-7.7-12.7v-1.6z"/>
  <path class="cls-0" d="m110.6 121-6.5-3.5-7 11.4c3.5 3.2 7.8 6 13.9 8.6 0.9-5.9 0.8-10.9-0.4-16.5z"/>
  <path class="cls-1" d="m133.9 67.5c3.7-2.6 7.5-6.3 10.9-11.1-5.4-2.3-10.9-4-15-4.2-2.9-0.3-5.9-0.4-7.4-0.2l-8.3 8 5.8 10 8.2 1 5.8-3.5z"/>
  <path class="cls-1" d="m121.6 111c1.8 4.1 3.5 9.1 4.5 14.9-5.2-0.5-10.5-2-15.5-4.3l-6-3.1-0.5-8.5 6.5-7 7.8 1.5 3.2 6.5z"/>
  <path class="cls-1" d="m121.9 39.1c1.7-4 3.5-9.2 4.2-15-5 0.3-10.2 1.5-15.5 4l-6 3.4-0.5 8.5 6.5 6 8.3-1.5 3-5.4z"/>
  <path class="cls-1" d="m97.6 128.4c0.4-4 0-7.5-0.2-9.5l-8.3-1.4-9.1 10 2.3 5.9c2.6 3.6 6.1 7.2 11.1 10.7 2.2-5.1 3.7-10.5 4.2-15.7z"/>
  <path class="cls-1" d="m52.6 123.4c0 2 0 4 0.1 5.7 3.4-2.9 6.9-5.7 9.7-9.1l-2.3-3.4-7.5 6.8z"/>
  <path class="cls-1" d="m45.1 118.5v-8.5l-6 11.6c2-1 4-2 6-3.1z"/>
  <path class="cls-1" d="m67.6 133.1c2.4-3 4-6.1 5.5-8.7l-5.7-5.5-8.3 1.1-6.5 3.4c0 2 0 4 0.1 5.7 0.6 4.5 1.7 9 4 15 4.2-3.2 8.1-7 10.9-11z"/>
  <path class="cls-1" d="m39.1 121.6c2-1 4-2 6-3.1l0.3-7.6 7.2-3.4-7.5-4.5-6 1.5-8 0.5c-1.2 1.9-2.2 3.9-2.9 6-1.9 4.2-3.5 9.4-4.3 14.9 5-0.5 10.3-1.9 15.2-4v-0.3z"/>
  <path class="cls-1" d="m27.1 97.1 7-7.2-7-9.9-10.7 2.4c-3.6 2.4-7.7 6-11.2 10.8 4.7 1.9 9.9 3.2 15.2 3.7 2.2 0.2 4.5 0.3 6.7 0.2z"/>
  <path class="cls-1" d="m16.2 67.5 8.9 5 9-2.5-7-18c-2.4 0-4.7 0.1-7.2 0.4-4.3 0.2-9.2 1.2-14.7 3.7 3.2 4.5 7.2 8.4 11 11.4z"/>
  <path class="cls-1" d="m27.9 38.9c1.2 2.6 2.5 5 4 7l7.2 0.1 6.3-6-0.4-8.5c-1.9-1.4-3.9-2.4-5.9-3.2-3.9-1.6-9-3.7-15.2-4.2 0.5 5.2 2 10.5 4 14.8z"/>
  <path class="cls-2" d="m82 29.9c-1.4-4-3.6-8.9-7-13.8-2.6 3.5-5.6 8.3-7.1 13.8l7.1 10.1 7-10.1z"/>
  <path class="cls-2" d="m59.1 32.2c-2.7-2.3-6.7-5.5-13.6-8.3-0.6 5.5-0.6 11.2 0.6 15.6l12 3 1-10.3z"/>
  <path class="cls-2" d="m92.9 32 4.7-4.6c0-0.8 0.3-3 0-7-0.4-4.3-1.8-9.5-4.2-14.4-4 2.9-7.8 6.5-11.1 10.6-1.2 1.8-2.4 3.5-3.4 5.6l3.1 7.7 10.9 2.1z"/>
  <path class="cls-2" d="m91.4 32.5 0.5 8.1 12-0.6c1.5-4.4 1.1-11.6 0.5-16.1-4.3 1.7-9.8 5-13.3 8.3l0.3 0.3z"/>
  <path class="cls-2" d="m32.1 59 10.8-1-3-12.6c-3.8-0.9-8.5-1.4-16.3-0.5 1.8 4.5 4.9 10.5 8.5 14.1z"/>
  <path class="cls-2" d="m29.9 82.4 7.2-5-7-9.5c-4.2 0.7-9.5 3.5-14.5 7.2 3.8 2.8 9 5.9 14.3 7.3z"/>
  <path class="cls-2" d="m23.6 104.2c5.3 0.7 11 0.8 16.3-0.3l3-9.9-10.8-3.1c-2.7 2.7-6.2 7.7-8.5 13.3z"/>
  <path class="cls-2" d="m45.5 126.1c4.6-1.7 10.1-5 13.6-8.2l-1-10.4-12 3c-1.2 4.4-1.1 11.1-0.6 15.6z"/>
  <path class="cls-2" d="m67.9 120c1.5 4.1 3.7 8.6 7.1 13.9 2.9-3.8 5.9-8.5 7.1-13.9l-7.1-10-7.1 10z"/>
  <path class="cls-2" d="m91.1 117.8c2.8 2.7 7 5.6 13.3 8.3 0.7-5 0.7-11-0.5-15.6l-12-3-0.8 10.3z"/>
  <path class="cls-2" d="m118.1 90.9-11 1.6 3 11.4c4.3 0.7 8.5 1.2 16.3 0.3-1.8-4.3-5-9.8-8.3-13.3z"/>
  <path class="cls-2" d="m120.1 67.6-7.2 4.9 7.2 9.9c4-1 9-3.3 14.3-7.2-3.8-2.8-9-6.1-14.3-7.6z"/>
  <path class="cls-2" d="m126.4 44.9c-4.5-0.7-10.3-0.8-15.8 0.2l-3.5 12.4 11 1.5c2.8-2.6 6-7.5 8.3-14.1z"/>
  <path class="cls-2" d="m82 120"/>
  <path class="cls-3" d="m88.5 24.4c-3.1 2.3-8.4 7-11.9 12.2l-1.6 10.9-1.6-10.9c-3-4.5-6.8-8.5-11.7-12.2-2.1 5-3.6 10.6-3.7 16l8.1 12.1-11-9.9c-3.7-2.1-8.7-3.7-17.4-4.9 0.7 6.2 2.7 11.9 4.9 15.9l13.5 6.4-15.5-2.1c-4 0-9.2 0.7-16.6 3.7 3.6 4.8 8.4 8.9 12.6 11.3l13.5 2.1-13.5 2.4c-3.5 2-8.5 6.2-12.6 11 4.9 2 10.6 3.5 16.4 3.6l13.7-5.4-11.5 11.8c-1.7 3.5-4 8.6-4.7 14.1 5.2-0.5 10.7-2 16.7-4.9l9.5-5.1-6.1 7.5c0.1 4.4 1.6 10 3.7 15.6 4.2-3.2 8.7-7.6 10.9-11.5l2.4-6.6 2.4 6.6c2.2 3.5 6 7.5 11.1 11.5 2.1-5 3.9-10.7 3.9-16l-7.3-12.1 10.3 9.9c4 2 10 4 16.8 5.1-0.3-4.1-1.8-10.1-4.8-16.1l-12.3-9.8 14.5 5.3c4.5 0 10-1 16.3-3.5-3.3-4-7.5-8.4-12.3-11l-13.5-2.4 13.5-2.1c3.8-2.4 8-6 12.3-11.2-4.8-2.1-10.5-3.8-15.8-3.8l-15 2.1 12.3-6.4c2.2-4 4.5-9.7 5-15.9-5 0.4-10.8 1.9-15.5 4.3l-11.8 5.5 7-7.1c0-4.8-1.2-10.3-3.6-16z"/>
  <path class="cls-1" d="m96.4 37.8c-5.3 2.3-10.5 7.3-12.8 13.1l-8.6 9.1 8.6-2.5c6.3-2.1 13.3-9 12.8-19.7z"/>
  <path class="cls-1" d="m53.9 40.9 2.2 11.6 10 5 0.3-6.6c-2.3-5.3-6.5-10.5-12.5-13.1v3.1z"/>
  <path class="cls-4" d="m54.2 53.9c0.8 5 3.2 10.2 7.4 12.7h6.3l-1.8-5.5c-2.2-3.7-6.5-6.5-11.9-7.2z"/>
  <path class="cls-4" d="m95.8 54c-4.4 0.6-9.4 2.6-11.9 6.4l0.2 6.2h4.3c4-2.1 6.7-7 7.4-12.6z"/>
  <path class="cls-0" d="m67.4 45.6c-1.5 3.5-2 8.5-0.3 11.9l3 2.5 2.8-3.4c0.7-3.5-1.8-8-5.5-11z"/>
  <path class="cls-0" d="m82.4 45.6c-3 2.3-6 6-6.3 9.8l1.8 4.6 3.2-1.6c2.8-3 3.3-8 1.3-12.8z"/>
  <path class="cls-1" d="m75 32.2c-3.6 5.3-5.4 12.4-3.6 18.9l3.6 5.5 3.4-5.5c1.5-6 0.5-13.5-3.4-18.9z"/>
  <path class="cls-2" d="m75 48.1c-2.4 3.3-4.1 8-2.6 11.3l2.6 3.1 2.6-3.1c1.5-3.3-0.2-8-2.6-11.3z"/>
  <path class="cls-2" d="m62.1 52.1c-0.5 4.5 0.5 9.3 3.5 11.3l3.5 0.7 0.8-3.7c-0.5-3.3-3.8-6.8-7.8-8.3z"/>
  <path class="cls-2" d="m88 52.1c-3.6 1.3-7.6 4.5-8.4 7.9l0.5 3.4h3.5c3.3-1.5 4.8-6.3 4.4-11.3z"/>
  <path class="cls-1" d="m37.8 53.5c2.3 5.1 7.8 10.6 13.8 12.9l8.5 0.2-2.5-6.6c-4.2-3.9-10.7-7.1-19.8-6.5z"/>
  <path class="cls-1" d="m112.4 53.4c-6-0.4-12.3 1.2-18 5.6l-2.5 7.6 6.5-0.2c5.2-1.8 11.2-6.5 14-13z"/>
  <path class="cls-2" d="m52.5 62c1.4 3.9 5.1 7.9 9.1 8.4l3.5-1-1-3.8c-2.2-3.2-7-4.2-11.6-3.6z"/>
  <path class="cls-2" d="m97.6 62c-4.2-0.4-9 0.4-11.2 3.1l-0.8 3.3 3.5 1.5c3.5-0.5 7-3.8 8.5-7.9z"/>
  <path class="cls-0" d="m46.4 67.4c2.5 3 6.2 6 10 6.7l4.7-1.7-1-4.8c-2.7-2.5-8.5-2-13.7-0.2z"/>
  <path class="cls-0" d="m103.6 67.1c-4.2-1.5-9.5-2-12.5-0.2l-1.7 4 3.7 2.5c3.8 0 7.8-2.8 10.5-6.3z"/>
  <path class="cls-1" d="m31.8 75.1c5.1 3.5 12.8 5.3 19.1 4.3l5.2-4.4-5.2-4c-5.5-1-13 0.1-19.1 4.1z"/>
  <path class="cls-1" d="m118.1 75.1c-5-3.2-11.5-5.1-18-4.2l-6 4.1 5.8 4.1c5.2 0.9 12.2 0 18.2-4z"/>
  <path class="cls-2" d="m48.7 75.1c3.2 2.5 7.9 4.3 11.4 3l3-3-2.7-2.7c-3.5-1.5-8 0.2-11.7 2.7z"/>
  <path class="cls-2" d="m101.1 75.1c-3.2-2.2-7.7-4.2-11.2-3l-2.5 3 2.5 3c3.5 1 8-0.5 11.2-3z"/>
  <path class="cls-0" d="m46.3 82.6c3.8 1.3 8.8 2 12.1 0.8l2.7-3.5-3.5-3c-3.2-0.3-8.2 2.5-11.3 5.7z"/>
  <path class="cls-0" d="m103.6 82.5c-2.5-2.9-6.2-6.1-10-6.4l-4.2 2 1.2 3.8c2.8 2.5 8.3 2.2 13 0.6z"/>
  <path class="cls-1" d="m37.9 95.9c6 0.5 12.5-1 17.7-4.8l4.5-6.1-8.2-1.1c-5 2-11 6.2-14 12z"/>
  <path class="cls-1" d="m112.2 95.9c-2.1-4.8-7.6-9.8-13.3-12h-7l2.5 7c4.2 3.2 10.2 5.5 17.8 5z"/>
  <path class="cls-2" d="m52.5 88c4.1 0.4 8.9-0.1 11.6-2.9l1-3.5-4-1.5c-3.5 0.8-6.7 4.3-8.6 7.9z"/>
  <path class="cls-2" d="m97.5 88c-1.4-3.4-4.4-7.1-8.1-8l-3 1.6 0.5 3.3c2.2 3 6.5 3.5 10.6 3.1z"/>
  <path class="cls-0" d="m54.4 95.5c3.7-0.5 8.2-2.1 10-4.9v-4l-4.3-0.2c-2.7 1.2-5 5-5.7 9.1z"/>
  <path class="cls-0" d="m95.8 95.5c-0.4-3.5-2.2-8.1-5.2-9.9h-4.2l-0.3 4.3c1.5 3 5.5 4.7 9.7 5.6z"/>
  <path class="cls-1" d="m53.8 112.5c5.6-2.4 10.3-7.1 12.6-12.9v-7.1l-6.8 1.6c-3.7 4.3-6.2 11-5.8 18.4z"/>
  <path class="cls-1" d="m96.2 112.5c0.7-6.1-1.3-12.9-5.6-18.1l-6.5-2.5-0.5 6.5c2 5 6.3 11 12.6 14.1z"/>
  <path class="cls-2" d="m62.1 97.2c3.8-1.6 7.3-4.3 8-7.8l-1-3h-3.5c-3 2-4 6.7-3.5 10.8z"/>
  <path class="cls-2" d="m88 97.2c0.4-4.1-0.4-8.6-3.1-10.8l-3.8-0.5-1.2 3.5c0.7 3.5 4.2 6.2 8.1 7.8z"/>
  <path class="cls-0" d="m67.5 103.4c2.9-2.3 5.9-5.8 6.1-9l-2-4.4-4 1.4c-1.7 2.5-1.5 8-0.1 12z"/>
  <path class="cls-0" d="m82.3 103.4c1.3-3.3 2.1-7.8 0.8-10.8l-3.7-2.6-2.5 3.6c-0.3 3.3 2.5 7 5.4 9.8z"/>
  <path class="cls-1" d="m75 117.9c3.4-4.8 5.1-11.5 3.9-18l-3.9-4.9-4.1 5c-1 5.4 0.5 13.1 4.1 17.9z"/>
  <path class="cls-2" d="m75 101c2.4-3.1 4.1-7.4 2.6-11l-2.6-2.5-2.6 2.5c-1.5 3.6 0.5 7.9 2.6 11z"/>
  <path class="cls-5" d="m75 59.5c-7.6-0.1-15 6.5-15.3 15.1-0.1 8 6.4 15.3 15.2 15.8 8.5 0.1 15-6.3 15.5-14 0.7-8.8-6.8-16.9-15.4-16.9z"/>
</svg>