<svg xmlns="http://www.w3.org/2000/svg" viewBox="0 0 150 150">
<!-- SVG created with Arrow, by QuiverAI (https://quiver.ai) -->
  <style type="text/css">.cls-0 {fill:#F4E7D0;}
.cls-1 {fill:none;stroke:#E2CEA6;stroke-width:0.7;stroke-linecap:round;stroke-miterlimit:9.9998;}
.cls-2 {fill:#DCAB12;}
.cls-3 {fill:none;stroke:#E7CB7C;stroke-width:0.8;stroke-linecap:round;stroke-miterlimit:10;}</style>
  <path class="cls-0" d="m75 7.2c-3.3 0-5.9 10.7-5.9 22.8 2.3 9.1 3.5 19.9 3.5 25h4.8c0.1-5.4 1.1-15.9 3.1-25 0-11.9-2.4-22.8-5.5-22.8z"/>
  <path class="cls-0" d="m57.7 9.4c-3.1 1.1-2.9 12 0.7 23.6 3.8 8.6 8.2 18.5 10.6 22.9l3.3-0.9c-0.5-5.4-1.4-15.9-3.5-25-2.9-11.6-8.1-21.6-11.1-20.6z"/>
  <path class="cls-0" d="m40.8 16.2c-2.7 1.8-0.1 11.2 5.8 21.5 6.5 7.3 13.5 16.7 16.2 20.7l2.8-1.7c-2.2-4.4-6.4-13.6-7.9-24-5.8-9.6-14.1-18.3-16.9-16.5z"/>
  <path class="cls-0" d="m26.6 27c-2 2.4 2.8 10.4 11.1 18.9 8.2 6.7 16.4 12.5 20.7 15.3l2.5-2.2c-3.3-3.8-9.3-12.1-14-19-7.8-8.4-18-15.6-20.3-13z"/>
  <path class="cls-0" d="m15.8 40.9c-1.4 2.8 5.3 9.2 15.6 15.5 9.3 3 19.5 7.5 24.2 10.2l1.8-2.9c-4-2.8-12-8.3-19.3-17.1-10-5.5-21-8.7-22.3-5.7z"/>
  <path class="cls-0" d="m8.7 57.6c-0.6 3.1 7.4 7.4 19 10.8 9.7 1.7 20.7 3.7 26.4 4.2l0.9-4.2c-4.6-2-13.4-6.8-23.4-10.5-11.2-3.5-22.2-3.5-22.9-0.3z"/>
  <path class="cls-0" d="m6.7 75.2c0 3.2 8.7 5.5 20.7 5.7 9.7-1.8 20.7-2.8 26.3-3v-5.3c-5-0.2-15.6-1-25.1-3.4-11.7-0.1-21.9 2.7-21.9 6z"/>
  <path class="cls-0" d="m8.9 92.4c1 3.2 11.1 3 23.5 0 8.7-3 18-7 23-9.3l-1.5-5.2c-5.3 0.5-15.3 0.8-23.5 3-11.7 2.8-22.4 8-21.5 11.5z"/>
  <path class="cls-0" d="m15.7 108.7c1.4 3 10.7 1.4 22.7-5.6 6.5-6 14.7-11.5 19.5-14.7l-1.8-3.7c-4.7 2.4-14 6-22.7 7.7-10.8 5.7-19.3 13.3-17.7 16.3z"/>
  <path class="cls-0" d="m26.6 123.1c2.3 2.3 10.8-2 20.3-11 5.7-6.7 12.1-14.4 15.2-19.7l-3.1-3.3c-4.3 3-12.4 7.8-19 13-8.9 8.5-15.9 18.6-13.4 21z"/>
  <path class="cls-0" d="m41.4 134.2c2.7 1.4 9.2-4.5 15.5-14.6 3.5-9.2 7.8-19 10.5-24.9l-3.8-2.6c-3 4-9 12-16 19-6 10.3-9.7 21.5-6.2 23.1z"/>
  <path class="cls-0" d="m58.1 140.6c3 0.5 7.5-6.7 10.8-18 2-9.5 3.5-20.2 3.7-26.5l-4.5-1.4c-2 4.7-6.5 13.7-10 22.4-3.5 12.3-3.5 23 0 23.5z"/>
  <path class="cls-0" d="m75.1 142.7c3.3 0 5.5-8.8 5.5-21.3-2-9.3-2.9-20-3-25.5h-5.2c0 5.2-0.8 15.5-3.2 24.7 0 12.3 2.7 22.1 5.9 22.1z"/>
  <path class="cls-0" d="m92.4 140.6c3.2-0.7 3.7-10.2 0.2-23-3.7-8.2-7.2-18-9.5-23.2l-3.2 1c0.5 5.2 1.7 15.5 2.2 25.7 3 12 7.9 20.3 10.3 19.5z"/>
  <path class="cls-0" d="m108.7 134.2c3.2 0.2 3.2-6.3-2.6-17.6-5-9-12.7-18.5-16.7-25l-3.3 1.8c2.8 4.5 7.3 12.7 13.8 19 6.5 11 5.7 21.5 8.8 21.8z"/>
  <path class="cls-0" d="m123.1 123.4c2.5-2-2-9.7-11.5-19.3-7.2-6.5-15.2-12.7-19.2-15.7l-2.8 2.7c3.3 4 9 11.8 14.5 17.6 8.5 9.2 16.5 15.7 19 14.7z"/>
  <path class="cls-0" d="m134.4 108.9c1-3-6.3-9.5-17-15.8-9-2.7-17.8-6.7-22.7-9.4l-2.1 3.7c4.3 2.7 11.8 7.5 18.5 14.7 11 6.3 22.3 9.8 23.3 6.8z"/>
  <path class="cls-0" d="m141.1 92.6c0.8-3.2-6.5-7.5-18.7-11-9.5-2-20-3.7-26-3.7l-0.8 4.5c4.8 1.5 13.1 6 22 9.5 12 3.2 22.8 3.7 23.5 0.7z"/>
  <path class="cls-0" d="m143.2 75.2c0-3.1-7.8-5.8-20.1-6-9.7 0.7-20.7 2.4-26.2 3.2v5c5 0.2 15.5 1 24.2 3.5 12.5 0 22.1-2.5 22.1-5.7z"/>
  <path class="cls-0" d="m141.1 57.4c-0.7-3.3-9.7-3.7-22.7-0.5-8.8 3-18.3 7-23 9.7l1.2 4.5c5-0.5 14.8-1.2 23.3-1.7 12-2.8 22-7.5 21.2-12z"/>
  <path class="cls-0" d="m134.4 40.9c-1.3-2.8-9-1.5-22.8 5.5-6.5 6-15 11.7-19.2 14.7l2.2 3.5c4.5-2.5 12.8-6.2 22-7.2 10.8-5.8 19.3-13 17.8-16.5z"/>
  <path class="cls-0" d="m123.4 26.7c-2.3-1.8-9.8 2-20 11.2-6 7.1-12.3 15.2-15.5 19.8l3 2.9c4.2-3 12.2-8.2 19.7-13.2 9-8.8 15.5-18.5 12.8-20.7z"/>
  <path class="cls-0" d="m108.9 15.9c-2.8-0.2-9 5.7-15.8 16.2-2.7 9-7.2 18.3-10 22.9l3.3 2.4c3-4 8.7-12 16.7-19.3 6.3-10.7 9.3-22 5.8-22.2z"/>
  <path class="cls-0" d="m92.4 9.4c-3-0.8-7.3 6-11.3 18.3-2.5 9.7-3.5 20.4-3.7 26.2l4.2 0.7c2-4.5 6.5-13 10.3-21.2 3.2-11.8 3.7-23.3 0.5-24z"/>
  <polyline class="cls-1" points="75 28.9 75 54.6 75 55"/>
  <polyline class="cls-1" points="63.2 30.4 69.4 53.9 69.6 54.6"/>
  <polyline class="cls-1" points="51.9 35 64.4 56.4 64.6 56.7"/>
  <polyline class="cls-1" points="42.1 42 59.6 59.6 60.1 60"/>
  <polyline class="cls-1" points="34.9 51.5 56.4 63.9 56.9 64.1"/>
  <polyline class="cls-1" points="30.1 63.1 54.1 69.4 54.9 69.6"/>
  <polyline class="cls-1" points="28.6 75.2 53.6 75.2 54.1 75.2"/>
  <polyline class="cls-1" points="30.1 86.9 53.9 80.7 54.6 80.6"/>
  <polyline class="cls-1" points="34.9 97.7 56.4 85.6 56.9 85.4"/>
  <polyline class="cls-1" points="42.2 107.7 59.6 90.4 60.1 90.1"/>
  <polyline class="cls-1" points="52 115.4 64.1 93.9 64.4 93.4"/>
  <polyline class="cls-1" points="63.2 119.7 69.4 96.1 69.6 95.4"/>
  <line class="cls-1" x1="75" x2="75" y1="95.4" y2="121.4"/>
  <polyline class="cls-1" points="86.9 119.7 80.4 95.6 80.4 95.4"/>
  <polyline class="cls-1" points="98.1 115.4 85.9 93.6 85.6 93.4"/>
  <polyline class="cls-1" points="107.7 107.7 90.4 90.1 90.1 89.9"/>
  <polyline class="cls-1" points="115.4 97.7 93.6 85.6 93.4 85.4"/>
  <polyline class="cls-1" points="119.7 86.9 95.6 80.6 95.4 80.6"/>
  <polyline class="cls-1" points="121.4 75.2 95.6 75.2 95.4 75.2"/>
  <polyline class="cls-1" points="119.7 63.1 95.6 69.4 95.4 69.4"/>
  <polyline class="cls-1" points="115.4 51.5 93.9 63.7 93.4 63.9"/>
  <polyline class="cls-1" points="107.7 42 90.4 59.4 90.1 59.6"/>
  <polyline class="cls-1" points="98.1 35 85.9 56.4 85.6 56.7"/>
  <polyline class="cls-1" points="86.9 30.4 80.4 53.9 80.4 54.6"/>
  <path class="cls-2" d="m75.1 52.9c-11.5 0-21.7 9.5-21.7 22.3s10.2 21.2 21.7 21.2c11.8 0 21.8-9.3 21.8-21.2s-10-22.3-21.8-22.3z"/>
  <path class="cls-3" d="m87 63.1c-2.6-2.7-6.6-5.2-12-5.2-9.4 0-17.1 8-17.1 17.3m5.2 11.9c2.8 2.8 6.8 4.8 12 4.8 9.5 0 17-7.3 17-16.5m-8-9.8c-2.2-2-5.2-3.7-9.1-3.7-7.1 0-12.9 5.7-12.9 13.3 0 7.4 5.8 12.9 12.9 12.9s13.1-5.2 13.2-12.9"/>
</svg>