<svg xmlns="http://www.w3.org/2000/svg" viewBox="0 0 150 149.8">
<!-- SVG created with Arrow, by QuiverAI (https://quiver.ai) -->
  <style type="text/css">.cls-0 {fill:#C6920A;}
.cls-1 {fill:#DAA70E;}
.cls-2 {fill:#BA8B0C;}
.cls-3 {fill:#FAC80C;}
.cls-4 {fill:#DBA510;}
.cls-5 {fill:#DDA610;}</style>
  <path class="cls-0" d="m74 20c-0.9 3.8-1.5 14.5-1.5 27 0-12-1.4-31.5-3-33l4.5 6z"/>
  <path class="cls-0" d="m76.8 20.6c0.9 3.8 1.5 14.5 1.2 26.9 0.3-12 1.4-31.5 3-33l-4.2 6.1z"/>
  <path class="cls-0" d="m75 145.3c-2.3 0-1.8-15.4-1.8-28.3h3.8c0 11.1 0.2 28.3-2 28.3z"/>
  <path class="cls-0" d="m68.8 144.9c-2.2-0.3-0.5-13.9-0.1-26.4l3.5 0.2c-0.2 11.2-1.3 26.4-3.4 26.2z"/>
  <path class="cls-0" d="m57.2 142.7c-2.1-0.7 1.3-11.2 3.3-20.7l4.4 1c-2.4 8.3-5.5 20.4-7.7 19.7z"/>
  <path class="cls-0" d="m50.9 140.7c-2-0.8 2.7-12.2 6-21.5l4.2 1.4c-2.8 8.2-8 21-10.2 20.1z"/>
  <path class="cls-0" d="m34.4 132.5c-1.7-1.2 5.4-10.5 10.7-18.6l3.8 2.2c-5.1 7.3-12.7 17.7-14.5 16.4z"/>
  <path class="cls-0" d="m25.3 124.5c-1.5-1.5 6.3-8.9 13.2-15.8l3.1 2.9c-6 5.8-14.7 14.5-16.3 12.9z"/>
  <path class="cls-0" d="m17.3 115.8c-1.1-1.7 7.8-7.1 15.8-12.4l2.3 3.3c-6.9 4.3-16.9 11.1-18.1 9.1z"/>
  <path class="cls-0" d="m10.8 104.3c-0.8-1.8 8.8-5.8 17.6-9.8l1.6 3.6c-7.6 3.3-18.4 8.2-19.2 6.2z"/>
  <path class="cls-0" d="m6.8 92.9c-0.4-2 9.7-4.4 19-6.4l0.9 4c-8 1.8-19.4 4.7-19.9 2.4z"/>
  <path class="cls-0" d="m4.7 81.2c0-2.3 12.9-2.9 23.1-3.4v3.6c-9.3 0.4-23.1 2.2-23.1-0.2z"/>
  <path class="cls-0" d="m5.6 56.8"/>
  <path class="cls-0" d="m10.8 44.9"/>
  <path class="cls-0" d="m12.2 44.5c3.1-0.5 14.5 5.1 25.4 10.6l-1.8 3c-9.6-4.5-26.7-11-25-13.4l1.4-0.2z"/>
  <path class="cls-0" d="m20.9 29.9c2.5-1 12.4 7.9 21.6 15.9l-2.1 2.7c-8.4-6.9-22-16.5-19.5-18.6z"/>
  <path class="cls-0" d="m25.1 25.4c2.2-1.4 11.1 7.9 19.4 16.2l-2.3 2.4c-7.5-7.5-19.3-16.7-17.1-18.6z"/>
  <path class="cls-0" d="m34.4 17.6c2-1.1 9.4 9.5 16 18.9l-2.8 2c-5.6-7.6-15.4-19.4-13.2-20.9z"/>
  <path class="cls-0" d="m50.7 9.1c2.2-0.7 6.7 11.8 10.9 22.5l-3.4 1.3c-3.3-8.5-9.7-23.1-7.5-23.8z"/>
  <path class="cls-0" d="m57.1 7.3c2.2-0.6 5.6 11.4 8.3 22.5l-3.8 0.9c-2.5-8.7-6.9-22.7-4.5-23.4z"/>
  <path class="cls-0" d="m68.7 5.2c2.2-0.1 3.1 12.4 3.7 23.9l-3.7 0.3c-0.7-9.8-2.3-24 0-24.2z"/>
  <path class="cls-0" d="m81.1 5.2c2.3-0.1 0.9 12.4 0 23.9l-2.9-0.2c0-9.8 0.9-23.5 2.9-23.7z"/>
  <path class="cls-0" d="m86.7 5.8c2.2 0.4 0.2 11.6-2.2 22.9l-3.4-0.7c1.6-9.6 3.4-22.6 5.6-22.2z"/>
  <path class="cls-0" d="m93.1 7.3c2.2 0.7-0.7 11.8-3.7 22.9l-3.4-0.9c2.2-9.5 4.9-22.6 7.1-22z"/>
  <path class="cls-0" d="m99.3 9.1c2.1 0.7-1.9 11.6-5.9 22.3l-3.2-1.2c3.2-9.1 6.9-21.7 9.1-21.1z"/>
  <path class="cls-0" d="m104.4 11.1c2.1 0.9-2.4 11.3-7.5 21.6l-3.1-1.6c3.8-8.6 8.6-20.9 10.6-20z"/>
  <path class="cls-0" d="m116.2 17.6c1.8 1.3-3.8 9.3-10.2 17.8l-2.9-2.1c5.1-7.3 11.3-16.9 13.1-15.7z"/>
  <path class="cls-0" d="m119.8 20.9c1.8 1.3-4.4 8.9-11.3 16.7l-2.7-2.3c5.6-6.8 12.2-15.7 14-14.4z"/>
  <path class="cls-0" d="m124.7 25.4c1.7 1.5-5.3 8.2-12.5 15.1l-2.4-2.7c6.2-6 13.3-13.8 14.9-12.4z"/>
  <path class="cls-0" d="m132.7 34.4c1.3 1.8-7.1 7.2-15.4 12.5l-2-2.9c7.2-4.6 16.1-11.5 17.4-9.6z"/>
  <path class="cls-0" d="m139.1 44.7c0.9 2-10 6.2-19.3 10.4l-1.4-3.1c8.1-3.5 19.8-9.3 20.7-7.3z"/>
  <path class="cls-0" d="m141.3 50c0.7 2-10.2 5.1-20 8.5l-1.1-3.2c8.3-2.8 20.3-7.3 21.1-5.3z"/>
  <path class="cls-0" d="m143.3 56.7c0.5 2-10.6 4.7-20.6 7.1l-0.7-3.3c8.5-2 20.7-6 21.3-3.8z"/>
  <path class="cls-0" d="m145.3 68.5c0.1 2.2-11.3 2.8-21.7 3.3l-0.2-3.1c9-0.7 21.7-2.3 21.9-0.2z"/>
  <path class="cls-0" d="m145.4 81.2c0 2.4-11.2 1.2-21.6 0.2v-3.4c9.1 0.4 21.6 1.1 21.6 3.2z"/>
  <path class="cls-0" d="m143.4 92.7c-0.5 2.2-11.2-0.7-21.2-3.1l0.9-3.3c8.7 2.1 20.9 4.2 20.3 6.4z"/>
  <path class="cls-0" d="m139.1 104.1c-0.7 2-10.7-2.5-20.2-6.7l1.5-3.1c8.1 3.3 19.6 7.9 18.7 9.8z"/>
  <path class="cls-0" d="m133.1 115.8c-1.1 1.8-10.2-4.2-18.7-9.8l2-2.9c7.2 4.7 17.8 11 16.7 12.7z"/>
  <path class="cls-0" d="m124.7 124.7c-1.6 1.4-9.1-6-16-12.9l2.4-2.4c6.2 6 15.3 13.9 13.6 15.3z"/>
  <path class="cls-0" d="m115.6 132.7c-1.8 1.1-8-8.2-14-17.1l2.9-2c5.1 7.5 13.1 17.8 11.1 19.1z"/>
  <path class="cls-0" d="m104.2 138.7c-2 0.7-6.6-9.6-11.3-19.3l3.1-1.4c3.8 8.1 10.2 19.8 8.2 20.7z"/>
  <path class="cls-0" d="m93.1 142.7c-2 0.7-5.1-10.2-8-20.5l3.4-0.9c2.4 8.5 6.6 20.7 4.6 21.4z"/>
  <path class="cls-0" d="m81.1 144.9c-2.2 0.2-3.1-13.8-3.8-25.3l3.2-0.2c0.9 9.9 2.8 25.3 0.6 25.5z"/>
  <path class="cls-1" d="m75 4.8c2.3 0 1.9 11.9 1.9 15.9h-3.6c-0.2-4.3-0.2-15.9 1.7-15.9z"/>
  <path class="cls-1" d="m63.3 5.8c2.3-0.4 4.5 12 5.8 21.1l-3.3 0.5c-1.4-8-4.7-21.2-2.5-21.2v-0.4z"/>
  <path class="cls-1" d="m45.4 11.1c2-1.1 7.1 10 11.3 19.1l-3.1 1.2c-3.4-7.2-10.2-19.2-8.2-20.3z"/>
  <path class="cls-1" d="m39.6 14.2c2-1.1 7.3 8 10.8 14.3l-3 1.7c-3-5.3-9.6-14.9-7.8-16z"/>
  <path class="cls-1" d="m29.9 21.1c1.7-1.7 9 7.3 15.2 14.7l-2.4 2c-5.1-5.6-14.3-15.1-12.8-16.7z"/>
  <path class="cls-1" d="m17.4 34.4c1.3-1.7 10 4.5 17.9 10.3l-1.9 2.6c-6.3-4.4-17.4-11.1-16-12.9z"/>
  <path class="cls-1" d="m13.8 39.4c1.1-1.8 10.6 3.5 18.9 8l-1.6 2.8c-6.7-3.7-18.4-8.9-17.3-10.8z"/>
  <path class="cls-1" d="m8.6 50c0.7-2 11.8 1.6 21.8 5.3l-1.1 3.2c-7.9-2.7-21.3-6.5-20.7-8.5z"/>
  <path class="cls-2" d="m6.7 56.7c0.6-2.2 11.7 0.4 20 2.4l-0.7 3.4c-7.3-1.6-19.8-3.8-19.3-5.8z"/>
  <path class="cls-0" d="m5.4 63.3c0.4-2.2 11.7-0.2 22 1.6l-0.5 3.5c-8.4-1.5-21.8-3-21.5-5.1z"/>
  <path class="cls-1" d="m4.7 68.7c0.2-2.3 11.7-1.3 22-0.2l-0.2 2.8c-8.5-0.4-22-0.6-21.8-2.6z"/>
  <path class="cls-1" d="m4.5 75.1c0-2.2 11.5-2 21.9-2.4l0.1 3.1c-8.5 1.3-22 1.5-22-0.7z"/>
  <path class="cls-1" d="m5.4 86.7c-0.3-2.2 11.1-3.8 21.3-5.3l0.4 2.6c-8.4 1.8-21.3 4.9-21.7 2.7z"/>
  <path class="cls-1" d="m8.6 98.7c-0.6-2 10.5-5.4 20.3-8.5l0.9 3.1c-8 2.7-20.5 7.4-21.2 5.4z"/>
  <path class="cls-1" d="m13.8 110.2c-0.9-1.8 8.6-6.9 17.1-11.3l1.5 2.9c-6.8 3.6-17.7 10.2-18.6 8.4z"/>
  <path class="cls-1" d="m20.9 119.8c-1.5-1.6 6.9-8 14.4-14.2l2 2.4c-5.9 5.1-14.9 13.4-16.4 11.8z"/>
  <path class="cls-1" d="m29.9 128.9c-1.5-1.3 5.7-9.1 12.3-16.2l2.3 2.2c-5.1 5.5-12.9 15.5-14.6 14z"/>
  <path class="cls-1" d="m39.8 135.8c-1.6-1.1 3.6-9.7 8.6-18l2.7 1.8c-3.8 6.4-9.5 17.5-11.3 16.2z"/>
  <path class="cls-1" d="m45.4 138.7c-1.8-0.9 2.8-10 7.1-18.7l2.9 1.4c-3.2 6.8-8 18.2-10 17.3z"/>
  <path class="cls-1" d="m63.3 144.2c-2.2-0.4 0.3-10.9 2.5-20.6l3.3 0.6c-1.5 7.6-3.7 20.3-5.8 20z"/>
  <path class="cls-1" d="m86.7 144.2c-2.2 0.3-4.3-12-6.2-21.3l3.3-0.5c1.6 8 5.1 21.4 2.9 21.8z"/>
  <path class="cls-1" d="m99.1 140.9c-2 0.7-6-10.4-9.3-20.2l3.1-1.1c2.7 7.7 8.2 20.6 6.2 21.3z"/>
  <path class="cls-1" d="m109.8 135.8c-1.8 1.1-7.3-8.9-12.2-17.3l2.9-1.6c3.9 6.9 11.3 17.8 9.3 18.9z"/>
  <path class="cls-1" d="m119.6 129.1c-1.8 1.1-8.7-7.5-15.1-14.9l2.6-2c5.1 6 14.5 15.6 12.5 16.9z"/>
  <path class="cls-1" d="m129.4 119.8c-1.2 1.8-10.3-5.6-17.6-12l2.2-2.4c5.8 5 16.7 12.6 15.4 14.4z"/>
  <path class="cls-1" d="m136.4 110.2c-1 1.8-10.4-3.3-18.8-7.8l1.7-2.8c6.7 3.7 18.1 8.8 17.1 10.6z"/>
  <path class="cls-1" d="m141.4 98.9c-0.9 2-11-1.6-20.5-5.1l1.1-3.1c7.6 2.6 20.2 6.2 19.4 8.2z"/>
  <path class="cls-1" d="m144.5 86.7c-0.5 2.2-11.1 0-20.9-1.8l0.6-3.3c7.8 1.3 20.9 2.9 20.3 5.1z"/>
  <path class="cls-1" d="m145.6 75.1c0 2.2-10.9 2-16.5 2v-3.8c5.8-0.2 16.5-0.2 16.5 1.8z"/>
  <path class="cls-1" d="m144.5 63.3c0.4 2.1-10.7 3.6-20.9 5.2l-0.3-2.9c8.3-1.6 20.9-4.5 21.2-2.3z"/>
  <path class="cls-1" d="m129.4 30.2c1.5 1.6-7 8.2-14.5 14.2l-2-2.4c6-4.9 14.9-13.3 16.5-11.8z"/>
  <path class="cls-1" d="m136.2 39.4c1.1 1.9-8.4 6.8-14.8 10.2l-1.6-2.7c6-3.1 15.3-9.3 16.4-7.5z"/>
  <path class="cls-1" d="m110.4 14.2c2 0.7-2.4 9.1-7 15.8l-2.9-1.6c3.5-5.7 8-14.8 9.9-14.2z"/>
  <path class="cls-1" d="m75 17.4"/>
  <path class="cls-1" d="m75 131.3c-2.3 0-1.7-22.8-0.3-46.2h0.3c1.4 23.4 2.3 46.2 0 46.2z"/>
  <path class="cls-3" d="m75 18.9c2.3 0 1 23.3 0 45.3-1-22-2.3-45.3 0-45.3z"/>
  <path class="cls-4" d="m26.6 59.7c6.5 0.7 23.9 5.6 37.6 9.9v0.4c-15.1-2.4-43.7-8.7-43.3-9.5s2.4-1.2 5.7-0.8z"/>
  <path class="cls-4" d="m123.4 89.6c-6.5-0.7-24-5.6-37.6-10v-0.3c15.1 2.3 43.8 8.7 43.5 10s-2.6 0.7-5.9 0.3z"/>
  <path class="cls-1" d="m123.4 60.2c-6.5 1.1-24 5.8-37.6 9.4v0.2c14.9-3.1 44-9.8 44.2-9.1s-3.3 2.6-6.6 3.5c-6.3 1.8-23.4 5.8-37.6 8.2v-0.2c15.1-3.1 43.8-11.1 43.6-11.7-0.1-0.7-2.7-0.9-6-0.3z"/>
  <path class="cls-1" d="m26.6 89.6c6.5-1.1 23.9-5.8 37.6-9.6v-0.2c-14.9 3.1-44 9.8-43.3 9.3s2.4-0.7 5.7-1.5c6.3-1.8 23.4-5.8 37.6-8.2v0.2c-15.1 3.1-43.8 11.1-43.7 10.4 0.2-0.7 2.8-0.2 6.1-0.4z"/>
  <path class="cls-3" d="m131.3 75.3c0 1.4-22.9 1.1-45.5 0 22.6-1.1 45.5-1.5 45.5 0z"/>
  <path class="cls-3" d="m18.9 75.1c0-1.5 22.9-1.8 45.5 0-22.6 1.4-45.5 1.4-45.5 0z"/>
  <path class="cls-3" d="m102.9 26.9c2.7 0.4-7.8 16.5-22.7 38.7 11.2-21.8 21.1-39.1 22.7-38.7z"/>
  <path class="cls-3" d="m47.3 123.1c-1.9-0.4 7.1-15.1 22.5-38.7-10.7 21.8-20.9 39-22.5 38.7z"/>
  <path class="cls-3" d="m123.3 46.5c1.1 1.7-15.7 9.7-38.8 20.2 20.4-13.1 37.7-21.6 38.8-20.2z"/>
  <path class="cls-3" d="m26.7 102.5c-1.1-1.6 15.7-9.8 38.7-20.1-20.3 13-37.6 21.6-38.7 20.1z"/>
  <path class="cls-3" d="m123.1 102.5c-1.1 1.5-18.4-7.1-38.7-20.1 23 10.3 40 18.5 38.7 20.1z"/>
  <path class="cls-3" d="m26.7 46.5c1.1-1.4 18.4 7.1 38.7 20.2-23-10.5-39.8-18.5-38.7-20.2z"/>
  <path class="cls-3" d="m102.7 123.1c-1.6 0.3-11.8-16.9-22.5-38.7 15.4 23.6 24.3 38.3 22.5 38.7z"/>
  <path class="cls-3" d="m47.3 26.9c1.6-0.4 11.4 16.9 22.5 38.7-14.9-22.2-25.4-38.3-22.5-38.7z"/>
  <path class="cls-5" d="m87.7 23.8c1.9-4 4.1-6.2-1.9 18.2l-8.2 22.4 10.1-40.6z"/>
  <path class="cls-5" d="m62.4 127.6c-1.9 2.8-3 2.2 2-15.2l7.8-27-9.8 42.2z"/>
  <path class="cls-3" d="m68.7 26.5c2.7 0 4.4 18.9 5.3 37.5-4-18.2-7.6-37.5-5.3-37.5z"/>
  <path class="cls-3" d="m81.1 123.4c-2.4 0-4.7-18.9-5.8-37.6 4.1 18.2 8.1 37.6 5.8 37.6z"/>
  <path class="cls-3" d="m56.4 30c2.7-1.1 9.2 15.4 15.6 34.2-7.8-16.8-17.5-33.1-15.6-34.2z"/>
  <path class="cls-3" d="m93.6 120.2c-2.3 1.1-9.2-15.5-15.8-34.2 8 16.7 17.6 33.1 15.8 34.2z"/>
  <path class="cls-3" d="m45.1 36.5c2.2-1.6 12.5 12.2 22.2 27.3-11.9-13.3-23.7-25.8-22.2-27.3z"/>
  <path class="cls-3" d="m104.5 113.8c-2.1 1.5-12.3-12.4-22.1-27.4 12 13.2 23.8 25.8 22.1 27.4z"/>
  <path class="cls-3" d="m36.5 44.5c2.9-2 16.2 9.1 30.6 20.4l0.2 2.2c-14.8-10.2-32.4-20.7-30.8-22.6z"/>
  <path class="cls-3" d="m114 104.4c-2.9 1.8-16.2-9.1-30.6-20.4l-0.1-2.2c14.7 10.2 32.3 20.7 30.7 22.6z"/>
  <path class="cls-3" d="m29.8 56.2c2.6-1.8 18.2 4.7 34.2 11.6l0.2 4.2c-16.8-5.3-36-13.6-34.4-15.8z"/>
  <path class="cls-3" d="m120.2 93.4c-2.6 1.9-18.2-4.7-34.2-11.6l-0.2-4.2c16.7 5.5 36 13.7 34.4 15.8z"/>
  <path class="cls-3" d="m26.7 68.7c1.7-2.5 18.4 0 37.5 3.3l0.2 3.1c-17.7-0.9-39-3.7-37.7-6.4z"/>
  <path class="cls-3" d="m123.3 81.4c-1.7 2.6-18.4 0-37.5-3.4l-0.2-3.1c17.7 0.9 38.9 3.8 37.7 6.5z"/>
  <path class="cls-3" d="m26.7 81.1c-1.3-2.7 20-4.6 37.3-5.7l0.2 2.4c-19.1 3.3-35.8 5.8-37.5 3.3z"/>
  <path class="cls-3" d="m123.3 68.7c1.2 2.7-20 4.7-37.3 5.8l-0.2-2.3c19.1-3.3 35.8-6 37.5-3.5z"/>
  <path class="cls-3" d="m29.8 93.3c-1.6-2 17.6-9.1 34.4-15.1l0.7 2.3c-16.9 7.1-33.1 14.8-35.1 12.8z"/>
  <path class="cls-3" d="m120.2 45.8c1.6 2.2-17.7 9.3-34.4 15.3l-0.7-2.4c16.9-7.1 32.9-14.9 35.1-12.9z"/>
  <path class="cls-3" d="m36.5 104.2c-1.6-1.8 16-13.5 30.8-23.7l0.1 2.2c-14.7 11.3-28 23.3-30.9 21.5z"/>
  <path class="cls-3" d="m114 44.5c1.6 1.9-16 13.5-30.7 23.7l-0.2-2.2c14.5-11.3 27.8-23.3 30.9-21.5z"/>
  <path class="cls-3" d="m36 114.4c-1.8-1 12.5-13.9 30.9-31.9l0.5 0.4c-11.8 14.9-29.6 32.5-31.4 31.5z"/>
  <path class="cls-3" d="m104.5 36.4c1.9 1-2.5 8.1-21.4 28l-0.6-0.4c11.9-14.9 20.2-28.6 22-27.6z"/>
  <path class="cls-3" d="m45.4 113.8c-1.8-1.4 6.2-12.4 21.5-31.1l0.9 0.7c-11.8 15-20.5 31.7-22.4 30.4z"/>
  <path class="cls-3" d="m93.6 29.8c1.8 1.3-1.8 11.8-13.4 35.6l-0.9-0.5c6.3-18 12.3-36.2 14.3-35.1z"/>
  <path class="cls-3" d="m56.5 120c-1.8-1.3 1.9-11.8 13.3-35.6l0.9 0.5c-6.2 18-12.2 36.2-14.2 35.1z"/>
  <path class="cls-3" d="m81.1 26.5c2.3 0 1.8 11.1-3.5 37.7h-0.3c-1.1-9.3 1.4-37.7 3.8-37.7z"/>
  <path class="cls-3" d="m68.7 123.4c-2.3 0-1.8-11 3.5-37.8h0.4c1 9.3-1.5 37.8-3.9 37.8z"/>
  <circle class="cls-5" cx="75" cy="75.1" r="11.3"/>
  <path class="cls-5" d="m60.5 21.1c1.7-0.6 6.2 16.3 11.9 43.3l-11.9-38.2v-5.1z"/>
  <path class="cls-5" d="m89.4 129.1c-1.6 0.5-6.1-16.4-11.8-43.3l11.8 38.2v5.1z"/>
  <path class="cls-1" d="m114.5 35.6c2.9 0.9-9.4 10.9-31.6 26.9l27.5-24.1 4.1-2.8z"/>
  <path class="cls-1" d="m35.6 114.4c-2.9-1 9.5-11 31.7-27l-27.7 24.2-4 2.8z"/>
</svg>