<svg xmlns="http://www.w3.org/2000/svg" viewBox="17 44.5 96 88">
<!-- SVG created with Arrow, by QuiverAI (https://quiver.ai) -->
  <style type="text/css">.cls-0 {fill:#5C5B5A;}
.cls-1 {fill:#FCF5E8;}
.cls-2 {fill:#E2A403;}</style>
  <rect class="cls-0" x="19.3" y="44.5" width="2.3" height="2.4"/>
  <rect class="cls-0" x="26.6" y="44.5" width="2.3" height="2.4"/>
  <rect class="cls-0" x="31.5" y="44.5" width="2.3" height="2.4"/>
  <rect class="cls-0" x="36.4" y="44.5" width="2.3" height="2.4"/>
  <rect class="cls-0" x="41.3" y="44.5" width="2.3" height="2.4"/>
  <rect class="cls-0" x="58.3" y="44.5" width="2.3" height="2.4"/>
  <rect class="cls-0" x="63.2" y="44.5" width="2.3" height="2.4"/>
  <rect class="cls-0" x="68.1" y="44.5" width="2.3" height="2.4"/>
  <rect class="cls-0" x="85.1" y="44.5" width="2.3" height="2.4"/>
  <rect class="cls-0" x="90" y="44.5" width="2.3" height="2.4"/>
  <rect class="cls-0" x="99.7" y="48.3" width="2.3" height="2.4"/>
  <path class="cls-1" d="m53.9 84.4-0.2-0.4c-2-1.9-4.1-4.6-5.8-7.9-2.4-1-6.4-1.6-9.9-2.5-4.2-0.9-5.7 0.1-5.5 1.9s3.1 4.1 6.5 6.2l5.6 3.5 0.6 0.5c2.7-0.8 5.9-1.6 8.7-1.3zm-0.2-13.9c-2.3-1.6-4.3-3.4-6.1-2.2-1.3 1.3-0.2 3.8 1.5 6.7 1.7 3.1 4.2 7.3 7.5 9l0.2 0.2 4.2-4.1c-1.1-4-4.7-7.4-7.3-9.2v-0.4zm13.9-13.4c-0.4-2.1-1.2-4.4-2.9-4.4-2.2 0-3.2 3.3-3.8 6.4-1 4.4-2 10.1-1.2 15.5 0.9 1 1.7 2.5 2.3 3.9l4.6 1.5c0.6-1 1.3-2.4 2.1-3.3 1.4-5.1-0.1-11.8-1.1-19.6zm11.3 5.2c-0.5-1-1.7-1.2-3.1-0.1-1.7 1.4-3.7 3.9-5.4 5.9 0.3 2 0.2 4.6-0.1 6.4 1.4-1.9 4.3-4.2 7.1-5.3l1.5-4.6c0.1-0.9 0.3-1.7 0-2.3zm18.4 7.5c-0.7-1.2-2.1-1.3-3.9-0.9-3.4 0.7-8 2.4-12.8 4.5-1.1 3.1-2.7 7-5 9.8 3-0.7 6.5-0.7 9.8-0.1 2.5-1.6 5.1-4.1 7.5-6.1 2.5-2.1 5.2-4.4 4.7-6.5l-0.3-0.7zm-3.7 16.3c-1.2-0.7-3-1-5-1.4-3.1-0.5-7.6-1-12-0.3-1.1 0.3-1.9 0.7-2.7 1.2l1.2 6.9c4 0.9 8.6-0.1 12.6-1.1 2.4-0.7 5.7-1.2 6.4-2.9 0.3-0.9-0.1-1.9-0.7-2.1l0.2-0.3zm-9.7 7.5c-2.3 0.3-4.9 0.8-7.2 0.3 1.7 1.2 3.4 3.6 4.9 5.8 1.6 0.7 3.5 1 5.8 1.7 3 0.7 3.7-1 2.7-2.7-1-1.5-4-3.7-6.2-5.3v0.2zm-9.9 1.1-1.9-1.3h-0.2l-3.5 3 0.3-0.3-0.3 0.3 0.7-0.3-0.7 0.3 0.5-0.3-0.5 0.3 0.2-0.3-0.2 0.3 0.2-0.3-0.2 0.3-0.3 0.2 0.5-0.2-0.5 0.2 0.5-0.2-0.5 0.2 0.5-0.2-0.5 0.2 0.8-0.5-0.8 0.5 0.8-0.5-0.8 0.5 1-0.5-1 0.5 1-0.5-1 0.5 1-0.5-1 0.5 1-0.5-1 0.5 1-0.5-1 0.5 1-0.5-1 0.5 1-0.5-1 0.5 0.6 6c3 4.9 7.9 8.4 11.4 11.6 2 1.8 4.4 3.7 6.1 2.7 0.9-0.7 1.2-1.5 0.7-3.9-0.9-3.6-5.8-13.4-10-17.4l-2.9-0.9zm-21.6 13.2c-0.8 2.7-1.1 5.7-1.3 7.1-0.5 3-0.7 5.4 1.3 6 1.7 0.2 3-1.4 4.2-3 1.3-1.9 3-4.4 4.5-7.4-1-3-1.6-6.5-1.5-9.1-1.2 2.1-4.2 4.7-6.5 6.1l-0.7 0.3zm4-14.5c-1.8 0.6-4 1-5.6 1.1-3.7 2.7-6.7 7.2-9.4 11-1.8 2.4-3.8 4.7-2.5 6.6 1.5 1.8 4.5 0.3 7.2-1.1 4.3-2.3 12.8-7.4 14-12.1l0.3-1.7-4-3.8zm-2.7-7.8c-3.6-0.5-6.6 0.4-9.1 1.3-3.7 1.3-6 2-6.1 3.6 0 1.5 1.6 2.2 3.9 2.4 3.2 0.3 7.5 0.7 12-0.3l1-0.2 1.5-5.5-3.2-1.3zm13.9 12-6.2 0.1c-1.3 2.9-0.3 7.4 0.6 11.4 0.4 1.5 1.1 3.9 2.9 3.8 1.2-0.3 1.7-1.5 2.1-2.9 0.9-3.4 1.9-8.3 0.6-12.4z"/>
  <path class="cls-1" d="m68.1 79c1.3-2.4 4-4.6 6.8-7 1.2-1 2.8-2.1 3.8-1.5 1.4 0.7 0.5 2.9-0.1 4.1-1.2 2.8-2.6 6.4-5.2 9l-5.3-4.6z"/>
  <circle class="cls-2" cx="66" cy="77.6" r="1.1"/>
  <circle class="cls-2" cx="63.1" cy="77.9" r="1.1"/>
  <circle class="cls-2" cx="64.9" cy="80.5" r="1.1"/>
  <circle class="cls-2" cx="61.9" cy="80.5" r="1.1"/>
  <circle class="cls-2" cx="59" cy="80.6" r="1.1"/>
  <circle class="cls-2" cx="56.5" cy="81.9" r="1.1"/>
  <circle class="cls-2" cx="54.6" cy="85" r="1.1"/>
  <circle class="cls-2" cx="57.5" cy="84.2" r="1.1"/>
  <circle class="cls-2" cx="60.4" cy="83.1" r="1.1"/>
  <circle class="cls-2" cx="63.5" cy="82.9" r="1.1"/>
  <circle class="cls-2" cx="66.5" cy="82.7" r="1.1"/>
  <circle class="cls-2" cx="67.6" cy="80.1" r="1.1"/>
  <circle class="cls-2" cx="70.5" cy="79.4" r="1.1"/>
  <circle class="cls-2" cx="69.6" cy="82.1" r="1.1"/>
  <circle class="cls-2" cx="72.9" cy="81.9" r="1.1"/>
  <circle class="cls-2" cx="72.5" cy="84.6" r="1.1"/>
  <circle class="cls-2" cx="75.6" cy="85" r="1.1"/>
  <circle class="cls-2" cx="69.1" cy="84.7" r="1.1"/>
  <circle class="cls-2" cx="66.5" cy="85.6" r="1.2"/>
  <circle class="cls-2" cx="63.4" cy="85.6" r="1.2"/>
  <circle class="cls-2" cx="59.8" cy="85.7" r="1.1"/>
  <circle class="cls-2" cx="56.5" cy="86.9" r="1.1"/>
  <circle class="cls-2" cx="53.4" cy="88.5" r="1.1"/>
  <circle class="cls-2" cx="56" cy="89.5" r="1.1"/>
  <circle class="cls-2" cx="58.7" cy="88.6" r="1.1"/>
  <circle class="cls-2" cx="61.6" cy="88.5" r="1.2"/>
  <circle class="cls-2" cx="65.1" cy="88.4" r="1.2"/>
  <circle class="cls-2" cx="68.1" cy="88.5" r="1.2"/>
  <circle class="cls-2" cx="71" cy="87" r="1.1"/>
  <circle class="cls-2" cx="74" cy="87.2" r="1.1"/>
  <circle class="cls-2" cx="76.7" cy="89" r="1.1"/>
  <circle class="cls-2" cx="74" cy="90" r="1.1"/>
  <circle class="cls-2" cx="71.1" cy="90.1" r="1.1"/>
  <circle class="cls-2" cx="66.5" cy="91.4" r="1.2"/>
  <circle class="cls-2" cx="63.4" cy="91.5" r="1.2"/>
  <circle class="cls-2" cx="60.1" cy="91.6" r="1.1"/>
  <circle class="cls-2" cx="57.4" cy="92.2" r="1.1"/>
  <circle class="cls-2" cx="54.5" cy="92" r="1.1"/>
  <circle class="cls-2" cx="56.3" cy="94.9" r="1.1"/>
  <circle class="cls-2" cx="59" cy="94.5" r="1.1"/>
  <circle class="cls-2" cx="61.7" cy="94.1" r="1.1"/>
  <circle class="cls-2" cx="64.7" cy="94" r="1.1"/>
  <circle class="cls-2" cx="67.5" cy="94.5" r="1.1"/>
  <circle class="cls-2" cx="69.4" cy="92.5" r="1.1"/>
  <circle class="cls-2" cx="72.5" cy="92.7" r="1.1"/>
  <circle class="cls-2" cx="75.5" cy="92.5" r="1.1"/>
  <circle class="cls-2" cx="73.6" cy="95.2" r="1.1"/>
  <circle class="cls-2" cx="70.6" cy="95.1" r="1.1"/>
  <circle class="cls-2" cx="68.4" cy="97" r="1.1"/>
  <circle class="cls-2" cx="66.4" cy="98.6" r="1.1"/>
  <circle class="cls-2" cx="63.1" cy="99" r="1.1"/>
  <circle class="cls-2" cx="64.6" cy="96.6" r="1.1"/>
  <circle class="cls-2" cx="61.6" cy="96.7" r="1.1"/>
  <circle class="cls-2" cx="58.9" cy="97" r="1.1"/>
  <circle class="cls-2" cx="71" cy="97.6" r="1.1"/>
</svg>