<svg xmlns="http://www.w3.org/2000/svg" viewBox="0 0 150 150">
<!-- SVG created with Arrow, by QuiverAI (https://quiver.ai) -->
  <style type="text/css">.cls-0 {fill:#FBF4E6;}
.cls-1 {fill:#EDE1C7;}
.cls-2 {fill:#DDAF69;}
.cls-3 {fill:#DFAB11;}</style>
  <path class="cls-0" d="m88 39.6c-0.1 0.4-0.2 0.4-0.2 0.4h-0.9l-0.7-1c1.2-2.9 1.2-5.1-0.6-6.3 1.1-1.8 0.4-4.4-1-5.2 0.7-1.5-0.1-3.1-0.8-3.8 0.8-1.5 0.2-3.9-0.8-4.7 0.9-1.9 0.3-4.3-1.4-5.3 0.2-1.9-0.7-3.7-2.1-4.3-1.9-3.8-7.5-4.4-9.1-0.1-1.7 0.8-2.3 2.8-2.1 4.4-1.6 1.3-2.3 3.3-1.2 5.2-1.2 1.1-1.6 3.1-0.8 4.8-1.2 1.1-1.2 2.7-0.8 3.9-1.4 0.9-1.8 3-0.7 4.9-1.4 1.1-1.5 3.1-1.1 7.2l0.3 0.3c1.3 0.4 2.3 2.1 2.6 3.5 1.8 1.3 4.3 8.6 4.8 8.5h7.5l0.2-0.1c0-1.5 1-2.5 1.8-3 0.7-1.8 2.2-2.5 3.4-2.4 0.3-1.5 1.6-2.5 2.6-2.6"/>
  <path class="cls-0" d="m135.8 102.4-0.1-0.4c0.2-1.6-1.3-3.4-2.6-3.9-0.5-2.2-2.7-4-4.3-3.8-0.7-1.8-2.4-2.9-4.1-2.9-0.4-1.4-1.4-2.3-3.1-2.5-0.5-2.1-3-3.3-4.5-3.2-0.2-1.3-1.5-2.1-2.7-2.1l-12.8 1 2 5.4 6.5 6.5 9.3 12.9c0.9 0.2 1.2 0 1.2 0 1.4 1.7 3.8 2.7 5.8 1.7 1.7 1 3.7 1.5 5 0.3 5 0.1 7-5.5 4.4-9z"/>
  <path class="cls-0" d="m131.4 39.1c-1.3-1.1-3-1.3-5 0-1.8-1-4-0.2-5.8 1.5-1.5-0.5-3.2 0-4.2 1.5-1.5-0.5-3 0-4 1.1-1.5-0.8-3.8 0.2-5.4 1.7-1.9-0.8-3.4 0.1-5.6 2v0.2l0.2 0.5c0 1.5-1 3.4-2.1 4-0.6 2.5-5.4 8-5.9 8l0.8 7.3 0.7 0.2c1-0.5 2.5-0.5 3.5 0 1.5-0.5 3 0.5 3.8 0.5 1.2-0.5 2.7-0.2 3 0 2.2-0.5 4.7-1 6 0.5 1.7-1 3.2-1 4.2 0.5 1.3-0.5 2.3 0 2.8 0.5 1.5-0.5 3-0.2 3.7 0.5 1.5-0.5 3.3-0.2 4.3 1.1 1.5-0.1 3 0.4 3.7 1.9 3.5 1.5 3.3 6.5 0 7.4-0.5 1.5-2.2 1.9-3.5 1.8-1 1.3-3 1.8-4.5 1-1 0.8-2.5 1.2-3.7 0.6-1 1-3 1.2-3 0.6l-6.3 0.6h-4l-0.2 2.3v4.5l12.2-5.5c2.5 0-0.2 0.2-0.2 0.2 3.2-0.5-3.5 1.3-12 0.8l0.7 4.5-10.2-3-2-3.8-2.8-9.7 1-13 5-4c4-1.8 20-8.8 22.5-8.4 3.5 0.5-2.5 4.9-2.5 4.9l-12 8.7-2.5 2.8c3.5-0.8 10-0.8 14 0.5 0.8-0.5 1-2 1-2 1.5 0 4-0.5 4.5-3 1.8-0.5 2.5-1.3 3-3 1.8 0 3.5-1.5 4-3 2 0 3.8-1.3 4.3-3.8 2-1 3-2.5 3-4.5 2.7-3.7 0-8.5-4.5-8z"/>
  <path class="cls-0" d="m108.6 115.4-0.2-0.3-4.3-10.5 2 0.3 0.8-0.3 0.1-0.2c0.9 1.7 3.6 3 5.4 2.1 1.2 1.1 2.5 1.6 4 1.1 1 1.5 3.2 2.3 4.7 1.8l-1.7-7-10.3-8.5-6.5-8.3-7-1.2-5 2.5 1 5 6 12.5 1.5 5.5-0.2 2.2-0.3 4.8 3.5 6.5c3 1.5 7.3 0.7 7-4.3 0.8-1.2 0.5-2.7-0.5-3.7z"/>
  <path class="cls-0" d="m85.6 114.1-0.2-0.5c1.2-0.7 2-2.5 1.2-4.5l-2-4c-1.7-1-4.5-8.5-4.5-8.5h-2.5l-0.2 15.5-1.8 11 0.3 20.5c2-0.2 3.2-1.5 3.7-3 1.8-0.7 2-2.5 2-4.1 1.8-1.1 2.5-3.6 1.3-5.4 1.2-1 1.7-3.2 0.9-4.6 1.1-1.1 1.3-2.6 0.8-3.9 1.3-1.1 1.8-3 1-4.5 0.8-1.5 1-2.7 0-4z"/>
  <path class="cls-0" d="m63.1 109.1 0.3-0.2v0.2c-0.5 2 0.2 4 1 4.8-1 1.5-0.5 3.2 0 4.2-0.5 1.8-0.3 3.4 1 4.5-0.5 1.5 0 3 0.9 3.8-0.7 1.7-0.4 3.5 0.6 4.7-0.8 2-0.3 4.3 1.4 5.3-0.2 2 0.6 3.7 2.1 4.2l2.7-5.5 2.5-15.2-1.5-12v-11l-8.2-2-7.5 9.7-7.5 6.5-5.3 12.5c1-0.2 1.8-0.5 2.3-0.5 1.5 0.3 2.7-1 3.5-2 1.7 0 3-1.5 3.2-3 1.5-0.5 2.5-1.5 2.8-3 1.2-0.2 2-1.2 2.2-2 1.5-0.5 2.5-1.5 2.8-3.5l0.7-0.5z"/>
  <path class="cls-0" d="m45.1 106.9c-0.7 0.2-2 2.5-1.7 4-1.5 0.7-2.5 3-2 4.5-0.8 1.5-1.3 2.2-0.3 3.7-0.5 3.8 3.5 6.3 6.5 4l3.3-6.5 0.5-6.7 2-5.8 6-10.2 1.7-4-3.2-5.8h-5l-6.8 7.8-2.5 12.5 1.5 0.2 0.5-0.7c-0.5-1.3 0.8-3.5 2.5-3.9-1.2-1.4 3-4.9 3-4.9 0-1.5 5.3-6.2 5.3-6.2"/>
  <path class="cls-0" d="m43.1 104.4c-1 2-3.5 3-5 2.2-1 1-2.5 1.5-4 1-1 1.5-3 2.4-4.7 1.8-1.3 1.7-3.5 3-5.5 1.7-1.8 1.3-3.5 1.5-5 0.3-4.5 0.2-7.5-5.5-4.5-9.3 0-1.7 1.2-3.2 3-4.1 0.5-2.1 2.2-3.6 4.2-3.6 0.8-1.3 2-2.8 4-3 0.5-1.4 1.5-2.3 3-2.5 0.5-2 2.5-3.3 4.5-3.3l0.8-1.5v-0.1c-0.8 0-1.5-0.4-2-0.9-1.3 0.5-3 0.5-3.8-0.5-1.5 0.8-3.5 0.3-4.5-1-1.5 0-3-0.5-3.5-1.7-3.5-1.8-3-6.3 0-7.3 0.5-1.2 1.8-2 3.5-1.7 1-1.3 2.8-2 4.5-1 0.8-0.8 2.3-1.3 3.8-0.5 0.7-0.8 2-1 3.2-0.8 0.8-1.5 3-1.5 4.3-0.5 1.2-1.5 4-1 5.2-0.5 0.8-0.2 1-0.2 3.5-0.2l1.3-1.8-2-2.7-12.8-7.5-4.5-5.4 3.5-4.6 8.3-0.5 8.2 2.5c-1.5-0.8-2.5-2.4-2-3.5-0.7-0.8-1-1.5-1-2.5-0.7-0.8-1.5-2-1.5-3.5-1.2-1-2-2.8-1.2-4.3-0.8-1.7-1.3-2.7-0.3-3.7-0.2-3.5 4-5.8 6.8-3.8 1.5 0 2.7 1 3.5 2.5 1.5 0.3 2.5 1.5 2.7 3.3 1.3 0.2 2.3 1.5 2.5 3 1 0.5 2 1.2 2 2.2 1.3-0.2 2 2 2.5 2.9l-0.7-3.9 2 4.5 2 11-3.8 8-7 5-4.2 1.8c-3-0.8-10.8-2-17.8 0-0.7-0.5-1.2-2-1.2-2-2.3 0-4.3-1-4.8-3.3-1.7-0.2-2.7-1.2-3.2-2.7-1.8-0.3-3.3-1.3-3.8-3-2 0-4-1.5-4.2-3.8-1.8-1-3-2.2-2.8-4.2-3.2-4 0-9 4-8.3 1.3-1.1 3.3-1.5 5.5 0 1.5-0.7 4-0.5 5.3 1.5 1.7-0.5 3.7 0 4.5 1.5 1.5-0.5 3 0 4.2 1 1.8-0.7 3.8 0 5 1.8 2.3-0.9 3.8 0.2 6.3 2.2"/>
  <path class="cls-0" d="m86.1 38.9 1.3 1 0.7-0.5c0-1.3 1-2.5 1.9-2.5 0-1 1.1-1.8 1.6-2 0.3-1.3 1.3-2.5 2.5-3 0.3-1.5 1.5-3 3-3.3 0.8-1.2 1.8-2.2 3.3-2.2 3.2-2 6.7-0.3 6.5 3.2 0.7 1 0.7 2.8 0 4 0.5 1.8 0 3.3-1.5 4.3 0.2 1.5 0 2.2-1.3 3.5 0 1 0 1.7-1 2.5 0.5 1.5-0.5 2.7-1.5 3.5l-2 2-6 2-7.5-12.5z"/>
  <path class="cls-0" d="m99.1 121.1c-1.5-0.2-2.7-1.2-3.5-3.2-1.2-0.5-2.5-1.8-2.5-2.8-1-0.2-2-1-2.5-2-1.5-0.2-2.5-1.5-2.7-3.5l-1-0.5 1.7-4.2 9 2 4.3 3.2 4.2-3.2c1.3 0.7 0.8 0.5 0.8 0.5 0.5 0.7 0 0 0 0 0.7 0.2 0.2 0 0 0 0.7 0.7 0 0 0 0s0 0 0 0c0.5 0.7 0 0 0 0s0 0 0 0c0.7 0.7 0 0 0 0 0.7 0.7 0 0 0 0s0 0 0 0 0 0 0 0l2.2 8c0.5 3-2.2 9-7 7.5"/>
  <path class="cls-1" d="m63.4 36.1s4.2 3 7.5 11.3c0.5-12.3 2-23.5 4.2-23.5 2.3 0 4 13.2 3.8 25.2 0 0-3.3 5-7.5 2.9-4.3-2.1-8-15.9-8-15.9z"/>
  <path class="cls-1" d="m66.4 54.4c-1.5-3.8-10.3-16.5-12.5-16.3-2.5 0.3 3.5 14.3 7.2 19l3 0.3 2.3-3z"/>
  <path class="cls-1" d="m56.6 60.1c-5-2.7-23.2-11.7-26.7-10.5-3.3 2 12.2 11.8 19 15.8l6.2 1 4.3-3.5-2.8-2.8z"/>
  <path class="cls-1" d="m48.9 73.4c-4.8 0-16.8 0.5-16.8 2.7 0 2.3 13.5 3.3 18.3 3.3l1.5-2.5-3-3.5z"/>
  <path class="cls-1" d="m49.4 84.6c-4.3 2-20.5 11.5-19.6 14.8 0.8 2 13.6-2.8 19.8-6-2.2 2.7-4.7 7.2-6 11l1.8 0.2c1.5-2.2 3.5-8 5.7-9.5 0.8-2.2 4.5-5.5 5.5-6.7l-1.5-4.5-5.7 0.7z"/>
  <path class="cls-1" d="m60.1 93.4c-2.2 2.7-9.7 15-9 17.6 2.3 2.1 11.5-10.9 13.5-14.4l-0.2-2.7-4.3-0.5z"/>
  <path class="cls-1" d="m71.1 99.1c-0.5 5.5 1 27 4 27 2.5 0 4-17 3.8-27h-7.8z"/>
  <path class="cls-1" d="m85.1 95.6c2.3 3 11.3 16.3 14 15.5 2.3-1-5.5-14.5-8-17.7l-4.2-0.5-1.8 2.7z"/>
  <path class="cls-1" d="m94.1 89.4c2.5 2.5 23.3 11.7 25.8 10.2 2.7-1.5-7.5-8.2-15-13l-8.8-1-2 3.8z"/>
  <path class="cls-1" d="m101.6 73.4c5 0 16.3 0.7 16.3 3 0 1.7-11.3 3-17.8 3l-1-2.8 2.5-3.2z"/>
  <path class="cls-1" d="m98.4 57.9c2.7-2.8 5.5-7.8 6.2-13-1.2 0-3.2 2.2-3.2 2.2 0.5 1.5-0.5 3.9-2 4.5-0.3 2-5 7.8-6 8.3l1 5 5.2 1c5.3-2 21.8-12.3 20.7-15.9-1.4-2.1-12.9 2.4-21.9 6.9"/>
  <path class="cls-1" d="m84.6 54.4c2-4.4 10.8-16.8 12.8-16.3 2.5 0.5-4 15.3-7.5 19l-4.3 0.3-1-3z"/>
  <path class="cls-2" d="m85.6 109.4"/>
  <path class="cls-1" d="m86.6 111.9 0.3-2.5-2.3-4c-1.7-1-4.5-8.8-4.5-8.8l-0.7 2.5c0.7 4.8 5.2 10 7.2 12.8z"/>
  <path class="cls-1" d="m34.6 66.4 2 1.2c1-0.2 2 0 2.8 0.5 1.2-1.7 4.7-1 5.2-0.5l3.3-0.2 1-1.8c-3.5-0.2-8.5-1-14.3 0.8z"/>
  <path class="cls-1" d="m101.9 65.9-0.5 1.7h4c1.2-0.5 4.5-1.2 6 0.5 1-0.5 2.2-1 3-0.5l1.7-1.2c-3.2-0.8-8.2-1.5-14.2-0.5z"/>
  <path class="cls-1" d="m101.4 84.6 3.5 0.3c1.5-0.5 4.5 1.7 6.5-0.5 1.2 0.7 3 1.2 4-0.5l1 0.2 0.7 1.8c-3 0.7-7 1.5-12.2 1l-3.5-2.3z"/>
  <path class="cls-3" d="m75.1 47.9c-3 0-5.5 2.2-5.5 5.5 0 2.7 2.3 6 6.3 5.7 2.5-0.1 4.5-2.5 4.2-5.7 0-2.8-2.5-5.5-5-5.5z"/>
  <path class="cls-3" d="m75.1 69.6c-2.7 0-5.5 2-5.5 5.5 0 2.8 2.3 5.3 5.5 5.3 3.3 0 5-2.5 5-5 0.3-3-2.2-5.8-5-5.8z"/>
  <path class="cls-3" d="m75.1 90.6c-2.7 0-5.5 2.3-5.5 5.3s2 5.5 5.5 5.5c3 0 5-2.3 5-4.8 0.3-2.7-1.7-6-5-6z"/>
  <path class="cls-3" d="m53.9 69.6c-2.5 0-5.8 2-5.7 5.8 0 2.7 2.4 5 5.7 5 2.7 0 5.2-2 5.3-4.8 0.2-3.5-2.3-6-5.3-6z"/>
  <path class="cls-3" d="m96.6 69.6c-3 0-5.5 2.3-5.5 5.5 0 3 2.3 5.3 5.5 5.3 2.8 0 5.3-2 5.3-4.8 0.2-3.5-2.5-6-5.3-6z"/>
  <circle class="cls-3" cx="64.4" cy="57.6" r="3.8"/>
  <circle class="cls-3" cx="57.4" cy="64.1" r="3.9"/>
  <circle class="cls-3" cx="64.6" cy="77.9" r="3.8"/>
  <circle class="cls-3" cx="57.4" cy="85.9" r="3.8"/>
  <circle class="cls-3" cx="64.4" cy="92.4" r="3.8"/>
  <circle class="cls-3" cx="71.1" cy="85.1" r="3.8"/>
  <circle class="cls-3" cx="81.1" cy="83.9" r="3.9"/>
  <circle class="cls-3" cx="85.9" cy="92.2" r="3.9"/>
  <circle class="cls-3" cx="92.9" cy="85.9" r="3.9"/>
  <circle class="cls-3" cx="85.9" cy="75.2" r="3.9"/>
  <circle class="cls-3" cx="92.9" cy="64.2" r="3.9"/>
  <circle class="cls-3" cx="85.8" cy="57.7" r="3.9"/>
  <circle class="cls-3" cx="80.9" cy="66.1" r="3.9"/>
  <circle class="cls-3" cx="71.3" cy="64.9" r="3.8"/>
  <circle class="cls-3" cx="66.7" cy="49.8" r="2.1"/>
  <circle class="cls-3" cx="56.8" cy="56.6" r="2.2"/>
  <circle class="cls-3" cx="50.1" cy="66.6" r="2.2"/>
  <circle class="cls-3" cx="50.2" cy="83.5" r="2.2"/>
  <circle class="cls-3" cx="56.8" cy="93.2" r="2.2"/>
  <circle class="cls-3" cx="66.7" cy="99.5" r="2.2"/>
  <circle class="cls-3" cx="83.2" cy="99.5" r="2.2"/>
  <circle class="cls-3" cx="93.5" cy="93.2" r="2.2"/>
  <circle class="cls-3" cx="100.1" cy="83.5" r="2.2"/>
  <circle class="cls-3" cx="100.1" cy="66.6" r="2.2"/>
  <circle class="cls-3" cx="93.5" cy="56.6" r="2.2"/>
  <circle class="cls-3" cx="83.2" cy="49.8" r="2.2"/>
  <circle class="cls-3" cx="64.1" cy="69.6" r="2.2"/>
</svg>