<svg xmlns="http://www.w3.org/2000/svg" viewBox="0 0 150 150">
<!-- SVG created with Arrow, by QuiverAI (https://quiver.ai) -->
  <style type="text/css">.cls-0 {fill:#D49B08;}
.cls-1 {fill:#E6AF0C;}
.cls-2 {fill:#B76A09;}</style>
  <path class="cls-0" d="m75 143c14.3 0 22.3-12.8 25-25l-25-26.5-24.5 26.5c2.7 12.2 10.2 25 24.5 25z"/>
  <path class="cls-0" d="m136.8 48.2c-0.6-6.6-4.4-12-10.2-15-3.6-1.9-7.6-2.8-13.3-2.8s-13.3 1.6-13.3 1.6l-10.2 34 29.8 9.8c7.9-5.3 18-17.2 17.2-27.6z"/>
  <path class="cls-0" d="m50.6 32.1c-2.7-0.6-7.1-1.7-12.9-1.7-14.2 0-24.5 7.7-24.5 19.7 0.2 10.6 6.9 19.3 12.5 25l30.4-7.1 4.1-2.6 0.5-30.4-10.1-2.9z"/>
  <path class="cls-1" d="m75 7c-10.6 0-19.5 9.1-23.3 21.1-1.2 4.1-3 11.8-3 16.3 0 14.2 9.7 23.1 20.8 24.6h11.5c9.5-1.5 20.3-9.8 20.3-24.6 0-5.8-1.8-12.5-3.6-17.5-4.1-10.2-11.5-19.9-22.7-19.9z"/>
  <path class="cls-1" d="m124.4 75.3c-6.3-5.4-11.7-11-22.2-11-5.7 0-8.6 1.5-12.4 3l-14.5 26.2c1.5 14.2 11 23.1 30.7 25.8 4.1 0.4 7.6 0.6 11.7 0 9.2-1.1 17.9-6.6 19.1-16.8 0.9-8.4-4.1-18.4-12.4-27.2z"/>
  <path class="cls-1" d="m59.9 66.6c-2.7-0.9-5.9-2.3-11.7-2.3-8 0-13.6 3.2-20.2 8.9-7.9 7.1-14.9 16.3-14.8 26.2 0.2 10.5 8.1 20.2 24.9 20.2 4.1 0 7.7-0.3 11.8-1.2 12.9-3 23.6-8 24.8-24.9l-14.8-26.9z"/>
  <path class="cls-2" d="m75 55.8c-10.1 0-19.1 7.9-19.1 19.5 0 9.8 7.6 18.5 19.1 18.5 9.8 0 19-7.8 19-18.5 0-9.5-7.4-19.5-19-19.5z"/>
</svg>