<svg xmlns="http://www.w3.org/2000/svg" viewBox="0 0 150 147">
<!-- SVG created with Arrow, by QuiverAI (https://quiver.ai) -->
  <style type="text/css">.cls-0 {fill:#E8B110;}
.cls-1 {fill:#D69C13;}
.cls-2 {fill:#AC381A;}
.cls-3 {fill:#8F2A11;}
.cls-4 {fill:#7A170E;}
.cls-5 {fill:#892B0D;}</style>
  <path class="cls-0" d="m142 73.8c0.6-0.4 2-1.1 1.8-1.4s-2.8-1.4-5.9-2.2l-0.1-0.1c3.1-1.1 5.8-2.5 5.8-3.1l-0.5-0.4 0.4-0.6-1.8-0.9c1-0.6 1.7-1.3 1.5-1.5l-0.6-0.3 0.3-0.3c-3.3-1.3-6.2-1.6-8-1.5 2.8-1.1 7-3.6 6.8-4.4l-1.6-0.8c0.7-0.7 1.3-1.6 0.9-1.7-1.8-0.8-5.2-0.7-7.6-0.4 3-1.5 5.9-5 5.9-5.6h-0.4l0.3-0.7-2.1-0.8 1.3-1.7-0.7-0.3v-0.7c-1.3-0.4-4.4 0-6.3 0.3 1.9-1.8 4.5-4.4 4.2-4.9l-1.9-0.3c0.5-0.9 1-1.8 0.4-1.8-1.7-0.1-4.2 0.5-6.4 1.1 1.4-1.7 3.4-4.2 3.6-5l-0.6-0.2 0.1-0.7-2.1 0.1 0.8-2.1h-0.6l0.1-0.4c-2.3 0.1-5.2 1-8.1 2.5 2.2-2.7 3.9-6.5 3.7-7.1l-1.9 0.2c0.2-1 0.4-2-0.1-2-1.2 0.2-3.7 1.4-6.5 3.6 1.5-2.8 2.3-6.3 2.2-7.7h-0.5l-0.1-0.6-1.8 0.8 0.2-2.2-0.8 0.2-0.1-0.6c-1.3 0.3-3.7 2-5.8 3.7 0.8-2.7 1.4-6.2 1.2-6.8-0.2-0.2-1.2 0.3-1.9 0.8-0.1-1-0.1-1.9-0.5-1.9-0.9 0.3-3.1 2.2-5.1 4.2 0.4-2.7 0.5-6.5 0.1-6.9l-0.6 0.3-0.4-0.7-1.5 1.5-0.4-2.2-0.5 0.3-0.1-0.5c-1.3 0.8-3.5 3.1-5.5 5.9 0.4-3.2 0-7.7-0.4-7.6l-1.4 1.1c-0.4-0.9-0.8-1.8-1-1.6-1 0.7-2.8 3.6-4.4 6.4 0-2.7-1.4-7.6-1.6-7.8l-0.5 0.2-0.3-0.4-1.3 1.8-1-2.2-0.5 0.5-0.7-0.5c-0.7 0.7-2 3.4-2.7 5.8-0.8-2.4-1.8-6-2.4-6l-1 1.6c-0.5-0.7-1.2-1.8-1.4-1.6-0.6 0.9-1.5 3.6-2.3 5.9-0.9-2.3-2.6-5.8-3-5.7l-0.5 0.5-0.4-0.6-0.9 2.1-1.4-1.6-0.4 0.3-0.3-0.2c-0.8 2.2-1.5 5-1.5 7.9-1.5-2.9-3.8-6.6-4.3-6.5l-0.7 1.8c-0.8-0.7-1.5-1.4-1.8-1.2-0.5 1.5-0.4 4.9-0.1 7.7-1.6-2.5-5-5.9-5.6-6l-0.2 0.5-0.5-0.4-0.4 2.1-1.8-1.3-0.4 0.8-0.6-0.4c-0.4 1.2 0 4.4 0.4 6.9-2-1.8-4.7-4.4-5.3-4.2l-0.3 2c-0.9-0.5-1.9-1-2-0.6-0.1 1.3 0.5 4.3 1.2 6.5-1.9-1.4-4.7-3.6-5.4-3.6l-0.1 0.5-0.9-0.2 0.1 2.2-2.1-0.8v0.6l-0.6 0.1c0.2 2.3 1 5 2.7 7.8-2.8-2.3-6.5-4.1-7.3-3.8l0.2 1.9c-0.9-0.1-1.9-0.3-1.9 0.1 0.2 1.3 1.8 4.3 3.9 6.9-2.9-1.5-6.7-2.6-8-2.4l0.1 0.4h-0.6l0.8 1.9-2.2-0.2 0.1 0.9-0.5 0.1c0.2 1.2 1.9 3.4 3.6 5.2-2.5-0.7-6.2-1.6-6.7-1.2-0.1 0.2 0.2 1.1 0.6 1.9l-1.9 0.1c-0.3 0.7 2.1 3.3 4.2 5-2.4-0.3-6.3-0.8-6.7-0.3l0.2 0.6-0.7 0.2 1.3 1.8-2.2 0.4 0.2 0.5-0.2 0.3c1.4 2 3.9 4.4 6.4 6-3-0.4-7.9-0.3-8.3 0.2 0 0.3 0.5 1.1 1 1.7-0.9 0.3-1.7 0.7-1.6 1 0.6 1.1 3.9 2.9 6.9 4.4-3 0-7.8 1.2-7.9 1.6l0.2 0.3-0.5 0.2c-0.1 0.3 0.7 0.9 1.4 1.5l-1.9 0.9 0.4 0.6-0.4 0.5c0.7 1 3.4 2.1 5.7 3-2.4 0.6-5.8 1.8-5.8 2.4 0 0.2 0.8 0.9 1.3 1.3l-1.3 1.2c0.4 0.9 3.5 1.8 6 2.3-2.5 0.9-5.7 2.4-5.7 3l0.5 0.3-0.5 0.5 1.7 1.1-1.4 1.3 0.4 0.3-0.1 0.4c2.1 0.9 4.9 1.4 7.9 1.4-2.8 1.3-6.7 3.4-6.8 4.4l1.8 0.6c-0.5 0.6-1.3 1.5-0.9 1.7 1.2 0.5 4.6 0.7 7.6 0.3-2.7 1.5-6.1 5-6.1 5.5l0.4 0.1-0.3 0.6 2.1 0.2-1.3 1.9 0.8 0.2-0.3 0.7c1.2 0.5 4.4 0.1 6.9-0.2-1.9 1.8-4.4 4.4-4.4 5.3 0.2 0.2 1.2 0.4 1.9 0.4-0.4 0.8-0.9 1.8-0.6 1.9 1.3 0.3 4.2-0.3 6.7-1.2-1.5 1.9-3.7 4.7-3.7 5.6l0.5 0.1-0.1 0.9h2.2l-0.7 2 0.6 0.1-0.1 0.3c2.3 0 5.3-0.9 8-2.4-2 2.5-4 6.1-3.8 6.8l1.8-0.1c-0.1 0.9-0.2 1.8 0.2 1.7 1.3-0.2 4.2-1.6 6.9-3.8-1.7 2.9-2.7 6.7-2.7 7.9h0.4l0.1 0.6 2-0.7-0.1 2.2 0.8-0.1 0.3 0.5c1.2-0.4 3.6-2 5.6-3.7-0.8 2.6-1.5 6.2-1.2 6.7 0.2 0.1 1.2-0.2 2-0.6 0 0.9 0.1 1.9 0.4 1.9 1-0.2 3.1-2 5-4.3-0.4 2.8-0.7 6.3-0.2 6.6l0.6-0.2 0.2 0.7 1.7-1.3 0.5 2.2 0.5-0.4 0.3 0.5c1.6-0.8 4-3.3 5.5-5.8-0.4 3.1 0 7.3 0.3 7.3l1.5-1c0.3 0.8 0.7 1.7 1 1.5 0.8-0.5 2.8-3.3 4.2-6.3 0 3 1 7.2 1.6 7.6l0.4-0.1 0.3 0.5 1.4-1.7 0.9 2 0.6-0.5 0.5 0.4c0.9-0.6 2.3-3.4 2.8-5.5 0.7 2.5 1.7 5.6 2.3 5.9l1.3-1.5c0.5 0.7 1 1.5 1.2 1.4 0.8-0.7 1.7-3.3 2.2-5.9 1 2.6 2.6 5.6 3 5.6l0.5-0.4 0.5 0.5 1-2 1.3 1.5 0.4-0.2 0.3 0.1c1-2 1.7-5 1.7-7.7 1.5 3 3.5 6.3 4.3 6.3l0.9-1.5c0.7 0.7 1.4 1.2 1.6 1 0.6-1.5 0.6-4.8 0.3-7.6 1.7 2.8 4.7 5.8 5.5 6l0.1-0.4 0.6 0.2 0.5-2 1.7 1.3 0.3-0.7 0.6 0.2c0.4-1.2 0.1-4.3-0.4-32.8"/>
  <path class="cls-1" d="m62.9 13.4c0.5 4.8 2.6 12.8 2.6 12.8l-7.8-2.6s-1.3-6.2-1.7-8.2c-0.5-4.5 0.1-7.8 0.2-7.7 0.2-0.1 1 0.5 1.7 1.2l0.7-1.8c0.5-0.2 3 3.4 4.3 6.3z"/>
  <path class="cls-1" d="m87.1 13.4c-0.5 4.8-2.5 12.8-2.5 12.8l7.8-2.6s1.2-6.2 1.8-8.2c0.4-4.5-0.1-7.8-0.4-7.7-0.2-0.1-0.9 0.5-1.5 1.1l-0.9-1.7c-0.5 0-3 3.4-4.3 6.3z"/>
  <path class="cls-1" d="m34.2 27.9c2.7 3.7 8.9 9.3 8.9 9.3l-7.5 1.8s-4.6-4.4-6.5-6c-2.5-3.1-4-6.5-3.8-7.1 0.1-0.2 1.1 0 1.8 0.1l-0.2-1.9c0.5-0.3 4.5 1.5 7.3 3.8z"/>
  <path class="cls-1" d="m116.1 27.9c-2.6 3.7-8.7 9.3-8.7 9.3l7.3 1.8s4.7-4.4 6.4-6c2.5-3.1 3.9-6.5 3.5-7.1l-1.9 0.2 0.2-2c-0.5-0.3-4.2 1.5-6.8 3.8z"/>
  <path class="cls-1" d="m16.9 54.2 10.2 3.2-4.5 5.5s-5.2-1-7.7-1.4c-3-1.3-6.3-3.3-6.8-4.4-0.1-0.2 0.6-0.7 1.5-1-0.5-0.6-1-1.4-0.9-1.7 0.3-0.5 5.2-0.8 8.2-0.2z"/>
  <path class="cls-1" d="m133.4 54.2-10.2 3.2 4.4 5.5s5.3-1 7.5-1.4c2.9-1.3 6.3-3.3 6.6-4.4l-1.6-0.8c0.7-0.7 1.3-1.6 1-1.7-0.4-0.7-4.7-1-7.7-0.4z"/>
  <path class="cls-1" d="m14.9 85.6 10.5-2-0.8 6.9s-5.5 1.5-8 2.1c-3 0.3-6.4 0.2-7.5-0.2-0.4-0.3 0.3-1 0.8-1.8l-1.8-0.6c0.1-1 4-3.1 6.8-4.4z"/>
  <path class="cls-1" d="m134.9 85.6-10.4-2 0.9 6.9s5.5 1.5 8 2.1c3 0.3 6.3 0.2 7.6-0.2 0.4-0.3-0.4-1-0.9-1.8l1.6-0.6c0.3-1-3.8-3.1-6.8-4.4z"/>
  <path class="cls-1" d="m29.1 114.6 8-6.5 3.1 4.8s-3.8 4.2-6 6.3c-2.7 2.2-5.6 3.6-7.1 3.8-0.2 0.1-0.1-0.8 0-1.7l-1.7 0.1c-0.3-0.7 1.7-4.3 3.7-6.8z"/>
  <path class="cls-1" d="m120.9 114.6-8-6.5-3 4.8s3.8 4.2 6.2 6.3c2.6 2.2 5.5 3.6 6.6 3.8 0.4 0.1 0.2-0.8 0.2-1.7l1.7 0.1c0.3-0.7-1.5-4.3-3.7-6.8z"/>
  <path class="cls-1" d="m55.9 132.1 2.7-9.5 6.3 2.3s-1.2 5.6-2 8.5c-1.4 3-3.4 6.2-4.2 6.3-0.1 0-0.6-0.7-0.8-1.5l-1.7 1.2c-0.3-0.2-0.8-4.3-0.3-7.3z"/>
  <path class="cls-1" d="m94.2 131.6-2.8-9-6.3 2.3s1.3 5.6 2 8.5c1.5 3 3.5 6.2 4.3 6.3l0.9-1.5c0.7 0.7 1.4 1.2 1.6 1 0.6-1.5 0.7-4.8 0.3-7.6z"/>
  <path class="cls-2" d="m75 15.7 1.6 3.9c0.5-1.2 1.8-2.7 1.9-2.7 0.5 0.5 1.1 2 1.5 3.3 0.6-1.2 2-3.3 2.1-3.1l0.3 0.5 0.2-0.7c0.8 0.7 1.9 3.2 2.4 5.3l0.1 0.9 0.3-0.1-0.4 14.9-8 9.3h-4l-3.3-6.8 0.2-17.4 0.2 0.1v-0.9c0.4-2.1 1-4.8 1.8-5.3 0.2 0 1.2 1.5 1.5 2.6l1.3-3.9"/>
  <path class="cls-3" d="m62.1 18.6c-0.4 0.9-0.5 3.3-0.4 4.8-0.7-1-2.6-4-3.1-4-0.5 1-0.2 5 0 5.2l4 22 7-1.5 0.4-8.7s-4.9-12-5.1-13.5c-0.8-1.5-2.3-4.3-2.8-4.3z"/>
  <path class="cls-2" d="m53.7 20.6-0.1 0.8-0.4-0.4c-0.3 0.6-0.3 2.6-0.1 3.9-1-1-2.7-2.3-3.1-2-0.3 0.5-0.3 2.2-0.1 3.3-1-1-3.3-2.8-3.8-2.7-0.2 0.9 0.1 3.1 0.5 4.4-1.1-0.7-2.9-1.8-3.1-1.5-0.1 0.5 0.1 2.5 0.4 3.5-1-0.5-3.3-1.8-3.5-1.3l-0.4-0.2-0.3 0.5c-0.1 1.7 0.9 6.7 0.9 6.7l18 13.3 4-2.3-4-22c-1.2-1.5-4.4-4-4.9-4z"/>
  <path class="cls-3" d="m36.4 32.4c-0.3 0.7 1.2 3.5 1.8 4.3-1.3-0.7-3.8-2.1-4.7-1.8 0.1 1.5 2.9 5.1 2.9 5.1l14.5 17.1 5.5-4.7-4-8.5s-14.5-11.5-16-11.5z"/>
  <path class="cls-2" d="m36.4 39c-2.3-0.6-6-1.1-6.7-0.8l0.2 0.5h-0.5c0 0.7 1 2.4 1.7 3.4-1.2-0.2-3.4-0.6-3.6-0.4-0.1 0.7 0.9 2.2 1.6 2.7-1.2-0.3-4.5-0.7-4.5-0.4 0 0.6 1.8 2.6 2.6 3.5-1.1-0.1-3.3-0.1-3.5 0.1 0 0.8 1.3 2.1 2 3.1-1.1 0-3.6 0.2-3.6 0.5l0.3 0.4-0.5 0.1c0.3 1.5 3.8 5.4 4.7 5.7l22 3.6 2.5-4.1-14.7-17.9z"/>
  <path class="cls-3" d="m20.6 57.1c0.3 0.8 3 2.5 4 3.1-1.5 0-4.6 0.2-5 0.7 0.8 1.5 4.8 2.7 4.8 2.7l15.7 5 7.5-0.2 1-4.3-8-4.5s-14.5-2.7-16.2-2.7c-1.7-0.2-3.7 0-3.8 0.2z"/>
  <path class="cls-2" d="m24.4 63.6c-2.2 0.5-6 2-6 2.4l0.3 0.4-0.5 0.2c0.4 0.8 1.8 1.8 3 2.1-1.2 0.4-3.1 1-3.1 1.4 0.1 0.5 1.6 1.5 2.8 1.8-1.3 0.3-4.2 1.5-4 1.8 0.5 0.4 2.7 1.2 4 1.7-1 0.5-2.8 1.5-2.8 1.8 0.3 0.7 2.1 1.2 3.3 1.5-1 0.5-3 1.9-3 2.2l0.7 0.2-0.7 0.3c0.7 1 6 2.5 6 2.5l21.2-7.8v-4.5l-21.2-8z"/>
  <path class="cls-3" d="m24.4 83.9c-2 0.7-4.4 2-4.8 2.5 0.4 0.5 3.5 0.5 5 0.5-1.2 0.7-4 2.3-4 2.8 0.8 0.5 4 0.3 5.8 0l14.2-2.3 6.6-3.9-1.1-4.5-8-0.3-13.7 5.2z"/>
  <path class="cls-2" d="m25.7 90c-1.6 1.6-3.6 3.9-3.6 4.6h0.5l-0.5 0.4c0.6 0.5 2.5 0.5 3.8 0.5-0.9 0.9-2.2 2.6-2 2.9 0.5 0.2 2.2 0.3 3.3 0.2-0.8 0.8-2.6 3-2.6 3.6 0.8 0.2 3.1 0 4.4-0.3-0.6 1-1.6 2.7-1.5 3.2 0.7 0.3 2.5 0 3.6-0.4-0.6 0.9-1.7 3.2-1.6 3.4l0.6 0.1-0.4 0.7c1.7 0.2 6.7-0.8 6.7-0.8l14.7-18.1-2.5-3.9-22.9 3.9z"/>
  <path class="cls-3" d="m36.4 108c-1.3 1.6-3 4-3 4.7 0.7 0.2 3.5-1.1 4.8-2.1-0.6 1.3-2 3.8-1.8 4.5 1.5-0.1 4.2-2.1 4.2-2.1l11.8-10 4-7.5-3.5-3.3-7.3 3.7-9.2 12.1z"/>
  <path class="cls-2" d="m40.6 113c-0.5 2.4-1 5.1-0.6 5.6l0.4-0.2v0.5c0.7 0 2.5-0.8 3.3-1.5-0.3 1.2-0.6 3.2-0.2 3.5 0.6 0 2.1-0.8 3-1.5-0.4 1.2-0.8 4.2-0.4 4.2 0.5-0.2 2.5-1.6 3.5-2.5-0.1 1.1 0 3.1 0.3 3.3 0.7 0 2.1-1.2 3-2 0 1 0.2 3.5 0.5 3.5h0.3v0.5c1.4-0.3 5.2-3.8 5.2-3.8l3.7-22.6-5.7-4.4-16.3 17.4z"/>
  <path class="cls-3" d="m58.6 122.6c-0.4 2-0.2 5 0 5.3 0.8-0.3 2.5-2.8 3.1-4 0 1.5 0.4 4.7 0.7 4.7 1.5-0.7 2.6-4 2.6-4l5-14-0.4-9.5-7-1.2-1.2 8.2-2.8 14.5z"/>
  <path class="cls-2" d="m65 124c0.6 2.4 1.9 5.9 2.5 5.9l0.2-0.3 0.2 0.4c0.7-0.4 1.7-1.9 2.1-2.9 0.4 1.1 1.1 3 1.5 3 0.5-0.2 1.4-1.5 1.7-2.5 0.4 1.1 1.5 4 1.9 3.8 0.4-0.4 1.3-2.5 1.6-3.8 0.5 1 1.5 2.8 1.9 2.6 0.6-0.3 1.1-2.1 1.4-3.2 0.6 1.1 1.9 3.1 2.1 3l0.3-0.4 0.2 0.4c1-0.8 2.3-4.4 2.4-6l-8-21.4h-4.4l-7.6 21.4z"/>
  <path class="cls-3" d="m80 110.6 5 13.4c0.6 2.1 2.1 4.6 2.6 4.6 0.5-0.7 0.8-3.2 0.6-5 0.8 1.5 2.9 4.3 3.2 4 0.5-1 0-5 0-5l-3.8-22.6-7.5 1.9-0.2 8.7z"/>
  <path class="cls-2" d="m87.6 100 3.8 22.2c1.2 1.4 4.7 4.2 5.2 4.2v-0.5l0.4 0.5c0.6-0.8 0.4-2.8 0.4-4 1 0.8 2.6 2 2.8 1.8 0.3-0.6 0.2-2.3 0-3.1 0.9 0.8 3.2 2.8 3.7 2.5 0.1-0.6-0.2-3-0.5-4.4 1 0.7 2.7 1.9 3.1 1.7 0.1-0.7-0.1-2.5-0.4-3.5 1 0.6 3.3 1.7 3.5 1.2v-0.5l0.4 0.5c0.4-1.6-0.8-6-0.8-6l-17.8-15.2-3.8 2.6z"/>
  <path class="cls-3" d="m96.6 102.6 12.6 10c1.7 1.4 4.2 2.5 4.8 2.5 0-0.7-1.1-3.2-2-4.5 1.2 0.8 4.1 2.3 4.5 2-0.1-1.5-2.5-4.5-2.5-4.5l-9.9-12.2-6.7-3.7-3.7 3.4 3.9 7z"/>
  <path class="cls-2" d="m99.1 90 14.9 18c2.1 0.6 5.6 1.1 6.1 0.9l-0.4-0.7h0.7c0-0.6-1-2.3-1.8-3.6 1.3 0.4 3.5 0.8 3.8 0.4 0-0.6-1-2.1-1.7-3.1 1.2 0.3 4.4 0.7 4.7 0.3-0.3-0.6-1.8-2.5-2.8-3.6 1.1 0.1 3.3 0 3.5-0.2-0.1-0.7-1.2-2-2.2-3 1.1 0.1 3.7 0 3.7-0.4l-0.2-0.4h0.7c-0.2-1-2.2-3-4-5l-22.7-3.5-2.3 3.9z"/>
  <path class="cls-3" d="m102.9 83.4 6.7 3.7 14.5 2.5c2 0.3 5 0.3 5.3 0-0.3-0.6-2.5-2-4-2.9 1.6 0.2 5-0.1 5-0.5-0.8-1.1-4.3-2.3-4.3-2.3l-14.1-5.3-8.3 0.4-0.8 4.4z"/>
  <path class="cls-2" d="m104.4 71.6v4.5l21.7 7.8c2-0.5 5.5-2 5.5-2.5l-0.5-0.3 0.6-0.2c-0.3-0.5-1.8-1.5-2.8-2.2 1.1-0.3 3.1-1.1 3.1-1.5-0.1-0.3-1.6-1.2-2.6-1.6 1.2-0.5 4-1.7 3.8-1.9-0.3-0.3-2.6-1.1-4-1.6 1-0.5 2.8-1.5 2.9-2-0.4-0.4-2-1-3.2-1.5 1-0.5 3-2 2.8-2.2h-0.3l0.3-0.4c-0.6-0.6-3.3-1.9-5.6-2.4l-21.7 8z"/>
  <path class="cls-3" d="m102.9 64 1.1 4.4 8 0.2 14.1-5c2-0.7 4.1-2.2 4.3-2.7-0.7-0.5-3.3-0.7-5-0.5 1.3-0.8 4.2-2.8 4.2-3.3-1-0.4-5-0.2-5-0.2l-15 2.7-6.7 4.4z"/>
  <path class="cls-2" d="m99.1 56.9 2.3 4.2 22.7-3.7c1.5-1.4 4-4.5 4-5.5l-0.5-0.2 0.5-0.3c-0.5-0.4-2.7-0.5-4.1-0.5 0.9-0.9 2.1-2.7 2.1-3-0.5-0.3-2.4-0.4-3.5-0.3 0.8-0.9 2.8-3.2 2.5-3.6-0.5-0.1-3 0.1-4.4 0.4 0.7-0.8 1.7-2.3 1.7-2.7-0.7-0.2-2.5 0.2-3.7 0.4 0.7-1 1.7-3.2 1.7-3.4h-0.7l0.2-0.5c-1.3-0.2-3.8 0.2-5.9 0.8l-14.9 17.9z"/>
  <path class="cls-3" d="m93.7 51.4 3.7 3 6.7-3.8 9.9-11.6c1.4-1.6 2.6-3.4 2.5-4.1-0.6 0-3.1 1-4.4 1.8 0.8-1.1 2-3.8 1.9-4.3-1.4 0-4.4 2.2-4.4 2.2l-12.2 9.4-3.7 7.4z"/>
  <path class="cls-2" d="m87.4 46.1 4.2 2.8 17.6-13.8c0.7-2.2 1.2-6.2 0.9-6.4l-0.5 0.2v-0.5c-0.5 0-2.2 0.7-3.5 1.5 0.3-1.3 0.5-3.3 0.3-3.5-0.5 0-2 1-3 1.5 0.2-1.2 0.6-4.3 0.5-4.4-0.5 0.1-2.5 1.6-3.7 2.7 0.2-1.1 0.2-3.1-0.2-3.5-0.6 0.2-1.9 1.2-2.8 2.2 0-1-0.2-3.5-0.3-3.9l-0.3 0.4v-0.8c-1 0.3-3.5 2-5.2 3.8l-4 21.7z"/>
  <path class="cls-3" d="m80.1 44 4.5 1.1 4-6.2 2.8-14.3c0.2-2 0.2-4.6 0-5.2-0.8 0.2-2.4 2.7-3 4 0-1.5-0.3-4.8-0.8-4.8-1 0.8-2.5 4.3-2.5 4.3l-5.2 13.5 0.2 7.6z"/>
  <path class="cls-4" d="m75.1 43.6c-15.1 0-29.6 12.4-29.6 29.8 0 15.2 12.2 29.5 29.6 29.5 15.3 0 29.3-12 29.3-29.5 0-13.8-12-29.8-29.3-29.8z"/>
  <path class="cls-5" d="m75 45.4 1.6 1.3 1.8-1.1 1.7 1.8 1.8-1 1 1.7 2.2-0.5 1.5 2.3 1.8-0.7 0.6 2.2h2.4l1 2.6h1.8v2l2.4 0.9v2.7l2 0.5-0.5 2 2.1 1.5-0.6 2 1.8 1-1 1.8 1.7 1.7-1.2 2.3 1.5 1.3-1.5 0.9 1.2 2.6-1.7 1.9 1 1.5-1.8 1 0.6 2.3-2.1 1.5 0.5 1.7-2 0.5v2.4l-2.4 0.6v2h-1.8l-1 2.5h-2.4l-0.3 1.8-1.8-0.5-1.5 2.2-2.8-0.7-1 1.7-1.5-1-1.7 1.8-2-1.2-1.4 1.4-1.4-1.4-2 1.2-2-1.8-1.5 1-1-1.7-2.1 0.7-1.4-2.2-2 0.5-0.2-1.8-2.8-0.1-0.9-2.4h-1.8v-2l-2.5-0.6v-2.4l-2-0.5 0.6-1.7-2.3-1.5 0.7-2.3-1.7-1 0.9-1.5-1.7-1.9 1.2-2.2-1.5-1.3 1.5-1.3-1.2-2.3 1.7-1.7-0.9-1.8 1.7-1-0.7-2 2.3-1.5-0.6-2 2-0.5v-2.5l2.5-1.1v-2h1.8l0.9-2.4 2.4-0.2 0.6-2.2 1.8 0.7 1.5-2.3 2.2-0.2v-0.7l0.6 0.7h1.4l1-1.5 1.5 0.8 1.5-1.3 0.5 0.5 1.4 0.8z"/>
  <path class="cls-5" d="m75 49.1 1.9 1.9 1.7-1.4 1.8 2.4 2.2-1.4 1.1 2.8 2.7-0.8 1 2.6 2.5-0.3 0.2 2.7 1-0.2-0.2 1.2 2.5 0.1-0.3 2.7 2.8 0.7-1 2.5 2.5 1.3-1.3 2.2 2.5 1.5-1.6 2 1.7 2.1-1.7 1.2 1.6 1.7-2 2.3 0.8 2.1-1.8 1.4 1 2.6-3.2 0.6v2.8l-2.5 0.2v1l-0.8-0.5v2.8l-2.7-0.5-1 2.6-2.5-0.6-1.3 2.2-2.2-1.2-1.7 2.5-1.8-1.9-1.8 1.9-1.9-1.9-2.3 1.6-1.3-2.2-2.2 1.2-1.3-2.4-2.4 0.8-0.7-2.4-2.8 0.3-0.1-2.8-1 0.5v-1l-2.5-0.2 0.3-2.5-2.7-0.8 0.9-2.5-2.4-1.2 1.3-2.4-2.5-1.4 1.7-2-2-1.9 2-1.3-1.7-2.7 2.4-1.5-1.2-2.2 2.4-1.4-0.7-2.5 2.5-0.5-0.3-3h2.5v-1.2l1 0.2 0.1-2.7 2.7 0.3 0.8-2.6 2.4 0.8 1-2.5 2.3 1.1 1.5-2.4 2.2 1.5 0.5-0.5 1.4-1.2z"/>
</svg>