<svg xmlns="http://www.w3.org/2000/svg" viewBox="0 0 150 150">
<!-- SVG created with Arrow, by QuiverAI (https://quiver.ai) -->
  <style type="text/css">.cls-0 {fill:#9E3416;}
.cls-1 {fill:#872B15;}
.cls-2 {fill:#F3E3C6;}
.cls-3 {fill:#2A2417;}
.cls-4 {fill:none;stroke:#463A28;stroke-width:0.9064;stroke-linecap:round;stroke-miterlimit:10;}</style>
  <path class="cls-0" d="m133 59.4c-2.7-8.8-7.3-19.4-17.4-20.5-4.4-0.6-8.8-0.2-15 1.6 0.8-6.4-1-12.4-5.2-17.5-4.3-5.1-11.3-7.6-20.4-7.6-8.2 0-15 1.8-19 5.7-4.9 4.5-7.4 11.3-6.7 17.9l0.1 1.4c-2.9-1.1-5.8-1.8-10.4-1.8-12.1 0.1-18.3 7.9-22.3 20.8-2.3 7.5-3 18.1 5.4 25 2.6 2.2 5.9 4.1 10 5.3-2.9 3.2-6.8 8.8-6.8 16.8 0.1 9.8 7.7 16.6 14.6 21.7 4.8 3.6 9.5 6.7 16.2 6.7 7.8 0 13.8-4.3 18.9-12.2 4.3 6.4 10.6 12.1 19.5 12.2 6.4 0 11.6-2.7 16.6-6.7 6.8-5.1 13.3-11.3 13.3-21.3 0-5.4-2.1-11.7-6.7-16.9 4-0.7 7.1-2.4 10.1-4.7 8.1-6.3 8.2-16.9 5.2-25.9z"/>
  <path class="cls-1" d="m90.9 45.3c-4.2 4.5-7.3 11.6-9.8 16.8l-1.5 3 1.5 2.2c3.3-3.6 7.6-8.4 10.7-12.3 3.1-4 6.8-7.6 9-14.5l0.1-2.9c-3.5 1.3-7.7 4.8-10 7.7z"/>
  <path class="cls-1" d="m84.7 78.6v0.4c10.9 1.1 24.2 2.6 32.7 9l2.6 2 0.4-0.1c-2.9-3.4-6.3-6.3-10.8-8.3-6-2.7-14.4-4.5-20.9-5.6h-3.8l-0.2 2.6z"/>
  <path class="cls-1" d="m64.3 79 0.8-0.4 0.7 1.8c-7.5 3.2-16.4 9.2-25.7 10-2.7 0.9-6.5 2-10 1.7l0.6 0.1-0.4 0.2c8.6 1.2 12.3 0.5 17.8-1.3 6-1.8 12-5.2 17-8.2l-0.8-3.9z"/>
  <path class="cls-1" d="m74.6 84.9 1.8 8.2c1.9 9.8 3.2 18.8 0 28.8l0.3 3.2c3.4-5 4.4-11 4-18.2-0.3-7.3-1.8-14.8-3.1-22h-3z"/>
  <path class="cls-1" d="m46.3 39.6c0.8 9.8 6.1 15.3 12.6 20.8l9.2 7.2 1.8-1.2-0.3-0.3c-7.7-6.5-18.6-14.5-20.3-25.7l-3-0.8z"/>
  <path class="cls-2" d="m84.9 74.4c10.7-2 27-0.8 40 2.2-4.8-2.2-12.8-3.6-23.3-4.2 7.8-0.8 16.5-2.5 23.5-7-11.4 4.6-22 4.7-32.5 6.5l-7.7 1.5v1z"/>
  <path class="cls-2" d="m84.9 74.6v1.5c8.7 0.3 18.2 2.5 30 6.5-5.5-3.2-17.5-7.7-30-8z"/>
  <path class="cls-2" d="m84.1 70.4 0.6 1c9-4.5 22-10.5 37.9-13.7-6.7-0.1-16 2.3-27 6.9 4.8-3.2 11.8-8.5 21.3-17.7-6.5 3.1-15.8 12.5-32.8 22.7v0.8z"/>
  <path class="cls-2" d="m83.4 68.9 0.7 1c7.5-6 12.3-14.5 19.2-23.2-6.2 3.9-12.9 15.4-19.9 21.2v1z"/>
  <path class="cls-2" d="m83.4 81.1 0.3 1c7.7 4.8 19.4 7.5 29.2 12-5-4.5-16.8-6.7-28.8-13.4l-0.7 0.4z"/>
  <path class="cls-2" d="m82.6 82.6-0.5 0.5c7.5 7 20.5 21 27.2 33.8-2.4-8-9.9-17.3-16.6-25.8 5.4 4 16.9 11.3 23.7 16.8-4.8-5.8-19.3-14.2-33-25.8l-0.8 0.5z"/>
  <path class="cls-2" d="m79.6 84.4-1.2 0.7c3.7 7.8 11 29 13.3 39.5 0-7-1.8-16.2-4.8-25.7 3.2 6.5 8.7 16.2 15.7 22.2-8.5-9.7-15-24.7-22.2-36.7h-0.8z"/>
  <path class="cls-2" d="m77.6 85.4c3 8 3.8 19.2 3.8 31.2 1.5-8.2 1.2-22-2.5-31.5l-1.3 0.3z"/>
  <path class="cls-2" d="m71.4 84.9-0.7-0.3c-4.8 10.5-14 25-23.7 36 5.6-4.2 12.6-13.7 18.3-24.2-1.9 6.2-5.2 21.2-7.4 28.7 3.5-6.2 5.5-18.2 10.7-33.2l2.8-7z"/>
  <path class="cls-2" d="m72.4 85.4-1-0.3c-2.3 9-1 20.8-1.7 31.5 1.7-5 0.9-14 1.9-25.5l0.8-5.7z"/>
  <path class="cls-2" d="m67.6 82.6c-6 6.8-20.5 16-33.4 24 5.2-1.5 12.5-5.7 21.5-12.5-5 5.3-11.6 12-15.1 22.3 7.5-13.8 18.5-21.8 27.3-32.8l-0.3-1z"/>
  <path class="cls-2" d="m66.4 81.4c-5.8 4.2-14 8-27.8 12.7 7-0.7 19.3-4.7 28-11.5l-0.2-1.2z"/>
  <path class="cls-2" d="m64.1 75.4c-9.7 0.7-16.7 4.2-29.2 7.5 7 0 13.2-3.5 29.5-6l-0.3-1.5z"/>
  <path class="cls-2" d="m64.4 73.6c-10-1-25-3.2-39.5-9.7 5 3.2 13.5 6.7 26.7 9.5-7.5 0-15.5 0.5-27.5 2.1 8.6 0.6 17.5-1.1 30-0.9h10.3v-1z"/>
  <path class="cls-2" d="m65.1 70.4 0.5-1c-6-4-12.5-10.8-18.5-21.8 3 3.8 9.5 14.3 18.5 22.3l-0.5 0.5z"/>
  <path class="cls-2" d="m65.6 70.4-0.5 1.2c-9.5-3.2-20.7-11.2-37.5-15.5 6 0 13.5 2.3 24 7.5-5-3.7-12.2-9.2-16.7-17 5.5 6.5 17.5 16 30.2 23.3l0.5 0.5z"/>
  <path class="cls-2" d="m71.1 65.4 1.3-0.3c-4.3-9.5-12.3-18.2-16.1-25.7 2.1 7.5 9.3 14.5 14.3 25.2l0.5 0.8z"/>
  <path class="cls-2" d="m72.4 64.6 1.2-0.2c-2-10.8-3.2-26.3-1.5-39.3-2.7 8.5-2.2 19-1.7 27.5-2-7-6.5-17-9.2-25.4 1.2 9.2 7.2 21.4 10.9 37.2l0.3 0.2z"/>
  <path class="cls-2" d="m77.6 64.6c2.5-11.2 7.5-23.5 12.8-35.2-4 4.7-7.8 12-10.8 19.2 1.3-7 2-16.5 0.1-23.5 1.7 16.5-3.1 26.5-3.8 39.5h1.7z"/>
  <path class="cls-2" d="m78.6 65.1c2.8-7 8.1-15 14.5-24.5-4 3-13 14-15.7 23.8l1.2 0.7z"/>
  <path class="cls-3" d="m75 64c-5.6 0-10.9 4.4-10.9 11.1s5 10.9 10.9 10.9 10.9-4.4 10.9-10.9c0-6-5-11.1-10.9-11.1z"/>
  <path class="cls-4" d="m66.7 75.1c0-4 3.7-8.4 8.3-8.4 2.1 0 3.9 0.7 5.1 1.9m-4.7 0.3c3 0.2 5.2 2.5 5.2 6m-10.2-3.8c-1 1-1.5 2.3-1.5 4 0 3.3 2.5 5.8 6 5.8 1.2 0 2.5-0.3 3.2-0.9m-5.7 0.6m2.5 2.8m0.1 0c-1.9 0-3.6-0.5-5.4-2m13-4.5m-1.5 3.5c1.3-1.4 2-3 2-5m-11.9-0.5c0-1.9 1.7-3.5 3.7-3.5m0.5 7.5c1.7 0 3-1.5 3-3.5"/>
</svg>