<svg xmlns="http://www.w3.org/2000/svg" viewBox="0 0 150 149.8">
<!-- SVG created with Arrow, by QuiverAI (https://quiver.ai) -->
  <style type="text/css">.cls-0 {fill:#E63703;}
.cls-1 {fill:#FE4A0B;}
.cls-2 {fill:#27251C;}
.cls-3 {fill:none;stroke:#D08F18;stroke-width:2.2353;stroke-linecap:round;stroke-miterlimit:10;stroke-dasharray:0,3.353}</style>
  <path class="cls-0" d="m79.1 13.6c-1-4.5-2.2-9.2-4.1-9.2s-3.4 4.8-4.2 9.3c-1.2-4.6-2.8-8-4.4-7.8s-2.5 3.8-2.7 8.1c-1.9-3.7-4.1-7.4-5.5-7-2.7 0.6-1.9 10.3-1.6 13.3-2.2-3.5-6.2-9.9-8.8-9.6-2.2 0.4-1.2 6.9 0.7 13.9-3.4-3.7-8.5-9-10.9-8.6-1.4 0.2-1.1 2.6 0 5.7-1.9-1.7-3.8-2.6-5.2-2.3-2.1 0.5-0.3 5.6 2 9.6h-0.5c-3-2-6.6-4.5-8.4-3.8s-0.2 4.4 3.9 10.3c-3.6-1.9-8.9-4.6-10.4-3.1-1 1 0.4 3.6 3.7 6.9-3.6-1.2-7.4-2.2-8.4-0.8-1 1.5 2.1 4.9 7.1 8.6-4.6-1.2-10.6-2.7-11.4-0.7s3.3 5 7.8 7.7c-4.7 0.2-9.8-0.5-10.8 1.4-0.9 1.9 3 4.3 7.3 7.2-3.8 0-8.3 0.4-9.3 1.7-1.7 2.5 4.4 4.7 10.5 6.3-5.9 0.7-11.5 2-11.5 4.4 0 1.9 5.1 3.3 11.5 4.1-4.6 1.2-10.5 3.2-10.6 5.4 0 2 4.7 2.5 9.2 2.3-4.3 2.2-7.9 4.5-7.5 6.3 0.4 1.7 5.5 1.7 11 1-4 2.4-8.2 5.6-7.8 7.7 0.4 2 5.7 1.5 9.7 0.3-3.1 2.7-6.5 6.2-5.9 8 0.7 1.8 5.3 0.9 9.9-0.8-2.9 2.8-5.6 6.2-4.8 8 0.9 1.8 5.9 0.2 10.7-2.8v0.4c-2.8 3.6-5.5 8.4-4.5 9.7 1.1 1.7 5.6-0.3 10.7-4.3-2.5 4-4.6 9.2-3.2 10.7 1.4 1.3 5-1.5 8.1-4.9-1.5 4.4-2.4 9.4-0.5 9.9 1.6 0.5 4.4-2 7.4-5.5-1 4.1-1.8 8.8 0.2 9 2 0.3 4.8-3.2 7.8-7.7-0.4 5-0.4 11 1.7 11.3 1.9 0.2 4.3-3.8 6.8-9.1 0 4.8 0.7 10.5 2.7 10.6 2 0.2 3.8-4.1 4.4-7.8 1 4.2 2.1 8.7 4.1 8.7 1.8 0 3-4 3.8-8.7 1 4 2.7 7.7 4.5 7.7 2 0 3-5.2 2.8-10.7 2.4 5.2 5.2 9.5 7.2 9.3 2-0.3 2-5.8 1.3-11.6 2.7 4.5 5.7 8.3 7.7 8 1.7-0.4 1.2-5 0.1-9.2 2.9 3.2 6 6.2 7.6 5.7 2-0.5 1-5-0.7-9.9 3.1 3.2 6.5 5.7 8 4.9 1.7-1 0.2-5.5-2.7-10.7 4.4 3 8.8 5.5 10.2 4.6 1.7-1.1-0.8-5.6-4.3-10.4 3.9 2.1 9 4.5 10.8 3 1.3-1.2-1-4.5-4.9-8.4 4 1.4 8.9 3 10 1.4 0.9-1.5-1.6-4.5-6-8.5 3.9 1 8.6 1.8 9.5 0.3 1-1.8-3-5-7.5-8 4.6 0.3 10.4 0.7 11-1 0.6-1.8-2.9-4-7.5-6.3 3.9 0 8.9-0.2 9.1-2.2 0.3-2-4.6-4.3-10.1-5.7 5.4-0.6 11-1.8 11-4 0-2.1-4.9-3.6-11.3-4.5 4.7-1.1 10.7-3.1 10.4-5.7-0.2-1.9-4.7-2.4-9.2-2.4 3.6-1.7 8-4.2 7.6-6.5-0.4-1.7-4.4-2.1-10.8-1.5 3.7-2 7.9-5 7.4-8-0.5-2-5.6-1.2-11.1 0 3.5-2.7 7.6-6.5 6.9-8-0.8-1.7-4.3-0.7-8.5 0.5 2.5-2.5 4.7-5.5 3.6-6.7-1.1-1.3-4.9 0-10.4 3 3-4 5.3-8.5 3.9-10-1.1-1-4.1 0.2-8.6 3.2 2-3.6 3.5-8.2 1.7-9.2-1-0.5-3.1 0.5-5.1 2.3 1-2.6 1.6-5.1 0.4-5.7-1.8-0.6-5 1.9-11.4 8.4 1.9-6 2.9-13 0.6-13.7-2-0.3-5 3.7-8.5 9.4 0.5-6.2 0.5-13-1.7-13.1-1.5-0.1-3.5 2.9-5.7 7.1-0.1-4-1.1-8.2-2.8-8.2-1.8 0-3.3 3.5-4.7 7.5"/>
  <path class="cls-1" d="m75 4.4c-2.5 0-5.1 11.2-5.1 22.7s2.5 22.8 5.1 22.8 5-11.3 5-22.8-2.5-22.7-5-22.7zm-16.9 2.5c-2.5 0.5-2.2 14 0.4 24.2 2.5 10.3 7.5 20.3 9.4 20 2-0.5 2-11.5-0.4-21.7-2.5-10.3-6.9-22.8-9.4-22.5zm25.8 44.2c2 0.5 7-9.7 8.6-20 1.9-10.2 2.4-23.7-0.6-24.1-2.5-0.4-7.3 11.9-9.9 22.4-2.4 10.2-2.1 21.2-0.1 21.7zm-46.5-35.1c-2.5 0.9 2 11.4 9 21.1 7 9.8 15.2 17 16.7 16s-3.2-11-9.6-20.2c-6.4-9-13.6-17.5-16.1-16.9zm49.2 37.1c1.5 1 10-6.2 16.8-16 6.7-9.7 12.2-20.2 9.2-21.1-2.5-0.6-9.7 6.4-16.2 15.6-6.3 9-11.3 20.5-9.8 21.5zm-61.2-27.7c-2.3 1.7 4 10.7 12 18.7s18 14.3 19.2 13c1.3-1.2-5-9.7-12.7-17.5-7.8-7.7-16.3-15.7-18.5-14.2zm68 31.7c1.2 1.3 11.2-5 19.2-13s14.3-17 12-18.7c-2.2-1.5-10.7 4.2-18.5 11.7-7.7 7.8-14 18.8-12.7 20zm-79-18.7c-1.4 2.5 7.7 10.7 18 16.5 10.2 5.7 21 10 21.7 8.5 0.8-1.5-8-8.3-17.7-15-9.8-6.5-20.8-11.8-22-10zm81.5 23.2c0.7 1.5 11.5-2.2 21.7-8 10.3-5.7 19.4-12.7 18.3-15-1.3-2.5-11.5 0.8-21.3 6.5-9.7 5.8-19.5 15-18.7 16.5zm-89.3-5.7c-1 2.7 8.5 7.5 20 10.7 11.5 3.3 23.3 4.5 23.8 2.8 0.5-1.8-9.8-6.3-20.8-9.8s-22.2-6-23-3.7zm93 10.7c0.5 1.8 12.3 0.5 23.8-2.7 11.5-3.3 21-7.3 20-8-0.8-2.3-11.5-1.8-22.5 1.2s-21.8 7.8-21.3 9.5zm-94.7-1.5c0 2.5 9.5 5.5 21.2 5 11.8-0.5 23.3 2.5 24 0.8 0.8-1.8-10.5-4.8-22-5.8s-23.2-2.5-23.2 0zm95.2 5.8c0.8 1.7 12.3 0.2 23.8-2.5 11.5-2.8 20.5-7.3 19.5-12.5-0.3-2.3-11.5 1-23 3.7-11.5 2.8-21 9.5-20.3 11.3zm-96.1 4.2c0 2.5 11.1 4.8 22.6 4.8s23-2.3 23-3.8-11.5-1.7-23-1.7-22.6-1.8-22.6 0.7zm96.4-0.7c0 1.5 11.5 1.5 23 1.5s22.6-0.3 22.6-0.8c0-2.5-11.1-5-22.6-5s-23 2.8-23 4.3zm-50.3 4c-0.7 1.7-12.2 0.7-23.5 3.7-11.2 3-21.2 8.3-20 11.5 1 2 12.5 1.5 23.5-1.2 11-2.8 21-8.3 20.3-10zm50-0.8c-0.7 1.8 11 2.5 22.5 2.3 11.5-0.3 23.4-1.5 23.4-4.8 0-2.5-11.6-0.7-23.1-0.5-11.5 0-22 1.3-22.8 3zm-49.7 5.5c-0.5 1.8-11.3 6.3-22.3 9-11 2.8-21 9-18.2 10.8 2.2 1.2 13.5-0.3 23.5-5.3s20-10.7 19.5-12.5zm49.2-2.7c-0.5 1.7 10.3 6.2 21.3 9 11 2.7 22 6.2 22.5 3.7 0.7-2.5-8.5-7.5-19.3-10.7-10.7-3.3-24-3.8-24.5-2zm-45.5 6c-0.7 1.5-11.2 5.2-20.7 10.5-9.5 5.2-21.3 11.7-19.5 14 1.5 1.7 12.7-1.3 22.5-6.5 9.7-5.3 18.7-13.3 18-14.8zm41.8-0.8c-0.8 1.5 9.2 8 19 13.8 9.7 5.7 20.7 13.2 21.6 10.5 0.9-2.3-7.9-9.8-17.4-15.5-9.5-5.8-22.5-10.3-23.2-8.8zm-39.3 3.5c-1.2 1.3-10.5 7-18.5 14.5s-15 18-13.2 21.3c1.2 1.5 11.5-3.5 19.5-11s13.7-17 12.5-18.3zm36.8 0.5c-1.3 1.3 7 9.8 15 17.8s15.5 19 16.6 17.5c2.1-1.8-3.6-10.8-11.6-18.8s-18.8-17.7-20-16.5zm-33.5 3.5c-1.5 1-7.8 7-14 16.3-6.3 9.2-8.5 26.7-5.9 26.7 2.6 0.3 9.9-7.2 15.9-16.5 6-9.2 9.2-20.2 7.7-21.2zm30.2 0-1 0.8c-1.5 1 2.8 11 9 20.2 6.3 9.3 11.3 23 12.5 22 2.8-0.5-0.5-11.5-6.5-21s-12.5-18.2-14-22zm-22.2 3.5c-2-0.5-7.3 8.8-10.3 19-3 10.3-3.7 26.8-0.5 27.6 2.5 0.4 7.5-9.1 10.4-19.3 2.9-10.3 4.9-24.5 2.4-25zm16 0-1.8 0.8c-2 0.5-0.5 13.7 2.3 24 3 10.2 7 22.5 9.2 21.5 2.5-1 1.5-12.8-1.2-23-2.8-10.3-6.5-19.3-8.5-23.3zm-8.9 1.5c-2.6 0-5 11.5-5 23s2.5 24.5 5 24.5 4.9-10 4.9-24.5c0-11.5-2.3-23-4.9-23z"/>
  <path class="cls-0" d="m58.9 18c1 11.1 4 21.6 8.2 31.6-2.2-10-3.5-20.2-4.7-32.2 3.5 10 5.5 21.2 5.7 33.2h-0.7c-3.8-9.7-7.8-20.5-8.5-32.6zm10.2 81.4c-0.2 10.5-2.5 21-7.5 33.5 3-11.8 6-22.5 6.8-32.8-4.3 8.5-8.3 18.5-10.5 31.8 1.2-11 5.2-22.5 10-32.5h1.2zm11.8-0.5c0.7 11.2 3.7 21.7 7.7 34-3.2-13.3-6-23.5-7.2-33.8h0.5c4 8.5 8 18.5 10.5 32.5-1.5-11.7-5-22.5-10.5-33l-1 0.3zm-35.8-74.3c6.5 7.8 12 17.5 17.5 28l0.8-0.5c-4.5-9.5-9.8-19.7-18.3-27.5zm43-7.2c-3.7 10-6 21.2-6.5 32.7h0.5c3-9.5 7.5-19.7 9-32.1-0.5 10.4-3.5 21.6-8.2 32.6l-1.3-0.5c0.5-10.5 2-21.2 6-32.7zm-53.5 14.7c8.5 6 16.3 15 23.3 24.5l0.2-0.2c-6.2-9.3-13.5-18.8-23.5-24.3zm70.3-7.5c-6.5 7.8-12.5 17.3-17.5 28l0.7 0.5c4.3-9.5 9.8-19.2 16.8-28.5zm-73 10c5.7 8 13.7 15.3 24.7 23l0.3-0.5c-8.8-7.2-16.8-14.5-25-22.5zm83.5-2.2c-8.5 6-16 14.7-22.8 24.5l0.3 0.2c7.2-8.7 14.2-16.7 22.5-24.7zm-90.4 12 28.1 18.2 0.8-1c-8.3-6-18-12.2-28.9-17.2zm100.1 0-28 17.2-0.5-1c8.3-5 17.8-11.2 28.5-16.2zm-107.5 13c10 2 20.5 5 32.3 10l0.2-0.3c-9-4.7-19.7-8.7-32.5-9.7zm114.8 0c-10 1-20.8 4.7-32.3 9.7l0.3 0.5c10.2-4.2 20.7-8.2 32-10.2zm-115.3 3.7c9 4 19.8 7 32.8 8l0.2-0.5c-10-1.2-20.5-3-33-7.5zm116.3 0c-9 2.8-19.8 6.3-33.3 7.5v0.3c10.5-0.8 21-2.8 33.3-7.8zm-117.4 14c10.6 0.8 21.6 0.8 33.6 0.5v-1c-10.5 0-21.5 0-33.6 0.5zm118.4 0c-10.5-0.5-21.5-0.5-34-0.5v1c10.5 0 21.5 0 34-0.5zm-117.5 13.3c10-2.8 20.5-5.8 33-7l0.2-0.5c-10.5 0.7-21 2.7-33.2 7.5zm116.2 0c-9-3.8-19.5-6.5-32.7-7.5l-0.3 0.5c10.5 1 21 3 33 7zm-115.2 3.5c10-1 20.5-4.3 32.2-10v-0.3c-10 4-20.5 7.8-32.2 10.3zm114.2 0c-10-2-20.5-5.3-32-10.3l-0.2 0.5c9.7 4.3 20.2 7.8 32.2 9.8zm-108.1 12.2 28.6-15.7-0.5-1c-8.5 4.7-17.7 10.2-28.1 16.7zm102.1 0-28.7-16.7-0.5 1c8.5 5 17.7 10.2 29.2 15.7zm-95 11.8c6.5-6.5 14.3-14.3 25.3-23.5l-0.3-0.3c-8.7 6.3-17.5 13.5-25 23.8zm87.3 0c-6-8-14-15.3-24.5-23.8l-0.3 0.3c8.8 7 16.5 14.2 24.8 23.5zm-84.3 2.2c8.3-6 16-13.5 23-24.7l-0.2-0.3c-6.3 8.5-13.5 16.3-22.8 25zm81.8 0c-8-6.5-15.5-14.5-22.8-25.2l-0.5 0.5c6.3 8.7 13.5 17 23.3 24.7zm-72.5 7c4.5-8.2 10.5-17 18.2-28.5l-0.2-0.2c-6.3 7.7-13 16.2-18 28.7zm62.7 0c-4-9-9.5-18-17.7-28.7l-0.3 0.2c6.3 8 12.5 16.5 18 28.5zm-59.5 2c6.5-7.5 12.3-17.2 16.8-29.7l-0.8-0.3c-3.5 9.5-8 19.5-16 30zm56.8 0c-6-8-11.5-17.7-17-30.2l-0.8 0.5c4.3 9.5 9.5 19.2 17.8 29.7zm-28.4 7.3c0.6-10.5 0-21.5 0-34h-0.1c0 10.5-0.3 21.5 0.1 34zm0-117.8c-0.4 10.5-0.4 21.5-0.1 34h0.2c0.3-10.5 0.3-21.5-0.1-34z"/>
  <circle class="cls-2" cx="75" cy="75.1" r="25.5"/>
  <circle class="cls-3" cx="75" cy="75.6" r="20.4"/>
</svg>