<svg xmlns="http://www.w3.org/2000/svg" viewBox="0 0 150.9 151">
<!-- SVG created with Arrow, by QuiverAI (https://quiver.ai) -->
  <style type="text/css">.cls-0 {fill:#FFFFFF;stroke:#C8C8C8;stroke-width:0.25;stroke-miterlimit:10;}
.cls-1 {fill:#DD440A;}
.cls-2 {fill:#2B271D;}</style>
  <path class="cls-1" d="m62.5 60.9c-3.7-4.7-10.4-14.6-13.4-22.4-3.8-10.3-2.4-9.7-0.3-11.3s1.1-3.8 1.5-5.6c0.6-2.3 3.4-2.1 5.1-2.4 3.8-0.6 3.7-1.3 4.5-4.2 1.5-5.3 4.5-2.2 8.1-2.2 4.6 0 4.7-4.8 7.6-4.5 2 0.1 3.8 1.9 5.9 2 3.4 0.2 6.8-2.3 8.1 2.1 0.6 2.1 0.8 4.6 3.4 5.1s6.2 0.1 5.9 3.7c-0.3 2.9-1.2 3.4 1.7 5.1 3.8 2 1.9 4.1 0.8 6.5-0.5 1.4 1.1 3-0.9 5.8-2 2.7-8.4 10.5-13.8 21.3 4-5.5 12.4-15.4 18.1-20.4 1.8-1.4 5.7-4.2 7.4-4.4 2.3-0.4 3 2.3 5.3 2.1 1.4-0.1 4.1-2.1 5.5 0.5s1.8 5.7 4.2 5.9c3 0.2 6.4-1.2 6.7 3.4 0.2 3.7 0.9 5.5 4 7.1 4.9 2.1 2.6 4.2 2.6 7.8 0 3.2 3.6 6.7 1.2 9.2-2.6 2.4-5 2.3-4.6 5.5 0.4 3.1 1.6 6.6-2.5 6.8-3.2 0.2-3 0-3.5 2.6-1 4.5-4 2.1-6.5 2.6-1 0.3-1.6 1.4-4.6 1-1.4-0.5-10.7-3.9-25-6.6 6.4 2.2 16.9 6.1 22.4 9 2.2 1.2 7 4.1 8.6 5.7 2.6 2.7 0 3.7 0.5 6.7 0.5 1.7 3.4 3.5 1.9 6.2-1.4 2.3-5 4.3-4.9 6.8 0.1 2.2 2.6 5.3 0 7.1-2.9 2-6.1 2-6.4 6.9-0.1 3-0.2 4.7-3.6 5.3-3.9 0.8-3.9 0.9-6.3 3.2-3.1 3-4.3 2-7.7-0.9-2.9-2.6-3.8-0.6-7.1 0.5-3 1-3.8-0.1-4.5-2.5-0.8-2.6-0.8-2.5-3.8-2.5-4 0.1-3.6-2.4-4-5-0.2-1.6-2.6-1.6-2.6-5.9 0.1-4.5 0-15.7-1.5-27 0.4 6.4-0.9 21.9-2.6 27.9-1.9 5.9-3.5 10.4-4.9 10.7-2.1 0.4-3.4-0.8-5.1 1.3-1.8 2.1-2.4 4-6.5 1.4-4.2-2.5-4.8-2.4-7-0.5-2.3 1.6-3.4 2.7-6 0.1-2.5-2.5-3.8-4.1-7.2-3.5-3.3 0.6-4.8 1.5-6.8-2.6-1.9-3.7-3.2-3.5-5.9-5.5-2.6-2-0.5-4.5 0.4-7.5 1.1-3.8-6.9-5.8-2.8-9.8 2.8-2.5 3.6-2 2.5-5-1.2-3.1-0.5-4.5 2.8-5.7 2.5-1.2 0.7-2.8 4.7-4.7 3.9-1.1 13.3-3.6 25.1-8.8-6.6 1.7-18.3 4.6-25.2 5.3-2.9 0.3-6.4 0.3-8.5 0.2-3.9-0.2-3-1.5-4.5-4.2-1.5-2-6.1-0.3-5.7-5.2 0.8-4.6 0.8-6-0.9-7.1-2.8-1.9-4.3-2.5-3.5-5 1-2.4 3-4 2.2-7.3-0.6-2.2-2.2-3.4-1.9-5.7 0.7-2.9 3.9-3 4.5-7.5 0.7-4.5 1.4-5.5 5.9-5.2 3.8 0.3 3.5 0 5.4-4 1.6-3.7 3.9-2.3 6-1 2.9 1.8 3.1-1.6 6-2.1 2.1-0.1 3.4 2.8 5.1 2.9 1.8 0.2 3-0.1 4.8 2.5 1.7 2.6 7.7 11.1 16.1 19.9z"/>
  <path class="cls-2" d="m75.5 56.5c10.1 0 20 7.9 20.1 20.1 0 10.3-8.2 19.8-20 19.8-11.1 0-20.2-8.3-20.2-19.7 0-9.6 8.1-20.2 20.1-20.2z"/>
</svg>