<svg xmlns="http://www.w3.org/2000/svg" viewBox="0 0 100 100">
<!-- SVG created with Arrow, by QuiverAI (https://quiver.ai) -->
  <style type="text/css">.cls-0 {fill:#EDDAB4;}
.cls-1 {fill:#E5C998;}
.cls-2 {fill:#DCBD87;}
.cls-3 {fill:#DBB980;}
.cls-4 {fill:#A66500;}
.cls-5 {fill:#995F04;}</style>
  <path class="cls-0" d="m94.6 50.2s1.9-8.2 1.2-9.6l-3.3-3.9 0.6-4.4-2.6-1.4c-0.8-1.8-1.6-6.7-2.7-7.6-0.5-0.3-3.6-1.2-3.7-1.2-0.6-1.6-0.8-3.7-1.8-4.5-0.9-0.8-4-1.4-4-1.5-0.2-0.6-1.2-3.3-1.5-3.5-1.8-1.1-4.8-1.3-8.4-2.3l-1.2-2.8-4 0.7-3.5-3.5c-1.2-1.2-5.3 0-9.7 1-3.4-0.7-8-1.9-9.5-1.2l-3.6 3.6-4.1-0.6-1.2 2.8c-3 1-6.6 0.8-8.4 2.3-0.4 0.5-1.4 3.5-1.6 3.5-4.4 1.2-4.5 1.2-5.3 4.1l-0.4 1.8s-3.2 0.9-3.5 1.2c-1.3 1.5-1.9 5.9-2.8 7.6l-2.7 1.4 0.6 4.5-3.3 3.8c-0.7 1.4 1.1 9.4 1.1 9.6 0 0-1.9 7.8-1.1 9.3l3.3 3.5-0.5 4.2 2.6 1.4c0.8 1.8 1.6 7.8 2.9 8.6l3.4 1 1 3.2c0.5 1.3 1.7 2 3.4 2l3.6-0.3 0.6 2.8c0.4 0.8 1.4 0.6 2.1 1.4l4.7 5.4 5.5-0.9 3.8 3.8c1.1 0.9 5.2-0.2 9.4-1.3 3.3 0.8 7.9 1.9 9.4 1.3l3.8-3.8 5.4 0.9c0.5 0.2 4.3-5 5.3-5.6 0.7-0.8 1.7-0.6 1.9-1.3l0.5-2.7 3.5 0.3c1.6 0 2.8-0.7 3.3-1.9l1-3.3 3.5-1c1.3-0.8 2.1-6.8 2.9-8.4l2.6-1.5-0.6-4.3 3.3-3.4c0.8-1.4-1.2-9-1.2-9.3z"/>
  <path class="cls-1" d="m87.8 23.3-11 6.7-14.7 12.4 0.3 0.5 9.4-7.3s5.4-4.7 6.3-5.6l9.7-6.7z"/>
  <path class="cls-2" d="m81.6 43-17.5 3.5v1l19.4-4.7 12.3-2.3-2.2-2.5-12 4.8z"/>
  <path class="cls-3" d="m83.5 34.2-20.2 9.8 0.4 1.3 16.9-9.1 10.5-4.9-0.7-0.5z"/>
  <path class="cls-3" d="m84.1 22s-5.5 4.5-6.4 5.6c-2.1 2.7-5.3 6-6.6 7.2-1.4 1.3-9 7.2-9 7.2l0.4 0.5s9-7 14.3-12.5l11-6.7c-0.5-0.3-3.6-1.1-3.7-1.3z"/>
  <path class="cls-3" d="m76.9 12.6-6.9 10.4-8.6 9.4-4 5.4 0.7 0.2s7.5-10.2 13-15.4c2.8-2.3 7.2-5.9 7.2-6.5-0.2-0.6-1.2-3.5-1.4-3.5z"/>
  <polygon class="cls-3" points="68.4 10.3 64.1 20.3 70.3 10.8"/>
  <path class="cls-3" d="m59.6 4.6-1.7 10.1-5.5 21h1.1l3.1-14.8 5.7-13.6z"/>
  <path class="cls-3" d="m40.5 4.5-2.7 2.7 5.6 13.7 3 15.2 1.1-0.4-5.1-20.2z"/>
  <path class="cls-3" d="m31.6 10.3-1.6 0.5 6.1 9.5-4.5-10z"/>
  <path class="cls-3" d="m23.2 12.6c-0.4 0.5-1.6 3.5-1.6 3.7 0.5 0.8 4.9 4.3 7.8 6.3l8.4 9.6 4.6 6.1 0.6-0.7c-2.6-4.1-12.6-14.3-13-14.6l-6.8-10.4z"/>
  <path class="cls-3" d="m16 22-3.6 1.2 11 6.8 14.2 12.4 0.4-0.4s-7.9-6.1-9.4-7.6c-1.2-1.1-4.7-4.9-6.2-6.9-1-1-6.4-5.5-6.4-5.5z"/>
  <path class="cls-2" d="m9 31.1 9.6 3.8 18.3 9.1-0.4 2.5-17.5-3.5-12.6-5 1.1-1.3-0.6-4.5z"/>
  <path class="cls-3" d="m9.6 30.9-0.6 0.2 9.6 3.5 17.9 8.3 0.4-0.5-19.3-8.2z"/>
  <path class="cls-3" d="m12.1 50.1 23.5 0.6v-1.3z"/>
  <path class="cls-3" d="m18.9 57 17.1-3.3-0.2-1.1-18.4 4.6-13.2 2.3 2.2 2.3z"/>
  <path class="cls-3" d="m15.9 65.6 2.7-1 17.9-8.4-0.2-1.2-17.3 8.7-10.1 4.4 0.7 0.6z"/>
  <path class="cls-3" d="m12.4 77 11-7 14.5-12.1-0.3-0.5-9.7 8.2s-4 4-5.5 6.6c-1.8 1.8-6.5 5.7-6.5 5.9l-3.5-1.1z"/>
  <path class="cls-3" d="m24.5 85.7 5-7 9.1-10.2s3.8-4.6 4.3-6.3l-0.8-0.5-11.7 15.5-6.5 5.7 0.6 3.2z"/>
  <path class="cls-3" d="m31.3 92.6 4.3-10.7 9.5-18.6-0.7-0.4s-2.5 8.5-6.3 14.1l-9.2 13 2.4 2.6z"/>
  <path class="cls-3" d="m42 87.9 5.4-24.2h-0.9z"/>
  <path class="cls-3" d="m58.1 87.9-5-24.6h-1z"/>
  <path class="cls-3" d="m68.6 92.6-4-10.7-10-18.8 1-0.2s2.5 8.5 6.3 14.1l9 13.4-2.3 2.2z"/>
  <path class="cls-3" d="m75.7 86.1-5.2-7.6-9.1-10.7s-3.6-4.7-4.3-6.3l0.7-0.4 11.8 15.9 6.7 7.6-0.6 1.5z"/>
  <path class="cls-3" d="m87.6 77-11-7-14.2-12.2-0.4 0.5 8.5 6.7s3.6 3.1 7.1 7.5c1.8 1.9 6.5 5.6 6.5 5.9l3.5-1.4z"/>
  <path class="cls-1" d="m90.5 68.5-9.1-3.9-17.7-9.7-0.4 1.2 18.1 8.1 9.1 4.5z"/>
  <path class="cls-2" d="m93.6 61.8-12-4.6-17.5-3.7v0.2-0.2 0.2-0.2h-0.2 0.2v-0.4l17.5 4.1 14.2 2.3z"/>
  <path class="cls-3" d="m88.1 50.1-23.5 0.6v-1.3z"/>
  <path class="cls-3" d="m49.2 35.5h1.6l-0.8-23.1z"/>
  <path class="cls-3" d="m44.1 36.5 1-0.4-5.2-10.2-3.8-5.6z"/>
  <path class="cls-3" d="m55.1 36.2 1 0.3 3.3-9.1 4.7-7.1z"/>
  <path class="cls-3" d="m49.2 64 0.8 24.2 0.6-24.3z"/>
  <path class="cls-4" d="m50 35.2c-7.6 0-14.5 6.4-14.5 14.7 0 8 6 14.4 14.4 14.4 8.2 0.1 14.6-6.3 14.6-14.4 0-7.5-6.4-14.7-14.5-14.7z"/>
  <path class="cls-5" d="m50 39c-5.6 0-10.9 4.6-10.9 10.9 0 5.8 4.5 11 10.8 11 6.2 0.1 11-4.8 11-10.8 0.1-5.5-4.5-11.1-10.9-11.1z"/>
  <path class="cls-4" d="m51.4 41.3v0.7c3 0.6 5.6 3 6.5 6.5h0.7c0-3.4-3.2-7-7.2-7.2zm-3.1 0.1c-3.7 0.2-6.9 3.6-6.9 7.1l0.7 0.1c0.8-3.2 3.5-5.7 6.2-6.4v-0.8zm1.7 2.8c-2.9 0-5.8 2.5-5.8 5.7s2.4 6 5.7 6c3.2 0 5.7-2.4 5.7-5.8 0.1-3-2.5-5.9-5.6-5.9zm0 0.9c2.6 0 4.7 1.9 4.7 4.8 0 2.7-2.1 5.1-4.7 5.1-2.5 0-4.9-2-4.9-4.9-0.1-2.6 2-5 4.9-5zm-7.8 6.4-0.8 0.1c0.2 3.4 3 7 7 7.1l0.1-0.8c-2.9-0.5-5.6-3.3-6.3-6.4zm15.7-0.1c-0.5 3-3.3 6-6.5 6.5l0.1 0.8c3.9-0.1 7-3.3 7.1-7.2l-0.7-0.1z"/>
</svg>