<svg xmlns="http://www.w3.org/2000/svg" viewBox="0 0 150 149.8">
<!-- SVG created with Arrow, by QuiverAI (https://quiver.ai) -->
  <style type="text/css">.cls-0 {fill:#E7DBCA;}
.cls-1 {fill:#F8F1DF;}
.cls-2 {fill:#F3E6D3;}
.cls-3 {fill:#FCF7EB;}
.cls-4 {fill:#FBF5EA;}
.cls-5 {fill:#FAF2E3;}
.cls-6 {fill:#E6B515;}
.cls-7 {fill:#CE940C;}
.cls-8 {fill:#FFF9EE;}</style>
  <path class="cls-0" d="m67.5 17c-2.9-4.1-6.6-7.7-10.7-10.3-2.3 4.7-3.6 9.9-3.8 15.1l14.5 18.2v-23z"/>
  <path class="cls-0" d="m39.5 28.9c-4.4-2.3-9.4-3.7-14.7-3.9h-0.1s0.1 7.7 3.9 14.5l19 10.5-8.1-21.1z"/>
  <path class="cls-0" d="m17 67.6c-3.8-2.6-7.4-6.3-10.3-11 4.7-2.2 9.5-3.8 14.5-4.1l18.6 7.5-22.8 7.6z"/>
  <path class="cls-0" d="m21.2 96.8c-4.7-0.2-9.5-1.4-14.2-3.9 2.8-4.3 6.4-7.9 10.5-10.6l17.7-1.3-14 15.8z"/>
  <path class="cls-0" d="m24.7 125c0.2-5.4 1.6-10.4 3.9-14.4l12.8-5.6-1.8 16c-4.2 2.1-9.2 3.7-14.9 4z"/>
  <path class="cls-0" d="m56.9 142.9c-2.3-4.4-3.5-9.2-3.9-14.2l14.5-13.7v14.5c-2.5 5.1-6.6 10.1-10.6 12.9z"/>
  <path class="cls-0" d="m93.3 142.9c-4.2-2.5-7.9-6.1-11-10.4l0.2-17.5 14.6 13.1c-0.2 5.3-1.5 10.4-3.8 14.8z"/>
  <path class="cls-0" d="m125.3 125c-5.2-0.2-10.2-1.5-14.8-3.8l-2.3-16.2 12.8 5.5c2.5 4.1 4 9.1 4.3 14.5z"/>
  <path class="cls-0" d="m128.8 96.8-13.8-10.9 18-3.6c3.9 2.7 7.4 6.1 10.3 10.6-4.5 2.3-9.5 3.7-14.5 3.9z"/>
  <path class="cls-0" d="m133 67.1-18-7.1 14-7.6c4.6 0.2 9.4 1.5 14.3 4.2-2.9 4.3-6.2 8-10.3 11z"/>
  <path class="cls-0" d="m121.2 39.4-15.8 3.6 5.1-14.1c4.3-2.2 9.3-3.8 14.9-4.1-0.3 5.2-1.6 10.4-3.9 14.6h-0.3z"/>
  <path class="cls-0" d="m82.3 17.5c2.7-4.1 6.3-7.9 11-10.6 2.3 4.5 3.6 9.5 3.8 14.3l-12.1 15.3-2.7-19z"/>
  <path class="cls-1" d="m75.1 4.2c-5.2 5.8-9.1 13.4-9.4 22.7-0.3 9.2 3.4 17.2 9.4 23.1 6-6.4 9.3-13.9 9-22s-3.7-18.6-9-23.8z"/>
  <path class="cls-1" d="m39.5 13.5c-1.6 7.6-0.7 17 4 25.1 4.5 8 11.9 13 20 15 1.9-8.5 0.9-16.7-3.5-23.5-4.4-6.9-12-13.9-20.5-16.6z"/>
  <path class="cls-1" d="m13.3 39.3c2.2 7.3 7.7 14.7 15.7 19.7 7.9 5 16.6 6 24.5 4.1-2.4-8.1-7-15-13.9-19.3-6.8-4.3-16.6-6.7-26.3-4.5z"/>
  <path class="cls-1" d="m4.2 75.1c5.7 5 13.4 9 22.7 9.3 9.2 0.4 17.2-3.4 23.1-9.3-6.4-6-13.9-9.5-22-9.5s-18.6 4-23.8 9.5z"/>
  <path class="cls-1" d="m13.3 110.5c7.6 1.9 17.1 1.1 25.2-3 8-4.1 13.1-11 15-18.9-8.5-2-16.6-1.1-23.5 3-6.9 4-14.4 11.5-16.7 18.9z"/>
  <path class="cls-1" d="m39.5 136.4c7.1-2.3 14.5-7.4 19.5-14 5-6.8 6.5-15.5 4.5-23.9-8.1 2-15 7-20 14.6-4 7.3-5.6 16.3-4 23.3z"/>
  <path class="cls-1" d="m75.1 145.5c5-5.1 9-13.1 9-22.6 0.3-9.3-3.5-17-9-22.9-6 6.4-9.5 13.9-9.4 22.4 0.3 8.5 3.9 17.2 9.4 23.1z"/>
  <path class="cls-1" d="m110.4 136.2c1.7-7.2 1-16.7-3-23.8-4-7.3-10.9-12-18.8-13.9-2 8.1-1 16.5 3 22.5s10.8 12.9 18.8 15.2z"/>
  <path class="cls-1" d="m136.6 110.5c-2.2-7.1-7.6-14.1-14.5-19-7-4.9-15.2-5.9-23.6-3 2.1 8.1 7.1 15 14.6 18.5 7.5 3.6 16.5 5.4 23.5 3.5z"/>
  <path class="cls-1" d="m145.8 75.1c-5.2-4.7-13.2-9.2-22.7-9.5-9.5-0.2-17.2 3.5-23.1 9.5 6.4 5.9 13.9 9.3 22.4 9.1 8.5-0.3 17.5-3.8 23.4-9.1z"/>
  <path class="cls-1" d="m136.7 39.4c-7.3-1.8-16.1-1.3-23.6 2.6s-12.5 10.6-14.6 18.9c8.4 2.2 16.6 1 23.6-3.5 6.9-4.4 12.5-11.3 14.6-18z"/>
  <path class="cls-1" d="m110.5 13.5c-7.4 2.5-14.9 7.9-19.6 15.1-4.8 7.3-5.4 15.9-2.4 25 8-2.1 15.1-7.1 19-14.1s5.1-16.5 3-26z"/>
  <path class="cls-2" d="m62.5 27.8c-2.4 5.1-4 13.1-1 19.7 2.9 6.6 8 10 13.5 11.9 2.5-5.9 3-12.5 0.4-18.3-2.6-5.7-7-10.6-12.9-13.3z"/>
  <path class="cls-2" d="m40.1 40c0.4 6.1 2.9 13.5 8.4 18.5s11.9 6.1 17.6 5.5c-0.6-6.4-3.2-12.4-8-16.5-4.7-4.1-10.7-7.1-18-7.5z"/>
  <path class="cls-2" d="m27.4 62.5c2.7 4.4 9.2 9.6 16.1 11.4 6.9 1.7 12.9 0 17.6-3-3.1-5.3-8.1-9.4-14.1-10.5-6-1.3-12.9-0.8-19.6 2.1z"/>
  <path class="cls-2" d="m27.4 87.4c5.1 2.5 13.1 4 19.7 1.5s10.4-7.5 12-12.9c-6-2.1-12.5-2.1-18 0.1-5.5 2.3-10.6 6-13.7 11.3z"/>
  <path class="cls-2" d="m40.2 109.6c6.2-0.2 13.7-2.7 18.4-7.7 4.8-5 6-11.4 5.4-17.3-6.4 0.5-12.1 3.3-16.1 7.8s-7.3 10.1-7.7 17.2z"/>
  <path class="cls-2" d="m62.6 122.4c4.8-3 10-8.8 11.4-15.5 1.4-6.8-0.4-12.8-3.5-17.3-5 3.5-8.9 8.4-10.1 14.4-1.3 6-0.4 12.5 2.2 18.4z"/>
  <path class="cls-2" d="m87.5 122.4c2.6-4.9 4.1-12.8 1.6-19.4s-7.2-10.4-12.7-12.4c-2.3 6-2.5 12.5-0.3 18 2.3 5.5 6.3 10.4 11.4 13.8z"/>
  <path class="cls-2" d="m109.5 109.6h0.4-0.4zm0 0zm0 0zm0 0zm0 0c-6.4-0.5-13.4-3-18-7.7-4.6-4.8-6-11.4-5.5-17.3 6.4 0.5 12.1 3.4 16.1 7.9s7 10 7.4 17.1z"/>
  <path class="cls-2" d="m122.5 87.4c-2.9-4.4-8.9-9.8-15.6-11.4-6.8-1.6-12.8 0-17.3 3 3.3 5.1 8.3 9.1 14.3 10.4 6 1.2 12.7 0.6 18.6-2z"/>
  <path class="cls-2" d="m122.5 62.6c-4.9-2.5-12.6-4.2-19.4-2-6.7 2.3-10.7 6.9-12.7 12.3 6 2.2 12.6 2.5 18.2 0.2 5.5-2.2 10.8-5.7 13.9-10.5z"/>
  <path class="cls-2" d="m109.6 40.1c-6.1 0.4-13.5 3-18.2 8.3-4.8 5.2-6 11.5-5.4 17.5 6.4-0.4 12.1-3.3 16.1-7.8s7.3-10.7 7.5-18z"/>
  <path class="cls-2" d="m87.5 27.8c-4.9 2.8-10 8.6-11.5 15.3-1.5 6.8 0.5 12.8 3.6 17.3 5-3.4 8.8-8.3 10-14.3 1.3-6 0.5-12.5-2.1-18.3z"/>
  <path class="cls-3" d="m75 26.4c-4.4 5.2-7.5 12-7.4 18 0.3 6 2.8 12 7.4 15 4.1-3.5 7.1-9 6.9-15.5-0.3-6.4-3.3-13-6.9-17.5z"/>
  <path class="cls-4" d="m50.8 33c-1.2 6.5 0 14.6 3.3 20 3.4 5.4 8.9 8.6 14 9.4 1.5-5.3 1.5-11.3-1.7-16.9-3.3-5.5-9-10.5-15.6-12.5z"/>
  <path class="cls-3" d="m32.8 50.2c1.8 6.2 6.7 12.8 12.3 15.9 5.7 3.3 12 3.5 17 1.8-1.5-5.3-4.7-10.4-10-13.9-5.2-3.4-12.6-5.1-19.3-3.8z"/>
  <path class="cls-3" d="m26.2 75.1c5.2 4.3 11.9 7.3 17.9 7.3s12-2.3 15.3-6.4c-3.8-4-9.3-8.5-15.8-8.4-6.5 0.3-13 3.5-17.4 7.5z"/>
  <path class="cls-3" d="m32.8 98.6c6.3 1.4 14.6 0.8 20.1-2.2s8.7-8.3 9.5-13.5c-5.3-1.5-11.3-2.3-16.8 1.1s-10.6 8.6-12.8 14.6z"/>
  <path class="cls-3" d="m50.9 117.1zm0 0zm0 0zm0 0zm0 0c6.2-2 12.7-6.5 15.6-11.7 3-5.3 3.5-11.4 1.6-16.4-5.2 1.1-10.6 4.1-13.7 9.4-3 5.2-4.8 12.1-3.5 18.7z"/>
  <path class="cls-3" d="m75 123.5c4.1-4.6 7.1-11.5 7.1-17.6 0-6-2.7-11.5-7.1-14.8-3.9 3.4-7.4 8.5-7.1 15 0.2 6.5 3.2 13 7.1 17.4z"/>
  <path class="cls-3" d="m99.1 117.1c1.5-6.2 0.5-14.5-3-19.7-3.5-5.3-8.7-8.8-14-9.5-1.1 5.2-1.5 11.2 1.9 16.6 3.4 5.5 8.9 10.1 15.1 12.6z"/>
  <path class="cls-3" d="m117.1 98.6c-2-6-6.7-12.2-12.1-15-5.4-3-11.4-3.5-16.4-1.7 1.4 5.2 4.5 10.5 9.8 13.7 5.2 3.3 12.1 4.3 18.7 3z"/>
  <path class="cls-3" d="m123.6 75.1c-4.5-4-11.1-7.5-17.2-7.5-6 0-11.8 2.3-15 6.4 3.7 3.9 8.7 8.4 15.2 8.1 6.5-0.1 12.8-3.1 17-7z"/>
  <path class="cls-3" d="m117.1 50.2c-6.2-1.2-14.1-0.6-19.5 2.7-5.5 3.2-8.7 8.2-9.7 13.5 5.2 1.5 11.2 1.7 16.7-1.4s10.5-8.6 12.5-14.8z"/>
  <path class="cls-3" d="m99.1 33c-6 2-12.2 6.4-15.2 11.6-3 5.3-3.8 11.3-2 16.3 5.2-1.3 10.6-4.3 13.7-9.5 3.3-5.3 4.8-12 3.5-18.4z"/>
  <path class="cls-6" d="m75.1 54.1c-10.7 0-20.5 9-20.5 21 0 10 7.9 20 20.5 20 11.8 0 20.4-9 20.4-20 0-10.6-8.6-21-20.4-21z"/>
  <path class="cls-7" d="m71.4 58.6 1.1 1.9c1.1 2 3.6 2.4 4.6 0.4l1-2.3-0.7-1h-4.8l-1.2 1z"/>
  <path class="cls-7" d="m63.9 62.6 2.2 1.3c1.8 1.1 4-0.3 3.9-2v-2.8l-1.1-0.2c-1.3 0-4.8 2.2-4.8 2.6l-0.2 1.1z"/>
  <path class="cls-7" d="m59.4 69.9h2.5c2 0 3.2-2.3 2.1-4l-1.1-2-1.3 0.5c-0.5 0.5-2.6 3.7-2.6 4.2l0.4 1.3z"/>
  <path class="cls-7" d="m58.6 78.5 2.4-1.1c1.9-0.9 2-3.5 0-4.5l-2.1-1.3-1 0.9s-0.3 4.9 0.1 5.1l0.6 0.9z"/>
  <path class="cls-7" d="m62.9 86.1 1.1-2c1.1-1.6-0.1-4.1-2.1-4h-2.5l-0.4 1.3c0 0.5 2.1 4.2 2.6 4.5l1.3 0.2z"/>
  <path class="cls-7" d="m69.6 90.6 0.3-2.2c0.1-2-2-3.5-3.8-2.4l-2.1 1.1 0.4 1.3c0.5 0.5 3.7 2.6 4.2 2.6l1-0.4z"/>
  <path class="cls-7" d="m78.1 91-1-2c-0.7-1.6-3.5-1.9-4.2-0.4l-1.4 2.4 0.9 0.9c0.5 0.2 4.5 0.2 4.7 0.1l1-1z"/>
  <path class="cls-7" d="m85.9 88.4 0.1-1.3-2-1.1c-1.6-1-4 0.1-4 2.1v2.5l1.1 0.3c0.8 0 4.4-2.3 4.8-2.5z"/>
  <path class="cls-7" d="m91 81.4-0.1-1.4h-2.5c-2 0-3.5 2.1-2.4 3.9l1.1 2.1 1.3-0.4c0.6-0.5 2.7-4 2.6-4.2z"/>
  <path class="cls-7" d="m92.1 77.4v-4.5l-0.7-1.4-2.4 1.4c-1.6 0.7-1.9 3.5-0.1 4.2l2.2 1.3 1-1z"/>
  <path class="cls-7" d="m90.9 69.9 0.1-1.3c0-0.6-2.4-4.2-2.6-4.2l-1-0.5-1.4 2c-1 1.7 0.1 4.1 2.1 4.1l2.8-0.1z"/>
  <path class="cls-7" d="m85.9 61.5c0-0.5-3.8-2.9-4.9-2.6l-1.1 0.2v2.4c0 2 2.2 3.5 3.7 2.6l2.4-1.5-0.1-1.1z"/>
  <path class="cls-7" d="m71.4 65.4 1.1 2.2c0.9 1.8 3.4 2.3 4.4 0.8l1.5-3-1-1h-5l-1 1z"/>
  <path class="cls-7" d="m65 73.4 3 0.1c1.9 0.1 3.1-2 2.1-3.9l-1.6-2.7-1.5 0.5-2.5 4.6 0.5 1.4z"/>
  <path class="cls-7" d="m68.4 83.1 1.2-2 0.8-1.6c0.1-1.6-1-3-2.5-2.9h-2.9l-0.4 1.4 2.4 4.6 1.4 0.5z"/>
  <path class="cls-7" d="m71.4 84.5 1 1.1h5l1-1.1-1.5-2.6c-0.8-1.5-3.4-1.5-4 0l-1.5 2.6z"/>
  <path class="cls-7" d="m81.4 83 1.2-0.4 2.8-4.7-0.4-1.3h-3.1c-1.5-0.1-2.9 1.5-2.5 3l2 3.4z"/>
  <path class="cls-7" d="m85 73.4 0.4-1.4-2.8-4.6-1.2-0.5-1.8 2.7c-1 1.5 0.3 4 2.3 3.9l3.1-0.1z"/>
  <path class="cls-8" d="m67.9 55.1"/>
</svg>