<svg xmlns="http://www.w3.org/2000/svg" viewBox="0 0 150 150">
<!-- SVG created with Arrow, by QuiverAI (https://quiver.ai) -->
  <style type="text/css">.cls-0 {fill:#E8D7B0;}
.cls-1 {fill:#A66400;}</style>
  <path class="cls-0" d="m90.4 36c-0.4-10.4-6.7-20.9-15.4-20.9s-15.2 9-15.3 19.9c-0.3 10.1 3.2 18.9 8.5 26l6.8 7 6-6c5.4-6.3 10.3-16.9 9.4-26z"/>
  <path class="cls-0" d="m53.6 44.2c-8.3-6.4-20.3-8.7-27.1-4.3s-6.9 12.8-1 20.5c5.6 7.2 16.2 12.2 29.4 13.8l11.4-0.3 0.3-10.5c-2.5-6.8-7.4-14.1-13-19.2z"/>
  <path class="cls-0" d="m55.3 75.9c-10.4 0-21.4 3.1-28.4 10.5-7 7.3-9.1 18.1-0.4 23.9 5.2 3 12.8 3.2 20.8-0.5 8-3.6 16.2-12.5 19.3-22.3v-11l-11.3-0.6z"/>
  <path class="cls-0" d="m81.8 87.5h-13.2c-5.1 6.5-8.8 15.6-8.8 25.8 0.6 11.9 6.8 21.6 15.2 21.6s14.8-7.6 15.4-19.5c0.9-8.9-3.7-20.2-8.6-27.9z"/>
  <path class="cls-0" d="m122.9 39.6c-4.6-2.4-12.6-2.7-20.6 1.4s-15.6 13.2-19 21.8l6.2 11.3c8.3 1.2 17.8-0.3 24.8-3.3s13.2-9.2 15-16.9c1.2-7-1.8-11.7-6.4-14.3z"/>
  <path class="cls-0" d="m115.5 80.5c-6.4-3.1-15-5.2-25.4-4.3l-6.8 10.7c3.1 8.9 11 18.1 19 22 8 4 16 4.9 21.8 1.2 9.4-5.7 7-18.1-2.8-25.7l-5.8-3.9z"/>
  <path class="cls-1" d="m75.3 60.1c-7.9 0-14.9 6.2-15 14.6-0.2 8.5 6.3 15.2 15 15.2 8 0 14.5-5.5 14.7-14 0.1-8.4-6.7-15.8-14.7-15.8z"/>
</svg>