<svg xmlns="http://www.w3.org/2000/svg" viewBox="0 0 150 150">
<!-- SVG created with Arrow, by QuiverAI (https://quiver.ai) -->
  <style type="text/css">.cls-0 {fill:#4D4D4D;fill-opacity:0.6;}
.cls-1 {fill:#FCF9EF;}
.cls-2 {fill:#DBA111;}</style>
  <path class="cls-1" d="m75 23.4c5.6 0 5 26.6 0 38.7-2.5-12.1-4.6-38.7 0-38.7zm-13.1 2c-3.5 1.5-0.1 20.2 7.9 35.6l2.7-0.7c-0.6-15.4-7.1-36.4-10.6-34.9zm-12.4 5.5c-2.9 2.5 4.4 18.3 16.6 32.4l3-1.8c-4.7-13.4-16.7-33.1-19.6-30.6zm-11 7.6c-2.9 2.9 8.6 15.6 24.8 27.3l2.1-2.2c-8-11.6-24-28-26.9-25.1zm-8.1 10.4c-2 3.5 12.3 12.6 27 17.8l4.1 1.5 1.6-2.1c-10.2-9-30.7-20.7-32.7-17.2zm-5.3 13.1c-0.7 3.9 16.5 8.9 29.5 10l5.9 0.7 0.6-2.7c-11.7-6.4-35.2-11.9-36-8zm-1.8 13c0 4.5 21.3 4.6 32.1 2.6l5-0.7v-3.3c-11.3-2.5-37.1-3.2-37.1 1.4zm1.8 13.1c1.5 4 21.5 0 32.3-5.5l3.7-1.7-0.5-3.3c-12.5 0.3-37 6.5-35.5 10.5zm5.3 12.3c2.5 2.7 17.7-4 27-11.8l5.7-4.7-1.6-2.8c-11.4 3.5-33.6 16.5-31.1 19.3zm8.1 11.5c2.9 2.5 16.9-8 27.3-25.3l-2.2-2.2c-9 6-28 24.5-25.1 27.5zm11 7.5c3 2.5 11.9-9.8 16.9-21.8l2.5-6.2 0.5-2.8-3-1.7c-8.5 9.7-19.8 30-16.9 32.5zm12.4 5.2c3.2 1.8 8-11 9.6-21l1.1-8v-1.2-1l0.5-3.8-3.1-0.7c-5.4 11.2-11.4 34-8.1 35.7zm13.2 2c4.4 0 4.9-19.7 1.5-37.2h-3.1c-2.4 15-2.9 37.2 1.6 37.2zm13-2c4-1.2-0.7-21.2-8-35.7l-2.6 0.7c0.4 15 6 36.3 10.6 35zm12.4-5c4.5-1.2-4.9-19-16.9-33l-2.2 1.8c4 12.2 14.6 32.5 19.1 31.2zm11-7.5c5.1-0.7-5.9-13.2-14.9-20.5l-10-7.5-2.2 2.5c7.5 11 22 26.3 27.1 25.5zm7.6-11.2c3.8-2.5-11.2-12.3-23.5-16.8l-6.7-3-1.8 2.5c9.3 8 28.3 19.8 32 17.3zm5.5-12.5c1.8-4-15.5-9.8-34.6-10.8l-0.4 2.8c11.3 5 33.3 12 35 8zm2.1-13.3c0-4-15.1-4.6-26.1-3.2l-10.7 1.5v3.2c12.7 2.5 36.8 3 36.8-1.5zm-2.1-13.5c-2.7-3-20.2 0.4-30 5.3l-5.5 2.7 0.3 3.3c11.5-0.5 38-6.8 35.2-11.3zm-5.5-13.1c-3.2-2.1-18 5.1-26.5 12.1l-5.5 4.8 1 3.7c11.3-3.5 35.8-16.2 31-20.6zm-8-10.4c-3.2 0-13.5 7.5-21.5 18l-5.2 7.3 2.2 2.5c9.8-6.5 29-23.3 25-27.5l-0.5-0.3zm-11.5-7.6c-3 0.5-10.2 10.1-14.5 19.1l-4.5 11.8 2.8 1.7c9.2-10 20.5-30.7 17.2-32.5l-1-0.1zm-12-5.4c-3.2 0.5-7.5 13-9 22l-1.5 13.3 2.8 0.7c6.7-12.5 11.7-35.5 7.7-36z"/>
  <path class="cls-2" d="m75 60.1c-7.9 0-14.6 6.3-14.8 14.5s5.7 15.3 14.8 15.3c8.6 0 14.9-6.3 14.9-14.3s-6.3-15.5-14.9-15.5z"/>
</svg>