<svg xmlns="http://www.w3.org/2000/svg" viewBox="0 0 150 150">
<!-- SVG created with Arrow, by QuiverAI (https://quiver.ai) -->
  <style type="text/css">.cls-0 {fill:#D69C0B;}
.cls-1 {fill:#E4AB0F;}
.cls-2 {fill:#AF6700;}
.cls-3 {fill:#CC8F0A;}
.cls-4 {fill:#CD7E0F;}
.cls-5 {fill:#E4AA13;}
.cls-6 {fill:#AE6600;}</style>
  <path class="cls-0" d="m66.9 13.4c-1.6-3.2-4.5-7.2-8.5-7.2-3.4 0-7.2 2.8-7.2 9.3l0.1 12.5 15.3-0.1 0.3-14.5z"/>
  <path class="cls-0" d="m82.9 13.2c1.6-2.9 4.5-6.9 8.8-6.9 3.4 0 7.2 2.7 7.2 9.3v12.4h-15.3l-0.7-14.8z"/>
  <path class="cls-0" d="m37.1 25.6c-2.2-1.6-5.6-3-8.8-2.6s-6.3 3.2-5.6 7.8 3.5 7.9 3.5 7.9l14.3 1.3-3.4-14.4z"/>
  <path class="cls-0" d="m113.3 25.6c2.2-1.3 5.2-2.9 8.2-2.7 4 0.1 6.6 3.5 5.8 8.1-0.6 3.4-2.8 6.3-2.8 6.3l-14.5 2.7 3.3-14.4z"/>
  <path class="cls-0" d="m133.7 82.7-7.5 1.3 6.5 14.6c2.9 0.2 11.2 0.2 11.4-6.8 0.2-5.4-6.8-8.4-10.4-9.1z"/>
  <path class="cls-0" d="m124.7 113.6-11.4-4.8 0.1 15.7c2 1.5 7.1 3.9 10.5 2.3 4-1.9 5.1-7.4 0.8-13.2z"/>
  <path class="cls-0" d="m25.3 113.6c-2 2.8-3.6 7.9-1.2 11.1 2.3 3.2 7.8 3.4 12.8-0.2l3.6-8.5-10-5.9-5.2 3.5z"/>
  <path class="cls-0" d="m12.7 83.3c-3.2 1.8-6.9 4.5-6.8 8.5 0.2 6.8 8.2 7.1 11.2 6.8l7-4.8-4.6-10.3-6.8-0.2z"/>
  <path class="cls-0" d="m133 50.7-6.8 4.6 10.9 11.7c3.4-1.7 7.2-4.9 7-9.1-0.2-3.4-3.2-7.4-11.1-7.2z"/>
  <path class="cls-0" d="m16.9 50.7c-5.4-0.4-10.8 1.6-11.1 6.6-0.3 5.6 7.1 9.6 7.7 9.7l10.6-2.3-1.2-9.8-6-4.2z"/>
  <path class="cls-0" d="m51.1 132.9c0 4 1 10.9 7.2 11 4 0.1 7.6-3.9 8.8-7l-0.8-9.4-10.2-2.2-5 7.6z"/>
  <path class="cls-0" d="m82.9 136.9c1.4 3 4.6 7 8.8 7 4.6 0 7.2-4 7.1-9.4v-5.3l-15.1-3.9-0.8 11.6z"/>
  <path class="cls-1" d="m75.1 4c-3.4 0-8.6 2.9-8.8 15.9l1.4 4.8h15.9c0.1 0 1.5-20.7-8.5-20.7z"/>
  <path class="cls-1" d="m67.1 129c0 4.9 1.4 17 8.2 17s8.4-8.5 8.4-12.7v-6.8l-15.8-1.2-0.8 3.7z"/>
  <path class="cls-1" d="m55.5 23.4c-2-3.4-6.8-10.7-12.8-10.7-4.2 0-6.6 3.4-6.6 7 0 6.2 4 13 4 13l15.4 6v-15.3z"/>
  <path class="cls-1" d="m94.7 23.4c2-3.3 6.4-10.7 12.8-10.7 3.8-0.1 6.6 3 6.6 7 0 6.2-3.6 12.2-3.6 12.2l-15 6.8-0.8-15.3z"/>
  <path class="cls-1" d="m121.3 38.3c3.2-1.4 16.4-5.3 16.4 4 0 6.8-10.4 12.4-10.4 12.4l-13.2 0.6 2.6-15.3 4.6-1.7z"/>
  <path class="cls-1" d="m28.7 37.9c-3.2-1-16.4-4.9-16.4 4.4 0 6.6 10.4 12.8 10.4 12.8l13.2 0.6-4-16.4-3.2-1.4z"/>
  <path class="cls-1" d="m128.7 66.3-3.4 2.2 4.4 15.4c4.4 0.2 16.4-1 16.6-8.4 0-7.4-10.6-9.4-17.6-9.2z"/>
  <path class="cls-1" d="m21.3 66.3c-4.4-0.4-17.4 1-17.5 8.8s11.1 8.8 16.1 8.8l4.8-2.2-3.4-15.4z"/>
  <path class="cls-1" d="m126.1 94.3-6-0.8-2.6 16.8c2.6 1.6 6.8 4.2 13.4 4 5.2-0.2 6.8-3.6 6.8-6.6-0.2-4.8-6.6-10.8-11.6-13.4z"/>
  <path class="cls-1" d="m23.3 94.3 6-0.8 3.2 16.8c-2.6 1.6-7 4-13 4-5 0-7.2-3-7.2-6.6 0-4.6 6-10.6 11-13.4z"/>
  <path class="cls-1" d="m39.5 118.3c-1.2 2.4-5.6 11.8-1.6 17.2 3.2 3.2 8.2 3 13.2-2 3.4-3.4 5-6.8 5-6.8l-0.6-7.2-12.2-3.5-3.8 2.3z"/>
  <path class="cls-1" d="m110.5 117.5-5-1.5-4.4 3.5-6.4 7c2.2 4 7 10.8 12.8 10.9 4.8 0.1 7.4-3.3 6.6-9.7-0.4-3.6-2.6-8.2-3.6-10.2z"/>
  <path class="cls-3" d="m43.9 33.4c-0.8-4.7 1.6-9.4 6.2-9.1 2.6 0.2 4.8 1.8 6 2.7l1.4 13-12-2.7-1.6-3.9z"/>
  <path class="cls-2" d="m43.3 33.4c-0.8-5.7 2.6-10.3 8.2-8.7 2 0.6 3.4 2 3.4 2l1.6 1.3c0 5.7 2 11.3 2 11.3l-10-2-5-3.6-0.2-0.3z"/>
  <path class="cls-4" d="m55.1 24.7c1-5.8 7.6-10.7 13.2-3.4 3 3.4 4.2 11.4 4.2 11.4l-0.6 26.8-14-20.8c-1.2-3.6-3.4-9.6-2.8-14z"/>
  <path class="cls-2" d="m68.5 23c3-7.5 10.4-8.1 12.8 0l-2 12.3-7.2-0.2-3.6-12.1z"/>
  <path class="cls-4" d="m77.9 33.4c1.6-7.7 5.2-15.9 11-15.8 3.2 0.1 6.8 3.3 6.4 9.9-0.2 4.8-1.8 9.8-1.8 9.8l-14.6 22.2-1-26.1z"/>
  <path class="cls-2" d="m95.3 26.7c1.6-1 3.4-2.4 6.2-2.4 4 0 6.2 4 5.2 9.1l-5.2 5.9-8-2 1.8-10.6z"/>
  <path class="cls-4" d="m98.7 39.7c3-3.4 8.2-8.2 13.4-8.2 4-0.2 6.6 2 6.6 6 0 5.8-6.6 12-9.6 14.2l-22.6 12 12.2-24z"/>
  <path class="cls-2" d="m116.9 42.9c5.6-0.8 9.2 1.4 9 5.6-0.2 4-3.4 6.6-3.4 6.6l-11 2.4-2.4-5.8 7.8-8.8z"/>
  <path class="cls-4" d="m113.5 56.7c3.2-1.2 6.8-2.2 10.2-2.2 4.2 0 9.2 1.8 9 6.8-0.2 7.2-12 10.6-16.6 10.8l-25.2-1.2 22.6-14.2z"/>
  <path class="cls-2" d="m127.3 68.5c3 1.2 6 3.4 6 6.6 0 4.2-4.8 6.2-6 6.6l-10.4-1.6-0.8-8 11.2-3.6z"/>
  <path class="cls-4" d="m117.5 78.3c4.8 0.4 15.2 3.6 15.2 10.4 0 4.4-4.6 6.4-9.4 6.3-4 0-10-1.5-10-1.5l-22.4-14.2 26.6-1z"/>
  <path class="cls-2" d="m123.3 95c1.2 1.3 2.8 3.9 2.4 6.7-0.4 3-3.6 5.8-8.8 5l-7.8-6.6 4.2-7 10 1.9z"/>
  <path class="cls-4" d="m109.9 98.3c4 2.8 8.8 8.2 8.8 14.4 0 3.4-2.4 6-6 6-5.4 0-11.6-5.6-14-8.6l-12.2-23.6 23.4 11.8z"/>
  <path class="cls-2" d="m99.1 110.1c2 2.4 5.8 5.4 7.6 6.8 0.8 3.2 0 8.8-5.6 8.8-2.4 0-4.4-1.2-5.6-2.4l-2-9.8 5.6-3.4z"/>
  <path class="cls-4" d="m93.5 113.5c1 3.2 2.2 7.4 1.6 12s-3.2 7-6.2 7c-6.2 0-9.8-7.6-11.4-15l1.4-27.8 14.6 23.8z"/>
  <path class="cls-2" d="m79.1 117.5c0.8 3 2 6.4 2.2 9-0.8 3.6-3.2 6.4-6.2 6.4-3.8 0-5.6-2.8-6.6-6l3.6-10.9 7 1.5z"/>
  <path class="cls-4" d="m72.5 116.9c-0.8 3.2-3.4 15.6-11 15.6-4.4 0-6.6-3.4-6.6-9.4 0-3.6 1.8-9.6 1.8-9.6l14.2-23.8 1.6 27.2z"/>
  <path class="cls-2" d="m54.9 123.5c-1.4 1-3 2.2-6 2.2-4.6 0-6.4-4.2-5.6-8.8l8.2-6.8 5.2 3.4-1.8 10z"/>
  <path class="cls-4" d="m51.5 110.1c-2.4 3-8.4 8.6-14 8.6-4.4 0.2-6.4-2.8-6.4-6 0-4.6 4.4-10.6 8.8-14l23.6-12.2-12 23.6z"/>
  <path class="cls-2" d="m33.1 106.7c-5.6 0.8-9-1.4-9.1-5.4 0-2.4 1.5-4.8 2.7-6.3l10-1.9 3.8 5.6-7.4 8z"/>
  <path class="cls-4" d="m36.9 93.5c-2.8 0.6-6.4 1.5-10.2 1.5-4.8 0.1-9.2-1.7-9.3-6.1 0-6.2 9.7-10.2 15.1-10.6l27 1-22.6 14.2z"/>
  <path class="cls-2" d="m22.9 81.5c-2.4-0.8-6-3-6-6.4s3.6-5.8 6-6.6l11 2.4-0.8 7.4-10.2 3.2z"/>
  <path class="cls-4" d="m32.7 71.9c-4.2-0.6-15.3-3.4-15.3-10.6 0-4.4 4.5-6.8 9.3-6.8 4 0 8 1.2 10.2 2l22.6 14.4-26.8 1z"/>
  <path class="cls-2" d="m26.7 54.5c-1.2-1.2-2.7-3.6-2.7-6.2 0-3.4 2.7-5.6 6.5-5.6 0.8 0 2.6 0.2 2.6 0.2l7.4 7.8-3.6 5.8-10.2-2z"/>
  <path class="cls-4" d="m39.5 50.7c-2.4-1.8-8.4-7.8-8.4-13.2 0-3.2 2.4-6 6.2-6 5.2 0 10.4 4.2 14.2 8.2l12 24-24-13z"/>
  <path class="cls-5" d="m75.1 31.5c-2.8 0-6 2.6-6 10.8 0 7.2 1.6 16.8 1.6 16.8l8.4 0.4s1.6-8.4 1.6-17.2-3.4-10.8-5.6-10.8z"/>
  <path class="cls-5" d="m88.7 39.9c-3.4 3.8-8 13.4-9.8 19.6l7.6 4.2c3-3 12.4-14.8 12.4-22.2 0-3-2-4.8-4.4-4.8-1.8 0-3.8 1-5.8 3.2z"/>
  <path class="cls-5" d="m108.3 50.7c-5.6 0.4-14.8 7-21.8 13l4.4 7.2c4.2-1 15.8-5.6 19.6-9 2.4-2 3.2-4 3.2-6.6s-2.2-4.8-5.4-4.6z"/>
  <path class="cls-5" d="m106.9 69.1c-6 0-16 1.6-16 1.6v8.6s6.6 1.6 15.2 1.6c7.6 0 12.6-1 12.6-5.8-0.6-4.6-5.4-6-11.8-6z"/>
  <path class="cls-5" d="m90.9 79.3-4.4 7.2c3.4 3 14.6 12.2 21.6 12.4 3.6 0.2 5.4-2 5.4-4.4 0-1.8-1-4-3.4-6-4-3.2-12-7.2-19.2-9.2z"/>
  <path class="cls-5" d="m78.9 89.7c1.2 4.6 6.6 24 15.6 24.2 2.6 0 4.4-2 4.4-5.2 0-6-9.4-17.6-12.4-22.2l-7.6 3.2z"/>
  <path class="cls-5" d="m70.7 90.7c-1.2 5.8-2.8 27.8 4.4 27.8 6.4 0 5.6-8.6 5.6-13-0.2-5.8-1.6-14.8-1.6-14.8h-8.4z"/>
  <path class="cls-5" d="m63.5 86.5c-3 3.4-12.6 14.8-12.6 21.8 0 2.6 1.6 5.4 4.8 5.4 7.2 0 12.6-14.6 15-23l-7.2-4.2z"/>
  <path class="cls-5" d="m42.1 87.5c-3.4 2.4-5.4 4.8-5.4 6.8 0 2.4 1.6 4.6 4.8 4.6 6.2 0.2 16-6.8 22-12.4l-4-7.2c-4.2 1.2-12.8 4.8-17.4 8.2z"/>
  <path class="cls-5" d="m31.1 75.1c0 4.8 5.6 5.8 11.8 5.8s16.6-1.6 16.6-1.6v-8.4s-7-1.8-16.4-1.8c-6.8 0-10.8 1.4-12 6z"/>
  <path class="cls-5" d="m36.7 55.3c0 7.2 15.4 12.6 22.8 15.4l4-7c-4.2-3.8-14.4-13.2-22-13.2-3 0-4.8 2.2-4.8 4.8z"/>
  <path class="cls-5" d="m51.1 41.5c0 6.4 8.4 17 12.4 22.2l7.2-4.6c-1.6-4.8-7-18.4-12.2-21.6-1-0.4-1.8-0.8-2.8-0.8-2.6 0-4.6 2.2-4.6 4.8z"/>
  <path class="cls-6" d="m75.1 60.1c-7.6 0-14.8 6-14.8 15 0 8.4 6.4 14.8 14.8 14.8s14.8-6.4 14.8-14.6c0-7.6-6-15.2-14.8-15.2z"/>
</svg>