<svg xmlns="http://www.w3.org/2000/svg" viewBox="0 0 150 150">
<!-- SVG created with Arrow, by QuiverAI (https://quiver.ai) -->
  <style type="text/css">.cls-0 {fill:#FF4A00;}
.cls-1 {fill:#E83B03;}
.cls-2 {fill:#E6AA0C;}</style>
  <path class="cls-0" d="m140.7 61.7c0.2-5.9-2.2-13.1-6.7-17.7-4.3-4.7-9.7-7.6-17-7.6-3 0-5.6 0.5-10.1 1.8l0.1-0.2c0.6-3.2 0.8-7.9-0.9-13.1-2.9-8.1-11.2-15.9-21.2-16.2-1.8-0.1-3.5-0.1-6.4 0.2-2.1-0.6-4.2-0.9-6.4-0.9-11.7 0-24.7 8.3-24.7 22.4v2.2c-3.2-1.7-6.9-3.1-12-3.1-11.1 0-22 8-24.2 19.5-2.6 3.6-4.2 7.8-4.2 14.6 0.2 8.3 4.7 16.3 11.7 20.6 1.9 1.1 3.9 2 6.4 2.6-5 4.5-8.9 10-8.9 18.6 0 8 4.7 17 13.3 21.6 3.9 5.1 10.2 9.7 19.7 9.7 7.9 0 15.2-3.6 19.8-10.7 3.1 8.7 10.9 16 23.1 16 6.3 0 11.6-1.9 16.5-6 10.5-2.6 18.1-11.5 18.2-22.6 0-5.8-2.1-11.4-6-17 11.6-0.6 22.3-9.5 22.3-23.9 0-3.5-0.9-7.5-2.4-10.8z"/>
  <path class="cls-1" d="m77.2 65.6 1.4 0.3c4.5-10.5 15-22.8 28.2-27.5 0.3-1.3 0.6-3 0.6-4.8-12.7 3.8-26 15.5-30.2 32z"/>
  <path class="cls-1" d="m66.1 70.6 0.9-1.2c-7.5-5.8-17-17.8-19.3-31l-0.3-5.8c-1.3-0.6-2.5-1.2-4.3-1.9 0 16.7 12.5 32.3 23 39.9z"/>
  <path class="cls-1" d="m66.1 80.1c-7.4 4.5-18 8-29.5 8.1-3.5 0-7.6-0.3-11.5-1.5-1 0.9-2.2 1.9-3.4 3.4 3.4 0.9 7.4 1.8 12.9 1.8 9.5 0 22-3.2 32.3-10.3l-0.8-1.5z"/>
  <path class="cls-1" d="m76.4 84.4c1 3.2 1.2 7.7 1.2 11 0 9.2-3 20-8.6 30.5 0.5 1.5 1.1 2.7 2 4.2 5.7-6 9-17 9-29.5 0-5-0.6-10-2.1-16l-1.5-0.2z"/>
  <path class="cls-1" d="m84.9 75.4v1.4c11.7 1.6 25.7 7.3 35.5 19.4 1.7-0.1 3.5-0.3 5-0.8-5.8-8.2-19.5-18.8-40.5-20z"/>
  <path class="cls-2" d="m75 65c-5.3 0-10 4.1-10 10s4.5 10.1 10 10.1c5.1 0 9.9-4 9.9-10 0-5.1-4-10.1-9.9-10.1z"/>
</svg>