<svg xmlns="http://www.w3.org/2000/svg" viewBox="0 0 150 150">
<!-- SVG created with Arrow, by QuiverAI (https://quiver.ai) -->
  <style type="text/css">.cls-0 {fill:#DAC7A6;}
.cls-1 {fill:#E4D0B1;}
.cls-2 {fill:#F0E5CF;}
.cls-3 {fill:#EDDEBF;}
.cls-4 {fill:#D4BE9C;}
.cls-5 {fill:#EBDDC0;}
.cls-6 {fill:#E8DBC0;}
.cls-7 {fill:#EFE7D5;}
.cls-8 {fill:#DFCCAE;}
.cls-9 {fill:#EFE6D4;}
.cls-10 {fill:#ECE3CD;}
.cls-11 {fill:#DEC7A6;}
.cls-12 {fill:#DCCEAF;}
.cls-13 {fill:#EADABF;}
.cls-14 {fill:none;stroke:#E4D0B1;stroke-width:0.1116;stroke-miterlimit:10;}
.cls-15 {fill:#CAA008;}
.cls-16 {fill:#DBA606;}
.cls-17 {fill:#CA9707;}</style>
  
  <path class="cls-0" d="m86.7 9.7v-9.7l-1 9c0.3 0.1 0.6 0.3 1 0.7z"/>
  <path class="cls-1" d="m82.7 10.8c-2-0.5-3.8-0.5-5.7 0.9-4.6-3.3-7.9-1-7.9-1s-4.9-4.1-8.4 0.1c-2.5-1.7-4.7-0.1-4.7-0.1s-3.1-1.6-5.5 3c-3.8-1.8-6.7 5.1-6.7 5.1-2.5-0.7-5.4 0.8-6.3 6.2-2.7-0.3-4.7 0.4-6.3 2.9-2.1 0-6.1 0.7-5.9 4.7-3.1 0.2-3.7 2.2-4.2 2.8-3.1 1.2-2.2 5-2.2 5-3.8 0.4-2.3 6.8-2.3 6.8-2.6 1.2-4.2 4.5-0.8 11.2 3.7 4.2 6.8 5.5 6.8 5.5l34.3 13.6 25.1-56.7s-0.5-5.4 4.7-11.1c-1.1 0-2.5 0.7-4 1.1z"/>
  <path class="cls-1" d="m141.1 77.3c3.8-4.9 0.7-9.8-1.8-11.1 1.8-6.5-4.6-7.8-4.8-7.6-2.9 3.1-8.3 5.5-8.7 5.3l-16.9 10.7 9.3 16.7 15.1-0.2c6.3-0.2 6.3-3.8 6.3-5.3 2.9-2.3 3.5-6.5 1.5-8.5z"/>
  <path class="cls-1" d="m134.9 48.8c1.6-5.4-2.4-7.4-2.4-7.4 1-2.8-1.4-3.9-1.4-4.2 0-3.1-4.2-3.8-4.2-3.8 0-4.2-6.5-4.2-6.5-4.2-0.9-5.6-8.6-4.4-8.6-4-0.2 4.2-2.2 8.2-2.2 8.2l-1.4 28.7 17.8 2c10.7-2.9 12.9-11.7 8.9-15.3z"/>
  <path class="cls-1" d="m132.5 91.3c-2.3-2.4-5.6-4.2-5.6-4.2l-17.3 1.3-3.2 16.9 0.5 13.3 10 4.3c2.4 0.9 8.2-0.9 8.7-7.1 6.6 0.4 6.8-6.5 6.6-10.3 4.5-1.7 6.9-8 0.3-14.2z"/>
  <path class="cls-1" d="m91.1 125.3-17.8-1.8-20.9 7.6c1.6 6.5 6.9 6.4 8.2 5.6 2.3 4.9 7.8 4.6 9 3.7 3.7 2.7 7.1 1.2 8.2-0.4 4 2.4 8.6 0.4 10.4-2.7 3.8 1.1 8.9-0.6 10-6.2-2.6-1.6-7.1-5.8-7.1-5.8z"/>
  <path class="cls-1" d="m24.2 113.8c-0.6 5.7 5.3 10.9 12.9 11.3 1.5 5.5 8.5 9.1 15.3 6.2 4.3-1.3 7.4-4.9 7.4-4.9l-4.2-17.5-24-19.1-15.4 2c-6 6.4-2 12.2 1.4 13.5-1.4 7.1 3.7 9.4 6.2 8.7l0.4-0.2z"/>
  <path class="cls-0" d="m16.4 58.6c-3.1-0.2-7.8 2-5.9 7.6-3.9 2.2-5.6 7.5-2.3 11.1-1.8 3.1 0 7.1 2 8.5-0.6 5.1 5.1 5.5 5.8 5.3l0.4 0.7 9.2-5.2 1-22.7-10.2-5.3z"/>
  <path class="cls-1" d="m99.5 13.4c-1.9-3.2-3.5-2.8-4.8-2.3-2.5-1.4-4.3-0.5-4.5-0.5-1.3-0.4-2.2-0.9-3.5-0.9-1.4 0-2.7 0.5-4 1.1l-5.8 1.1c2.6 1.7 4.6 6.5 4.7 8.9l16 13.1 12-0.5c4.9-7.1 2.2-16.8-3.8-15.3-2.3-5.5-5.8-4.7-6.3-4.7z"/>
  <path class="cls-1" d="m113.3 124.7 3.6-1.8-10-17.6-12.7 13.3s-1.3 5.2-3.1 6.7c7.3 8 18.7 9.4 22.2-0.6z"/>
  <path class="cls-1" d="m24 32.6"/>
  <path class="cls-3" d="m37.5 25c-3.1 0-4.6 0.9-6.2 3-1.8-0.1-6.2 0.6-6 4.6-2.7 0.2-3.5 1.5-4 2.6-2.9 1.1-2.6 4-2.4 5.2-3.4 0.2-2.7 5-2.2 6.8-3.6 1.4-4.5 6.5-0.3 11.4 3.1 4 6.2 5.1 6.2 5.1l17.2-5.1 1.1-23.2c-2.2-3.5-3.4-7-3.4-10.4z"/>
  <path class="cls-3" d="m87.3 23.6c-1.5-2.2-4.9-4.8-7.8-2.2-1.9-2.2-3.9-1.3-3.9-1.3-2.5-1.7-4.3 0-5.6 1.3-3.1-2.2-6.7 3-6.7 3-3.5-1.8-6.2 1-7.5 4.8 0.2 4.4 0.6 12.4 0.6 12.4l29.2-5c1.7-4.3 7.7-8.2 7.7-8.2-1.1-4.8-4.9-5-6-4.8z"/>
  <path class="cls-2" d="m120.4 45.9c0.5-3.8-1.9-6-4-5.8 0.3-2.2-2.2-3.7-2.4-3.8-0.5-2.9-4.7-2.9-4.9-2.9-0.6-3.8-7.3-3-7.3-2.8-1.6-5-7.4-4.3-11.4-1.4-2.9 2-4.6 5.2-4.6 6.4l3.1 10.3 14 8.7 17.8 1.5c3.7-4.5 1.3-9.5-0.3-9.5v-0.7z"/>
  <path class="cls-5" d="m129.1 70.8c1.6-2.4-3.1-6.9-3.1-6.9 2.4-5.3-4.9-8.7-9.6-8.9-3.3 0-5.1 1.1-5.1 1.1l-3.7 9.3 0.9 19.2 10.8 9.2c7.4-0.5 7.6-6.7 7.6-6.7 4.2-2 2.6-6.7 2-7.1 1.8-1.1 0.6-3.4 1.6-4.6 1.1-1.7-1.4-4.6-1.4-4.6z"/>
  <path class="cls-6" d="m87.6 113.8-10.1-4-20.8 10.6c0.8 3.1 3.1 6 3.1 6 3.1 3.1 6.4 3.6 8 2.2 2.2 2.1 3.8 1.6 4.9 0.9 4.9 3.4 10.6 0 13.1-3.3 3.8 1.6 7.5-1.3 8.4-6l-6.6-6.4z"/>
  <path class="cls-2" d="m120.4 93.5c-4 0.7-9.5-0.6-9.5-0.9l-7.3-1.7-16 13.8v9.1c2.6 4.6 7.1 7.8 11.9 7.8 3.8 0 5.2-3.8 5.2-3.8 7.8 1.1 9.5-4.3 9.5-5.4 4-0.2 4.7-5.1 4.2-8.7 4.7-1.3 4.3-6.8 2-10.2z"/>
  <path class="cls-2" d="m56.7 120.4c-1.1-4.2-0.3-9.8-0.3-9.8l-1.3-6.6-7.6-12.7-11.1-2.9c-4.6 1.6-10.6 7.8-7.8 13.6 0.9 1.5 3.4 2.7 3.4 2.7-0.7 7.5 4.2 9.3 6 9.3 0.9 4.9 6.4 4.9 8.4 4.4 2 4.9 7.4 4.5 10.3 2.5v-0.5z"/>
  <path class="cls-3" d="m24.2 86.4c-3.1-2-3.8-4.6-3.1-6.7-2.7-2.4-1.6-4.8-1.1-5.5-0.5-2.3 1.1-3.4 1.1-3.4-2.2-2.4-0.5-6.4 2.2-7.6l0.2-0.4c-0.8-3.4 3.1-5.6 4.9-5.9l10-1 4.2 17.8-4.2 2.7c-4.6 3.6-1.5 7.3-1.5 7.3-2.2 3.6-0.5 7.2-0.5 6.3l-6.6 3.8c-6.2-0.9-6.7-5.2-5.6-7.2v-0.2z"/>
  <path class="cls-2" d="m55.8 29.2c-4.2-2.2-6.7-0.8-8.3 1.2-2-0.8-6.6-0.3-6.9 3.5-2.2-0.3-3.3 1.5-3.5 2-2.2 0.7-3.5 0.7-3.5 4.5-3.6 0.4-3.2 5-3 6.4-5 1.3-3.7 7.6-1.9 10.4 2.4 4.2 6.9 6.9 7.7 6.9l10.3-0.4 9.3-25.1c-0.9-2.7-0.9-6.7-0.2-9.4z"/>
  <path class="cls-7" d="m50.4 51.4c-2-1.8-6.4-2.8-7.8 0.2l-0.6 1.8c-2.7 0-6.4 3-4.9 7.4-2.7 2.6-1.1 7.6-0.5 7.8-1.5 4 0.9 8 2.1 7.6l5.1-3 7.8-12.4-1.2-9.4z"/>
  <path class="cls-4" d="m113.8 66.2c2.6-3.4 0.6-6.5-1.6-7.4 1.1-1.6-2.6-6.2-4.9-6.4-1.5-5.2-7.1-5.4-7.8-4.9l-6.6-1.6-8.5 8.7 0.3 17.8 13.8 4.5 5.7 10.2 0.2-0.2c2 0.6 3.4-1.8 2.9-3.8 2.7-1.5 1.6-4.7 1.6-4.7 0.9-0.9 0-2 0.7-2.7 0.8-1.1-0.7-2.8-0.7-2.8 0.9-2.3-1.8-4.3-1.8-4.3 2.2-4.7-4.2-5.8-4.2-5.8l1.3 0.4c1.8-4-3.8-5.8-3.8-5.8l2.9-2.8 10.5 11.6z"/>
  <path class="cls-4" d="m102 97.5-2.5-2.8-12.6 10 0.4 9.1c5.1 0.6 5.8-2.9 5.8-2.9 2.2 0.7 5.1-2.5 5.1-4.9 3.3-0.7 4.7-4.9 3.6-7.4l0.2-1.1z"/>
  <path class="cls-4" d="m114 86.6c2.4-1.5 0.7-6.4 0-6.6 1.1-3.1-1.5-6-1.5-6 2.8-2.1 2.6-6.5 0.8-7.8l-10-11.6-3.8 9.5-1 12.8-0.3 4 5.8 5.7c3.1 5-0.7 8-2.2 8.5v3.5c4.6 1.1 6.9-2.4 6.9-4.9 4.6-0.6 6-5.3 4.8-6.8l0.5-0.3z"/>
  <path class="cls-4" d="m56.4 110.6c1.4 2.7 4.9 3.8 6.9 2.7 1.6 2.7 5.8 1.4 6.7 0.7 4.2 1.8 7.1-1.6 7.5-2.4l0.9-3-14-5.5-8 5.1v2.4z"/>
  <path class="cls-4" d="m45.5 86.4 0.1 2 2.8 4.7 4.5 8.5c-0.5 4.8 2.9 6.4 2.9 6.4l0.6 0.2 8-5.1-1.5-10-10.5-6.7h-6.9z"/>
  <path class="cls-4" d="m43.3 66.6c-2.9 1.8-2.7 4.2-1.7 5.3-1.4 0.7-0.7 2.5-1.2 3-0.9 0.8 0.5 2.6 0.7 2.6-1.1 2.2 1.6 3.8 1.6 4.1-1.8 4.8 4 5.5 5.7 5.5l4.5-0.5 3.5-14-5.3-4.2c-2.7-1.2-4.7-5-4.7-5-1.5-0.2-3.5 2-3.1 3.2z"/>
  <path class="cls-8" d="m95.8 41.4c0-2.8-4-5.8-7.6-4.2-1.8-2.8-6.2-1.8-7.5-0.6-2.7-1.6-5.8 0.2-6 0.4l-4.3 3.1 4 10.5 12.5-4 12.6 0.9c1.4-5.1-1.3-6.1-3.7-6.1z"/>
  <path class="cls-11" d="m68.2 36.4c-2.6-2-7.1-1.8-8.6 1.3-2.1-0.9-6 2.2-6.3 4.4-2.9 0.3-5.8 4.5-3.8 9.3l5.2 4.5 12.2-7.3 11.1-7.8c-2.4-5.2-6.7-6.7-9.8-4.4z"/>
  <path class="cls-0" d="m87.6 113.8c-0.9 0-2.7-1.1-2.7-1.1-4 2.8-7.3-0.3-7.8-1.4l1.3-2.7 8.5-3.9h1.5l6.3-3.1 4.8 3.1h2.3l-3.6 1.3-0.6 2.2-2.9 2.7h-1.6c-0.4 2.2-4.4 3.3-5.5 2.9z"/>
  <path class="cls-8" d="m90.7 82.2-3.8-2.2-9.3 0.9-4.3 7.5-0.9 4.7 4 6 10.5-4.4c1.3-3.4-2.5-8.1-2.5-8.1l5.1 1.8 3.8-3.8c0.7-0.9-2.6-2.4-2.6-2.4z"/>
  <path class="cls-12" d="m53.8 85.8 0.6 3.3 5.2 0.9c2.8-0.7 6-3.4 6-3.4l2.8-5.7-5.1-1.2-8.9 0.3-1.1 2.6 0.5 3.2z"/>
  <path class="cls-7" d="m62.4 46.4c-2-2.5-6-0.3-9.3 1.7-1.8 1.9-3.8 3.3-6.7 8.5-1.3 3.8 0 6.8 0 6.8l2-1.7 6.7-5.8 7.8-2.5-0.5-7z"/>
  <path class="cls-7" d="m87.6 45.6c1.5-1 4-1.2 6.6 0.5 2.5 1.1 6.2 3.5 8.3 7.6 3.3 3.5 1.9 9.5 1.7 9.5l-6.6-3.5-10.7-5.1v-8l0.7-1z"/>
  <path class="cls-6" d="m88.7 95.5-4.3-0.8-6.8 0.8-5.2-2.4c1.2-2.7 2-9.6 2-9.6l8 1.6c4.3 3.3 5.2 8 4.5 9.6l1.8 0.8z"/>
  <path class="cls-13" d="m88.7 95.5c0.8 3.6-0.5 7.4-1.4 9.2-2.2 3.3-5.8 2.6-5.8 2.6-0.8 1.3-3.1 1.3-3.1 1.3-2.8 6.1-8.4 5.4-8.4 4.5-3.6 1.8-6.7 0.2-6.7-0.4-3.7 1.7-6.4-2.1-6.9-2.9l-0.6-1.6c-4.2-0.7-4.7-4.2-4.4-6.4-5.2 0.8-7.6-2.1-7.8-4.3-5.2-1.5-4.9-4.6-4.7-5.9-3.1-0.7-3.1-4.1-2.9-5.8l9.6 0.6 6.8 0.2 10.5 6.5h0.4c0.3 5.8 7.4 7.5 11.1 7.5 5.1 0 11.6-2 10.7-5.1h3.6z"/>
  <path class="cls-9" d="m86.9 54.6 0.4 1.1-0.4-0.3c-0.7-2-2.9-1-3.3-1l-5.2-1-15.5-0.4c-1.3 0.4-7.8 2-11.1 12.7-1.4 4.9 1.5 6.2 2.6 4l2-4.3c2.5 3 5.6 4.3 6.9 4.3h8.3l6-6.9c0.8-3.4 0.8-9.4 0.8-9.4 2 1 4 1.2 5.2 1l3.3 0.2z"/>
  <path class="cls-1" d="m78.4 53.4-0.8 9.4-6 6.9-3.2-4c-4-4-4.8-9.6-4.8-10.3l2-2.8 10-4.5 2.8 5.3z"/>
  <path class="cls-1" d="m83.6 54.4c-2.3 1.7-4.9 6-5.2 8.4l-0.8 6.9 6.8-4c2-2.3 7.2-4 8-4l-0.8-5.6-4.7-0.7-0.7-0.2-0.6-0.8h-2z"/>
  <path class="cls-1" d="m97.6 64.4c3.5-1.8 10-1.8 9.7 2.8l-0.2 1.4c2.7 2 2 4.3 2 4.3 1.6 1.7 0.5 3.7 0.5 3.7 0.8 1.8-0.7 1.8 0 3.1 0.8 2.5-2.3 3.4-2.3 3.4l0.3 1.5-3.2 2.3-5.9-5.3-2.1-5 0.3-3.4c-0.5-0.8 0-3 0-3l0.9-5.8z"/>
  <path class="cls-1" d="m56.9 65.7c1.5-0.3 0.9-2.5 1.1-2.5 0.4-0.8 4.9-0.8 3.6-5.8 2-0.2 2.8-2.4 3.1-2.8l1.7 7.5 4 7.6h-7.1l-3.7-1.3-2.7-2.7z"/>
  <path class="cls-13" d="m53.8 72.9c-3.4 1.5-4.7 4.6-3.1 10.6 2.2 6.2 7.7 9.6 7.7 9.6 3.6 2.9 5.4 0.4 3.8-1.8l-1.8-1.6-2-0.6c1.2-2-1.5-3.3-1.5-3.3 0.7-4.9-1.8-5.8-3.3-5.8 0.8-2.5-2.5-3.1 0.2-7.1z"/>
  <path class="cls-10" d="m45.6 86.6c-0.7 5.4 1.1 7.4 2.4 8.1 0 3.5 3.6 4.2 3.6 4.4 0 2.5 4.2 2.9 4.4 2.9 1.6 1.7 2.9 2 5.1 2 3.3-0.3 5.8-2.4 5.8-3.6-4 2.2-8 2.2-9.8-1.5-0.2-2.3-2.7-3.2-3.1-3.2-0.7-3.9-3.6-3.1-4-3.1-1.6-1-3.3-3.7-4.2-4.2l-0.2-1.8z"/>
  <path class="cls-7" d="m86.9 54.6c-0.9-4.2-7.3-6.2-11.3-6.2-6.5 0-10 2.8-12 4.2l-0.7 0.4-0.5-0.4c-0.8-3 0-6.7 1.8-9 1.8-1.5 3.1-0.4 3.1-0.4 2.3-2.8 3.6-2.6 4.5-1.6 1.5-2 3.3-1.2 3.8-0.8 1.3-0.7 2.2 0.6 2.4 0.6 1.6-1.3 4-0.2 4.7 1.4 2.4-0.7 4.9 1.8 5.5 3.8 0.9 4-1.3 6.8-1.3 6.8v1.2z"/>
  <path class="cls-7" d="m85.1 95.1c4.5 2.4 9.8-2.5 11.6-6.2 1.7-3.1 4.4-12 1.3-12.3 2.7-1.2 2.7-6 1.6-9.7-1.6-4.8-4.9-7.7-4.9-7.7-3.6-3.8-5.1-4.6-6.3-3.8-1.1 3.8 3.4 5.8 3.4 5.8-1.1 2.2 1.5 3.2 1.5 3.4-0.6 5.1 2.3 5.8 3.4 5.6-0.5 2.7 0.9 3 1.1 3.8 0.6 2.6-2.7 2.9-2.2 8.2-2 0-2.3 2.9-2.3 3.3-4.2 1.6-3.7 4.5-2.9 5.4-2.8 1.1-1.7 3.5-5.3 4.2z"/>
  <path class="cls-7" d="m63.3 93.1c0.3 6.6 9.1 7.8 13.1 7.3 4.3-0.4 10.3-2.4 8.7-4.9-2.4-2-4.7-0.4-5.8 0.5-0.9-2-2.9-1.3-3.7-0.5-2-0.9-4-2.9-6.5 0.3-2.2-1.8-2.7 0.6-4.7-1.1l-1.1-1.6z"/>
  <path class="cls-7" d="m62.4 46.8c-2.8 0-2.4 1.8-5.1 2.8 1.1 3.4-2.9 5-4 5-0.2 2.8-2.9 2.8-3.3 2.6-1.6 2-4.5 4-3.6 6.7-1.3-3.3-0.9-6.5 1.1-8.9 1.8-2.4 4.9-5.8 5.4-6.4 2-1.4 6.7-5 9.1-3.2l0.4 0.5v0.9z"/>
  <path class="cls-1" d="m55.6 66.1c0.4 2.5-1.6 5.1-2 5.1 0.8 1.4 2.8 0.7 2.8 0.7 1.2 1.3 6.9 2.1 6.9 2.1l3.6-3.2-3.6-1.1c-2.9-0.8-5.7-4-6.4-4.3l-1.3 0.7z"/>
  <path class="cls-13" d="m55.1 66.1c0.5 3.6-1.8 5.1-1.8 5.1l0.5 1.7-0.7 0.3c-2.4 2.2-2.2 4.3-2.2 6.5 0.2 3.8 1.5 6.9 1.5 6.9-3.7 0.9-8.8 0.5-9.8-2.9l0.1-2.1c-2.3-1.9-1.6-4.1-1.6-4.1-1.1-0.9-0.7-2.6-0.7-2.6l0.7-2v-1h0.5c-1.2-2.2 0.8-4.7 1.7-5.3l0.3-1.2c1.1-1.7 2-2 2.8-2 1.2 2 2.9 4.1 4.9 5l3.8-2.3z"/>
  <path class="cls-13" d="m53.6 80c3.3 0.9 7.1 0.6 9.7-0.3l1.1-5.7-4.8-1.4-3.2-2.9-2.8 3.2c-2.3 2.8 0.8 4.6 0 7.1z"/>
  <path class="cls-7" d="m88 46.6c2.7 0 2.7 2 5.1 3-0.9 3.8 3.8 5 4.2 5.4 0.7 3.1 3.1 2.4 3.1 2.4 2.9 2.3 3.6 4 3.8 5.8 1.6-3.5-0.6-7.5-1.7-8.6-2.1-4-6.9-7.4-9.6-8.7-2.2-1.3-4.9-0.7-5.1-0.3l0.2 1z"/>
  <path class="cls-13" d="m88.7 71.9c2.9 0 7.7 0 9.1 1.8 1.3 1.7-1.4 3.8-1.8 4.7-0.7 1.6-0.4 3.8-0.4 3.8l-0.9 4.4-1.4-2c-1.5-2.2-4.6-3.7-6.4-3.7l-1.3-5.2 3.1-3.8z"/>
  <path class="cls-7" d="m102.9 86c1.5 1.5 0.4 4.4-0.9 5.1l-1.6 1.5c-3.3-1-3.7 2.9-3.7 3.1-3.6 0.7-3.4 2.9-3.4 4-1.7 2.3-4.2 4.7-6 5 5.4 0 6.9-1 7.8-2.7 3.6 0 3.8-2.9 4-2.9 2.9-0.5 3.3-4 2.9-4.9 2.4-0.5 3.1-3.6 2.4-6.2l-1.5-2z"/>
  <path class="cls-9" d="m62.4 53c-6.8 2.4-10 9.4-11 14.5-0.3 5.4 3.5 4.4 4.2 0v-1.4c2 0 2.2-2 2.2-2.9 0.6-1.1 5.3-0.8 3.8-5.8 2.8-0.8 2.8-2.8 3.5-3 1.3-0.7 2.2 0.6 4-1 2.5 3.2 5.3 1.2 6.5 0.3 2.8 1.7 3.1-0.3 3.1-0.3v-0.5c-2.3-1.3-9.6-1.5-15.1-0.3l-1.2 0.4z"/>
  <path class="cls-14" d="m77.6 53.4"/>
  <path class="cls-15" d="m75.1 60.6c-1.1 0-1.3 2-1.3 2-0.5-2-1.4-2-1.4-1.7l-0.6 0.3-0.5 2c-1.3-2-2.4-1.5-2.4-0.4l0.2 1.3c-1.8-2-2.7-0.9-2.4 0l0.4 1.6c-2.2-2-3.1-1.1-2.4 0.4l0.9 1.1c-2.3-1.5-3.2-0.3-2.5 0.8l0.9 1.2c-2.4-0.8-2.7 0.8-1.6 1.6l1.2 0.6c-2.7-0.2-2.7 1-2 1l-0.3 0.2c-0.4 1.1 1.1 1.4 1.8 1.6-2 0-2.7 1.5-1.1 2l0.9 0.2c-2.5 0.7-2 2-1.6 1.6l-0.2 0.4c0.5 0.7 1.8 0.5 2.2 0.5-2 1.1-1.7 2.2-0.9 2.2h1.6c-1.6 1.5-0.7 2-0.7 2.4 0.3 0.2 1.4 0 2.3-0.4-1.4 2.4-0.5 2.9 0.8 2.4l0.9-0.9c-1.5 2.3-0.4 2.9 0.3 2.5h0.6l1.1-1.1c-0.9 2.6 0.3 2.6 1.1 2.4l0.9-1.3c0.3 2.6 1.1 2 1.1 2l0.3 0.2c0.6 0 0.9-1.3 0.9-1.8 0.4 2.5 2 2.5 2.4 0.9l0.2-0.9c0.5 2.2 1.4 1.8 1.4 1.6h0.6c0.5-0.5 0.2-2.2 0.2-2.2 0.9 2.2 2.7 1.7 2.3 0l-0.3-0.9c2 2.4 2-0.5 1.6-1.4 2.4 2.3 3.8 0.5 2.4-1.1 2.5 1.1 3.2-0.6 1.6-2.4 2.4 1.1 3.1-1.1 0.9-2.2 2.7 0.2 2.7-0.9 2.2-0.9l0.2-0.5c0-0.6-1.3-1.3-2.4-1.3 2.7 0 2.9-1.8 1.5-2l-1.1-0.5 1.4-0.8 0.2-0.5-0.2-0.2 0.2-0.3c-0.2-0.7-1.6-0.5-2.2-0.5 2.2-1.4 1.7-2.8-0.3-2.5l-0.6 0.3 1.1-1.5v-0.8c-0.5-0.8-2-0.3-1.8-0.3l-0.7 0.6 0.9-1.5-0.2-1.1c-0.7-0.5-2.4 0.8-2.4 0.8l0.4-1.5-0.4-1.1c-1.1 0-2 1.3-2 1.3l0.2-1.7-0.5-0.7c-1.3-0.5-2 1.5-2 1.5 0-2.6-1.7-2.8-2.2-0.6l-0.2 0.2s0-2.2-0.9-2.2z"/>
  <path class="cls-16" d="m75.1 63.4c-1.3 0-1.3 2.7-1.3 3.2-0.9-3.8-2.7-2.5-2.5-1.2l0.3 1.5c-2.5-3.5-3.6-2.3-2.7-0.3l1.1 1.1-2.4-1.3c-1.4 0-1.2 1.6 0 2.8-3.2-1.7-3.4 0.5-1.2 1.6l1.2 0.6-2.5-0.2c-1.8 0.2-1.5 2 1.1 2.5l-1.8 0.5c-2 0.4-1.1 2.2 1.2 2h1.1l-2.3 0.7c-1.5 1.5 0.7 2.2 2.3 1.7l-1.8 1.4c-0.5 2.4 1.8 1.6 3.1 0.4l-1.6 2c0.3 2.7 2.7 0.7 2.9 0l-0.6 2c0 2 2.4 1.1 2.9-0.9l-0.3 2c0.3 2 2.3 1.4 2.5-1.1l0.2 1.6c0.9 2.6 2.2 0.9 2-1.4 0.9 2.9 3.1 2.5 2.4-1.1 1.6 2.9 3.6 2 2-1.1 2.5 2.7 3.6 1.1 2.7 0l-1.1-1.8c2.9 2 3.8 0.3 3.1-0.2l-1.8-2c2.9 1.3 3.8-0.4 2.3-1.5l-2-0.7h2c2.2-0.5 1.1-2.2-1.2-2.2l1.2-0.8c1.7-1 0.2-2.4-2.3-1.8l1.4-1c1.7-2-0.7-2.4-2.3-0.7l0.9-1.7c1.1-2.3-0.9-2.3-2.4-0.3l0.4-1.6c0-2.4-2.2-1.5-3.1 0.5l0.5-2.2c-0.5-1.8-2.3-1-2.5 2.2 0.2-3.2-0.6-3.2-1.1-3.2z"/>
  <path class="cls-17" d="m75.1 69.6c-1.1 0-1.3 1.6-1.3 1.6-0.9-2.8-2.9-2.8-2.5-0.8l1.1 2-1.1-0.5-0.6 1.8-1.6-1.3 0.2-1-1.7-1-0.5 2h-0.4l0.2 1.6 1.5 0.4 4.9-0.2-1.7-1.8h0.8l0.9 1.3h1.1v-0.5h0.3l-0.3-0.8 2-2.4c0-0.3-0.8-0.8-1.3-0.4zm1.3-3-0.4 3.8 0.7 1 0.9 0.5-0.9-0.7c1.5-3.7 3.3-2.3 1.7 0.2l-0.8 1 2-1 1.1-1.4-0.3-1.6-1.5 0.8 0.4-2-0.9-0.3-0.8 0.6v-0.9h-1.2zm5.2 4.6-1.2 0.7v0.7l-1.1 1.1-2.9 0.3 1.2-2.1h1.3l0.4 0.5 1.1-0.5v-1.1l1.6-0.8v1.4l-0.4-0.2zm-14.7 5.2-0.5 1.1 0.5 1.1 1.5 0.5v-0.7l0.9-0.4v-0.5l1.4-0.6-0.3-0.5h-3.5zm9.8-0.2 1.7 0.4 1.2-0.4v0.7l0.8 0.6-0.4 0.9-1.6-0.4v-1.1l-1.7-0.7zm-3.1 0.2-2 0.2-0.9 0.3 0.9 1.5h1.1l0.9-2zm5.7 2.2h-0.9l0.9 1.8 1.4 1.2v-1h-0.3l1.2 0.5 0.4-1.1-1.3-1.4-0.3 0.3v-0.9l-1.1 0.6zm-7.7 0.3-1.2 1.5-1.3 0.7 0.9 0.5 0.4-0.5v2l1.2-0.7 0.8 1.1h1.2l0.2-1.1v-2.4l-0.5 0.6-0.9 1c-2.8 0 0-3.2 0-3.2l-0.8 0.5zm4.4 1.1-0.4 0.4-0.5 0.2-0.7-0.6v3.5l2 0.5 1.2-0.5 0.8-0.4 0.7-0.2-0.2-1.8-0.5 0.5h-0.8l-1.2-1.6h-0.4z"/>
  <path class="cls-16" d="m75.3 77.5c-0.9 2.2-2.6 2.5-1.5 3.6 2.2 1.5 2.6-2 1.5-3.6zm0-4.1c0.3-2.2 2.3-2.6 0.9-3-1.8-0.7-2.2 2-0.9 3z"/>
</svg>