<svg xmlns="http://www.w3.org/2000/svg" viewBox="0 0 150 150">
<!-- SVG created with Arrow, by QuiverAI (https://quiver.ai) -->
  <style type="text/css">.cls-0 {fill:#8D2A0E;}
.cls-1 {fill:#7F260C;}
.cls-2 {fill:#942E0E;}
.cls-3 {fill:#85280D;}
.cls-4 {fill:#8B290D;}
.cls-5 {fill:#2B281D;}</style>
  <path class="cls-0" d="m141 55.4c-2.6-8.4-8.7-19.7-17.4-24.4-4.6-2.5-10.7-3.5-16.7 1.1 1.5-2.2 1.8-4.4 1.6-7.1-0.7-7.4-11-17.9-33.5-18-22.4-0.1-33.9 10.1-33.7 19.5 0 1.8 0.5 3.7 1.6 5.6-3.1-2.4-5.8-3.6-9.8-3.4-8.8 0.6-19 10.7-24.1 26.7-2.8 8.8-3.7 20.9 0 29.7 2.7 5.8 7.3 8.9 13.7 8.3-3.7 1.7-7.2 5.5-7.2 11.6-0.1 8.6 6.7 19.5 17.8 28.3 7.4 5.3 16.3 9.6 26.4 9.6 9.2 0 15.1-4.8 15.3-11.4 0.2 5.2 4.7 11.4 14.9 11.4 8.4 0.2 17.7-3.1 26.7-9.2 9-6.3 18-17.7 18-28.1 0-5.2-2.3-9.6-7.3-12.2 8.2 0.7 13.5-5 15.5-12.8 1.1-5.4 1.5-15.3-1.8-25.2z"/>
  <path class="cls-1" d="m106.9 32.1c1.5-2.2 1.8-4.4 1.6-7.1-0.6-7.4-10.7-18.1-33.5-18.1v63.1l66-14.6c-2.6-8.4-8.7-19.7-17.4-24.4-4.6-2.5-10.7-3.5-16.7 1.1z"/>
  <path class="cls-2" d="m90.8 70.9 50.2-15.5c2.6 8.1 3.1 17.1 1.6 24.5-1.8 8-7.1 14.4-15.5 13.5 4.3 2 7.5 5.9 7.5 11.8 0 9-7.7 21.1-18 28.3l-32.5-45.3 6.7-17.3z"/>
  <path class="cls-3" d="m42.9 32c-1.1-1.8-1.6-3.7-1.6-5.5-0.2-9.3 12-19.6 33.7-19.6v64l-66-15.5c3.8-12.3 12.8-25 22.4-26.6 4.2-0.6 7.8 0.2 11.5 3.2z"/>
  <path class="cls-4" d="m33.3 133.5 32.5-45.1-6.5-17.5-50.4-15.5c-2.7 8.8-3.6 20.9 0.1 29.7 2.7 5.8 7.3 9 13.7 8.3-3.7 1.7-7.2 5.5-7.2 11.3-0.1 8.9 6.7 20.1 17.8 28.8z"/>
  <path class="cls-1" d="m33.3 133.5 32.5-45.3h18.3l32.5 45.3c-7.5 5.1-16.3 9.3-25.8 9.4-10.4 0.2-15.6-5.1-15.8-11.4-0.2 5.9-5.3 11.4-14.8 11.4-7.6 0.2-18-3.1-26.9-9.4z"/>
  <path class="cls-5" d="m75 58.6c-8.3 0-16.2 7.1-16.2 16.4s6.6 16.1 16.3 16.1c9 0 16.1-7 16.1-15.9 0-8.4-7.1-16.6-16.2-16.6z"/>
</svg>