<svg xmlns="http://www.w3.org/2000/svg" viewBox="0 0 150 150">
<!-- SVG created with Arrow, by QuiverAI (https://quiver.ai) -->
  <style type="text/css">.cls-0 {fill:#9A3416;}
.cls-1 {fill:#7C280D;}
.cls-2 {fill:#6B1F09;}
.cls-3 {fill:#671E09;}
.cls-4 {fill:#2B271C;}
.cls-5 {fill:#463821;}</style>
  <path class="cls-0" d="m75 8c-4.8 3.9-9.6 4.9-16 7.2-5.5 2-11.5 5.2-14.4 10.8-1.8 3.6-2.3 7.8-0.1 11.5l23.3 30.9 4.9-2.5 2.3-57.9z"/>
  <path class="cls-1" d="m105.5 24.5c-2.9-4.1-7.7-7-14.4-9.2-6.3-2-12-3.7-16.1-7.3l-2.3 58h5.1l27.7-28.5c2.4-3.9 2-8.9 0-13z"/>
  <path class="cls-1" d="m44.9 37.5c-3-3.1-7.3-4.3-12.2-3.3-9.2 2-13.5 9.7-18.6 15.8-1.7 2-4 4.8-7.3 6.8l57.1 16.1 3.9-4.5-22.9-30.9z"/>
  <path class="cls-0" d="m6.9 56.8c1.8 4.7 1.5 10.3 1.5 16.2 0.1 6.4 1.1 13.6 6.5 18.2 2.7 2.2 6.5 4.3 11 3.3l37.9-12.3v-5.3l-56.9-20.1z"/>
  <path class="cls-1" d="m25.9 94.5c-3.3 1.5-5.5 4.9-6.9 9.3-1.9 11.1 7.6 19.1 12 28.2 0.9 1.6 1.5 3.4 1.9 5.5l33.6-51.1-2.7-4.2-37.9 12.3z"/>
  <path class="cls-0" d="m32.9 137.5c8.5-1 15.9 3.9 25.9 4.4 4.6 0.1 9-0.7 12.1-3.3 2.9-2.2 4.1-4.8 4.1-8.6v-40.6l-5.2-0.9-36.9 49z"/>
  <path class="cls-1" d="m75 89.4v40.6c0.2 3.5 1.9 6.4 5 8.6 3.1 2.5 6.9 3.3 10.9 3.2 8.6 0 16-4.6 26.2-4.3l-36.9-49-5.2 0.9z"/>
  <path class="cls-0" d="m123.9 94.4-37.5-12.3-2.9 4.3 33.6 51.1c2.4-9.3 12.8-17.1 14.3-27.5 0.6-4.9-1-10.9-6-15l-1.5-0.6z"/>
  <path class="cls-1" d="m143.1 56.8-56 16.1-0.7 9.2 37.5 12.3c4.2 0.7 7.3-0.6 10.2-2.8 5.4-4.4 7.4-10.7 7.3-18.7 0-5.8-0.3-11.3 1.7-16.1z"/>
  <path class="cls-0" d="m135.9 50c-4.4-5.1-9.3-13.5-17-15.4-4.3-1.2-10-1-13.4 2.9l-23.4 30.5 4.3 4.9 56.7-16.1c-2.6-1.4-5.2-4.2-7.2-6.8z"/>
  <path class="cls-2" d="m6.9 56.8 56.9 16.1-1 4.1-55.9-20.2z"/>
  <path class="cls-3" d="m32.9 137.5 33.6-51.1 3.5 2.1-37.1 49z"/>
  <path class="cls-2" d="m75 8 2.1 58.8-4.4-0.4 2.3-58.4z"/>
  <path class="cls-3" d="m80 88.5 3.5-2.1 33.6 51.1-37.1-49z"/>
  <path class="cls-3" d="m87.1 77-0.7-4.1 56.7-16.1-56 20.2z"/>
  <path class="cls-4" d="m75 65.5c-6.4 0-12.2 5.1-12.3 12.4 0 6.5 4.9 12 12.3 12.1 6.5 0.1 12.1-4.9 12.2-11.9 0-6.5-5.2-12.5-12.2-12.6z"/>
  <path class="cls-5" d="m75 73.8c-2.1 0-4.3 1.8-4.3 4.1s1.7 4.1 4.2 4.1c2.2 0.1 4-1.6 4-4.1 0-2.3-1.8-4.1-3.9-4.1z"/>
</svg>