<svg xmlns="http://www.w3.org/2000/svg" viewBox="0 0 96 96">
<!-- SVG created with Arrow, by QuiverAI (https://quiver.ai) -->
  <style type="text/css">.cls-0 {fill:#DD4405;}
.cls-1 {fill:#FFFAF0;}</style>
  <path class="cls-0" d="m83.9 38.7 0.1-0.1c3.9-3.2 5.4-4.2 5.1-6.3-0.2-1.4-3.2-4.5-5.4-6.3-2.1-1.8-4.7-3.4-7.4-3.4-2.9 0-6.2 1.5-9.1 4.2-1.9 1.8-8.7 9.5-13.4 15 3.5-5.4 9.3-14.2 10.4-16.4 1.7-3.3 2.6-7.4 1.4-10.5-1.2-2.9-4.5-5.4-7.6-6.9-2.5-1.3-4.8-2.4-6.2-2-1.9 0.5-2.4 3.1-3.9 6.5-1.3-2.9-2-6.2-4-6.5-1.4-0.2-3.8 0.9-6.2 2.2-3 1.7-6.2 4.1-7.3 7-1.2 3.1-0.2 7.2 1.5 10.4 1.2 2.3 6 9.9 10.2 16.1-4.6-5.3-11.4-13.1-13.3-15-2.8-2.6-6-4.2-9-4.2-2.7 0.1-5.3 1.5-7.4 3.2-2.1 1.8-5.2 5-5.6 6.4-0.6 2.2 1.6 3.3 5.3 6.4v0.2l-2 0.2c-4.6 0.2-6 0.5-6 3.5s1.5 12.2 6.3 14.2c2 1 5 1.4 8.5 0.8 3.7-0.7 12.7-3.1 20.3-5.3-6.5 2.7-15.5 6.4-18.6 7.9-4.5 2.3-7.5 5.8-7.6 9.5-0.1 3.8 1.7 7.7 3.4 10.8 2.1 3.5 3.3 4.2 6.7 2l3.1-2.1h0.1c-0.7 3.7-2.1 7.1 0.3 8.5 1.5 0.8 9.3 2.4 13.9 0.2 3.6-1.7 5.4-5.5 6-11 0.4-3.8 1-12.7 1.4-19.7h0.1c0.5 7 0.9 15.9 1.5 20.2 0.8 5.5 3.1 9.2 6.2 10.5 3.7 1.7 9.4 1.2 12.7 0.4 2.5-0.5 2.9-1.7 2.5-4.3l-1.2-4.9 3.2 2.1c3.5 2.2 4.7 2 6.3-0.6s4.2-8 3.9-12c-0.3-3.7-3.6-7.2-7.7-9.3-3.1-1.6-12-5.2-18.6-8.2 7.6 2 16.6 4.6 20.3 5.4 3.5 0.6 6.5 0.2 8.5-0.8 4.5-2.4 6-9.3 6.2-14 0.1-3.3-1.5-3.6-5.7-3.8l-2.2-0.2z"/>
  <path class="cls-1" d="m48 39.7c-4.8 0-9.3 3.8-9.3 9.3 0 4.9 3.9 9.1 9.3 9.2 5 0.1 9.3-3.9 9.3-9.1 0-5.1-4.1-9.4-9.3-9.4zm-0.1 14.2c-2.5 0-4.9-1.9-4.9-4.9 0-2.5 2-5 4.9-5 2.7 0 4.9 2 4.9 5 0 2.6-2 4.9-4.9 4.9z"/>
</svg>