<svg xmlns="http://www.w3.org/2000/svg" viewBox="0 0 150 150">
<!-- SVG created with Arrow, by QuiverAI (https://quiver.ai) -->
  <style type="text/css">.cls-0 {fill:url(#SVGID_1_);}
.cls-1 {fill:#E6B41A;}
.cls-2 {fill:#FEF9ED;}
.cls-3 {fill:#FFFDF3;}</style>
  <linearGradient id="SVGID_1_" x1="74.88" x2="74.03" y1="65.38" y2="9.986" gradientUnits="userSpaceOnUse">
    <stop stop-color="#FAE6BB" offset="0"/>
    <stop stop-color="#FCF5EA" offset="1"/>
  </linearGradient>
  <path class="cls-0" d="m74.1 10.3c-9.2 1.8-23.5 11.9-23.5 31.7 0.6 13.7 7.8 31.3 24.4 36.6 12.8-5.5 22-19.5 21.9-37.6 0-13.4-9.5-27.5-22.8-30.7z"/>
  <radialGradient id="SVGID_00000044884541472201043460000003928977584786508601_" cx="75.08" cy="78.14" r="20.48" fx="74.66" fy="88.91" gradientUnits="userSpaceOnUse">
    <stop stop-color="#DA9528" offset="0"/>
    <stop stop-color="#E6B41A" offset=".7247"/>
  </radialGradient>
  <path d="m95.5 78.1c0 10.3-8.7 19.9-20.4 19.9s-20.6-8.1-20.6-19.9 8-19.9 19.8-20.6c11.3-0.4 21.8 10.3 21.2 20.6z" fill="url(#SVGID_00000044884541472201043460000003928977584786508601_)"/>
  <linearGradient id="SVGID_00000029757888159957420890000001584919257448651539_" x1="50.05" x2="12.37" y1="58.04" y2="83.5" gradientUnits="userSpaceOnUse">
    <stop stop-color="#FBEBCE" offset="0"/>
    <stop stop-color="#FCF5EC" offset="1"/>
  </linearGradient>
  <path d="m51.6 48.9c-4.9-2.6-12.8-5.3-21.6-4.5-7.8 0.8-17.4 4.9-22.8 15.4 0.3 15.8 11.6 30.1 31 31.9 9 0.8 19.3-1.1 23.8-3.7l-2.9-22.6c-2.8-3.4-6.2-10.4-7.5-16.5z" fill="url(#SVGID_00000029757888159957420890000001584919257448651539_)"/>
  <linearGradient id="SVGID_00000029021408131300089090000007486651722946401531_" x1="39.93" x2="61.49" y1="91.28" y2="135.8" gradientUnits="userSpaceOnUse">
    <stop stop-color="#FBEBD1" offset="0"/>
    <stop stop-color="#FCF5EC" offset="1"/>
  </linearGradient>
  <path d="m40.7 91.8c-6.1 4.7-13.9 13.7-14 26.2 0 6.6 2.7 14.6 7.5 19.6 5.4 1.8 13.8 3 22.1-0.3 8.4-3.3 16.9-10.1 19.9-19.8l1.2-19.7c-6.3 0.6-14.5-0.7-19.4-8.6-4.5 1.4-10.1 2.7-17.3 2.6z" fill="url(#SVGID_00000029021408131300089090000007486651722946401531_)"/>
  <linearGradient id="SVGID_00000106130077687360733200000004567873965118582273_" x1="75.74" x2="124.4" y1="118" y2="96.05" gradientUnits="userSpaceOnUse">
    <stop stop-color="#FBEECF" offset="0"/>
    <stop stop-color="#FCF5EC" offset="1"/>
  </linearGradient>
  <path d="m76.1 117.5c5.7 13.6 20.6 24.7 40.7 20.6 0.9-0.2 1.3-0.7 1.6-1.1 3.7-4.7 6-10.6 6-18 0-9.7-5.5-21.3-11.3-27.5l-17.7-10.3-15.4 16.1c0 6.6-1.6 14.3-3.9 19.2v1z" fill="url(#SVGID_00000106130077687360733200000004567873965118582273_)"/>
  <linearGradient id="SVGID_00000003102306660731430690000003230208710614742792_" x1="85.51" x2="142.8" y1="66.01" y2="71.94" gradientUnits="userSpaceOnUse">
    <stop stop-color="#F8DEAE" offset="0"/>
    <stop stop-color="#FCF5EC" offset="1"/>
  </linearGradient>
  <path d="m86.1 60.6c6-5.6 17.3-14.9 32.3-16.4 9.2 0.4 19 5.4 24.4 15.7 0.3 15.8-12.2 30-29.7 31.6-4.2-4.6-11.4-8.9-17.7-11.3l0.1-5.3-6-11.4-3.4-2.9z" fill="url(#SVGID_00000003102306660731430690000003230208710614742792_)"/>
  <path class="cls-3" d="m75 77.9c1.2-9.5 8.4-20.8 20.9-27.7l0.2-1.5c-7.2 3.4-18.7 12.4-21.1 29.2z"/>
  <path class="cls-2" d="m75 77.9c-5.9-2-17.9-12.3-21.6-28.8-2.5-1.3-2.8-0.2-2.8-0.2 2.3 10.5 10.5 24 24.3 29h0.1z"/>
  <path class="cls-3" d="m74.9 77.9c-6.5 5.5-21.5 12-38.3 10.5-13-1-22-6-25.5-12.5 5.1 8.6 14.8 15.6 28.8 16 15 0.5 29.7-5.8 35-14z"/>
  <path class="cls-2" d="m74.9 77.9c4.7 8.7 5.3 29.2-4.9 45.5-4.6 7.5-10.1 12.1-15.5 14.4 11.1-2.9 23.6-13.7 25.5-34.7 0.9-9.1-1.1-19.6-5.1-25.2z"/>
  <path class="cls-3" d="m75 77.9c9.1-0.8 23.4 0.5 36.4 11.5 8.2 7.2 12.2 17.2 13 26.2-1-11.9-7.5-21.2-11.4-24.6-6.6-6.6-19.6-14.6-33.4-13.5l-4.6 0.4z"/>
  <path class="cls-2" d="m86.1 60.6c7.3-6.7 19-14.5 33-15 4.3-0.1 7.9 0.5 10.8 1.5-4.4-1.7-8.5-3-14.3-3-8.1 0-16 2.3-19.7 4.5l-9.8 12z"/>
  <path class="cls-2" d="m58.1 21.4c-4 5.2-7.6 11.7-7.5 21l2.9 8.1c-1.6-12.1-0.1-21.6 4.6-29.1z"/>
</svg>