<svg xmlns="http://www.w3.org/2000/svg" viewBox="0 0 150 150">
<!-- SVG created with Arrow, by QuiverAI (https://quiver.ai) -->
  <style type="text/css">.cls-0 {fill:#E44106;}
.cls-1 {fill:#FC5000;}
.cls-2 {fill:#F95108;}
.cls-3 {fill:#27271D;}</style>
  <path class="cls-0" d="m141.8 54.6c-0.8-1.2-17.2-25.7-20.3-27.2-2.9 0.6-7.6 2.4-14.4 5.5 0.6-4.6 1.2-10.5 0.9-15.3-6.3-3-23.4-8.9-32.9-11-8 1.6-21.5 5.9-33.2 10.9-0.4 3.9 0.2 10.5 0.8 15.4-4.8-2.1-9.6-4.2-14.3-5.5-1.7 1.3-14.6 17.3-20.3 27.1-0.9 8.8-0.7 23 0.6 34.1 3.4 1.3 8.8 2.6 15 3.6-3.8 3.9-8.1 8.6-10.2 12 2.9 6.1 12.2 20.1 19.6 29.3 6.3 2.4 20.7 7.4 33.7 9.8 2.7-3.4 5.7-8.5 8.3-13.1h0.1c2.3 4.4 5.3 9.4 7.9 13 10.4-1.6 24.4-6.3 33.7-9.7 5.9-6.9 14.5-19.1 19.8-29.2-1.7-2.8-5.9-7.6-10.3-12.1 4.8-0.7 9.9-1.8 14.9-3.5 1.5-12.1 1.3-26.3 0.6-34.1z"/>
  <path class="cls-1" d="m76.8 66.6c1.8-6.4 5.2-15.7 10-23.5 1.5-1 11.8-6.5 20.4-10.2h0.1c-1.1 8.2-4.1 20.5-4.9 22.2-5.3 6.4-13.9 11.9-19.7 15.7l-5.9-4.2z"/>
  <path class="cls-1" d="m73.1 66.6c-1.7-6.1-5.2-15.5-9.8-23.4-1.5-1.1-11.1-6.4-20.6-10.3 1.1 8.2 3.9 19.7 4.8 22.1 4.6 5.9 13.7 12 19.4 15.8l6.2-4.2z"/>
  <path class="cls-2" d="m23.6 92.2c6.1-6.1 12.8-11.8 17.8-15.6 4.2-1.3 14.4-2.8 25-2.1l2.2 6.6c-5 3.9-14.4 10.4-21.3 13.3-4.6 0-13.9-0.6-23.7-2.2z"/>
  <path class="cls-2" d="m83.7 74.5c7.4-0.4 17.2-0.1 24.9 2 3.6 2.8 10.2 8.7 17.7 15.7-6.7 1-15.1 2.1-23.6 2.2-5-1.8-14.6-7.8-21.3-13.2l2.3-6.7z"/>
  <path class="cls-2" d="m71.4 83.2c-2.8 6.7-6.1 17.3-6.2 24.3 1.2 4.6 6.4 15.4 9.9 22.6 3.5-6.5 8.6-17.9 9.5-22.5-0.4-6.5-3-16.4-6.5-24.4h-6.7z"/>
  <path class="cls-3" d="m74.8 65.4c1.1-0.2 2.1 1.2 3.1 1.4 1 0.3 2.2-0.3 2.8 0.4 0.9 0.7 0.5 2 1.4 3 0.8 0.9 2.1 1.2 2.1 2.4 0.2 1-0.7 2-0.6 2.9 0.1 1 0.9 2 0.4 3s-1.6 1.1-2.3 2.3c-0.6 0.8-0.3 2.1-1.6 2.4-0.7 0.3-2-0.1-2.6 0.3-0.9 0.2-1.6 1.1-2.4 1.1-1.2 0-1.7-1.1-2.7-1.2-1-0.4-2.2 0.2-3-0.4-1-0.5-0.8-1.9-1.5-2.6-0.7-0.9-2-1.3-2.3-2.4-0.2-1 0.6-1.9 0.6-2.8-0.1-1-0.8-2-0.6-2.8 0.3-1 1.5-1.4 2.1-2 0.8-0.8 0.5-2.7 1.8-3.4 0.7-0.3 2.1 0.1 2.9-0.2 0.8-0.2 1.6-1.3 2.4-1.4z"/>
</svg>