<svg xmlns="http://www.w3.org/2000/svg" viewBox="6 15.4 88 79">
<!-- SVG created with Arrow, by QuiverAI (https://quiver.ai) -->
  <style type="text/css">.cls-0 {fill:#E3420A;}
.cls-1 {fill:#F44500;}
.cls-2 {fill:#FB4D00;}
.cls-3 {fill:#FA5400;}
.cls-4 {fill:#E3400B;}
.cls-5 {fill:#EAAC05;}</style>
  <path class="cls-0" d="m50 18.8c-2.2-1.1-4.9-2-7.6-2.1-4.8-0.1-7.9 3.2-9.6 7-4.3 9.6 3.9 21.6 11.8 27.3l7.9-2.1c2.3-6.1 9.1-13.2 15.2-16.8 0.8-3.6 0.3-7-1.6-10.1-1.6-2.5-4-5.3-8.2-5.3-2.5 0-5.4 0.9-7.9 2.1z"/>
  <path class="cls-1" d="m14.3 44.7c-0.4-5.6 0.2-10.8 5.9-13.2 3.3-1.3 7.5-1.7 11.8 0.2 1.5 7.1 6.7 14.2 12.6 19l-1.1 5.1-22 8.9c-6.3-0.3-11.4-5.1-11.6-10.3-0.1-3.1 2.1-6.4 4.4-9.4v-0.3z"/>
  <path class="cls-2" d="m52.5 48.9c2.1-5 8.2-13.7 15.4-17 2-0.8 3.5-1.6 6.7-1.6s6.9 1 8.8 3c2.5 2.7 2.8 6.8 2.4 11.3 2.1 2.4 4.3 5.8 4.3 9.1 0 5-5.1 10.4-11.6 11.1l-22-8.8-4-7.1z"/>
  <path class="cls-3" d="m43.2 55.8c-5.6 0.4-14.1 2.8-19.9 7.3-3.9 3-6.5 7.3-6.1 13 0.6 5.5 5.4 8 11.1 9.2 2.6 4.3 5.6 7.6 9.8 7.6 4.3 0.1 9.5-2.6 11.8-7.5 3.2-6.3 3.7-16.3 1.6-24.4l-8.3-5.2z"/>
  <path class="cls-4" d="m56.7 55.8c5.1 0.4 12.9 2.4 18.4 6.2 4 2.7 7.5 6.6 7.8 12.6 0 6-4 9-11 10.5-2.4 4.1-5.4 7.8-10 7.8-4 0-8.8-2-11.8-7.5 3-6.3 3.5-16.3 1.5-24l5.1-5.6z"/>
  <path class="cls-5" d="m56.7 54.9c0 3.5-2.7 6.6-6.7 6.6s-6.8-2.9-6.8-6.5c-0.1-3.4 2.7-6.8 6.7-6.9 3.7 0 6.8 2.9 6.8 6.8z"/>
</svg>