<svg xmlns="http://www.w3.org/2000/svg" viewBox="0 0 150 150">
<!-- SVG created with Arrow, by QuiverAI (https://quiver.ai) -->
  <style type="text/css">.cls-0 {fill:#4F5253;}
.cls-1 {opacity:0.6;fill:#595B5D;}
.cls-2 {fill:#E8400A;}
.cls-3 {fill:#FF4700;}
.cls-4 {fill:#FF5C1A;}
.cls-5 {fill:#FF6222;}
.cls-6 {fill:#CE8A09;}
.cls-7 {fill:#DD9C08;}
.cls-8 {fill:none;}
.cls-9 {fill:#CC8B09;}</style>
  
  
  <path class="cls-4" d="m75 21.7c-1.7 0.6-4.4-0.5-6.1-1.6s-1.8-0.7-3.9-0.1-4.9 0.5-5.7 1.1c-1.1 1.2-2.2 3.9-6.3 6.2-2.1 1.2-2.5 1.7-3 4.7-0.4 2.6-1 7.1-0.9 8 1.2 7.8 13.8 19.7 25.9 19.7s18.7-11 18.7-19.5c-2.5-2.3-6.4-2.6-6.4-2.6l-12.3-15.9z"/>
  <path class="cls-5" d="m89.9 20.6c-2.7-0.2-6.5-1.6-7.7-1.1s-3.1 2.5-7.2 2.2v15.9l13.4-0.6c2-5.6 2.7-16 2.7-16s-0.4-0.3-1.2-0.4z"/>
  <path class="cls-5" d="m98.2 27.4c-3.8-2-5.5-5-7.1-6.4 0 3.1-2.1 14.7-2.5 16.4 1.8 1 5 2.2 5 2.9 0 1.9-0.1 5.3-0.1 5.3s6.1-4.7 7.5-5.6c0.5-3.1-0.9-9.6-1-10.2s-0.6-1.8-1.8-2.4z"/>
  
  <path class="cls-2" d="m61.1 37.5c-1.4 1-4.2 2.1-4.4 2.7s-0.1 4.4-0.1 4.4l10.1 16.7 12.9 3.9 5.9-11.3 3.3-16.6-27.7 0.2z"/>
  <path class="cls-3" d="m75 28.9c-2.3-0.2-4.2-1.2-6.2 1.3-2.1 2.6-7.6 1.3-7.7 4.6-0.1 1.6 3.7 17 5.7 21.1 4 0 7.1-2.3 8.2-4.9 1.4 2.4 4.6 4.9 8 4.9 1.4-3.3 6.1-19.2 6.1-21.3-1.2-3.2-5.5-1.4-8.1-4.7-1.9-2.2-3.7-1-6-1z"/>
  <path class="cls-5" d="m59.2 20.9c-1.6 1-2.1 3.6-6.7 6.4-2 1.2-2.1 2.3-2.5 4.7-0.4 2.6-1 7.1-0.8 8 1.6 0.5 4.2 1.7 7.4 4.6l5.1-7c-1.4-5.6-2.5-14.5-2.5-16.7z"/>
  <path class="cls-5" d="m49.1 39.8c-2.9-0.9-5.7-1.6-10.7-2.1-1.8-0.1-3.5 2.7-7.9 4.4-2.4 0.9-3 1-3.5 2s-1.9 4.3-3 5.9c-0.8 1.9 0.9 3.9 0 7.1 3.1 0.8 6.9 2 6.9 2l12-8.1 3.6-4.1 2.6-7.1z"/>
  <path class="cls-4" d="m27.5 43.4c-0.8 0.5-2 4.2-3.5 6.6-0.9 1.9 0.9 3.9 0 7.1l6.4 4.4 12.5-10.6c-4.3-2.5-12.7-6.5-15.4-7.5z"/>
  <path class="cls-5" d="m23.4 59.4c-0.5 3.2-4.4 4.7-4.6 6.6-0.2 3.2-1.2 7-0.9 8.1s2.6 4.9 3.1 7 0.6 3 1.5 3.5c2.9 1.9 7 3.8 10.1 4.4l7.5-12.4-9.5-15.1-7.2-2.1z"/>
  <path class="cls-2" d="m17.7 73.9c0.1 1.4 2.8 5.1 3.3 7.2s0.6 3 1.5 3.5c2.9 1.9 7 3.8 10.1 4.4l7.5-4.9-3.6-7.2-18.8-3z"/>
  <path class="cls-5" d="m32.6 89c-2.5 2.6-6.1 9.2-6.1 10.9 0 1.2 2 4.6 2.5 11.5 0.1 1 5.9 5.5 6.5 6.1 1.1 0.6 3.1-0.1 6.9 2.4l9.1-6.8-9.9-14.9-3.1-5.3-5.9-3.9z"/>
  <path class="cls-4" d="m29.1 111.6c0.3 1.3 5.8 5.3 6.4 5.9 1.1 0.6 3.1-0.1 6.9 2.4l5.5-6.7-6.3-13.3c-3.7 2.5-11 10-12.5 11.7z"/>
  <path class="cls-5" d="m42.4 119.9c4.3 2.2 3.3 5.5 5.5 6.6 2.2 0.7 6.1 3.2 7.1 3.4s5.6-1 7.1-1 3.4 0.5 4.1 0.3c1.4-0.3 6.3-4.6 8.8-9.2l-5.5-4.5-6.1-0.6-8.4 15.1-12.6-10.1z"/>
  <path class="cls-4" d="m99.9 40.5c-8 2.6-15.5 15.1-20.3 23.9l3 3.5 24.3-17-6.4-5-0.6-5.4z"/>
  <path class="cls-5" d="m101 39.8c3.6-1.2 6.6-1.7 11.1-2.1 1.8-0.1 3.4 2.2 5.8 3.3 2.3 1.4 4.5 1.6 5 2.6s1.6 3.9 3.1 6.3c0.9 1.8-1.4 3.7 0.6 8.5l-6.7 4-13-11.5-5.9-3v-8.1z"/>
  <path class="cls-4" d="m122.5 43.4c0.7 0.5 1.9 4.2 3.5 6.5 0.9 1.8-0.9 3.7 0.6 8.5l-6.7 3.5-13-11c4.3-2.5 12.8-6.5 15.6-7.5z"/>
  <path class="cls-5" d="m126.6 59.4c0.5 3.2 4.3 4.7 4.5 6.6 0.3 3.2 1.4 7.1 1.1 8.2-0.3 1.2-2.6 4.5-3.1 6.7-0.5 2.1-0.6 3.2-1.5 3.7-2.9 1.9-7.1 3.5-10.2 4.4l-6.8-5.4 5.3-7 6.2-12.5 4.5-4.7z"/>
  <path class="cls-2" d="m132.4 73.9c-0.2 1.3-2.8 4.8-3.3 7-0.5 2.1-0.6 3.2-1.5 3.7-2.9 1.9-7.1 3.5-10.2 4.4l-6.8-5.4 5.8-7 16-2.7z"/>
  <path class="cls-5" d="m117 89c2.5 2.6 6.4 9.2 6.2 10.9 0 1.2-1.8 4.2-2.3 10 0 2.2-0.7 1.7-2.9 4-2.6 2.6-2.6 3.6-4.1 3.6-3.4 0.1-4.8 1.5-6.5 2.5l-9-6.9 9.8-14.9 3.2-5.3 5.6-3.9z"/>
  <path class="cls-4" d="m120.6 111.9c-0.2 1.2-2.4 1.7-4.7 4.7-1.4 1.5-2.3 0.8-3.4 1-2 0.5-3.4 1.4-5.1 2.4l-5.5-6.8 6.3-13.3c3.8 2.5 10.9 10.2 12.4 12z"/>
  <path class="cls-5" d="m107.4 120.1c-3.3 1.8-3.3 5.5-5.3 6.4-2.1 0.7-5.7 3.1-6.7 3.4-1 0.2-5-1-6.5-1s-4.8 0.5-5.5 0.1c-1.3-0.9-6.5-5.5-8.4-9l4.5-4.5 7.1-0.6 8.8 15.1 12-9.9z"/>
  <path class="cls-2" d="m76.9 111.4 3.2 4.1 6.5-0.6 0.3-3.3-8.8-17.5-3.1 1.5 1.9 15.8z"/>
  <path class="cls-4" d="m74 82.6c-1.1 7-4.1 28.8 1 37 5.4-7.2 3-26.5 1.5-37h-2.5z"/>
  <path class="cls-2" d="m72.9 111.4-3.7 4.5-5.8-1-0.3-3.3 6.8-16.7 4 0.7-1 15.8z"/>
  <path class="cls-5" d="m66.2 129.2c1.4-0.3 6.3-4.6 8.8-8.7l-2.1-6.1-3.7 1.5-5.8-1-8.4 15.1c1 0.1 5.6-1.1 7.1-1.1s3.4 0.5 4.1 0.3z"/>
  <path class="cls-2" d="m83.4 129c-1.3-0.9-6.3-5.1-8.4-9l1.9-5.6 3.2 1.1 6.5-0.6 8.8 15.1c-1 0.1-5-1.1-6.5-1.1s-4.8 0.5-5.5 0.1z"/>
  <path class="cls-4" d="m49.1 39.9c0.3 2.1 0.3 3.7 1.5 6.1 3.3 7.6 11 16.4 16.3 21.4l3-2c-4.4-7.5-12.8-22.8-20.8-25.5z"/>
  <path class="cls-2" d="m42.9 50.9 3.2-3.8c1-1.1 2.3-1.1 6.3 1l14.5 19.3-2.5 2-21.5-18.5z"/>
  <path class="cls-3" d="m40.6 49.6c-2.4-1-3.2 0.9-5.2 4.5-1.3 2.3-4.3 1.3-4.8 5.3-1.1 5.5-2.7 5.5-1.2 8.6 1.6 3.1 0 4.6 1 7.6 0.6 2 4.1 1.5 11 2l13.1-0.1c1.4-3.1-0.4-7.6-2-9.3 2.6-0.1 6.5-3.2 6.9-6-4.3-3.6-15.5-10.2-18.8-12.6z"/>
  <path class="cls-2" d="m34.1 76.9c0.4 2.5 0.5 5.5 1.5 5.8 1 0.4 4.3 1.4 4.3 1.4l24.2-7.1 0.3-0.1-9.9 0.6c-7.4 0.1-15 0.1-20.4-0.6z"/>
  <path class="cls-4" d="m32.6 89c5.3-4.9 10.8-7.5 30.3-11.6l1.5-0.5 1.1 3.6c-7.6 3.6-19.6 9.1-27 9.4-1.9 0-5.9-0.9-5.9-0.9z"/>
  <path class="cls-2" d="m42.1 89.5-3.6 3.1c-0.6 1 2.6 5.8 2.6 5.8l16.5-12.3 7.9-5.6c-5.4 2.6-16.4 7.7-23.4 9z"/>
  <path class="cls-3" d="m57.5 86.1c-4.6 3-16.9 12-18.9 15 0 3 3.5 3.3 4.8 9.5 0.5 2.8 3 2.5 5 4.4 3.5 3.1 3.5 1.5 7.1 1.5 2.6 0 5.1 2.4 6.5 1.4 2.1-1.5 8.4-18.8 8.4-22.8-2.8-1.7-6.8-1.7-9.3-0.6 0.4-2.9-1.1-6.6-3.6-8.4z"/>
  <path class="cls-2" d="m86.9 65 3.7-2.9 6 6.3-0.5 9.2-10-0.6-2.2-4.4 3-7.6z"/>
  <path class="cls-3" d="m90.6 62.1c0.8 2.5 3.8 5.3 7 6.1-1.5 1.9-2.7 5.9-1.9 9.3 6.8 0.4 18.2-0.1 23.2-0.9 2.2-1.5 0-5.5 1.7-8.2 1.8-3.8-1.5-6-1.6-9.5-0.4-3.3-3.6-2.9-4.5-4.8-2.1-3.2-2.5-5.7-5.5-4.1-3.1 1.5-15.6 9.1-18.4 12.1z"/>
  <path class="cls-2" d="m109.9 83.9 5-1 1.2-6-20.4 0.6-9.6-0.5 0.8 0.6 23 6.3z"/>
  <path class="cls-4" d="m86.1 77c11.3 1.6 25.9 5.1 31.3 12-6.9 2.6-17.9-1.6-31.9-7.9l0.6-4.1z"/>
  <path class="cls-2" d="m85.5 81.1 7.4 5-1.4 5.8-5.4 2.2-6.7 1-2.5-10 0.2-4 6-1.2 2.4 1.2z"/>
  <path class="cls-3" d="m92.9 86.1c-2.3 1.8-4 5.3-3.8 8.5-2.5-1-6.5-1.2-9.7 0.5 1 4.5 7 21.3 9.2 22.9 1.8 0.9 4.3-1.6 6.8-1.5 3.2 0 3.7 1.4 6.1-0.9 2.6-2.5 5.4-2.5 5.4-5 1-5.7 5-5.7 4.5-9.5-3.3-3.7-14.5-12.5-18.5-15z"/>
  <path class="cls-2" d="m90.6 62.1 16.3-11.2-2.8-4.3c-1-1-5.6 1.5-5.6 1.5l-14.6 18.8 6.7-4.8z"/>
  <path class="cls-2" d="m53.9 68.2 5.5-6 7.5 5.2-2.5 9.5-9.9 0.6c0.9-3.9-0.6-7.1-2-8.9l1.4-0.4z"/>
  <path class="cls-2" d="m69.9 65.4 5.1-1.3 4.6 0.3 3.3 2.5-3.3 7.2-7.7-0.2-5-6.5 3-2z"/>
  <path class="cls-3" d="m88.8 37.4 0.3-2.8c-1.2-3.2-5.5-1.4-8.1-4.7-1.9-2.2-3.7-1-6-1-2.3-0.2-4.2-1.2-6.2 1.3-2.1 2.6-7.6 1.3-7.7 4.6l0.5 2.8 27.2-0.2z"/>
  <path class="cls-2" d="m88.6 37.4c-1.2 5.5-4.5 16.5-5.7 18.5 3-0.3 10.6-11.3 10.6-11.3l0.1-4.4c-1-1.1-5-2.8-5-2.8z"/>
  <path class="cls-4" d="m70.4 95.1 2.5-9 1-3.5h2.6l0.6 2.5 2.3 10s-4.9 1.4-9 0z"/>
  <path class="cls-2" d="m57.5 86.1 8-5.6 8.4 2.1-3.5 12.5c-2.3-1.2-6-2-9.3-0.6 0.4-2.9-1.1-6.6-3.6-8.4z"/>
  <path class="cls-5" d="m95.4 130c1-0.1 4.5-2.4 6.7-3.1 2-0.8 2-4.5 5.3-6.8-0.8-1.5-4.5-6-4.5-6-0.5 0.4-2.9 3-4.3 2.8-3-0.3-3.6-0.8-6.2 0.2-1.5 0.8-3.3 1.4-4 0.8 2.2 4.2 7 12.1 7 12.1z"/>
  <path class="cls-6" d="m75.4 64.4 0.1 21.2h0.4l-0.5-21.2z"/>
  <path class="cls-7" d="m70.6 64.9 3.9 9.7 0.6-0.2-3.9-10.5-0.6 1z"/>
  <path class="cls-7" d="m65.9 68.6 8.2 5 0.4-0.5-8.1-5.2-0.5 0.7z"/>
  <path class="cls-7" d="m64.1 73.1 10 1.9 0.3-0.6-10-2.3-0.3 1z"/>
  <path class="cls-7" d="m64.1 78.6 10-3-0.2-0.6-10 2.9 0.2 0.7z"/>
  <path class="cls-7" d="m66.6 82.4 7.5-6.3-0.5-0.5-7.5 6.3 0.5 0.5z"/>
  <path class="cls-7" d="m69.6 84.1 4.8-8-0.5-0.5-4.8 8 0.5 0.5z"/>
  <path class="cls-7" d="m72.1 85.9 2.3-9.8-0.5-0.5-2.5 10.3h0.7z"/>
  <path class="cls-7" d="m77.9 63.9-3.4 10.7 0.6 0.3 3.5-10.8-0.7-0.2z"/>
  <path class="cls-7" d="m81.1 65.6-6.2 8.8 0.5 0.5 6.5-8.8-0.8-0.5z"/>
  <path class="cls-7" d="m82.9 67.9-8 6.5 0.5 0.5 8-6.5-0.5-0.5z"/>
  <path class="cls-7" d="m85.5 70.9-10.6 3.5 0.2 0.6 10.5-3.4-0.1-0.7z"/>
  <path class="cls-7" d="m85.6 74.6-10.5 0.3v0.7l10.5-0.2v-0.8z"/>
  <path class="cls-7" d="m83.4 77.6-8.3-2.2-0.2 0.6 8.2 2.4 0.3-0.8z"/>
  <path class="cls-7" d="m83.4 80.9-8-5.3-0.5 0.5 8 5.3 0.5-0.5z"/>
  <path class="cls-7" d="m81.6 84.4-6.2-8.8-0.5 0.5 6.2 8.8 0.5-0.5z"/>
  <path class="cls-7" d="m77.6 85.4-2.7-9.3-0.5 0.3 2.5 9.2 0.7-0.2z"/>
  <path class="cls-9" d="m71.9 62.6c-1-0.5-1.9-0.2-2.4 1-0.4 1.8 2.1 2.5 3 1 0.4-0.7 0.1-1.5-0.6-2z"/>
  <path class="cls-9" d="m68.6 64.6c-1.2-0.2-2 0-2.2 1.4-0.3 1.9 2.5 2.4 3 0.6 0.2-0.7 0-1.7-0.8-2z"/>
  <path class="cls-9" d="m65.9 66.9c-1.3 0-2 0.2-2 1.7 0 2 2.7 2 3 0.3 0.2-0.8-0.3-1.8-1-2z"/>
  <path class="cls-9" d="m64.6 70.4c-1-0.8-2.2 0.5-2.1 1.2 0.1 3 3.6 2 2.9-0.2l-0.8-1z"/>
  <path class="cls-9" d="m63.9 73.6c-1-0.6-2 0.8-2 1.8 0.2 2.7 3.7 2 2.7-0.8l-0.7-1z"/>
  <path class="cls-9" d="m64.4 77.1c-1.3 0-2.3 1.3-1.8 2.4 1 2.1 3.8 0.9 2.8-1.6l-1-0.8z"/>
  <path class="cls-9" d="m65.4 80.6c-1 0.5-1.3 2.5 0 3 2.5 0.8 3-2.5 1.2-3h-1.2z"/>
  <path class="cls-9" d="m67.4 83.1c-1 0.8-0.9 2.5 0.2 2.8 2.9 0.7 3-2.3 1-2.8h-1.2z"/>
  <path class="cls-9" d="m70.9 84.9c-1.5 0.7-1.3 2 0.1 2.8 2.6 0.2 3.1-2.3 0.9-3.1l-1 0.3z"/>
  <path class="cls-9" d="m74.9 85.4c-1.5 0.7-1.8 2.2 0 2.6 2.5 0.6 3-2.6 1-2.6h-1z"/>
  <path class="cls-9" d="m78.1 84.6c-1.2 1.5-0.7 3 1.3 2.9s2.2-3.6-0.5-2.9h-0.8z"/>
  <path class="cls-9" d="m81 82.9c-1.1 2.2 0.4 3 1.9 2.5s1-3.8-1-2.5h-0.9z"/>
  <path class="cls-9" d="m83.4 80.6c-1 2 1.1 3 2.2 2 1-0.5 0.5-3.5-1.2-2.2l-1 0.2z"/>
  <path class="cls-9" d="m84.6 77.6c-0.5 2.3 1.3 3 2.8 1.4 1.1-0.9-0.8-3.9-2-1.9l-0.8 0.5z"/>
  <path class="cls-9" d="m85.1 74.6c0.3 2.5 3 2 3 0.3 0-1.8-2.1-3.3-3-0.3z"/>
  <path class="cls-9" d="m84.6 71.6c1 2 2.9 1.8 2.9-1-1-1.7-3.1-2-2.9 1z"/>
  <path class="cls-9" d="m82.4 67.1c-0.5 2.8 2.2 2.8 2.2 1.8 0.8-1.8-0.7-2.8-2.2-1.8z"/>
  <path class="cls-9" d="m80.1 64.4c-0.7 2 2.5 4 2.8 1.6 0.2-1.4-1.3-2.6-2.8-1.6z"/>
  <path class="cls-9" d="m76.6 63.1c-1.1 2 2.5 3.3 2.8 1 0-0.7-1-2-1.8-1.5l-1 0.5z"/>
  <path class="cls-9" d="m73.1 63.1c-0.2 2 3.5 2.5 3.3 0-0.3-1.5-2.8-1.7-3.3 0z"/>
  <path class="cls-7" d="m72.9 66.6c-0.5 2 3.2 2.8 3 0-0.5-1.2-2.5-1.2-3 0z"/>
  <path class="cls-7" d="m69.1 68.1c-0.2 2.5 3.3 2.5 3.3 0 0-1.5-2.8-1.7-3.3 0z"/>
  <path class="cls-7" d="m67.4 70.6c-1.3 2.5 2.5 3.3 2.6 1-0.1-2-1.4-2.2-2.6-1z"/>
  <path class="cls-7" d="m66.4 75.1c-1.3 2.5 2.2 3.5 2.7 1 0.3-1.5-1.7-2.2-2.7-1z"/>
  <path class="cls-7" d="m67.9 78.4c-1 2.5 2.6 3.5 3 1 0.1-1.5-2-2.3-3-1z"/>
  <path class="cls-7" d="m69.6 81.6c-1 2.5 3 3.5 3 1 0-1.5-2-2.2-3-1z"/>
  <path class="cls-7" d="m72.9 80.6c-1.3 2.5 3.2 3.5 2.7 0.8-0.2-1.3-2-1.8-2.7-0.8z"/>
  <path class="cls-7" d="m76.6 82.1c-0.7 2.5 3.5 2.8 2.8 0-0.5-1-2.3-1.2-2.8 0z"/>
  <path class="cls-7" d="m78.1 78.9c-1 2.5 2.8 3.2 2.8 0.5-0.3-1.3-2.3-1.8-2.8-0.5z"/>
  <path class="cls-7" d="m81 77.1c-1.1 2.5 3.1 3.3 2.9 0.5-0.5-1.2-2.3-1.5-2.9-0.5z"/>
  <path class="cls-7" d="m80.4 73.9c-1 2.5 3 3.5 2.7 0.5-0.2-1.5-2-1.8-2.7-0.5z"/>
  <path class="cls-7" d="m78.6 70.1c-1 2.5 3 3.5 2.8 0.8-0.3-1.5-2.3-1.8-2.8-0.8z"/>
  <path class="cls-7" d="m76.6 66.6c-0.7 2.5 3 2.8 2.8 0.3-0.5-1.3-2.3-1.5-2.8-0.3z"/>
  <path class="cls-7" d="m74.9 71.4c-1 3.2 3.5 2.7 3-0.3-0.8-1-2.3-0.7-3 0.3z"/>
  <path class="cls-7" d="m71.4 71.1c-1.3 3 3.2 3.5 3 0.5-0.5-1.2-2-1.5-3-0.5z"/>
  <path class="cls-7" d="m70.6 74.4c-1 2.7 3.8 3.2 3 0.2-0.5-1-2.2-1.2-3-0.2z"/>
  <path class="cls-7" d="m71.9 77.1c-0.8 3 3.2 3 2.7 0-0.2-1.2-2.2-1.2-2.7 0z"/>
  <path class="cls-7" d="m75.4 76.9c-1 3.2 3 3.7 2.2 0.5-0.5-1-1.7-1.8-2.2-0.5z"/>
  <path class="cls-7" d="m76.6 74.6c-0.7 2.3 3.5 2.3 2.8-0.5-0.8-0.7-2.3-0.7-2.8 0.5z"/>
</svg>