<svg xmlns="http://www.w3.org/2000/svg" viewBox="0 0 150 150">
<!-- SVG created with Arrow, by QuiverAI (https://quiver.ai) -->
  <style type="text/css">.cls-0 {fill:#E9B617;}
.cls-1 {fill:#C88F0D;}
.cls-2 {fill:#E4AF1A;}
.cls-3 {fill:#CA920E;}
.cls-4 {fill:#2D2A26;}</style>
  <path class="cls-0" d="m144 75.2c-1.9-4.8-4.9-8.5-6.7-10.1 1.6-3 1.9-7.1 1.9-7.1-1.6-2.2-4.9-5.1-9.1-6.4l-6.5-16.1c-0.3-4.1-1.7-6.9-1.7-6.9-2.5-1.2-5.1-1.8-7.1-1.8l-17.8-10.2c-1.7-2.7-5.1-5.4-5.1-5.4-2.6 0.3-5.3 1.1-7 2.1-2.6-2.7-6.4-5.4-9.8-6.9-3.4 1.3-7.2 3.8-10 6.9-2.7-1.2-4.9-1.8-6.8-2.1-2 1.5-3.8 3.4-5 5.3l-17.8 10.2c-2.1 0-4.6 0.5-7.3 1.7-1 2.3-1.6 4.9-1.7 7.1l-10.6 17.4c-1.8 1-4.3 3.4-5.3 5.1 0.1 2.1 0.9 5.1 2 7.1-2.1 1.9-5.1 5.3-6.7 10.1 1.6 4.2 4.3 7.8 6.8 10.1-1 2-1.8 4.6-2 6.5 1.4 2.1 3.4 3.9 5.2 4.8-1.3 4-1.4 8-0.9 12.8 3.4 2.7 7.4 4.7 11.4 5.7 0 2.4 0.7 5 1.7 6.8 2.3 1 4.9 1.5 7.3 1.6l17.7 10.4c1.5 2.2 3.5 4 5.2 5 2.1-0.1 4.8-1 6.9-2l9.9 6.7 9.8-6.7c2.2 1 5 1.8 7 2 2-1.3 3.8-3.3 5-5l18-10.4c2.2-0.1 4.8-0.6 6.8-1.6 1-2 1.7-4.8 1.7-6.8 4-0.7 8.3-2.5 11.7-5.5 0.5-4.5 0.2-8.7-0.9-13 1.9-1 4-3 5.1-4.7-0.1-2-0.9-4.6-1.9-6.6 2.5-2 5-5.4 6.6-10.1z"/>
  <path class="cls-1" d="m75.1 6.4c-4 1.5-8.7 4.7-12.5 10 2 0.5 4 1.1 5.6 2 1.9-2 4.4-3.4 6.9-4.7 2.5 1.2 4.9 2.7 6.6 4.7 1.7-0.8 3.7-1.7 5.8-1.9-2.4-3.9-7.9-8.3-12.4-10.1z"/>
  <path class="cls-1" d="m40.6 15.5c-3 3.9-5.6 8.9-5.6 15.1 1.6-0.5 3.5-0.9 5.6-1 0.8-3 2.1-5.5 3.9-7.7 3-0.4 5.7-0.3 8.7 0.7 1-1.6 2.4-3.2 3.7-4.5-4-2.5-9.4-3.5-16.3-2.6z"/>
  <path class="cls-1" d="m15 40.5c-0.6 5 0 11.6 2.6 16.4 1.4-1.4 2.9-3 4.6-4-0.8-2.3-1-5.4-0.6-9 2.3-1.7 5-3 7.8-3.5 0.1-2 0.5-3.9 1-5.4-4.3 0-10.3 1.6-15.4 5.5z"/>
  <path class="cls-1" d="m5.9 75.2c1.7 4.4 5.3 9.4 10.1 12.4 0.5-1.7 1.1-3.7 2-5.5-1.6-1.4-3.5-4.2-4.8-6.9 1.2-3.1 2.9-5.2 4.7-7.3-0.8-1.5-1.5-3.5-1.9-5.4-3.4 2.1-8 6.6-10.1 12.7z"/>
  <path class="cls-1" d="m15.1 109.4c4 3.2 9.1 5.8 15.4 6.2-0.6-1.6-1-3.6-1.1-6-2.8-0.6-5.5-2-7.8-4.1-0.4-3-0.2-5.5 0.5-8.9-1.5-1-3.1-2.2-4.4-3.9-2.1 3.9-3.5 9.9-2.6 16.7z"/>
  <path class="cls-1" d="m40.6 134.7c5 0.7 10.3 0.3 16.4-2.5-1.4-1.2-2.5-2.6-3.6-4.5-2.5 0.8-5.3 1-9 0.5-1.8-2.2-3.2-5.3-3.9-7.7-1.9-0.1-4-0.5-5.9-1.3 0 4.2 2.5 11.4 6 15.5z"/>
  <path class="cls-1" d="m75.1 143.6c4.5-1.9 9.3-5 12.5-9.9-1.7-0.5-3.6-1.1-5.6-2.1-1.6 1.8-4.4 3.5-6.9 4.8-2.5-1-5.5-2.8-7.2-4.8-1.5 0.8-3.4 1.6-5.4 2 2.1 3.5 7.1 7.8 12.6 10z"/>
  <path class="cls-1" d="m109.1 134.7c3-3.3 6.3-10.1 6.3-15.5-1.7 0.7-3.5 1-5.9 1.2-0.6 2.6-2 5.5-4 7.8-2.9 0.4-5.6 0.3-8.6-0.5-1 1.5-2.3 3-3.8 4.3 3.4 2.1 9.5 3.5 16 2.7z"/>
  <path class="cls-1" d="m135.1 109.5c0.6-4.9 0.3-10.3-2.5-16.8-1.2 1.4-2.7 2.8-4.7 3.9 1 2.9 1 5.5 0.7 8.9-2.2 1.7-5 3.2-8.2 4.1 0 2-0.4 4-1 6 4.2-0.1 11-2 15.7-6.1z"/>
  <path class="cls-1" d="m144.1 75.2c-1.7-4.6-5.5-9.7-10-12.6-0.5 1.8-1 3.8-2 5.3 2 1.7 3.8 4.5 4.8 7.3-1 2.7-2.8 5.4-4.8 6.9 0.9 1.8 1.5 3.8 2 5.5 3.3-1.7 7.9-6.2 10-12.4z"/>
  <path class="cls-1" d="m135.1 40.5c-3.5-2.8-9-5.4-15.7-5.5 0.5 1.6 0.8 3.5 1 5.4 2.7 0.6 5.2 1.8 8.1 3.6 0.5 3.1 0.1 5.9-0.6 8.9 1.5 1 3.2 2.2 4.7 4 2-4 3.3-10 2.5-16.4z"/>
  <path class="cls-1" d="m109.2 15.4c-4.8-0.7-10.1-0.3-16 2.7 1.4 1.3 2.7 2.5 3.7 4.5 2.6-1.1 5.7-1.2 8.6-0.9 1.9 2.2 3.4 4.9 3.9 7.9 2 0 4 0.5 6 1 0-4.5-2.3-10.6-6.2-15.2z"/>
  <path class="cls-2" d="m125.6 62c-1-1.9-2.9-3.8-5.1-5.1 0.9-2.3 0.7-6.4 0.1-8.7-1.7-1.6-4.6-3.5-6.9-4-0.1-2.3-1-4.6-2-6-1.8-1-4.1-1.7-6.7-1.7-0.5-2.3-1.9-5-3.8-7-2.3-0.6-5.6-0.5-8.1 0.1-1.2-1.7-3.5-3.6-5.1-4.5-2.1 0-4.4 0.5-6.4 1.5-1.7-1.5-4.5-3.6-6.7-4.1-1.8 0.5-4.4 1.9-6.7 4.1-1.8-1-4.1-1.5-6.2-1.5-1.4 0.8-3.4 2.5-4.9 4.5-2-0.6-5-0.6-8.2-0.1-1.4 1.5-3.3 4.6-4 7-2.3 0.1-4.8 0.9-6.5 1.7-1 1.5-1.9 4.2-1.9 6.2-2.1 0.2-5.4 2-7.4 3.7-0.5 3-0.5 6.5 0.1 8.8-1.6 1.2-3.8 3.1-4.6 5.1 0 2.1 0.5 4.6 1.5 6.1-1.6 1.5-3.5 5-4.1 7.1 0.6 2.3 2.6 5.4 4.2 6.7-0.8 1.7-1.5 4.5-1.5 6.2 0.9 1.9 2.8 3.8 4.5 4.9-0.6 2.1-0.6 5.6-0.1 8 1.8 1.6 5.1 3.4 7.5 4 0.1 2.1 0.9 5 1.8 6.9 1.7 1 4.2 1.8 6.5 2 0.6 2.5 2.5 5.5 4 6.8 2.6 0.5 6 0.5 8.2-0.2 1.3 2 3.3 3.6 4.9 4.4 2 0.1 4.6-0.4 6.2-1.4 1.8 1.9 4.7 3.5 6.8 4.2 2.1-0.6 5-2.1 6.6-4.2 2 0.9 4.3 1.5 6.4 1.4 1.6-0.8 3.9-2.7 5.1-4.4 2.4 0.7 5.8 0.7 8.1 0.2 1.4-1.1 3.3-4.3 3.8-6.8 2.4 0 4.9-0.8 6.7-1.9 1.2-1.4 1.9-4.4 2.2-6.9 2.1-0.5 5.3-2.1 6.7-4.1 0.5-2.4 0.8-5.9-0.1-8.1 2-1.3 3.9-3.3 4.7-4.9-0.1-2-0.6-4.4-1.6-6.1 1.5-1.3 3.8-4.4 4.5-6.7-0.5-2.1-2.5-5.6-4.4-7.1 0.9-1.5 1.7-4 1.9-6.1z"/>
  <path class="cls-3" d="m122.4 62.6c-2-3-5.5-7-9.5-7.7 0.7 4.2 0.2 7.7-1.7 10.7 3.4 1.9 5 4.3 6.5 8.3 3.2-2.3 4.4-6.9 4.7-11.3zm-4.8-29.6c-4-1.9-8.9-3-14.6-1.3 1 1.4 1.7 2.9 2 4.8 2.6 0 4.9 0.7 6.7 1.7 1.2 1.8 2 4.2 2 6 1.7 0.4 3.4 1.2 4.7 2 1.5-4.5 0.7-9.7-0.8-13.2zm-27.2-15.6c-4.5 0.3-9.3 2.1-13 6.1 1.6 0.6 3 1.6 4.2 3.1 2-1 4.3-1.5 6.5-1.5 1.8 1 3.8 2.8 5 4.5 1.8-0.5 3.6-0.6 5.3-0.6-0.8-3.6-3.8-8.9-8-11.6zm-30.6 0c-3.4 2.5-6.7 6.2-8.1 11.7 1.9-0.1 3.8 0 5.4 0.5 1.3-1.7 3.3-3.7 4.9-4.5 2.1 0 4.4 0.5 6.2 1.5 1.3-1.2 2.8-2.2 4.2-3-2.5-2.6-7-5.7-12.6-6.2zm-27.3 15.5c-1.9 4-2.6 9-1.1 13.5 1.5-0.9 3.1-1.8 5.1-2.2 0.1-2.1 0.9-4.6 1.9-6 1.7-1 4.2-1.7 6.5-1.7 0.3-1.6 1.2-3.3 2.2-4.8-3.9-1.3-9.1-1.3-14.6 1.2zm-15.5 27c0.4 5 2.6 9.6 6 13 0.9-1.7 2-3.5 3.1-4.8-1-1.7-1.4-4-1.5-6.1 1-1.9 2.9-3.8 4.6-5.1-0.5-1.5-0.6-3.5-0.6-5.5-3.2 0.6-7.6 2.6-11.6 8.5zm0 30.2c2.6 3.5 6.6 6.8 11.6 7.9 0-1.9 0.1-3.6 0.6-5.1-1.7-1-3.7-3.3-4.5-4.9 0-2 0.7-4.4 1.4-6.1-1.1-1.2-2.2-2.8-3.1-4.3-2.6 2-5.5 6.5-6 12.5zm15.6 27.4c4 1.6 9 2.5 14.5 1.1-0.9-1.5-1.7-3.2-2.2-4.7-2.3-0.2-4.8-0.9-6.5-1.9-1-1.9-1.8-4.4-1.8-6.9-1.7-0.5-3.5-1.4-5.2-2.2-1.5 3.6-0.8 9.7 1.2 14.6zm27.3 15.4c4.1-0.3 9-2 12.5-6-1.5-0.8-2.9-1.9-4.2-3.4-1.8 1-4.2 1.5-6.2 1.4-1.6-0.8-3.6-2.4-4.9-4.4-1.6 0.5-3.5 0.6-5.5 0.5 0.8 3.4 3.8 8.6 8.3 11.9zm30.5-0.2c3.2-2.1 7-6.1 8.1-11.7-1.9 0.1-3.6 0-5.4-0.5-1.2 1.7-3.5 3.6-5.1 4.4-2.1 0.1-4.4-0.5-6.4-1.4-1.1 1.1-2.6 2.1-4.1 3 2.4 2.6 7.1 5.6 12.9 6.2zm27-15.2c2-4 3-10 1.1-14.9-1.4 0.9-3.1 1.8-4.6 2.4-0.2 2.4-1 5.4-2.2 7-1.8 1-4.1 1.9-6.7 1.9-0.4 1.7-1.3 3.3-2 4.7 3.5 1 9.1 1.3 14.4-1.1zm15.7-57.9c-2.6-3.7-6.6-7-12-8.2 0 2-0.1 3.7-0.6 5.5 2 1.2 4.1 3.5 4.9 5.1 0 2.1-0.5 4.6-1.7 6.1 1.3 1.4 2.4 3 3.4 4.5 3-2.7 5.5-7.5 6-13zm0 30.5c-0.4-4.5-2.4-9.2-6-12.5-0.7 1.5-2 3.1-3.5 4.4 1 1.6 1.5 4 1.8 6-0.8 2-2.9 3.9-4.9 5 0.6 1.6 0.6 3.4 0.6 5.1 3.5-0.6 8.5-3 12-8z"/>
  <path class="cls-3" d="m117.6 76.4c-1.1 3.6-3.7 7-6.5 8.1 2 3 2.3 6.1 1.6 10.2 3.9-0.3 7.4-3.6 9.7-7.1-0.4-4.5-1.3-9-4.7-11.2h-0.1zm-9-26.5c-2.2-1.3-4.5-1.8-7.4-1.8 0.2-3.7-1.6-6.7-4-9.7 3.7-1 8.2-0.8 12.4 1.5 1.8 3.2 3.5 8.1 1.9 12.6l-2.9-2.6zm-28.2-16.3-4.2-1.2c2.5-2.8 6.4-4 11.3-4.5 3.2 2.1 7 5.1 7.6 9.5-4-0.5-7.1-0.5-10.7 1.6-1-1.6-2.3-3.9-4-5.4zm-25.4 3.8c0.6-3.8 3.6-6.9 7.6-9.5 4.5 0.3 8.9 1.5 11.1 4.6-3.3 1.1-6.2 3.1-8.1 6.5-3.2-1.9-6-2.1-10.6-1.6zm-16.4 15.1c-1.5-4.1-0.2-8.6 1.6-12.3 3.9-1.7 7.7-3.1 12.8-1.7-2.3 2.9-4.4 6.1-4.3 9.7-3.6-0.1-6.7 1.3-10.1 4.3zm-6.5 21.5c-3.5-2.6-4.4-7.4-4.6-11.4 2.4-3.2 5.6-7 9.9-7.9-0.5 3.9-0.3 7.9 1.6 10.9-2.6 1.3-5.1 4-6.9 8.4zm0.1 2.2c1.4 3.8 3.8 7.2 6.8 8.3-1.9 3-2.3 6.1-1.6 10.2-3.8-0.3-7.5-3.6-9.9-7.2 0.4-4.6 1.4-8.9 4.7-11.3zm9.2 23.8 2.5 0.4c1.5 0.5 3.2 0.6 4.8 0.5-0.1 3.7 1.9 7.2 4.3 10.7-3.6 1.3-8.4 0.5-12.6-2-1.8-3.2-3.5-8-1.8-13l2.8 3.4zm21.2 22.2c-3.2-2.2-7-5.6-7.7-9.3 3.7 0.6 7.5 0.6 10.7-1.7 1.9 3.2 4.9 5.2 8.1 6.5-2.1 2.8-6.8 4-11.1 4.5zm32.3-9.3c-0.5 3.7-3.8 7-7.4 9.3-4.4-0.3-8.9-1.2-11.6-4.5 3.5-1.1 6.7-3.3 8.3-6.5 3.4 2.2 7.2 2.3 10.9 1.7h-0.2zm14.7-3v0.1c-3.5 1.6-7.5 3.1-12.6 1.6 2.4-2.6 4.4-6.2 4.2-10.6 3.4 0.4 7.4-1.1 10.3-4.1 1.6 3.7 0.2 9.2-1.9 13z"/>
  <path class="cls-3" d="m110.6 85c-1.5 2.6-4.2 5.9-8.6 5 1.6 3.1 0.5 6.4-1.6 9.9-2.9 1.7-7.3 3.7-10.3 1.5 0.4 3.5-2.1 6.1-6.1 8.5-3.4 0.2-8.1-0.3-9-4-0.9 3.2-4.6 4.2-9 4.1-3-1.4-6.9-4.4-6.1-8.6-2.4 2.2-6.3 1-9.9-1-1.6-2.9-3.9-7-1.6-10.3-3.5 0.5-6.3-2.5-8.3-5.7-0.2-3.5 0.5-8 4.3-9.3-3.3-1.2-4.3-4.7-4.4-8.5 1.6-3 4.1-7 8.4-6.7-2-2.5-0.8-6.3 0-8l1.2-3c3-1.5 7.3-4.3 10.4-2.3 0.1-3.2 3.6-5.2 5.4-6.6 2.7-1 8-1 9.6 2.5 1.6-3.1 5.1-3.1 8.9-3.1l1.2 0.2c2.5 1.3 6 3.8 6 6.4 3-1.4 6.3 0.1 9.3 1.6 1.7 3 4 7.5 1.2 12 4-0.5 6.8 2.4 8.4 6 0.1 3.8-0.6 8.3-4.4 9.5 3.8 0.5 4.9 4.8 5 9.9z"/>
  <path class="cls-2" d="m93.6 56.4c3-1 5.8 0.5 7.9 3.5 1.4 3.2 1.4 6.2-1.4 8.5 3.5 0.6 5 3 5.4 6.5-0.1 3.2-1.6 6.1-5.4 6.7 2.5 2.3 2.9 5.3 1.4 8.4-2.1 2.6-4.1 4.4-8 3.1 1 3.5-0.5 5.5-3.1 7.9-3.3 1.4-6.4 2.1-9-1-0.5 3.4-3.8 5.1-6.4 5.4-2.9-0.3-6.1-1.3-6.6-5.4-2.3 2.4-5.8 2.9-8.5 1-2.3-1.6-4.3-4.4-3.3-7.9-3 1.3-5.6-0.2-8-2.7-1.2-2.9-2-6 1-8.8-3.2-0.6-4.7-2.7-5.2-6.5 0.2-2.7 1.6-6 5.2-6.7-2.2-2-2.7-4.8-1.2-8.4 2-2.4 4.6-4.9 8.2-3.4-1-3 0.5-5.7 3.3-8.2 2.7-1.8 6-2.5 8.5 0.6 0.7-3.1 3.2-4.6 6.6-5 2.9 0.1 5.9 1.4 6.4 5 2.5-2.6 5.5-2.9 8.7-1.4 2.4 1.8 4.4 4.8 3.3 9v-0.2z"/>
  <path class="cls-3" d="m91.9 57.4c2.5 0.2 5 2 6.5 3.7 1.2 2.3 2 5.5 0.6 7.8 1.9 1.5 3.4 4.5 3.4 6.5-0.3 2.5-1.3 4.6-3.2 6 0.8 2 0.3 5.5-0.8 7.5-1.5 1.7-3.3 3.5-5.8 3.6-0.1 2.1-2 4.9-4.2 6.1-2.3 0.9-5 1.3-7.3 0.4-1.5 1.6-4.2 3.1-6.1 3.1s-4.6-1.1-6.4-3c-2.2 0.5-5 0.4-7-0.7-1.7-1-3.6-3.5-4.2-5.9-2-0.1-4.8-2.1-6-4.1-0.9-2-1.4-4.5-0.4-7-1.6-1.4-3.1-4-3.4-6 0-2 1-4.8 3.3-6.8-0.9-2-0.8-4.7 0.5-7.2 1.5-1.8 4-3.8 6.2-3.8 0.3-2.2 2-4.7 3.8-6.2 2.2-1.4 5.2-2 7.2-1.3 1.4-1.5 4.4-3.2 6.4-3.2 2.1 0 4.9 1 6.1 3 2.3-0.5 5-0.5 7.3 1 1.7 1.5 3.5 3.7 3.7 6.5h-0.2z"/>
  <path class="cls-2" d="m89 60.4c3.4 2 6.4 4.2 6.5 9.6 1.9 3 2.5 6.4 0.1 10.6 0.3 4.3-1.5 7.4-5.4 9.4-1.8 3.4-5.1 5.6-9.8 5.4-3.3 1.7-7.3 2-10.9 0-3.9 0.2-7.4-2-9.5-5.4-2.9-1.4-5.6-5-5.6-9.4-1.8-3.2-2.3-7 0.1-11-0.1-3.7 1.6-7.2 5.5-9.5 1.6-2.7 4.6-5.7 9.5-6 3.4-1.5 7.1-2.5 10.6 0 3.9-0.1 7 1.5 9.8 6l-0.9 0.3z"/>
  <path class="cls-2" d="m79.4 58.9c3.2 0 5.6 1.5 7.2 4.2 2.9 1.8 4.3 4.3 4.6 7.5 1.4 3.3 1.4 6 0 8.8-0.1 3-1.6 5.7-4.6 7.5-1.7 2.5-4 4-7.2 4.1-2.8 1.4-6 1.4-8.8 0.1-3.2-0.1-5.5-1.5-7.2-4.2-2.4-1.3-4.3-4.3-4.5-7.5-1.4-3.3-1.4-5.5 0-8.8 0.2-3 1.7-5.5 4.5-7.2 1.7-2.8 4-4.3 7.2-4.5 2.8-1.3 6-1.8 8.8 0z"/>
  <path class="cls-4" d="m75 64.6c5.4 0 10.4 4.4 10.4 10.4 0 5.9-4.4 10.5-10.4 10.5-5.5 0-10.4-4.1-10.5-10.1-0.1-5.5 4.5-10.8 10.5-10.8z"/>
  <path class="cls-2" d="m66.6 40c-2.6 1.1-6.6 3.6-6.6 7.6-2.6-2.1-6.1-1.2-9.9 0.3-0.2-3.5 1.9-6.9 4.3-9 4-0.8 8-1.3 11 1.1h1.2zm18.5-0.4c3.5-2 7-2.2 10.3-1.2 1.5 1.7 4.5 4.7 4.7 9.2-2.7-1.2-6.2-3-9-1.6-0.2-2.9-3.5-5.1-6-6.4zm16.4 9.8c3.9-0.4 7.1 1.2 10 4.6 0.9 3.4 0.9 7.4-1.4 10.9-1-2.3-4-5.8-7-6 1.4-2.8-0.2-6.3-1.6-9.5zm9.1 16.2c3 1 5.3 3.8 6.3 9.5-0.8 3-2.8 6.8-6.3 8.5 0-2.7-0.5-6.6-3.2-8.2 2.7-1.8 3.2-5.3 3.2-9.8zm-0.5 18.8c2.3 2.5 2.3 6.5 1 11.1-2.5 2.4-5.6 4.4-9.6 4.1 1.4-2.5 3-6 1.5-8.7 3.1 0 5.4-3.3 7.1-6.5zm-10.1 17c0.4 3.7-1.6 6.7-4.4 10-3.5 0.7-7.2 1.2-10.5-1 2.4-1.3 6-4.3 6-7.4 2.5 1.5 6.3-0.1 8.9-1.6zm-16.9 9.2c-1.2 3-5 5.5-8.1 6.3-2.9-0.5-6.9-2.5-8.4-6 3 0 7.3-0.5 8.4-3 1.4 2.2 5.1 3 8.1 2.7zm-18.5-0.2c-3 2-7.1 2-10.2 1-2.3-2.4-4.5-5.5-4.3-10 2.5 1 6 3 8.9 1.6 0 3.1 3.4 5.4 5.6 7.4zm-16.2-10.8c-3.3 0.4-7.3-1.6-9.5-4.2-0.9-3.3-1.3-6.8 1-10 1.5 2.2 3.7 5.2 7 5.6-1.3 2.6 0.5 6.4 1.5 8.6zm-9-16c-3-1.2-5.3-5-6.3-8.5 1-3.2 2.9-7.2 6.3-8.2 0 2.7 0.5 6.7 3.2 8.5-2.2 1.2-3.2 5.2-3.2 8.2zm0.6-18.5c-2.4-3-2.4-7.2-1.4-11.1 2.9-2.1 5.8-4.6 9.8-4.5-1.3 2.6-3 6.1-1.5 9.4-2.8 0.2-5.4 3.5-6.9 6.2z"/>
  <path class="cls-3" d="m66.6 39.1c1.5-3 5-5 8.4-5.6 3.1 0.6 6.9 2.4 8.1 5.9-3 0-6.5 0.5-8.1 3-1.6-2.4-4.9-3-8.4-3v-0.3z"/>
</svg>