<svg xmlns="http://www.w3.org/2000/svg" viewBox="0 0 150 150">
<!-- SVG created with Arrow, by QuiverAI (https://quiver.ai) -->
  <style type="text/css">.cls-0 {fill:#993611;}
.cls-1 {fill:#772C12;}
.cls-2 {fill:#28241A;}
.cls-3 {fill:#6D2B0F;}</style>
  <path class="cls-0" d="m124 37.4c2.9 4.9 6.2 12.7 7.1 19.6 2.2 3.4 4.8 8.4 6 13.9 1.2-13.6-0.5-23.5-13.1-33.5z"/>
  <path class="cls-0" d="m116.2 41.3c3.7 2.5 9.2 7 12.8 12.4-2.1-9.4-9.9-24.6-16.8-31-5.5-5.3-13.3-7.6-24.5-8.1 8.4 2.9 20.1 10 28.5 26.7z"/>
  <path class="cls-1" d="m45.9 24.8 0.2-0.1c4.2-4 9.4-7.1 16.2-10-13.2 0.5-20.2 3.1-25.2 7.9-3.3 3.1-6.5 7.2-9 12 4.3-3.1 10.7-7.3 17.8-9.8z"/>
  <path class="cls-0" d="m13.9 71c1.8-14.3 11.5-24.7 22.4-31 1.8-3.7 3.9-8.1 7-12.2-5.8 2.4-12.2 6.6-18.1 10.8-9 6.6-14.1 13.8-12.4 32.4h1.1z"/>
  <path class="cls-1" d="m19.2 93.1c-2.3-3.5-5.1-9.2-6.3-13.6-1.5 15.6 1.7 26.1 15.8 37-4.5-5.7-8.3-13.5-9.5-23.4z"/>
  <path class="cls-1" d="m49 125.4c-4.2-0.9-8.9-2.2-14.8-4.6 2.9 4.6 8.2 10.2 13.7 13.1 5.6 2.9 13 4 23.4 3-6.7-1.3-13.7-4.1-22.3-11.5z"/>
  <path class="cls-1" d="m94.9 128.8c-4.7 3-10.2 5.8-16.6 7.9 9.6 1.1 17.3 0.4 23.2-2.2 5-2.3 10.8-7.3 14.3-13.4-5.2 3.2-11.2 6.1-20.9 7.7z"/>
  <path class="cls-1" d="m124.6 103.2c-0.8 4.4-2.5 9.4-5 14.2 4.6-2.5 9.8-7.5 12.8-11.8 3.7-5.5 5.9-13.1 4.8-26.2-1.1 8.5-5.6 17.2-12.6 23.8z"/>
  <path class="cls-0" d="m115 42.9c-4.6-3.3-9.4-6.2-15-7.9 5.4 2.9 11.2 8.6 16.1 15.5 7.3 8.1 13.4 22.4 11.8 38.4-0.2 2.7-0.6 6-1.7 9.7 4.9-5.3 8.7-13.2 10.2-24-2.7-12.3-10.2-23.3-21.4-31.7z"/>
  <path class="cls-0" d="m124.1 99.4c1.3-4.8 2.1-10 2.1-14.8-0.1-9-2.4-16.7-6.1-23.6 3.3 9.5 3.3 20.4-0.7 30.4-2.3 11.2-8.8 25.5-21.4 35 7.1-1.5 13.9-4.3 19.7-8.6 1.9-2.2 4.9-11.2 6.4-18.4z"/>
  <path class="cls-0" d="m98.4 116.5h-0.1c-8.2 5.6-20.4 11.6-33.7 11.5-3.2 0-6.7-0.4-11.1-1.4 6.3 4.5 13.2 7.8 21.9 9.3 15.2-3.8 34.5-15.5 40-36.4-3.3 5.6-9 12.1-17 17z"/>
  <path class="cls-0" d="m58.6 119.4c-12.5-2.8-24.9-8.3-37.1-23.4 1.6 8.1 5.6 16 10.9 22.1 5 2.3 9.7 3.9 14.1 4.9 6.1 1.5 11.1 2.9 18.1 2.9 7.3 0 15-1.3 22.7-5-9 2.6-18.7 2-28.7-1.5z"/>
  <path class="cls-0" d="m29.9 59.4c1.5-6.3 3.8-13.5 8.2-21-2.6 1.7-6.7 5-10 7.7-6.4 13.3-5.5 29 1.6 43-3-9.7-2.6-21 0.2-29.7z"/>
  <path class="cls-0" d="m21.9 93.4c4.5 6.5 13 15.1 28.3 22.2-5.6-3.5-11.1-8.5-15.3-15.2-6.3-7.8-13-20.5-13-34 0-5 0.8-10.3 2.9-16.4-5.6 5.6-10.2 15.6-11.1 25.9 1.3 6.2 4.2 12.2 8.2 17.5z"/>
  <path class="cls-0" d="m35 49.5c3.7-5.6 8.7-11.6 15.9-14.9 7.5-6.2 18.2-11.6 31.7-12.2 6-0.1 12.3 0.7 19.8 3.9-5-5.3-14.3-11.3-27.4-13.9-10.9 2.2-23.6 7.5-33.1 20.5v2.1c-2.8 4.9-5.3 9.6-7 14.5h0.1z"/>
  <path class="cls-1" d="m52.4 35.6c-5.9 4.9-11.3 9-16.3 16.3-1.5 2.5-3 5.5-4.1 8.1-1.9 14.9 3.9 31.9 20.5 40-4.4-4.1-7.9-9.5-10-15.6-6.4-11.3-7.9-30.8 3.9-45.3-3.8 2.8-9 8.5-11.5 12.5 3.2-5.5 9-12 15.5-16.2l2 0.2z"/>
  <path class="cls-3" d="m59.8 30.5c7.8-2.4 19.8-3.9 30.1-0.4 6.6 1.5 14.7 3.5 24.1 9.5-1.9-3.2-4.9-7-8.9-10.2-6-2.8-12-5-20.5-5.3-8.2-0.1-16.5 2-24.8 6.4z"/>
  <path class="cls-1" d="m50.2 52.1c4.7-5 9.9-8 16.2-10.2 5-2.5 10.5-4.5 16.5-11.5-9.5 0.6-21.8 5.5-30.5 16.5-1 1.5-1.8 3.5-2.2 5.2z"/>
  <path class="cls-0" d="m50.2 52.1c4.4-4.7 9.7-8 16.2-10.1 4.7-2.4 10-4.9 16.5-11.4-12.3 0.5-23.8 7.5-32.7 21.5z"/>
  <path class="cls-0" d="m51.6 36.4-1 1.7c-10.4 10.5-14.2 25.4-9.1 40.4-0.6-5.9 0.4-12.9 4.1-20 4.3-11.4 13.8-23.5 31.4-28.9-8.4-0.2-16.6 1.8-24.6 6l-0.8 0.8z"/>
  <path class="cls-1" d="m82.9 30.4c-9 0.7-18.5 4.2-26.8 12.7 9-7.7 17.8-5.5 26.5-5.5 8.3-0.2 17 1.5 28.4 8.4-6.4-7.4-15.4-13.9-28.1-15.6z"/>
  <path class="cls-0" d="m71.9 41.1c4.5-0.1 9.5-0.1 17.2 2.8 15 4.7 29.5 18 30.7 40.6 1.6-10.9 0.3-21.4-4.9-31.9-7-7.5-16.9-13.6-28.5-14.7-5 0-10 0.2-14.5 3.2z"/>
  <path class="cls-0" d="m85.1 39c-5.2 0-9.2 1-13.2 2.1 4.2-0.1 9.5-0.2 17.2 3 14.5 4.5 29.8 18.3 30.7 40.4 1.6-11.4-0.7-21.9-4.9-31.9-5.8-6.5-15.8-13.2-27.5-13.7h-2.3v0.1z"/>
  <path class="cls-0" d="m74.5 42.7c-5.4 1.2-12.9 5.3-17.5 13.4 3.6-3.1 8.4-7.1 18.1-7.6 5.3 0 11 1.6 16.8 6.6-2.8-5-9.5-10.7-17.4-12.4z"/>
  <path class="cls-0" d="m68.7 43.1c-8.8 1.5-21.8 9.5-25.1 26.4 2.5-5.1 6.5-10.1 11.5-13.4 3-5.1 9-10.5 13.6-12.5v-0.5z"/>
  <path class="cls-1" d="m64.1 53.1c-6.2 3-14.5 11.5-12.7 26.8 0.7-13.5 12.2-23.5 22.7-23.5 3.8 0 7.5 0.7 11.5 3.5-3.5-3.8-8.7-7.5-16.5-7.5-1.5 0-3.5 0.2-5 0.7z"/>
  <path class="cls-1" d="m65.9 61c-2.5 2.6-4.3 6.6-4 11.1 0.5 3 1.5 5.8 3.1 7-3.9-7 0.6-17.7 10.9-19.1 2.2-0.1 4.2 0 6.2 0.4-2-1.4-4.5-2.3-7.6-2.3-2.9 0-5.9 0.9-8.6 2.9z"/>
  <path class="cls-0" d="m67.6 66.4c7.3-6 16-2 20 4.7 2.3 3.9 3.3 8.5 1.5 13 2-2.5 2.8-6 2.8-9.5 0-2.5-1-5.6-2.3-7.7-3-3-6.7-5.5-11.7-5.8-3.8 0-7.8 1.5-10.3 5.3z"/>
  <path class="cls-0" d="m55.4 58c-5 2.9-10.3 9.4-12.3 17.4 1.5 7 7 13.6 12.8 17.2-4-4.5-6.8-10.5-6.8-17.2 0-6 2.3-12.4 6.3-17.4z"/>
  <path class="cls-0" d="m43.6 81c1.8 11.6 11 21.6 25.5 25.4-3.5-1.5-9.2-5.8-13-12-4.7-2.4-10-8-12.5-13.4z"/>
  <path class="cls-0" d="m57.7 93.9c3.9 6.2 9.9 10.5 17.4 13 6.3-1.3 14-5.8 17.8-13.3-3.5 4-10 7-17.8 7-5.5 0-11.5-1.7-17.4-6.7z"/>
  <path class="cls-0" d="m80.6 106.5c11.3-1.9 23.5-9.9 25.6-25.9-2.1 4.8-6.1 9.8-11.1 12.9-3.2 5-8.5 10.5-14.5 13z"/>
  <path class="cls-0" d="m93.9 57.1c4 3.9 7 10.3 7 18.3 0 6-2 11.7-6.3 16.5 5-2.8 10.3-8.5 12.1-16.9-1.6-6.9-6.3-14.1-12.8-17.9z"/>
  <path class="cls-0" d="m80.1 43c4.5 1.6 10 5.6 13.5 11.6 4.8 2.8 10 7.5 12.8 14.5-1.5-10.5-8.5-21.7-26.3-26.1z"/>
  <path class="cls-0" d="m70.6 50.6c12.3 0.5 23 11.8 23 24 0 4-1 7.5-3.4 10.8 3.7-3 6.9-9 6.9-16.3 0-1.7-0.2-3.5-0.7-5.5-3.5-6.5-11.3-13.2-21-13.2-1.5 0-3.3 0-4.8 0.2z"/>
  <path class="cls-1" d="m62.1 66.6c-2.2 10.8 6 20 13.3 20 2 0 4-0.6 5.7-2.1-1.7 2.1-5.2 4.1-9.2 4.1-3.8 0-7.8-1.5-11-5-1.5-2.5-2.5-5.2-2.5-8 0-3 1-6.2 2.2-8.7l1.5-0.3z"/>
  <path class="cls-0" d="m59.6 64.6c-3.5 4.4-6.5 9.4-6.5 16.5 0 2 0.3 4 1 6 3.8 6.5 11.3 11.8 20.8 11.8 1.5 0 3 0 4.5-0.4-11.8-0.9-22.8-10.4-22.8-22.5 0-3.6 1-7.4 3-11.4z"/>
  <path class="cls-1" d="m64.4 89.6c3.5 4 9 7 16.2 7.3 1.5 0 3 0 5-0.5 7.3-3.3 13.5-10.3 13.5-21.3 0-1.5-0.2-3.5-0.5-5.2-0.5 13.2-10.5 23.5-22.7 23.5-3.8 0-7.8-0.8-11.5-3.8z"/>
  <path class="cls-0" d="m67.1 89.5c2 1.4 4.5 2.1 8.3 2.1 2.7 0 6-0.7 8.5-2.6 2.2-2.4 4-5.9 4-9.6 0-2.8-1-5.8-3-8.4 1 1.6 1.5 3.4 1.5 5.4 0 6.7-5.8 13-14 13.7-1.8 0-3.8-0.1-5.3-0.6z"/>
  <path class="cls-0" d="m59.1 104.4c-9-3.3-16.7-8.4-22.2-16.5-3.8-5.8-6.5-12.8-6.8-22.5-3 17.2 2.3 30 9 37.7 6.5 4.5 14 8.4 24.5 8.4 4.3 0 9-0.6 14-2.9-6 0.5-12.5-0.7-18.5-4.2z"/>
  <path class="cls-1" d="m42.9 107.6c6.2 5.8 15.7 11.5 28.2 13 11.3-2.5 21.8-9.7 28.5-23-4 4-9 7.5-16.2 10-5.8 2.8-12.5 5.8-22.5 5.8-5 0-10.8-1.3-18-4.8v-1z"/>
  <path class="cls-0" d="m76.1 120.9c7 0 15.8-2.3 22-6 6.5-5.5 13-14.8 13-29.3 0-4-0.7-8.7-2.7-13.5 0.5 7.3-0.5 13.3-4.5 20.5-4 10-13.3 22.5-27.8 28.3z"/>
  <path class="cls-1" d="m97.4 49.4c4 3.2 8 8.7 10.2 16 2.8 5.6 5.1 12 5.1 20s-2.3 16.7-9.1 25.5c5.3-4 11.3-10.8 14.3-20.3 0.2-2 0.3-4 0.3-6 0-13-6.6-27-20.8-35.2z"/>
  <path class="cls-2" d="m83.9 75.1c0 4.5-3.5 8.3-8.5 8.9-4.8 0-9.3-3.4-9.3-8.9 0-4.5 3.5-9 9-9 4.5 0 8.8 3.5 8.8 9z"/>
</svg>