<svg xmlns="http://www.w3.org/2000/svg" viewBox="0 0 150 149.8">
<!-- SVG created with Arrow, by QuiverAI (https://quiver.ai) -->
  <style type="text/css">.cls-0 {fill:#E7D0A2;}
.cls-1 {fill:#F6EAC7;}
.cls-2 {fill:#EDD6AB;}
.cls-3 {fill:#C99400;}
.cls-4 {fill:#DBAA0B;}
.cls-5 {fill:#BA8700;}</style>
  <path class="cls-0" d="m141.7 73c2-1.2 2.3-5-2-5.3l-1.3-0.2c2.4-2.5 0.9-5.7-3.2-4.5 4-4.3 0.9-8.7-4.4-7.5 1.1-1.9-0.5-5.5-2.4-6.6 4.1-2.3 4.3-7.9-2.2-7.9 3.4-1.9 3.3-5.2-0.7-5 3.4-3.3 2.1-6.6-1.5-6 1.5-2.6-0.6-5.3-3.7-3.9 0.5-3.6-2.9-5-6-1.3-0.3-4.3-3.7-4.3-5.6-0.6 0-5.9-5.1-6.9-8.2-2.2-1-2.5-4.6-3.5-6.3-2.6 1.1-5.2-3-8.6-7.1-4.1 0.8-3.9-1.5-5.9-4.5-3.2 0-4.7-3.1-6.2-5.2-3.6-1.3-3-4-3.2-5.1 0.1-2.3-2.7-5.2-1.6-5.1 3.4-3.1-2.8-5.1-1.4-4.3 3.3-4.3-4.1-8.1-1.7-7 4.1-1.7-0.9-5.3 0.2-6.2 2.7-3.1-4.6-8.3-4.5-8.4 2.1-1.9-3.6-5.3-4.3-5.3 0.6-3.6-3.6-6.9-2.7-6.4 1.3-2.6-1.4-5.4 0.3-3.8 3.7-2.7-0.4-4.8 2-1.3 6.1-3.9 0-4.4 3.3-0.7 5.1-5.9 0-6.8 5.2-2 7.9-1.7 0.3-3.4 4.1-2.5 6.6-5.2-1.1-8.5 3-4.5 7.5-3.7-0.9-5.9 1.1-3.4 4.3-3.9-0.3-6.1 2.5-3.5 5.2-2.9 1.1-2.9 4.1 0.2 5.2-2 1.5-2 5.2 3.3 4.9-2.3 2.7-1 5.5 3.4 4.3-3.7 3.7-1.2 8.1 4.4 7-0.8 1.9 0.4 5.5 2.6 6.1-4.3 2.6-4.7 8.4 2 8.6-3.2 2-3.7 5.5 0.8 5.9-3.2 3.1-2.5 6.5 1.3 5.6-1.3 3 0.9 5.4 3.7 3.7-0.5 3.8 3 4.7 6.4 1.3 0.4 4 3.4 4.3 5.3 0.8 0.3 6 5.5 6.6 8.3 2 0.8 2.2 4.3 3.5 6.2 2.6-0.9 5.6 3.6 8.4 7.1 4.1-0.4 4.3 1.7 5.8 4.3 3.2 0 5.1 3.4 6.1 5.2 3.3 1.1 2.9 4.4 3.4 5.1 0 2 2.4 5.1 2.4 5.1-3.3 2.3 2.1 5.3 1.8 4.5-3 4 3.8 8 1.4 7.1-4.3 1.9 0.7 5.4 0.1 6.3-2.6 2.9 4.6 8.1 4.5 8.1-2.1 2.3 3.4 5.8 3.6 5.6-0.7 3.4 3.4 6.7 2.5 5.9-1.3 3.4 1.6 5.4-0.7 3.8-3.7 3 0.7 5.2-1.7 1.6-5.6 3.7-0.1 4.5-3.1 0.7-5.9 5.7 0 7.2-5 2.2-8.5 2-0.6 3.2-3.9 2.4-6.2 5.3 1.1 8.3-2.8 4.4-6.9 4.2 0.9 5.7-1.2 2.9-4.3 4.3 0.3 6.3-2.6 3.5-5 2.9-0.9 3.3-3.8 0.1-5.1v0.4z"/>
  <path class="cls-1" d="m71.4 30.6c1.2-6-3-8.8-5.8-5.5-0.5-4.3-3.5-5.1-5-2.3-1.5-3.2-3.8-2.8-4.6 0.2-1.8-1.9-4.4-1.4-4 1.6-2.5-1.5-5 0-3.5 3.3-3.4-1.3-5.4 1.7-2.1 5.2-3.8-0.5-5.8 3.9-0.5 7.8-1.5 0.3-2 2.1 0 3.7 4.7 4.4 9.5 6 13.7 9.3l11.8-6.3c1.2-5.7 4.7-17.6 0.2-17.1h-0.2zm7 0c-1-6 3.2-8.8 5.8-5.5 0.4-4.3 3.4-5.1 5-2.3 1.4-3.2 3.9-3.2 4.8 0.2 1.8-1.9 4.4-1.6 4.2 1.6 2.4-1.6 4.4-0.2 3.3 3.2 3.1-1.2 5.1 1.6 2 5.2 3.9-0.6 5.9 3.9 0.5 7.8 1.5 0.3 2.4 2.1 0 4-3.9 3.7-9.5 5.8-13.4 8.7l-12.2-6c-1.3-5.6-4.4-17.5-0.5-17l0.5 0.1z"/>
  <path class="cls-1" d="m108.7 44.1c-1.1-0.5-2.3 0.4-3.6 1.9-3 3.8-5.5 8.4-8.5 12.4l5 13c5.5 1 19 5.2 17.9 0.1 6 1.4 9.1-2.9 5.6-5.9 4.5-0.2 5.5-3.2 2.4-5.1 2.9-1 2.9-4.1-0.1-4.6 2.2-2.3 0.7-4.8-1.9-4.7 1.5-2.3 0-4.8-3.1-3.6 1-3-1.9-4.7-5.3-2 0.4-2.6-2.5-5-5.7-2.5l-2.5 2-0.2-1zm-67.5 1.3c-3.7-4.5-8.6-4.4-8.4 0.2-3.2-2.5-6.4-1.7-5.3 2-3-1.2-4.6 0.5-3.1 3.6-2.8-0.1-3.9 2.4-1.8 4.7-3 0.5-3.2 3.5-0.1 4.6-2.9 1.9-2.1 4.9 2.5 5.1-3.4 2.8-0.9 7.4 5.5 6-2.1 5.3 8 2.3 17.9 0l6.2-12.2c-3.7-4.5-8.7-16-12.2-15.3l-1 1.3h-0.2z"/>
  <path class="cls-1" d="m119.4 78.4c2.5-4.5-11.3-1.3-17 0l-5.4 11.6c2.6 4.5 8.6 16.6 11.4 14.9l0.5-0.3 0.1-0.2-0.1 0.2v-0.2l0.1-0.2-0.1 0.2 0.2-0.4 0.3-0.4c3.2 5 8.5 5 7.7-0.2 3 2.7 6.5 2.1 5.4-2.2 3.1 1.4 4.9-0.3 3-3.6 2.6 0.4 4.1-2 1.7-4 3.2-0.5 3.2-3.2 0.3-4.2 2.6-1.5 2.1-4.8-2.4-5 3.5-3 0.5-7.4-5.7-6zm-88.9 0c-6.1-1.3-8.9 3-5.6 5.8-4.3 0.2-5.3 3.3-2.4 5.2-2.9 1-3 3.7 0.1 4.2-2.1 2.3-0.6 4.4 1.8 4-1.4 2.8 0.5 4.8 3 3.5-0.8 3.9 2.7 4.9 5.4 2.3-0.2 4.2 4.7 5.7 8.3 0.2 1.5 4 5.5 0.3 10.5-8l4.5-7-3.5-10.2c-6-0.5-22.6-5.8-22.2 0h0.1z"/>
  <path class="cls-1" d="m45.9 108.6c-4-1.5 1.5-5.2 4.5-7l8.2-5.2 12.3 3.2c1.5 5.3 5.2 20.8 0.7 19.8 1 6-3.7 8.7-5.8 5.2-0.7 4.8-3.7 5.5-5.2 2.5-1.6 3-3.5 3-4.5-0.2-1.6 2.2-4.5 1.2-4.2-1.8-2.8 1.5-4.8 0.3-3.4-3-3.1 1-5.4-1.5-2.1-5-3.8 0.5-5.9-4-0.5-8.2v-0.3zm58.1 0.3c4.9-1.3-0.9-5.5-4.4-7.8l-7.5-4.7-13.7 3.2c-1.3 5.9-4.9 20.8-0.3 19.8-1 6 3.5 9 6.1 5.2 0.8 4.8 3.7 5.5 5.4 2.5 1.5 3 3.8 3 4.6-0.2 1.7 2.2 4.4 1.2 4-1.8 2.9 1.5 4.7 0.3 3.3-3 3.1 1.3 4.9-1.5 2.1-5 3.8 0.5 6-4 0.4-8v-0.2z"/>
  <path class="cls-2" d="m75 32.5-5.4 23.6 5.4 42.3 6.1-27.9-6.1-38z"/>
  <circle class="cls-3" cx="73.5" cy="74.5" r="20.5"/>
  <ellipse class="cls-4" cx="75" cy="75" rx="2.4" ry="2.2"/>
  <circle class="cls-4" cx="76" cy="58.9" r="1.7"/>
  <circle class="cls-4" cx="75" cy="51.1" r="1.8"/>
  <circle class="cls-4" cx="72.3" cy="55.4" r="2.2"/>
  <circle class="cls-4" cx="67.6" cy="57.1" r="2.2"/>
  <circle class="cls-4" cx="63.4" cy="59.2" r="2.2"/>
  <circle class="cls-4" cx="59.5" cy="63.2" r="2.2"/>
  <circle class="cls-4" cx="57.4" cy="67.6" r="2.2"/>
  <circle class="cls-4" cx="55.6" cy="72.5" r="2.2"/>
  <circle class="cls-4" cx="55.6" cy="77.6" r="2.2"/>
  <circle class="cls-4" cx="57.4" cy="82.4" r="2.2"/>
  <circle class="cls-4" cx="59.5" cy="86.9" r="2.2"/>
  <circle class="cls-4" cx="63.4" cy="90.4" r="2.2"/>
  <circle class="cls-4" cx="67.6" cy="92.6" r="2.2"/>
  <circle class="cls-4" cx="72.4" cy="94.1" r="2.2"/>
  <circle class="cls-4" cx="77.6" cy="94.1" r="2.2"/>
  <circle class="cls-4" cx="82.1" cy="91.1" r="2.2"/>
  <circle class="cls-4" cx="86.9" cy="90.4" r="2.2"/>
  <circle class="cls-4" cx="90.6" cy="86.9" r="2.2"/>
  <circle class="cls-4" cx="93.4" cy="82.4" r="2.2"/>
  <circle class="cls-4" cx="94.6" cy="77.6" r="2.2"/>
  <circle class="cls-4" cx="94.6" cy="72.5" r="2.2"/>
  <circle class="cls-4" cx="93" cy="67.6" r="2.2"/>
  <circle class="cls-4" cx="90.6" cy="63.4" r="2.2"/>
  <circle class="cls-4" cx="86.9" cy="59.4" r="2.2"/>
  <circle class="cls-4" cx="82.1" cy="57.1" r="2.2"/>
  <circle class="cls-4" cx="77.4" cy="55.4" r="2.2"/>
  <circle class="cls-5" cx="75" cy="46.7" r="1.6"/>
  <circle class="cls-3" cx="78.7" cy="47.8" r="1.1"/>
  <circle class="cls-3" cx="82" cy="47.8" r="1.1"/>
  <circle class="cls-3" cx="85.6" cy="48.2" r="1.2"/>
  <circle class="cls-3" cx="88.5" cy="50.8" r="1.1"/>
  <circle class="cls-3" cx="90.8" cy="53.4" r="1.1"/>
  <circle class="cls-3" cx="96.4" cy="59.2" r="1.1"/>
  <circle class="cls-3" cx="98.6" cy="61.6" r="1.1"/>
  <circle class="cls-3" cx="101" cy="64.2" r="1.2"/>
  <circle class="cls-3" cx="101.4" cy="67.6" r="1.1"/>
  <circle class="cls-3" cx="101.4" cy="71" r="1.1"/>
  <circle class="cls-3" cx="101.4" cy="78.9" r="1.1"/>
  <circle class="cls-3" cx="101.4" cy="82.2" r="1.1"/>
  <circle class="cls-3" cx="101" cy="85.6" r="1.1"/>
  <circle class="cls-3" cx="98.6" cy="88.4" r="1.1"/>
  <circle class="cls-3" cx="96.4" cy="90.6" r="1.1"/>
  <circle class="cls-3" cx="90.8" cy="95.9" r="1.1"/>
  <circle class="cls-3" cx="88.5" cy="98.4" r="1.1"/>
  <circle class="cls-3" cx="85.6" cy="100.6" r="1.1"/>
  <circle class="cls-3" cx="82" cy="101.1" r="1.1"/>
  <circle class="cls-3" cx="78.7" cy="101.1" r="1.1"/>
  <circle class="cls-3" cx="71" cy="101.1" r="1.1"/>
  <circle class="cls-3" cx="67.7" cy="101.1" r="1.1"/>
  <circle class="cls-3" cx="64.4" cy="100.6" r="1.1"/>
  <circle class="cls-3" cx="61.6" cy="98.4" r="1.1"/>
  <circle class="cls-3" cx="59.4" cy="95.9" r="1.1"/>
  <circle class="cls-3" cx="53.8" cy="90.6" r="1.1"/>
  <circle class="cls-3" cx="51.4" cy="88.4" r="1.1"/>
  <circle class="cls-3" cx="49" cy="85.6" r="1.1"/>
  <circle class="cls-3" cx="48.6" cy="82.2" r="1.1"/>
  <circle class="cls-3" cx="48.6" cy="78.9" r="1.1"/>
  <circle class="cls-3" cx="48.6" cy="71" r="1.1"/>
  <circle class="cls-3" cx="48.6" cy="67.6" r="1.1"/>
  <circle class="cls-3" cx="49" cy="64.2" r="1.1"/>
  <circle class="cls-3" cx="51.4" cy="61.6" r="1.1"/>
  <circle class="cls-3" cx="53.8" cy="59.2" r="1.1"/>
  <circle class="cls-3" cx="59.4" cy="53.4" r="1.1"/>
  <circle class="cls-3" cx="61.6" cy="50.8" r="1.1"/>
  <circle class="cls-3" cx="64.4" cy="48.2" r="1.2"/>
  <circle class="cls-3" cx="67.7" cy="47.8" r="1.1"/>
  <circle class="cls-3" cx="70.9" cy="47.8" r="1.1"/>
  <circle class="cls-5" cx="75" cy="102.2" r="1.7"/>
  <circle class="cls-5" cx="68.9" cy="51.7" r="1.8"/>
  <circle class="cls-3" cx="63.4" cy="54.2" r="1.8"/>
  <circle class="cls-3" cx="58.6" cy="58.4" r="1.8"/>
  <circle class="cls-5" cx="54.6" cy="63.4" r="1.8"/>
  <circle class="cls-5" cx="52.4" cy="68.9" r="1.8"/>
  <circle class="cls-5" cx="51.6" cy="75.1" r="1.8"/>
  <circle class="cls-5" cx="52.3" cy="81.1" r="1.8"/>
  <circle class="cls-5" cx="54.6" cy="86.6" r="1.8"/>
  <circle class="cls-5" cx="58.6" cy="91.4" r="1.8"/>
  <circle class="cls-5" cx="63.4" cy="95.1" r="1.8"/>
  <circle class="cls-5" cx="68.9" cy="97.5" r="1.8"/>
  <circle class="cls-5" cx="75" cy="98" r="1.8"/>
  <circle class="cls-5" cx="81.1" cy="97.5" r="1.8"/>
  <circle class="cls-5" cx="86.6" cy="95.1" r="1.8"/>
  <circle class="cls-5" cx="91.4" cy="91.4" r="1.8"/>
  <circle class="cls-5" cx="95.4" cy="86.6" r="1.8"/>
  <circle class="cls-5" cx="97.7" cy="81.1" r="1.8"/>
  <circle class="cls-5" cx="98.5" cy="75.1" r="1.8"/>
  <circle class="cls-5" cx="97.9" cy="68.9" r="1.8"/>
  <circle class="cls-5" cx="95.4" cy="63.4" r="1.8"/>
  <circle class="cls-5" cx="91.4" cy="58.4" r="1.8"/>
  <circle class="cls-5" cx="86.6" cy="54.2" r="1.8"/>
  <circle class="cls-5" cx="80.9" cy="51.7" r="1.8"/>
  <circle class="cls-3" cx="55.7" cy="55.4" r="1.7"/>
  <circle class="cls-4" cx="55.7" cy="94" r="1.7"/>
  <circle class="cls-3" cx="102.5" cy="75.1" r="1.7"/>
  <circle class="cls-3" cx="47.5" cy="75.1" r="1.7"/>
  <circle class="cls-3" cx="94.4" cy="55.4" r="1.7"/>
  <circle class="cls-4" cx="94.4" cy="94" r="1.7"/>
  <circle class="cls-4" cx="75" cy="59.1" r="1.7"/>
  <circle class="cls-4" cx="69.2" cy="61" r="1.8"/>
  <circle class="cls-4" cx="63.9" cy="63.8" r="1.7"/>
  <circle class="cls-4" cx="61.1" cy="69.2" r="1.8"/>
  <circle class="cls-4" cx="59" cy="75.1" r="1.7"/>
  <circle class="cls-4" cx="61.1" cy="80.8" r="1.8"/>
  <circle class="cls-4" cx="63.9" cy="86.2" r="1.7"/>
  <circle class="cls-4" cx="69.2" cy="88.9" r="1.8"/>
  <circle class="cls-4" cx="75" cy="90.9" r="1.7"/>
  <circle class="cls-4" cx="80.6" cy="88.9" r="1.8"/>
  <circle class="cls-4" cx="86.1" cy="86.2" r="1.8"/>
  <circle class="cls-4" cx="89" cy="80.8" r="1.8"/>
  <circle class="cls-4" cx="91.1" cy="75.1" r="1.7"/>
  <circle class="cls-4" cx="89" cy="69.2" r="1.8"/>
  <circle class="cls-4" cx="86.1" cy="63.8" r="1.7"/>
  <circle class="cls-4" cx="80.5" cy="61" r="1.8"/>
  <circle class="cls-4" cx="75" cy="63.4" r="1.8"/>
  <circle class="cls-4" cx="71.2" cy="66" r="1.8"/>
  <circle class="cls-4" cx="66.8" cy="66.6" r="1.8"/>
  <circle class="cls-4" cx="66.1" cy="71.4" r="1.8"/>
  <circle class="cls-4" cx="63.5" cy="75.1" r="1.8"/>
  <circle class="cls-4" cx="66.1" cy="78.7" r="1.8"/>
  <circle class="cls-4" cx="66.8" cy="83.4" r="1.8"/>
  <circle class="cls-4" cx="71.2" cy="84" r="1.8"/>
  <circle class="cls-4" cx="75" cy="86.6" r="1.8"/>
  <circle class="cls-4" cx="78.5" cy="83.9" r="1.8"/>
  <circle class="cls-4" cx="83.1" cy="83.2" r="1.8"/>
  <circle class="cls-4" cx="83.8" cy="78.7" r="1.8"/>
  <circle class="cls-4" cx="83.8" cy="71.4" r="1.8"/>
  <circle class="cls-4" cx="83" cy="66.6" r="1.8"/>
  <circle class="cls-4" cx="78.5" cy="66" r="1.8"/>
  <circle class="cls-4" cx="72.5" cy="70.4" r="1.9"/>
  <circle class="cls-4" cx="70" cy="75.2" r="1.9"/>
  <circle class="cls-4" cx="72.5" cy="79.6" r="1.9"/>
  <circle class="cls-4" cx="77.2" cy="79.6" r="1.9"/>
  <circle class="cls-4" cx="79.6" cy="75.2" r="1.9"/>
  <circle class="cls-4" cx="77.2" cy="70.4" r="1.9"/>
</svg>