<svg xmlns="http://www.w3.org/2000/svg" viewBox="0 0 150 149.8">
<!-- SVG created with Arrow, by QuiverAI (https://quiver.ai) -->
  <style type="text/css">.cls-0 {fill:#A66207;}
.cls-1 {fill:#C47E0B;}
.cls-2 {fill:#DD990D;}
.cls-3 {fill:none;stroke:#AF6707;stroke-width:0.6767;stroke-miterlimit:10;}
.cls-4 {fill:#E6A611;}
.cls-5 {fill:#DBA50F;}
.cls-6 {fill:#C47C0B;}</style>
  <path class="cls-0" d="m63 7.8c-2.9 9.2-4.3 19.1-3.1 28.2l10.6-17.9c-2.1-3.7-4.7-7-7.5-10.3z"/>
  <path class="cls-0" d="m85.6 7.5c-3.1 4.2-6 8.6-8.1 13l4.9 15.9 6.8-17.4c-0.7-3.9-2.1-7.9-3.6-11.5z"/>
  <path class="cls-0" d="m31.8 20.3c0.7 6.7 2.8 13.3 5.5 18.7l7.7-8.9c-3.9-3.6-8.6-7.2-13.2-9.8z"/>
  <path class="cls-0" d="m19.4 32.7c2.1 4.9 4.9 9.3 8.1 13.3l6.4-6c-3.8-4.5-9.2-6.4-14.5-7.3z"/>
  <path class="cls-0" d="m6.5 63.6c4.4 3.3 9 6.1 13.8 8.4l6.1-7-8.9-4.4c-3.8 0.5-7.6 1.6-11 3z"/>
  <path class="cls-0" d="m6.6 86.7c4 1.4 8 2.5 11.7 3.2l7.6-5.5-8.1-4.7c-3.9 1.9-7.7 4.2-11.2 7z"/>
  <path class="cls-0" d="m19.6 117.9c4-0.4 7.9-1.4 11.5-2.3l2.8-9.9-7.5 0.9c-2.6 3.5-5.1 7.4-6.8 11.3z"/>
  <path class="cls-0" d="m32.4 130.6c3.8-1.8 7.5-3.7 10.6-6l1.4-9.2-9.2 5.3c-1.1 3.2-2.3 9-2.8 9.9z"/>
  <path class="cls-0" d="m64 142.7c2.6-3.5 5.1-7.2 6.9-11.2l-3.9-8.1-6.2 6.5c0.7 4.4 1.8 8.6 3.2 12.8z"/>
  <path class="cls-0" d="m86.5 142.7c1.6-4.4 2.7-9.1 3.2-13.7l-5.3-6.5-4.4 9.3c1.8 3.7 4 7.4 6.5 10.9z"/>
  <path class="cls-0" d="m117.9 19.6c-3.9 1.7-7.6 3.9-10.8 6.1v8.2l8.3-4.5c1.1-3.1 2-6.5 2.1-9.8h0.4z"/>
  <path class="cls-0" d="m130.4 32c-4 0.5-7.9 1.6-11.3 2.5l-1.6 9.2 6.4-1.4c2.5-3.1 4.8-6.8 6.5-10.3z"/>
  <path class="cls-0" d="m143.5 63.2c-3.8-1.4-7.8-2.4-11.3-3.1l-7.6 5.3 8.5 4.8c3.6-1.8 7.1-4.1 10.4-6.6v-0.4z"/>
  <path class="cls-0" d="m143.7 86.5c-3.1-2.5-6.8-4.9-9.9-6.6l-9.2 1.9 8.1 7.6c3.7-0.6 7.4-1.6 11-2.7v-0.2z"/>
  <path class="cls-0" d="m131.1 117.5c-1.7-3.5-3.7-6.9-6.1-10.2l-8.4-1.6 4.5 9.9c3.2 0.7 6.5 1.6 10 2.1v-0.2z"/>
  <path class="cls-0" d="m117.9 130.3c-0.4-3-1.1-6.2-1.8-9.4l-9.2-4.4 0.6 7.4c3.1 2.3 6.7 4.6 10.4 6.4z"/>
  <path class="cls-1" d="m51.7 22v-11.6c5.9 5.4 11.4 11.3 14.2 16l-0.5 8.4-2.4 5.4-11.3-18.2z"/>
  <path class="cls-1" d="m96.9 10.1c-5.3 5.4-10 10.7-12.5 15.3l2.1 9.2 11.8-11.9c0-4.2-0.5-8.6-1.4-12.6z"/>
  <path class="cls-1" d="m25.4 26.3c1.9 7.1 5.9 14.6 9.2 18.6l7.7-4-1.4-7.8c-4.7-3-9.9-5.3-15.5-6.8z"/>
  <path class="cls-1" d="m8.9 52.5c5.2 5.4 11.4 10.6 16.5 13.1l7.7-3.4-10.5-11.1c-4.7 0-9.2 0.6-13.7 1.4z"/>
  <path class="cls-1" d="m8 97.1c5.2 0.8 10.5 1.5 14.9 1.2l5.5-7.2-10.6-1.4c-3.4 2.3-6.7 5.1-9.8 7.4z"/>
  <path class="cls-1" d="m25.4 124.8c5.2-1.4 10.5-3.5 15-6l3.3-8.2-10.8 5.5c-2.8 2.3-6.1 5.3-7.5 8.7z"/>
  <path class="cls-1" d="m52.4 139.5c4.3-3.8 8.2-8.2 12.1-13.8l-1.4-8.2-11.8 10.1c0 4.1 0.4 8.1 1.1 11.9z"/>
  <path class="cls-1" d="m97.9 139.5c0.7-4.2 1.1-8.4 1.1-12.6l-7.9-6.2-3.7 8c3 3.8 6.7 7.9 10.5 10.8z"/>
  <path class="cls-1" d="m125 124.3c-1.4-4.5-3.2-8.9-5.5-13l-5.5-5.6-6 10.2c5.1 3.6 10.8 6.6 17 8.4z"/>
  <path class="cls-1" d="m141 96.7c-3-3.3-6.4-6.3-9.9-8.6l-8.6 1.3 5.5 8.5c4.4 0 8.7-0.5 13-1.2z"/>
  <path class="cls-1" d="m141.1 52c-4.5-0.7-9.1-1.2-13.5-1.4l-6.5 6.1 5.8 8.7c5.1-3 10.2-7.3 14.2-11.4v-2z"/>
  <path class="cls-1" d="m123.9 25.6c-5 1.5-9.7 3.3-14.2 5.9l-2.4 7 10.6 3.1c2.5-4.3 4.8-9.6 6-14.5v-1.5z"/>
  <path class="cls-2" d="m75 6.6c-4.5 9.2-8.9 19-7.7 29.1l7.7 4 6.8-4c0.8-10.1-3-19.9-6.8-29.1z"/>
  <path class="cls-2" d="m41.7 14.8c0 8.7 1.1 18.1 3.4 23.9l12 1.7-0.6-12.9c-4.1-4.2-9.3-8.7-14.8-12.7z"/>
  <path class="cls-2" d="m14.4 41.5c5 7.9 12 15.2 18 18.4l7.5-5.9-4.6-10.6c-6.4-1.4-13.8-2.1-20.9-1.9z"/>
  <path class="cls-2" d="m6.1 75.1c7.3 3.9 15.4 7 22.3 7.5l4.5-6.2-8.6-8.7c-6.2 1.4-12.7 4.3-18.2 7.4z"/>
  <path class="cls-2" d="m14.3 107.9c6.9 0.1 13.9-0.4 20-1.7l3.1-7.7-11.1-6.3c-4.3 4.2-8.7 9.4-12 14.2v1.5z"/>
  <path class="cls-2" d="m41.9 135.7c5.7-4 11.4-8.8 15.7-13.4l-0.7-9.2-12.5 2.3c-1.9 6.4-2.7 14-2.5 20.3z"/>
  <path class="cls-2" d="m75.1 143.4c4.4-8.4 8.1-17.7 8.1-26.2l-8.2-5.5-7.3 10.8c1.4 6.9 4.1 14.6 7.4 20.9z"/>
  <path class="cls-2" d="m107.8 135 0.9 0.5c0.2-7.2-0.7-15.1-2.6-21.3l-11.8-1.1-0.7 9.2c4 4.6 8.8 8.8 14.2 12.7z"/>
  <path class="cls-2" d="m135.9 107.9c-3.4-4.8-7.2-9.3-12-14.3l-11.3-0.4 4 12.7c5.9 1.6 12.6 2.1 19.3 2z"/>
  <path class="cls-2" d="m144.1 75.1c-5.4-2.9-11.6-5.6-17.7-7.2l-8.9 5.5 8.2 8.4c6.1-1.2 13-3.9 18.4-6.7z"/>
  <path class="cls-2" d="m135.7 41.3c-6.3-0.2-13.4 0.7-19.1 1.9l-4 8.5 10.1 5c4.9-3.6 9.8-9.5 13-15.4z"/>
  <path class="cls-2" d="m108 15.5c-5.6 4.1-11.1 8.3-14.6 12l0.7 9.2 11.8-2.2c1.7-5.3 2.4-12.1 2.3-19.7l-0.2 0.7z"/>
  <path class="cls-1" d="m69.4 43.7c0.5-8.5 2.2-17.1 5.6-24.5 3.5 7.4 5 16 5.6 24.5l-5.6 6.9-5.6-6.9z"/>
  <path class="cls-2" d="m84 20.6c-2.7 4.4-5.2 9.3-5.5 12.3l2.1 12.6 12.6-10.3c0.7-4.2 0.4-9.3 0.2-12.3-2.3 2.3-4.9 5.3-6.9 7.9-0.5-3.5-1.4-7.2-2.5-10.2z"/>
  <path class="cls-2" d="m65.7 20.5c-1 3.1-1.9 6.8-2.1 10.3-1.9-2.6-4.2-5.2-6.7-7.9-0.5 4.6-0.4 9.8 0.2 13.3l9.9 8.7 4.4-13.4c-1.2-3.5-3.5-7.9-5.7-11z"/>
  <path class="cls-1" d="m47.8 26.3c0.3 9.6 4.6 20.2 7.7 26.2l9.9-1.9-1.1-6.2c-3.7-5.7-10.7-14.3-16.5-18.1z"/>
  <path class="cls-1" d="m93.4 34.6-9 10.9 1.1 7 9.8-0.8c3-6.2 6.7-15.5 6.9-25.4-3.2 2.4-6.2 5.4-8.8 8.3z"/>
  <path class="cls-2" d="m40.6 31.5c0.3 3 1.4 6.3 2.6 9.1l-4.5-2.1c0.5 1.5 1.5 3.1 2.4 4.5-3-1.4-7.2-2.3-9.8-2.6 2.3 4.5 6 9 9.3 12l11.8 2.3-1.8-16.2c-2.5-2.6-6.5-5.1-10-7z"/>
  <path class="cls-2" d="m109.4 31.7c-3.3 1.9-7 4.7-9.3 6.8l-4.8 13.2 15.2-1.8c3.3-2.7 6.3-6.5 8.1-10-2.5 0.5-6 1.4-9.2 2.6l2.8-4.9-5.3 2.4c1.3-2.9 2.1-6.1 2.5-8.3z"/>
  <path class="cls-1" d="m26.1 47.1c4.5 6.5 13.1 12.8 19.9 17.9l8.7-1.9-3-8.4c-6.6-3.4-17.4-7.5-25.6-7.6z"/>
  <path class="cls-1" d="m108.9 50.6-11 4.1-2.6 8.4 9.4 1.9c6.8-4.4 15.5-11 19-17.9-4.9 0-10.2 1.5-14.8 3.5z"/>
  <path class="cls-2" d="m22.6 56.5c2.3 2.5 4.9 4.8 7.8 7.1-3.3 0.3-7.5 1.4-10.3 2.3 3.5 2.3 7.9 4.3 11.4 5.7l12.9-1.4 0.5-5.2-9.7-8.3c-3.7-0.7-8.8-0.5-12.6-0.2z"/>
  <path class="cls-2" d="m114.9 56.7-10.2 7.8-0.5 5.7 15.3 1.2c3.4-1.2 7.4-3.2 10.6-5.5-2.7-0.9-6-1.8-10.1-2.3 2.7-1.9 5.3-4.2 7.4-6.9-4-0.5-9-0.7-12.5 0z"/>
  <path class="cls-1" d="m18.9 75.1c7.2 3.2 17.5 5.3 25.5 5.6l5.5-5.2-5-6c-7.5 0-19.2 2.1-26 5.6z"/>
  <path class="cls-1" d="m104.2 69v6.5l2.7 5.2c8-0.7 17.7-2.1 24.4-5.6-6.7-3.1-15.9-5.1-27.1-6.1z"/>
  <path class="cls-2" d="m20.1 83.9c3.2 1.2 7 2.1 10.3 2.5-2.6 1.9-5.7 4.5-7.8 6.5 4 0.5 8.7 0.5 12.6 0l9.7-7.4-0.5-6-13.4-0.7c-3.5 1.1-8.1 3-10.9 5.1z"/>
  <path class="cls-2" d="m119.1 78.8-13.7 1.2v5.5l10 7.4c3.7 0.7 8.2 0.3 12 0-2.1-2.3-4.7-4.3-7.4-6.4 3.2-0.3 6.9-1.2 9.9-2.4-3-2-6.5-3.7-10.8-5.3z"/>
  <path class="cls-1" d="m26.1 101.7c8.4-0.2 18.3-3.4 25.6-6.4l3-7.9-9.8-1.9c-5.7 3.7-14.8 10.2-18.8 16.2z"/>
  <path class="cls-1" d="m104.7 85.1-9.4 2.3 2.6 7.2c6.8 2.5 17 6.7 26 7.1-3.7-5-12.7-12.3-19.2-16.6z"/>
  <path class="cls-2" d="m31.3 109.4 8.9-2.1-3.1 6.9 5.6-2.9-2.1 7.5c3.5-1.8 7-4.3 9.5-6.7l4.6-14.2-16 2.2c-2.8 2.3-5.6 6-7.4 9.3z"/>
  <path class="cls-2" d="m95.3 97.9 4.8 13.8c2.5 2.5 6 5.1 9.3 6.9l-2.5-9.4 4.6 2.7-2.6-5.3 9.7 2.8c-1.8-3.3-4.4-6.8-7.1-9.3l-16.2-5.5v3.3z"/>
  <path class="cls-1" d="m47.8 123.6c6.9-5 13.9-14 17.6-19.4l-1.1-7.5-8.8 1.2c-3.1 6.8-7.4 18.6-7.7 25.7z"/>
  <path class="cls-1" d="m84.4 96.7 1.1 7.5c3.7 5.7 10.7 14.7 16.5 19.4-0.3-7.5-4.1-18.9-6.7-25.7l-10.9-1.2z"/>
  <path class="cls-1" d="m56.9 127.1c2.5-2.3 5.1-5.3 6.7-7.8 0.2 3.2 1.1 6.9 2.3 10.1 2.5-3.5 4.8-8 5.7-11.3l-2.2-13.9-12.3 11.2c-0.6 3.7-0.6 8.2-0.2 11.7z"/>
  <path class="cls-2" d="m80.6 104.2-2.1 14.4c1 3.7 3.1 7.6 5.5 10.8 1.1-3 2-6.7 2.5-10.1 2 3 4.4 5.5 6.7 7.8 0.4-3.9 0.7-8.2 0-11.7l-9.2-11.2h-3.4z"/>
  <path class="cls-1" d="m69.4 105.9c0.8 7.6 2.2 16.6 5.6 24.9 3.1-6.7 5.4-17.3 5.6-24.9l-5.6-6.9-5.6 6.9z"/>
  <path class="cls-3" d="m64.5 46.5c-2.8-3.1-6-5.9-10-8 0 4.5 1 9.3 2.2 13.2m28.8-5.2c2.8-3.1 6.1-5.9 10-8 0 4.5-0.9 9.3-2.1 13.2m-41 4.3c-4.3-0.9-8.3-1.8-13.7-1.8 2.2 3.4 5 6.4 8.9 10.3m50.3-8.3c4.1-0.9 8.7-2 13.6-2-2.1 3.4-5.1 6.4-8.9 10.3m-57.1 6.1c-4.2 1-8.4 2.3-12.6 4.5 3.5 1.8 7.5 3.4 12.6 4.6m58.7-9.1c4.3 1 8.6 2.3 12.8 4.5-3.5 1.8-7.6 3.2-12.3 4.4m-57.1 6c-3.2 2.8-6.5 6.5-9.1 9.6 3.8 0 8.4-0.5 13.9-1.7m50.2-8.3c3.3 3 6.4 6.4 8.9 10-3.9 0-7.9-0.5-13.6-1.7m-41.2 3.7c-1.2 4.9-1.8 9.3-2 14.2 3.2-1.7 6.8-4.9 9.8-8.2m21-0.7c2.8 3.2 6.1 6.1 10 8.9 0-4.2-0.9-9.3-1.6-13.4m-23.5 5.2c0.7 4.4 2.5 8.8 4.6 13.5 2.1-3.5 3.8-8.1 4.5-12.4"/>
  <path class="cls-4" d="m90.4 70.9c4.4-2.3 9-7 11.8-11.5-4.8 0.3-11.1 1.7-16.2 4.4 2.6-4.4 4.1-10.2 4.4-16.7-3.5 2.3-8.6 7.1-11.6 12.5 0-4.9-1.7-11.8-3.8-16.6-1.8 4.2-4.1 11-4.1 16.6-2.5-4-6.9-9-11.3-12.6 0.3 5.9 1.7 11.5 4.3 16.9-4-2.4-10.3-3.8-16.1-4.5 2.8 4.2 7.3 8.3 12.1 11.5-4.8 0-11.6 2-16.5 4.2 4.4 1.8 10.2 3.9 16.5 4.1-3.5 2.1-8.6 6.6-12.3 11.2 4.4-0.3 11.4-1.6 16.4-4.2-2.3 4.2-3.9 10.5-4.4 15.8 4.3-3 8.8-6.9 11.3-11.9 0 4.7 1.6 11 4.1 16.3 2.1-4.4 4.2-10.7 3.9-16.3 2.7 4.5 7.5 8.9 11.5 11.9-0.3-4.9-1.8-11.4-4.2-16 4.2 2.3 10.2 3.9 16 4.4-2.8-3.9-7.1-8.3-11.8-11.4 4.9 0 11.1-1.6 16-3.9-4.4-1.9-10.4-4.2-16-4.2z"/>
  <path class="cls-6" d="m75 64.5c-5.6 0-10.5 4.5-10.5 10.5s4.5 10.5 10.5 10.5 10.5-4.6 10.5-10.4-4.6-10.6-10.5-10.6z"/>
  <path class="cls-5" d="m75 66.4c-4.4 0-8.4 3.8-8.4 8.7 0 4.4 3.8 8.4 8.4 8.4s8.4-3.6 8.4-8.4-3.9-8.7-8.4-8.7z"/>
  <path class="cls-0" d="m65.7 38.7c-1.2 4.5-1.7 9.6-1.2 12.6 2.1 2 4.6 4.7 6.2 8.3 0-3.2 0.9-7.2 2-11-1.6-3.5-4.3-7-7-9.9z"/>
  <path class="cls-0" d="m84.1 38.7c-2.5 2.9-5.5 6.4-7 9.9 1 3.4 1.7 6.9 1.7 11 1.8-2.7 4.6-6 6.8-8.3 0.2-4.1-0.1-8.6-1.5-12.6z"/>
  <path class="cls-0" d="m48.8 48.1c1.3 4.8 3.6 9.8 5.7 12.3 3.6 0.7 7 1.6 9.5 3.4-1.6-2.7-2.9-6.9-3.4-10.2-3-2.3-7.5-4.2-11.8-5.5z"/>
  <path class="cls-0" d="m101.1 48.1c-3.7 1.1-7.9 2.5-11.6 5.5-0.5 3.1-1.7 7-3.5 10.2 3.4-1.6 7.2-2.7 9.7-3.4 2.2-2.8 4.4-7.5 5.4-12.3z"/>
  <path class="cls-0" d="m38.8 65.6c3.2 3 7.2 5.8 10.6 7.3 3.5-1.1 7-1.8 10.5-2-2.5-1.5-5.2-3.9-7.5-6.6-4.1-0.3-9.6 0.2-13.6 1.3z"/>
  <path class="cls-0" d="m98.3 64.3c-2.6 2.7-5.1 5.1-8.1 6.6 3.4 0 7.4 0.9 10.9 2 3.6-1.5 7.6-4.3 10.1-7.3-3.7-0.9-8.8-1.6-12.9-1.3z"/>
  <path class="cls-0" d="m38.8 84.4c4.4 1.2 9.5 1.6 12.9 1.4 2.3-2.4 5.2-4.9 8.2-6.6-3.4 0-6.8-0.9-10.9-1.8-3.5 1.6-7.4 4.4-10.2 7z"/>
  <path class="cls-0" d="m101.1 77.2c-3.5 1.1-6.8 1.8-10.7 2 2.8 1.7 5.6 4.2 7.9 6.6 3.9 0 8.6-0.2 12.9-1.4-2.7-2.6-6.5-5.4-10.1-7.2z"/>
  <path class="cls-0" d="m48.7 100.9c4.2-1.2 9.2-3 11.9-5.2 0.5-3.2 1.8-6.3 3.4-9.5-2.9 1.6-6.4 2.4-9.5 3.2-2.1 3.1-4.4 7.5-5.8 11.5z"/>
  <path class="cls-0" d="m86.2 86c1.6 3.4 2.8 6.5 3.5 9.7 3.2 2.2 7.2 3.7 11.4 5.2-1-4-3.2-8.4-5.1-11.5-3.3-0.8-7-1.6-9.8-3.4z"/>
  <path class="cls-0" d="m65.7 111.3c2.7-2.8 5.4-6.4 7-10.7-0.9-2.7-1.8-6.3-2-10.5-1.6 2.8-3.9 5.4-6.2 7.5-0.5 4.4 0 9.5 1.2 13.7z"/>
  <path class="cls-0" d="m77.2 100.6c1.6 3.6 4.4 7.4 6.9 10.7 1.2-4.2 1.7-8.7 1.5-13.4-2.2-2.2-4.7-4.5-6.7-7.8-0.1 4.2-1 7.8-1.7 10.5z"/>
</svg>