<svg xmlns="http://www.w3.org/2000/svg" viewBox="0 0 150 150">
<!-- SVG created with Arrow, by QuiverAI (https://quiver.ai) -->
  <style type="text/css">.cls-0 {fill:#E6B014;}
.cls-1 {fill:#272319;}</style>
  <path class="cls-0" d="m113 76.3c15.1-4.3 28.2-22.6 28.2-22.6-13.4-2.5-25.7-1.9-37.2 3.6 10.2-10.3 13.6-27.2 13.9-38.9-11.3 4.3-25.5 12.2-33.1 25.5 1.6-12.6-3.9-26.6-9.8-37.4-5.9 9.9-11.1 22.9-9.8 37.5-7-12.1-19.4-19.8-33.3-25.6 0.4 9.8 3.6 26.9 13.9 38.9-8.5-4.4-19.7-6.2-37.1-3.6 3.5 5.2 14.6 17.3 28.6 22.6-12.4 2.1-23.9 11.3-30.5 17.9 6.9 2.1 18.7 4.6 32.3 2.1-5.9 6.6-11 16.1-13.9 28.3 8.3-1.7 23.7-7 31.8-17.5-3.8 12.3-0.4 28.3 2.6 36.4 4.9-5.3 13.3-16.6 15.4-28 1.6 8.2 7.5 19.1 15.6 28 2.8-8.1 6.3-22.8 2.6-36.4 7.6 9.2 21.6 14.8 31.6 17.5-1.4-6.2-5.7-18.3-14-28.3 8.3 2.1 19.6 1.6 32.4-2-4.1-4.9-15.8-15.5-30.2-18z"/>
  <path class="cls-1" d="m75 45.1c-15 0-28.9 14.7-28.9 35.6 0 14.7 11.3 18.2 28.9 18.2s28.7-2.6 28.7-18.2c0-13.6-8.7-35.6-28.7-35.6z"/>
</svg>