<svg xmlns="http://www.w3.org/2000/svg" viewBox="0 0 150 150">
<!-- SVG created with Arrow, by QuiverAI (https://quiver.ai) -->
  <style type="text/css">.cls-0 {fill:#BF880A;}
.cls-1 {fill:#E6B411;}
.cls-2 {fill:#D79F0C;}
.cls-3 {fill:#CA940B;}</style>
  <path class="cls-0" d="m136.6 83.7c2.9 2.9 2.9 7.7 0 10.6-1.3 1.3-2.9 2.1-3.9 2.1-2.2 2.9-6.1 12.9-6.7 14.2 1.9 3.9 0.6 8.7-2.9 11.2-2.9 2.1-7.4 2.5-10.7 0.2-1.6 1.3-11.9 7.1-14.1 8.4 0 4.2-3.3 8.1-7.8 8.1-2.3 0.1-4.5-0.8-6.2-2.5l-8.3 6.6-9.6-6.1c-3.9 3.3-9 2.6-11.4-0.1-1.3-1.3-1.8-2.8-1.8-4.5l-13.5-6.9c-4.2 3-9.4 2.4-12.4-0.8-2.9-3-3.5-7.3-1.3-10.5l-8-16.6c-3.5-0.5-6.6-3.4-6.6-7.5 0-2.1 0.8-3.7 2-5.2l0.1-17.9c-3.4-3.4-3.5-10.4 3-13.5l6.9-14.5c-2.4-4.8 0-9.6 3.5-11.9 2.6-1.6 6-2 8.8-0.6l14.2-7.6h0.3c0-4.5 3.6-8.3 8.1-8.3s7.1 2.2 7.7 3.8l17.7-0.7c1.6-1.9 3.6-3.1 6.7-3.1 3.7 0 7.2 2.5 8.1 6.3l13.4 8.3c3.8-1.9 8-1.6 10.8 1.3 2.3 2.3 3 5.8 1.6 9.6l11 17.7 1.3 12.3v18.1z"/>
  <path class="cls-1" d="m75.1 7.3c-4.9 0-9.7 3.7-9.7 10 2.9-0.4 6.1-0.7 9.6-0.7 2.9 0 6.1 0.2 9.4 0.7 0.3-5.7-4.2-10-9.3-10z"/>
  <path class="cls-1" d="m37 29.7c4.5-3.4 9.7-6.6 14.9-8.9-2.6-5.2-9.4-6.5-13.6-2.7-3.3 3-3.6 7.5-1.3 11.6z"/>
  <path class="cls-1" d="m19.6 55.3c1.9-5.2 4.5-10.4 8-15.6-3.8-2.4-9-1.2-11.6 2.7-2.8 4.5-1.3 10.6 3.6 12.9z"/>
  <path class="cls-1" d="m16.9 66.1c-5.3 0-9.9 4.2-9.9 9.5 0 5.2 4 9.3 9.9 9.3-0.6-4.1-0.8-8.3-0.6-11.9 0.1-2.4 0.3-4.6 0.6-6.9z"/>
  <path class="cls-1" d="m20.2 95.6c-2.9 1.6-5.2 4.6-5.2 8.5 0.3 5.2 4.6 10.4 11.4 9.8 1.2-0.2 2.2-0.6 3.1-1.3-3.5-4.2-7-10.2-9.3-17z"/>
  <path class="cls-1" d="m41.5 120.6c-2.9 3.9-1.3 10.6 4.2 12.6 3.9 1.3 8.7-0.2 10.4-4.7-4.9-2-10.1-4.6-14.6-7.9z"/>
  <path class="cls-1" d="m65.9 132.9c0 5.7 4.3 9.8 9.5 9.8 5.1 0 9.2-3.8 9.2-9.8-2.8 0.4-5.7 0.6-8.9 0.6s-6.5-0.2-9.8-0.6z"/>
  <path class="cls-1" d="m95.9 127.6c1.7 3.8 6.5 6.1 10.7 4.7 5.8-1.7 7.5-8.4 4.2-13.4-4.2 2.9-9.3 6.1-14.9 8.7z"/>
  <path class="cls-1" d="m129.2 93.7h-0.1c-1.9 4.6-4.4 9.6-8.5 14.9 3.5 2.8 9.2 2.4 12.2-1.7 2.5-3.6 1.9-10.3-3.6-13.2z"/>
  <path class="cls-1" d="m133.3 65.3h-0.6 0.6c5.3 0 9.8 4 9.8 9.4s-4.2 9.4-9.8 9.4c0-0.1 1.3-8.3 0-19v0.2z"/>
  <path class="cls-1" d="m120.1 37c3.6 4.5 6.8 9.6 9.7 16 3.5-1.6 6.2-6.4 4.3-11.3-2-4.8-8.4-8.3-14.2-4.7z"/>
  <path class="cls-1" d="m95.3 19.7c4.6 1.9 10 4.3 15.3 8.7 2.5-3.1 2.2-8.7-1.5-11.5-4.1-3.5-11.1-2.8-13.8 2.8z"/>
  <path class="cls-2" d="m44.3 39.7c5.3-3.4 11.4-6.6 18.2-9.6-1.3-4.5-7.1-8.7-13.2-7-6.5 1.9-10.1 10.3-5 16.6z"/>
  <path class="cls-2" d="m29.6 62.9c2.6-5.9 5.8-12.3 10-18.9-2.9-2.9-9-3.9-13.2-0.6-5.8 4.5-5.2 15.9 3.2 19.5z"/>
  <path class="cls-2" d="m29.3 85.6c-0.4-6-0.4-13.2 0.1-20.9-5.3-1-12.8 3-12.8 10.3 0 6.6 6.5 11.6 12.7 10.6z"/>
  <path class="cls-2" d="m38.4 103.7c-3-4.8-6.2-10.7-9.2-17.3-3.8 1-7.7 5.2-6.8 10.2 1.1 7.9 10.1 11.5 16 7.1z"/>
  <path class="cls-2" d="m46.7 119.7c-0.7-2.1-1-4.4 0.3-6.4-3.2-2.3-6.1-5.2-9.6-9-4 1.3-6.2 1.8-6.2 7.1 0.3 7.9 8.7 11.9 15.5 8.3z"/>
  <path class="cls-3" d="m64.4 121.9c-5.2-1.9-10.7-4.5-17.1-9-2.9 4.7 0 12.7 7.1 13.7 3.9 0.8 8.4-0.7 10-4.7z"/>
  <path class="cls-2" d="m64.4 120.6c0 6.3 4.5 12.7 10.6 12.7 6.5 0 11.3-5.2 10.6-12.7-3.2 0.3-6.4 0.3-9.6 0.3-3.5 0-7.4 0-11.6-0.3z"/>
  <path class="cls-3" d="m85.6 120.6c1.7 3.9 5.9 6.3 10 5.8 6.8-0.5 10.4-6.7 8.5-13.8-5.6 3-11.7 5.8-18.5 8z"/>
  <path class="cls-2" d="m104.1 112.4c0.6 1.3 0.3 0.9 0 0zm0 0c0.6 1.7 0 0.5 0 0 4.1 6 15.8 6 16.4-5 0-1.3-0.3-2.9-0.6-3.7-2.3 0.4-4.9 0.8-7.5-0.4-2.5 3.1-5.1 6-8.3 8.6v0.5z"/>
  <path class="cls-2" d="m112.2 103c7.3 3.6 14.7-0.6 14.7-8.3-0.3-4.1-2.8-7.3-6.4-8.8-1.9 5.5-4.8 11.5-8.3 17.1z"/>
  <path class="cls-2" d="m120.5 64.7c0.6 6.7 0.3 13.7 0 20.9 6.1 1.3 13.2-3.7 13.2-10 0-7-6.8-12.2-13.2-10.9z"/>
  <path class="cls-2" d="m110.4 44c3.3 5.3 6.9 11.3 9.7 18.7 4-0.6 8.8-6.1 7.5-12.6-1.9-6.7-10.7-11.2-17.2-6.1z"/>
  <path class="cls-3" d="m87.6 29.9c5.5 2.2 11.3 5.1 17.8 9.7 5-5.2 3.2-14.3-4.9-16.8-5.2-1.2-11.3 1.6-12.9 7.1z"/>
  <path class="cls-3" d="m64.7 29.6c3.2-0.2 6.5-0.3 10-0.3 3.2 0 6.4 0.1 10.6 0.3 1.3-5.9-3.5-12.7-10.6-12.7-6.4 0-11 6.2-10 12.7z"/>
  <path class="cls-1" d="m110.8 75.3c4.9 0 9-4.2 9-9.7-0.3-6-6.7-11.6-13.8-8.6 2.6-1.4 4.8-4.6 4.6-9.1-0.4-4.5-4.3-8.6-10.1-8.5-2.9 0-5.5 1.7-7.5 4 2.6-5.5-0.6-12.8-8.3-13-4.8 0-9.3 3.6-9.6 8.7-0.1-4.7-4.9-9-9.7-8.7-6.5 0.2-11 6.6-8.3 13-1.7-2.3-4.3-4-7.9-4-5.1 0-9.2 3.7-9.7 8-0.3 4 1.7 7.9 4.3 9.6-3.2-1.7-7.4-1.4-10.3 1.1-2 1.6-3.6 4.3-3.4 7.5 0 5 4 9.1 9.1 9.7-4.8 0.3-9.1 4.3-9.1 9.4 0 6.4 6.6 11.2 13.7 8.2-2.9 1.8-4.9 5.5-3.9 10.1 1 4.1 4.8 7.6 9.7 7.6 3.2 0 6.1-1.3 7.5-4.2-2.4 6 0.8 12.9 8.3 13.5 5.1 0.1 10-3.5 9.7-8.8 0.3 5.3 4.8 8.9 9.3 8.9 6.1 0 11.2-5.5 8.8-13.9 1.5 3.2 5 4.8 7.9 4.6 4.5-0.1 9.1-3.1 9.3-8.3 0.4-3.8-1.2-7.7-4.4-9.5 6.8 2.7 13.9-1 13.8-8.2-0.3-5.1-4.1-9.1-9-9.4z"/>
  <path class="cls-0" d="m100.1 68.6c2.1-1 3.6-3.3 3.5-6.2-0.2-4-4.4-8.7-10.2-5.8 2.9-5.2-1-11-6.1-11-2.6 0-4.9 1.4-6.1 4.3 0.6-4-2.3-7.2-6.1-7.2-3.6 0-7.2 2.9-6.6 7.2-1.2-2.5-3.5-4.3-6-4.2-4.9 0-8.1 5.4-5.5 10.9-5.1-2.9-10.6 0.3-10.6 5.8 0 2.6 1.6 5 4.1 6.2-4.1-0.2-7.6 2.5-7.6 6.7 0 3.6 3.1 6.8 7 6.3-2.3 1.1-3.8 3.4-3.5 6.5 0.3 3.8 5.1 7.8 10.5 4.9-2.5 4.6 0.5 10.3 5.6 10.3 2.5 0 4.8-0.9 6-3.7-0.2 3.7 2.7 7.3 6.6 7.3 3.8 0 6.7-3.2 6.1-7.5 1.2 2.7 3.5 3.9 6.4 3.9 4.8 0 8.4-5.2 5.8-10.3 4.8 2.6 10-0.4 10.2-5.1 0.1-2.9-1.4-5.2-4-6.5 3.8 0.5 7.3-2.3 7.3-6.1 0-3.7-2.8-6.9-6.8-6.7z"/>
  <path class="cls-1" d="m74.3 61.9c-1.2-4-4.7-7.8-9.9-7.8-5.8 0-10 4.5-10 10.3 0 4.5 3 8.7 7.4 10.2 0.3-6.5 5.8-12.2 12.5-12.7z"/>
  <path class="cls-1" d="m61.8 76c-3.9 1-7.4 5.1-7.4 9.6 0 5.5 3.9 10 10 10 4.5 0 8.7-2.7 9.9-7.2-6.4-0.3-11.9-5.4-12.5-12.4z"/>
  <path class="cls-1" d="m88.5 75.9c-0.3 6.5-5.7 12-12.6 12.5 1.1 4 4.9 7.2 9.7 7.2 5.9 0 10.1-4.2 10.1-10 0-4.2-2.9-8.2-7.2-9.7z"/>
  <path class="cls-1" d="m85.6 54.1c-4.5 0-8.6 2.9-9.9 7.8 6.5 0.2 12.2 5.1 12.8 12.5 3.9-1 7.2-5.1 7.2-9.7 0-5.8-4.2-10.6-10.1-10.6z"/>
  <path class="cls-1" d="m75.1 65.4c-5.2 0-9.7 4.2-9.7 9.9 0 5.1 4.2 9.4 9.7 9.4 5.1 0 9.5-4.1 9.5-9.4 0-5.2-4.4-9.9-9.5-9.9z"/>
</svg>