<svg xmlns="http://www.w3.org/2000/svg" viewBox="15 44.6 98 97">
<!-- SVG created with Arrow, by QuiverAI (https://quiver.ai) -->
  <style type="text/css">.cls-0 {fill:#D6400B;}
.cls-1 {fill:#FCF6E8;}
.cls-2 {fill:#EA4A13;}</style>
  <path class="cls-0" d="m107.9 93.3c1-0.7 1.2-1.9-0.4-2.2-0.9-0.1-2 0.2-2.9 0.7 1.7-1.6 2.3-4.1 0.3-4.1 2-0.7 0.4-2.7-1-3.6 2.5 0.5 5.2-0.6 3.2-2.2l-0.2-0.1c1-1.6 0.2-2.5-1.6-2-0.7 0.2-1.4 0.7-2.1 1.3 0.9-1.8 1-4.6-1.1-4 1.6-0.7 0.9-2.3-1.7-3.4 3-0.2 4.7-2.5 2.1-3 0.7-1.8-0.4-2.1-1.8-1.4-0.7 0.3-1.4 1.2-1.9 1.9 0.7-2.3-0.2-4.4-1.8-3.2 1.4-1.4-0.5-2.3-3-2.4 2.5-0.6 4.2-3.6 1.6-3.6 0-2.2-2.1-1.6-3.2 0.7l-0.3 0.9c0-2.5-1.4-4.5-2.5-3.1 1.1-1.7-1.7-2.4-3.8-1.9 2.4-1.4 3.5-4.8 0.7-3.7-0.7-2.9-2.8-0.7-3.2 2.1-0.7-2.1-2.4-3.7-3.3-1.8 0.7-1.9-1.9-2.1-4.1-0.9 2-1.7 2-5.6-0.3-3.8-1.1-2.1-2.7-0.5-2.3 3.1-1.4-2.4-3.7-3.3-4-1.2 0-2.3-2.6-1.2-4 0 1.4-2.6 0.2-5.6-1.4-3.3-1.6-1.8-2.7-0.2-1.8 2.9v0.4c-1.7-1.4-4.2-2.3-3.5-0.2-0.7-1.7-2.6-0.7-3.7 1.4 0.7-2.8-1.1-5.6-2.1-3.1-2.3-1.4-2.8 0.7-0.7 3.7-1.9-0.9-4.2-1.3-3.7 1-1-1.9-2.8-0.3-3.5 2.1 0-3-2.6-5.3-3-2.4-2.6-0.9-2.4 1.9 0.4 3.7-2.3-0.4-4.6 0.2-3.4 1.9-1.4-1.4-2.8 0.6-2.6 2.9-0.9-2.9-3.9-4.3-3.7-1.4-2.3-0.2-2.1 2.3 1.6 3.4-2.5 0.2-4.4 1.2-3 2.6-1.6-0.9-2.3 1.1-1.8 3.2-1.7-2.3-4.9-3-3.8-0.4-2.5 0.2-1.6 2.5 2.3 2.9-2.3 0.7-3.9 2.5-2.1 3.4-2-0.6-2.1 1.5-1.1 3.8-2.1-1.8-5.4-1.8-3.7 0.7-2.1 0.9-0.7 3 3.2 2.5-1.9 1.2-3.3 3.4-1.1 3.6-2.1-0.2-1.7 2.3 0 3.9-2.6-1.4-5.4-0.2-3.5 1.6-1.7 1.6 0 2.7 3.4 1.4-1.6 1.8-2.3 3.8 0 3.6-1.8 0.4-1.1 2.5 1.2 3.8-2.6-0.4-5.3 0.8-3.2 2.3-1.2 1.9 0.7 2.5 3.5 0.7h0.2c-1 2.3-0.5 4.1 1.1 3.2-1.6 1.1 0 2.8 2.1 3.4-2.8 0-4.9 2.5-2.3 3.2-0.7 2.7 2.3 2.3 3.8-0.2-0.5 2.7 0.6 4.7 2 3.2-1.6 1.6 0.7 2.9 3 2.7-2.3 0.7-4.2 3.4-1.6 3.6h-0.2c-0.2 2.3 2.5 1.6 3.5-1.4 0.2 3 1.8 4.3 2.8 2.5-1 1.8 1.8 2.3 3.7 1.6-2.1 1.6-3.1 4.6-0.2 4.1 0.6 1.6 2.7-0.2 2.5-3.1 1.1 2 3.2 1.1 3.5-1.6 1.1 2.4 4 1.5 4.4-0.7 0.7 1.8 2.8 1.1 3.9-1.1 0.5 2.2 3 1.5 4-0.5 0.7 1.8 2.8 1.3 3.9-0.7 0.7 2 2.8 1.8 3.8-0.2 0.9 2.2 3.2 2.5 3.9-0.2 1.2 1.6 3.3 1.3 4-0.7 1.1 1.4 3.4 1.4 4.1-0.5 1 1.8 3.5 2.1 4-0.4 1.1 1.6 3.5 1.6 1.4-1.9 2.3 0.9 4.2-0.2 3.7-2 1.5 1.8 4 1.1 4-1.1 1.6 1.3 3.7 0.2 3.2-1.8 1.7 1.1 3.7 0.4 3.5-1.7 1.6 1 3.2 0 2.6 1.7 0.7 2.5 4.1 3.4 1.1 0.6 2.3 0.9 0.9-2.5-1.1-3.4 2.1 0.2 2.8-2 1.3-3.4 1.9 0.9 3.3-0.5 1.2-3.4 2.3 1.6 4.4 1.4 2.3-0.7 2.1-0.7 0.7-2.5-2.8-2.3 2.4-0.7 2.8-2.9 0.3-3.6 2.3 0.4 4-1.6 0-3.6 2.1 1.1 5.4 0.6 3.2-1.4l-0.4 0.1zm-22.8-20 0.5-0.2v0.2h-0.5zm-2.5-2.1v0.4l-0.3-0.2 0.3-0.2zm-10-13 0.5-0.2-0.1 2.3c-0.2 0.1-0.6 0.4-0.7 0.6l-0.2-0.5-0.2-0.1c0.4-0.5 0.7-1.4 0.7-2.1zm-17.2-0.2c0.2 0.8 0.6 1.6 0.9 2.2l-0.5 0.9-0.4-0.6-0.5-0.2-0.2-2.3h0.7zm-8.7 5.8c-0.2-0.7-0.4-1.3-0.7-2.2 0.5 0.8 1 1.3 1.7 2l-0.2 0.5-0.8-0.3zm-0.9 7.4 0.2 0.2-0.2 0.2v-0.4zm-3.2 1.8 0.9 0.5h-0.9v-0.5z"/>
  <path class="cls-2" d="m39.6 115 0.6 1.6 1.2-0.2 0.2 0.9 1.2 0.2 0.5 1.4 1.1-0.5-0.4-2.2-1.7-1.8z"/>
  <path class="cls-0" d="m98.4 75.7c0 2.5-1.9 4.8-3.1 3l-1.3-0.5c-0.8 0.7-2.1 0.9-3.3 0.7 0.9 0.4 1.7 0.7 2.1 1.3 1.9-1.1 2.5 1.4 1.1 3.7 0.5-0.5 1-0.9 1.5-1.1-0.1-0.5 0-1 0.6-1.4-0.6-2.5 2.1-2.1 3.8-0.2-0.3-0.7-0.7-1.4-0.8-2.3-0.4-0.5-0.6-1.4-0.6-3.2zm-5.1-0.6 2-0.7c-0.7 0.6-1.4 1.1-1.8 1.6l-0.5-0.2 0.3-0.7zm-63.3 0.6c-0.2 1.2-0.6 2.1-1.1 2.7-0.1 0.9-0.5 1.6-1 2.5 2.3-2 4.9-1.8 4.2 0.5 0.5 0.4 0.7 0.9 0.5 1.4 0.5 0.2 1.1 0.6 1.6 1.1-0.9-1.8-0.7-4.6 1.2-3.4 0.6-0.5 1.4-1 2.3-1.2-1 0.2-2.3 0-3.3-0.7l-1.1 0.3c-1.4 2-3.1-0.3-3.3-3.2zm-1.1 8 2.1 0.2 0.6 0.7-0.4 0.3c-0.5-0.5-1.4-0.8-2.3-1.2zm67.8 0.2 2.3-0.2c-0.9 0.4-1.8 0.7-2.3 1.2l-0.6-0.1 0.6-0.9zm-69.9 1.6c0 1.1-0.1 2-0.5 2.7l0.2 0.4-0.2 2.1c1.6-2.5 3.9-3 3.9-0.7 1.2 0.7 1.4 2.5-2.7 3.2 3.4 0.2 4.4 1.8 3 2.9-0.2 2.5-2.6 1.4-4.2-0.9l0.2 2.3-0.2 0.5 0.4 1.6v1.1c1-3 3.3-4.1 3.8-2.1l0.9 0.5c0.7-9.3 0.7 0 2.1 0-1.9-0.4-3.2 1.4 0 3.5-0.9-2.4-1.9-2.4-1.9 6.3-0.4 0.5-1.6 0.7-3.5-0.9l0.8 1.6 0.2 0.2 0.2 0.9 0.7 1.2c0.3-3.3 2.1-6.4 4-4.6l0.2 0.2h0.2l0.5 0.2c0.7-0.8 2.1-1.3 3.2-1.1-0.9-0.5-1.8-0.7-2.5-1.2-2.3 1-2.6-1.5-1.2-3.5-0.7 0.7-1.4 0.9-1.8 1.3 0.2 0.7 0 1.1-0.3 1.4 0.5 2.9-3.2 1.6-4.2 0l-0.7-2.1 1.4-0.2 2.2-1.1 0.6 0.2-0.4 0.6h0.9l1.2-1.1 0.4-0.2h-0.2l1.2-4.6 0.7-0.9-0.3-0.2 0.9-0.4 0.3 0.6 0.4-0.4-0.9-3.9 0.5-0.4-0.5-0.3-0.4 0.9-0.7-1.3h-0.7c-2.3 0-2.3-2.1-0.3-3.2l-0.2-0.2 0.2 0.2v-0.2l-1.6 0.2c-0.5 0-1.4 0.4-1.6 1.1-1 1.4-3.1-0.2-3.7-2.2zm64.6 6.4 1.2-0.5 0.4 0.2-0.6 0.5-1-0.2zm2.1 3.1-0.7 0.2-0.7-0.6 1.4 0.4zm-58.8-3.6 0.7-0.3 0.6 0.8-1.3-0.5zm0.2 3.6 0.9-0.4-0.4 0.6-0.5-0.2zm55.8 6.6-0.5 0.3c-2 0.6-4.6 0.2-3.2-1.9-0.7-1.8 0.7-2.3 2.1-2-0.2-0.7-0.2-1.6 0.2-2.8-0.4 0.5-0.7 1-1.2 1.4 0 0.9-0.9 1.1-1.4 1.6-0.9 0.7-1.1 2.3-0.4 3.4 0.9-0.2 1.8 1.6 2.1 3 0.2-1.4 0.9-2.6 2.3-3zm-48.3 4.1 1.5-1.1 0.3 0.6-1.8 0.5zm3.2 2.3h0.9l0.9 0.4 0.5 0.9 1 0.5-0.5 1.4h-0.3l0.1 0.9-0.1 1.1c-0.6-0.4-1.4-0.2-2.3-0.4 0.9-0.3 1.6-0.5 1.9-0.9l-0.2-0.5 0.4-0.2-0.5-1.4-0.2-0.7-0.7-0.7-0.9-0.4z"/>
  <path class="cls-0" d="m94 115.9c0.7 0 1.6-0.2 1.8-0.4-0.7 0.7-1.2 1.4-1.6 2.2-0.7 0.5-1.4 1.4-1.9 2.1 0.7-2.5-0.7-6.1-2.5-4.3-0.5-0.2-1 0-1.4 0.4l-0.2 0.3 0.4 0.2-0.2 0.5-0.2-0.3-0.3 0.5 0.2-0.7h-0.7l-1.1-0.5-0.5 0.3 0.2 0.9 0.7 0.9-0.2 0.4 0.2 0.2-0.2 0.3 0.2 0.2-0.2 0.3-0.5 0.4 0.3 0.2 0.4-0.4 0.5-0.9 1.2-1.8 0.4-0.5h0.3l0.2 1.3 1.2 1.2-0.5 0.2c-0.5-0.4-1.4-1.1-2.1-1.3l-0.9 1.8c0.9 0.4-0.3 0.9-0.3 1.6 0.7 1.3-2.3-0.7-1.4-1.2-1.4 0.5-1.8 0.2-3.2-0.4 0.9 0.6 1.2 1.1 0.5 0.9 0.7 0.4 1.1 0.9 0 0l-0.5-0.3-0.5-0.2h-0.2l-1.2-0.4-0.4 0.2-0.3-0.2-0.2 0.2-0.9-1.2-0.7-0.2-0.3-0.4-0.2 0.4-0.5-0.4-0.9-0.3-0.7-0.6-1.1 0.4-0.7-1.1-1.7-0.2-1.1 0.4-0.7-0.2-1 0.7-0.6 0.6-1.9 1.2c1.1-0.3 2.1-0.3 2.8-0.2-0.5-1.6 0.4-3.2 1.6-2.5 1.2-0.9 1.9 0 1.9 0.9l1.4 0.6 0.2 0.3h0.2-0.2l0.2 0.2-0.4 0.2-0.7 0.5 0.7 0.5 0.2 0.2 0.2-0.7 0.5 0.5-0.9 0.4-0.9 0.9c0.9-2.1 0.2-5.2-1.7-4.3-1.9-0.9-3 2.7-3.7 0.7-1.4 0.4-2.4 0.4-3.5 0.6-1-0.4-2.3-0.6-3.7 0 0.9-2.2 0.2-5.4-2.6-7.2-1.4-1.8-3.5-1.6-5.1 1.1 0-2.7-1.9-5.4-4.9-2.7 1.9-2.3 1.2-4.3-2.3-4.6 1.9-0.7 3.3-2.5 1.8-4.1 1-2.2-1.4-3.4-4.1-2.2 2.1-2.3 1.6-4.8-0.7-4.6l-2.4-0.4 2.1-0.2c2.1 0.2 3.5-1.9 1-5 2.3 1.3 5.3 0.6 4.1-1.9 1.7-1.5 0.5-3.2-1.8-4.1 2.1 0.1 4.9-1.6 3.2-4l-1.1-2 1.4 1.3c1.8 1.8 3.9-0.2 3.7-3 0.9 1.9 2.8 3.6 4.4 1.9 1.9 0.9 3.2-1.4 1.6-3.9 1.6 1.8 5.2 1.8 4.7-0.9 1.9 0 0.9-2.5 2.6-3.2-0.8 0.4-2.4 0.4-3.5 0 0.7 2-0.7 3.8-3.3 2.9-0.3-1.3-1.9-1.6-3.3-1.8 1.4-0.2 3.1-0.7-0.4-1.4 1.9 0.7 3.5 0.5 3.7-0.6-0.7 2.5 0.2 4.1 1.8 2.9 1.5 0.9 2.2-0.7 1.7-2 0.7 0.4 1.6 0.4 3.3 0l-1.4 1.1c-1.4-0.2-1.7 1.4-2.4 2 1 2.2 4.9 2.6 4.9 0.3 0.2-0.9 0.3-1.8 0.3-2.1l-2.9-4.8 0.5-0.2 1.4 2 0.3-0.2-0.7-1.8 0.6-0.2 0.8 2.2h0.4l1-2 0.6 0.2-2 4.1 1.6-0.6c1.1 0.4 2 0.4 2.5 0-0.5 1.6 0 2.5 1 2.2l0.4-0.2c1.4 1.2 2.6 0.2-0.4-1.1 2.8 1.6 0.4 2.3 0.4 2.3 0.7 0.2 1.5 0 2.1-0.3 0.3-1.1 1.9-1.6 3.1-1.8-1.4-0.2-3.1-0.7-5.6-1.4 1.9 0.7 3.5 0.5 3.7-0.6-0.7 2.5 1.4 4.1 3 4-0.9 0.3-2.5 0.7-1.6 0.3 0 0-1.6 0 0 0l0.7-0.2h0.5l0.2 0.2 0.7 0.2 0.6 0.3 0.1 0.2h0.2l1.9 1.2c-1-0.2-2.1-0.3-2.8 0l-3.3-1.9-0.2 0.2 2.8 1.4 0.4 0.5 0.5 0.2 0.4 0.2 0.1-0.2 0.2 0.2 0.2-0.2 0.3 0.4h-0.5l-0.2 0.3-0.1-0.3-0.2 0.3-0.4-0.3-0.3 0.3-0.4-0.3-0.2 0.3-0.5-0.3-0.2 0.3-0.5-0.3-0.2 0.3-0.5-0.3-0.2 0.3-0.5-0.3-0.2 0.3-0.5-0.3-0.2 0.3-0.5-0.3-0.2 0.3-0.5-0.3-0.2 0.3-0.5-0.3-0.2 0.3-0.5-0.3-0.2 0.3-0.5-0.3-0.2 0.3-0.5-0.3-0.2 0.3-0.5-0.3-0.2 0.3-0.5-0.3-0.2 0.3-0.5-0.3-0.2 0.3-0.5-0.3-0.2 0.3-0.5-0.3-0.2 0.3-0.5-0.3-0.2 0.3-0.5-0.3-0.2 0.3-0.5-0.3-0.2 0.3-0.5-0.3-0.2 0.3-0.5-0.3-0.2 0.3-0.5-0.3-0.2 0.3-0.5-0.3-0.2 0.3-0.5-0.3-0.2 0.3-0.5-0.3-0.2 0.3-0.5-0.3-0.2 0.3-0.5-0.3-0.2 0.3-0.5-0.3-0.2 0.3-0.5-0.3-0.2 0.3-0.5-0.3-0.2 0.3-0.5-0.3-0.2 0.3-0.5-0.3-0.2 0.3-0.5-0.3-0.2 0.3-0.5-0.3-0.2 0.3-0.5-0.3-0.2 0.3-0.5-0.3-0.2 0.3-0.5-0.3-0.2 0.3-0.5-0.3-0.2 0.3-0.5-0.3-0.2 0.3-0.5-0.3-0.2 0.3-0.5-0.3-2-0.8 0.2-0.3 1.8-1.1 0.1-0.3h0.2l0.2-0.2h0.2l0.1-0.2h0.2l0.2-0.3h0.2l0.1-0.2h0.2l0.2-0.2h0.2l0.1-0.3h0.2l0.2-0.2h0.2l0.1-0.2h0.2l0.2-0.2h0.2l0.1-0.3h0.2l0.2-0.2h0.2l0.1-0.2h0.2l0.2-0.3h0.2l0.1-0.2h0.2l0.2-0.2h0.2l0.1-0.2h0.2l0.2-0.3h0.2l0.1-0.2h0.2l0.2-0.2h0.2l0.1-0.2h0.2l0.2-0.3h0.2l0.1-0.2h0.2l0.2-0.2h0.2l0.2-0.3h0.1l0.2-0.2h0.2l0.2-0.2h0.1l0.2-0.2h0.2l0.2-0.3h0.1l0.2-0.2h0.2l0.2-0.2h0.1l0.2-0.2h0.2l0.2-0.3h0.1l0.2-0.2h0.2l0.2-0.2h0.1l0.2-0.3h0.2l0.2-0.2h0.1l0.2-0.2h0.2l0.2-0.2h0.1l0.2-0.3h0.2l0.2-0.2h0.1l0.2-0.2h0.2l0.2-0.2h0.1l0.2-0.3h0.2l0.2-0.2h0.1l0.2-0.2h0.2l0.2-0.3h0.1l0.2-0.2h0.2l0.2-0.2h0.1l0.2-0.2h0.2l0.2-0.3h0.1l0.2-0.2h0.2l0.2-0.2h0.1l0.2-0.2h0.2l0.2-0.3h0.1l0.2-0.2h0.2l0.2-0.2h0.1l0.2-0.3h0.2l0.2-0.2h0.1l0.2-0.2h0.2l0.2-0.2h0.1l0.2-0.3h0.2l0.2-0.2h0.1l0.2-0.2h0.2l0.2-0.2h0.1l0.2-0.3h0.2l0.2-0.2h0.1l0.2-0.2h0.2l0.2-0.3h0.1l0.2-0.2h0.2l0.2-0.2h0.1l0.2-0.2h0.2l0.2-0.3c0.9 0.5 1.9 2.8 3.5 2.8 1.1 0.9 2.1 1.1 2.1 1.1-2.5 0-4.9 2-3.2 3.2l0.4 1.1c-0.7 0.9-0.9 2.3-0.7 3.4-0.4-0.7-0.7-1.4-1.4-2.2 1.2-1.9-0.9-2.5-3.2-1.4 0.4-0.3 0.9-0.7 1.2-1.4 0.6 0.2 1.1-0.2 1.5-0.4 1.9 0.6 2.6-1.6 0.3-4.1 0.9 0.4 1.6 0.7 2.3 0.9 0.7 0 1.6 0.4 2.8 0.9-2.3 0-4.6 2-2.8 3.2l0.3 1.1c-0.7 0.9-1 2.3-0.7 3.4-0.3-0.7-0.8-1.4-1.4-2.2 1.1-1.9-1.2-2.5-3.5-1.4 0.4-0.3 0.9-0.7 1.2-1.4 0.6 0.2 1.1-0.2 1.5-0.4 1.9 0.6 2.6-1.6 0.3-4.1-1.4-0.7-3.2-1.8-5.1-1.4-0.7 0-1.6-0.2-2.3-0.4 1.8 1.1 2.3 3.6 0 3.8-1.2 1.6-2.8 1.4-4.9-1.1 0.4 2.7-1.4 2.9-2.4 1.3-2.3 0-2.1-2.4 0.2-3.8l0.1-0.2c-0.8 0.2-1.7 0.4-2.6 0.2-0.9 0.4-1.8 0.4-2.8 0.4 2.6 0.9 4 3 2.1 3.7l-0.5 0.7c0.1 0.9 0 1.6-0.2 2.2 1.2-2.3 3.3-3.9 4-1.3l0.4 0.2c0.5-1.4 1.2-1.2 2.1-0.5 0.9-0.9 1.6-1.1 2.1 0.3l0.3-0.2c0.6-2.6 2.7-1.4 3.7 0.8l-0.3-1.8c0-0.4-0.4-0.7-1.1-0.9-1.2-1.3 0.4-2.7 2.5-3.2-0.4 0 0.5 0 0 0l1-0.2 1.4-0.4 2.1 0.4 0.2 0.2h0.2l0.2 0.3h0.1l0.2 0.2h0.2l0.2 0.2h0.1l0.2 0.2h0.2l0.2 0.3h0.1l0.2 0.2h0.2l0.2 0.2h0.1l0.2 0.3h0.2l0.2 0.2h0.1l0.2 0.2h0.2l0.2 0.2h0.2l0.1 0.3h0.2l0.2 0.2h0.2l0.1 0.2h0.2l0.2 0.2h0.2l0.1 0.3h0.2l0.2 0.2c-2.3 0-5.5 1.4-3.9 2.7l0.4 0.7c-0.7 0.9-0.9 2.3-0.7 3.4-0.4-0.7-0.7-1.4-1.4-2.2 1.2-1.9-1.1-2.5-3.4-1.4 0.4-0.3 0.9-0.7 1.2-1.4 0.6 0.2 1.1-0.2 1.5-0.4 1.9 0.6 2.6-1.6 0.3-4.1 0.9 0.4 1.6 0.7 2.3 0.9 0.7 0 1.6 0.4 2.8 0.9-2.3 0-4.6 2-2.8 3.2l0.3 1.1c-0.7 0.9-1 2.3-0.7 3.4-0.3-0.7-0.8-1.4-1.4-2.2 1.1-1.9-1.2-2.5-3.5-1.4 0.4-0.3 0.9-0.7 1.2-1.4 0.6 0.2 1.1-0.2 1.5-0.4 1.9 0.6 2.6-1.6 0.3-4.1l-0.7-0.7-0.7-0.5h-0.2l-0.2-0.2h-0.1l-0.2-0.2h-0.2l-0.2-0.2h-0.1l-0.2-0.3h-0.2l-0.2-0.2h-0.1l-0.2-0.2h-0.2l-0.2-0.2h-0.1l-0.2-0.3h-0.2l-0.2-0.2h-0.1l-0.2-0.2h-0.2l-0.2-0.3h-0.1l-0.2-0.2h-0.2l-0.2-0.2h-0.1l-0.2-0.2-3-0.4-1.4 0.8-0.2 0.2h-0.1l-0.2 0.3h-0.2l-0.2 0.2h-0.1l-0.2 0.2h-0.2l-0.2 0.3h-0.1l-0.2 0.2h-0.2l-0.2 0.2h-0.1l-0.2 0.2h-0.2l-0.2 0.3h-0.1l-0.2 0.2h-0.2l-0.2 0.2h-0.1l-0.2 0.2h-0.2l-0.2 0.3h-0.1l-0.2 0.2h-0.2l-0.2 0.2h-0.1l-0.2 0.2h-0.2l-0.2 0.3h-0.1l-0.2 0.2h-0.2l-0.2 0.2h-0.1l-0.2 0.3h-0.2l-0.2 0.2h-0.2l-0.1 0.2h-0.2l-0.2 0.2h-0.2l-0.1 0.3h-0.2l-0.2 0.2h-0.2l-0.1 0.2h-0.2l-0.2 0.2h-0.2l-0.1 0.3h-0.2l-0.2 0.2h-0.2l-0.1 0.2h-0.2l-0.2 0.3h-0.2l-0.1 0.2h-0.2l-0.2 0.2h-0.2l-0.1 0.2h-0.2l-0.2 0.3h-0.2l-0.1 0.2h-0.2l-0.2 0.2h-0.2l-0.1 0.3h-0.2l-0.2 0.2h-0.2l-0.1 0.2h-0.2l-0.2 0.2h-0.2l-0.1 0.3h-0.2l-0.2 0.2h-0.2l-0.1 0.2h-0.2l-0.2 0.2h-0.2l-0.1 0.3h-0.2l-0.2 0.2h-0.2l-0.1 0.2h-0.2l-0.2 0.3h-0.2l-0.2 0.2h-0.1l-0.2 0.2h-0.2l-0.2 0.2h-0.1l-0.2 0.3h-0.2l-0.2 0.2h-0.1l-0.2 0.2h-0.2l-0.2 0.2h-0.1l-0.2 0.3h-0.2l-0.2 0.2h-0.1l-0.2 0.2h-0.2l-0.2 0.2h-0.1l-0.2 0.3h-0.2l-0.2 0.2h-0.1l-0.2 0.2h-0.2l-0.2 0.3h-0.1l-0.2 0.2h-0.2l-0.2 0.2h-0.2l-0.1 0.2h-0.2l-0.2 0.3h-0.2l-0.1 0.2h-0.2l-0.2 0.2h-0.2l-0.1 0.3h-0.2l-0.2 0.2h-0.2l-0.1 0.2h-0.2l-0.2 0.2h-0.2l-0.1 0.3h-0.2l-0.2 0.2h-0.2l-0.1 0.2h-0.2l-0.2 0.3h-0.2l-0.1 0.2h-0.2l-0.2 0.2h-0.2l-0.1 0.3h-0.2l-0.2 0.2h-0.2l-0.1 0.2h-0.2l-0.2 0.2h-0.2l-0.1 0.3h-0.2l-0.2 0.2h-0.2l-0.1 0.2h-0.2l-0.2 0.3h-0.2l-0.1 0.2h-0.2l-0.2 0.2h-0.2l-0.1 0.2h-0.2l-0.2 0.3h-0.2l-0.2 0.2h-0.1l-0.2 0.2h-0.2l-0.2 0.2h-0.1l-0.2 0.3h-0.2l-0.2 0.2h-0.1l-0.2 0.2h-0.2l-0.2 0.2h-0.1l-0.2 0.3h-0.2l-0.2 0.2h-0.1l-0.2 0.2h-0.2l-0.2 0.2h-0.1l-0.2 0.3h-0.2l-0.2 0.2h-0.1l-0.2 0.2h-0.2l-0.2 0.2h-0.1l-0.2 0.3h-0.2l-0.2 0.2h-0.1l-0.2 0.2h-0.2l-0.2 0.2h-0.1l-0.2 0.3h-0.2l-0.2 0.2h-0.1l-0.2 0.2h-0.2l-0.2 0.2h-0.1l-0.2 0.3h-0.2l-0.2 0.2h-0.1l-0.2 0.2h-0.2l-0.2 0.3h-0.1l-0.2 0.2h-0.2l-0.2 0.2h-0.1l-0.2 0.2h-0.2l-0.2 0.3h-0.2l-0.1 0.2h-0.2l-0.2 0.2h-0.2l-0.1 0.2h-0.2l-0.2 0.3h-0.2l-0.1 0.2h-0.2l-0.2 0.2h-0.2l-0.1 0.3h-0.2l-0.2 0.2 0.9 1.4 3.5-0.5 1.9-0.4 1.8-0.3 2.6 0.3 0.9 1.1 1.2-0.2 0.9-0.2 1.2-0.3 1.6 0.3 2.3 0.2h1.6l1.2-0.2 1.6 0.4 0.3 4.3 1.1-1.6 0.5-1.1-0.5-3-0.5-0.7-0.4-1.1-1.1-1.1-0.5-0.9-0.5-0.7-0.7-0.5-0.5-0.9-1.3-2-1.5-1.1-1.1-0.3-0.2-0.9c1.1-1.8-1-2.7-3.8-1.1 0.7-0.7 1.4-1.4 1.6-2.1 0.7-0.4 1.4-1.3 1.7-2-0.5 3.1 1.1 4.7 2.3 3.4 2.6 0.2 2.6-1.6 0.5-4.1 2.3 2.3 4.2 2.3 3.9 0 1.9-1.8-0.7-3-3.2-2.5 0.7-0.3 1.6-0.9 2.1-1.6 0.7-0.3 1.4-0.9 2.1-1.4-1.4 3.2-0.3 4.8 1.3 3.7l1 0.2c0.4 0.9 1.1 1.6 1.8 2.1-2.3-1-4.6-0.8-4.1 0.8-0.7 0.3-0.9 1-0.9 1.4-2.2 0-2.1 1.4-1 2.5l-0.9-0.2-0.7 0.4c-1.7-1.3-2.6 0.3-1.4 3.5-1-1.4-2.1-2.1-2.3-2.1l-1.4 3 0.7 1.5 1.3 0.3 1.7-0.3 1.2 0.7 0.6 0.9 1.2 0.3 1 0.9 0.9 0.9 0.7 1.1 0.4 1.2 0.5 1.8 0.7 1.1 0.5 1.1 1.3 0.3 2.3-1.4 0.7-1.1-0.4-1.8 0.4-0.7 0.8-0.5 1.4 0.3h0.4l-1.4-0.3-1.2-0.7-0.7-0.9-0.2-0.9 0.2-0.4 0.5-0.3h0.9c-0.4-2.5 2.4-2.2 3.5 1.4 0-3.2 1.4-4.7 2.8-3l0.7 0.1 0.5-0.1c-0.4-2.4 2.1-2.2 3.9-0.4-1.3-2.5-0.2-5.7 1.5-3.6 1.8-2.1 2.8 0.9 1.4 3.6 2.1-2 4.6-2 3.9 0.4l0.5 0.1 0.7-0.3c1.4-1.8 2.8-0.4 3 3 1-3.4 4-4.5 3.5-1.4 2.8-0.4 1.9 2.7-1.6 3.7 3.5 0 5.1 1.5 3.2 2.9l-0.2 0.9 0.5 0.2c2.5-0.6 1.8 2.3-0.3 4.1 2.8-1.6 5.3-0.6 3.5 1.2 1.9 1.6 0 3.1-3.5 1.6 2.3 2 2.1 4.5-0.4 3.8l0.2 0.7c1.4 1.4 0.5 2.9-3 3 3.2 0.7 4.2 3.8 1.4 3.6 0.4 2.7-2.8 1.4-3.5-1.4 0 3.4-1.7 4.4-3 2.6l-0.7-0.1-0.3 0.1c0.5 2.7-2.6 1.7-3.9 0.2 1.4 2.7 0.4 5.6-1.4 3.6-1.7 2-2.9-0.5-1.5-3.6-2 2-4.6 2.2-3.9-0.2l-0.5-0.1-0.7 0.3c-1.4 1.5-2.8 0.6-2.8-2.8-0.9 2.8-3.9 4.1-3.5 1.4-2.5 0.4-2.2-2.3 1.5-3.6-2.6 0.2-4.9-1.2-2.6-2.8l0.2-0.9-0.5-0.2c-2.2 0.4-2.2-1.8-0.2-3.6-2.8 1.5-5.8 0.6-3.5-1.4-2.1-1.4-0.4-3 3.5-1.4-1.8-1.3-2.7-4.7 0.2-4.1l0.3-0.2-0.3-0.9c-1.8-1.4-0.6-2.7 2.9-2.9-2.9-0.9-4.2-4.1-1.4-3.7-0.5-3.1 2.7-1.6 3.5 1.6 0-3.8 2-4.5 3-3l0.7 0.1 0.4-0.1c-0.4-2.4 2.1-2.2 3.8-0.4l-1.4 3.6 0.2 0.2-0.2-0.2-1.4 2.1c-0.5 0.2-1.2 0.2-2.1 0.4 3.5 0.7 4.6 3.5 1.2 3.4 0.6 2.8-2.6 2.5-3.6-1.3 0 1.1-0.4 2.2-0.7 2.9-0.2 0.7-0.7 1.8-1.3 2.3 2.8-2.1 5.5-1.4 3.4 1.6 2.4 1.8 0 3.9-3.2 1.6 0.5 0.7 1.1 1.6 1.2 2.3 0.6 0.6 0.7 1.6 0.7 2.2 1.1-3.6 3.7-4.1 3.5-1.1 3-0.5 2.2 2.5-1.4 3.4 1.1 0 2.2 0.2 2.9 0.7 0.7 0.2 1.5 0.5 2.1 1.3-2-2.5-0.9-5.6 1.5-3.4 1.8-2.2 3.9-0.2 1.8 3.2 0.7-0.6 1.6-1.1 2.1-1.1 0.7-0.5 1.7-0.7 2.6-0.7-3.3-0.7-4.2-3.9-1.4-3.4-0.5-2.7 2.3-2.7 3.5 1.1 0-0.9 0.2-1.8 0.7-2.5 0.2-0.7 0.7-1.6 1.2-2-2.9 2-5.6 0.9-3.4-1.4-2.3-1.5-0.4-4.3 3.4-1.8-0.8-0.7-1-1.8-1.4-2.5-0.3-0.7-0.5-1.6-0.5-2.5-1 3.9-4.2 4.1-3.5 1.1-3.1 0.3-2.8-2.5 1.2-3.4-0.8 0-1.7-0.2-2.2-0.6 0.5 1.1-0.4 1.8-1.3 1.8-1.2 2-2.9 1.1-2.9-2.5 0 3.4-1.8 4.7-2.8 2.5-1.3 0-2-0.7-1.4-1.8l-2.2 0.6 2.3-2.5 2.5-0.4h4.4l0.1 0.6 0.7 0.1-0.7-0.7 2.3 0.2 1.2 2.1 2.3 0.2 2.1 0.5 2.1 2 0.6 2.2 1 1.6 0.7 1.2 0.7 1.1 0.6 1.2 1 1.5 2.8 1.9 1.4 1.1c-2.3-1.1-5.1-0.9-4.4 1.8-1.4 1.4-0.3 3.2 1.4 4.1-2.4 0-5.2 1.8-2.8 4.3-1.9-1.8-4.4-1.3-4.4 2.8-1.2-2.3-3-3.5-4.4-2.1-2.1-0.9-3.3 1.6-1.9 4.6-2.1-2.1-5.2-1.6-4.7 0.9l-0.4 2.3-0.5-2.3c0.2-2.5-3-2.7-4.7-0.9 1.2-2.3 0.3-5.3-1.8-4.4-1.6-1.6-3.5-0.2-4.2 1.9l-1.2 1.1-0.7 3.2c0.7-0.9 1.4-1.8 2.6-2.1-0.9-0.9-1.6-0.4-1.6 0-0.3 2.5-1.5 3.5-2.2 4.3l-0.6 0.7-1.6 0.7-1.4 1.4-0.3 0.4-0.2 0.3-0.7-0.3-0.7 0.3c-1.9-1-2.8 1.3-0.9 3.4-0.7-0.7-1.6-1.4-2.3-1.8-0.3-0.7-1.2-1.2-1.9-1.6 2.5 0.4 4.8-1 3.2-2.3 0-2.3-2.3-4.5-2.8-2.5-2-0.5-1.1 0.9-0.9 0.2-1.9-2-1.2-5 0.5-6.6-0.7 0.9-1.6 1.6-2.8 1.9 0.2 0.6 0 1.1-0.2 1.3 1.1 2.7-1.7 2.3-3.8 1.2 0.7 0.6 1.4 1.3 1.6 2 0.7 0.5 1.4 1.3 1.7 2-0.5-3.1 1.1-5 2.5-3.2h0.8l0.7 0.3 0.4 1.1-1.6 2.5c1.2-1.1 3.5-2.5 3.9-1.4l0.3 2.5-0.7 0.3-1.6 0.4-1.7 0.7-1.9 0.5-2.3-1.2-1.6-0.4-1.4-0.3-0.7 0.3-0.9 0.4-0.7 0.7 0.4 1.4"/>
  <path class="cls-1" d="m63.9 52.6c1.9 0 2.6 2.8 0.3 3.3s-2.6-3.2-0.3-3.3zm-9.9 1.3c2 0 2.7 2.9 0.4 3.4s-2.7-3.3-0.4-3.4zm-9.4 3.8c1.9 0 2.6 2.8 0.3 3.5-1.9 0.2-3-2.8-0.3-3.5zm-8.1 6.3c2.1-0.1 2.8 2.8 0.5 3.5-1.9 0.2-3-2.9-0.5-3.5zm-6.3 7.7c2.1-0.1 2.6 2.9 0.3 3.2-2.1 0.2-2.8-3-0.3-3.2zm-3.9 9.7c1.9-0.2 2.8 2.7 0.4 3.4-2.1 0.2-2.8-3-0.4-3.4zm-1.4 10c1.9-0.2 2.8 2.7 0.5 3.4-2.1 0.2-3-3-0.5-3.4zm1.4 9.8c1.9-0.1 2.8 2.7 0.4 3.4-2.1 0.2-2.8-3-0.4-3.4zm3.9 9.5c1.9-0.2 2.8 2.7 0.5 3.4-2.1 0.2-3-3-0.5-3.4zm6.1 8.2c1.9-0.2 3 2.5 0.7 3.4-2.1 0.4-3.1-3-0.7-3.4zm8.3 5.7c1.9-0.2 2.8 2.7 0.5 3.6-2.1 0.2-3.2-3.2-0.5-3.6zm9.3 4c1.9-0.2 2.8 2.6 0.5 3.5-2.1 0.2-3-3.2-0.5-3.5zm9.8 1.6c1.9 0 0.3 2.5 0.3 4.4-1.9 0-5.4-4.8-2.6-5l0.5-0.3c0.6-1.1 1.8-3.6 1.8 0.9zm2.6-4.3c1.9 0 0.2 2.5 0.2 4.3-1.9 0-5.4-4.7-2.6-4.9l0.5-0.3c0.7-1.1 1.9-3.6 1.9 0.9zm8.2-1.3c2 0 0.4 2.5 0.4 4.3-1.9 0-5.4-4.6-2.6-4.8l0.5-0.4c0.5-1 1.7-3.5 1.7 0.9zm9.9-3.9c1.9 0 0.3 2.5 0.3 4.3-1.9 0-5.4-4.7-2.6-4.8l0.5-0.4c0.6-1.1 1.8-3.6 1.8 0.9zm8.2-1.8c2 0 0.4 2.5 0.4 4.3-2 0-5.5-4.6-2.7-4.8l0.6-0.4c0.5-1.1 1.7-3.6 1.7 0.9zm-28.6-53.7c2 0 2.7 2.8 0.4 3.4-2.1 0.3-3-3.1-0.4-3.4zm-7.2-2.2c0.9-0.1 2 0.6 1.8 1.5v0.9c-1.1 1.7-4 1-3.2-1.5 0.2-0.5 0.7-0.9 1.4-0.9zm-7.3 4.3c1.9 0 2.6 2.7 0.9 3.2-2 0-2.5-2.8-0.9-3.2zm-3.7 4.8c1.9 0 2.6 2.9 0.3 3.4-2.1 0.2-2.8-3-0.3-3.4zm-6.2 4.5c2-0.2 1.1 1.1 2.1 1.6 0 2.7-4 2.7-3.5-0.2 0.2-0.9 0.7-1.4 1.4-1.4zm-4.2 7.7c2-0.2 2.8 2.8 0.4 3.2-2.1 0.2-2.7-2.9-0.4-3.2zm2.3 7.1c1.9-0.2 3 2.7 0.7 3.4-2.1 0.4-3.3-2.9-0.7-3.4zm-2.3 7c2-0.2 2.8 2.7 0.4 3.4-2.1 0.2-2.8-3.1-0.4-3.4zm4.2 6.8c2-0.2 3 2.6 0.7 3.2-2.2 0.3-2.9-2.9-0.7-3.2zm3.7 6.9c2-0.2 2.8 2.7 0.6 3.4-2.2 0.2-2.9-3-0.6-3.4zm20.7-23.5c2 0 2.7 3 0.4 3.5-2.1 0.2-3-3.2-0.4-3.5zm0-10c2 0 2.7 2.8 0.4 3.5-2.1 0.2-3-3.2-0.4-3.5zm-9.1 3.7c1.9 0 2.6 2.9 0.4 3.6-2.3 0.3-3-3.2-0.4-3.6zm-3.3 9.1c1.9 0.2 2.4 3 0.1 3.4-2.2 0.2-2.7-3.2-0.1-3.4zm3.3 8.8c1.9 0 2.6 2.8 0.4 3.5-2.1 0.2-3-3-0.4-3.5zm9 3.5c2.1 0 2.8 2.9 0.5 3.2-2.1 0.2-2.8-3-0.5-3.2zm9.1-3.5c1.9 0 2.6 2.8 0.3 3.5-2.1 0.2-3-3-0.3-3.5zm3.7-8.8c1.9 0 2.6 2.9 0.3 3.4-2.1 0.2-2.8-3-0.3-3.4zm-3.7-9.1c1.9 0 2.6 2.9 0.3 3.6-2.1 0.2-3-3.2-0.3-3.6zm-9 8.9c2 0 2.5 2.9 0 3.4-2.1 0-2.6-3 0-3.4zm7-28.2c2 0 2.7 2.9 0.4 3.4-0.7 0-1.4-0.3-1.8-0.9v-1c-0.3-0.7 0.6-1.5 1.4-1.5zm7.2 4.3c2-0.2 3 2.3 0.7 2.7-0.5 0-1 0.2-1.2 0.7-1-0.5-1.2-3 0.5-3.4zm4.1 4.8c1.9-0.2 2.8 2.7 0.5 3.4-2.1 0.2-3-3-0.5-3.4zm5.9 4.5c2-0.7 3.5 2.5 1.1 3.6-2.1 0.5-3.3-2.9-1.1-3.6zm4.2 7.7c2-0.7 3.4 2.3 1.1 3.2-2.1 0.2-3-2.5-1.1-3.2zm-2.2 7.1c1.9-0.2 3 2.7 0.7 3.4-2.1 0.4-3.2-2.7-0.7-3.4zm2.2 7c2-0.2 2.9 2.7 0.6 3.4-2.1 0.2-2.8-2.9-0.6-3.4zm-4.2 6.8c2-0.2 2.8 2.6 0.6 3.2-2.1 0.3-3-2.9-0.6-3.2zm-3.8 6.7c1.9-0.3 3 2.5 0.7 3.4-2.1 0.2-3-3-0.7-3.4zm-6.5 4.5c1.9 0 2.8 2.9 0.5 3.4-2.1 0-2.8-2.9-0.5-3.4zm-6.9 3.4c2 0 2.7 2.9 0.4 3.4-0.7 0-1.4-0.2-1.8-0.9v-1.1c-0.3-0.7 0.6-1.6 1.4-1.4zm-7-2.1c2 0 2.5 2.8 0.4 3.4-2.3 0.1-2.8-3.1-0.4-3.4zm-7.2 2.1c2-0.2 2.7 2.9 0.4 3.4-2.1 0.2-2.6-3.2-0.4-3.4zm-6.8-3.4c1.9 0 2.8 2.9 0.5 3.4-2.1 0.2-3-2.9-0.5-3.4z"/>
</svg>