<svg xmlns="http://www.w3.org/2000/svg" viewBox="0 0 150 149.8">
<!-- SVG created with Arrow, by QuiverAI (https://quiver.ai) -->
  <style type="text/css">.cls-0 {fill:#9A3312;}
.cls-1 {fill:#F6EAC7;}
.cls-2 {fill:none;stroke:#9A3312;stroke-width:1.2;stroke-miterlimit:10;}
.cls-3 {fill:#FFFFFF;}
.cls-4 {fill:#E4AA0B;}</style>
  <path class="cls-0" d="m120 75c7-2.2 11-4.6 11-4.6s7 1.2 19 4.7c-7 3.9-14 5.6-19.3 6.9-4.7-2.4-8.7-4.1-10.7-5v-2zm-5.2 19 0.9 1.2c3.3 0.5 7.3 1 11.3 1 7 6.1 13.3 16.3 13.3 16.3-7.3 0-15.3-1.5-20.3-3.5-2-3.3-4.5-6.7-6.6-10.1h-2c5.1 6 10.6 14.7 14 26.3-10.4-3.2-18.4-7-25.4-12.7l-1-0.8 0.2 1.9c2.8 2.5 6.2 4.7 9.6 6.4 1.8 5.7 3.5 12.5 3.7 19.7-5.7-3.3-11.2-8.3-15.7-13 0-4.1-0.3-8.1-0.9-11.5l-1.7-1.1c0.8 4.1 1.2 8.2 1.1 12.4 0 5.6-0.6 11.1-1.8 17.2-5.6-6-12.5-15.2-16-25.5l-0.7 1.5c1.2 3.5 2.7 6.8 4.7 10.2-1.3 6.3-3.3 12.6-6.4 19.8-3.2-6.1-5.4-12.2-6.8-19 2.1-3.5 3.7-7 4.7-10.7l-0.7-1.8c-2.8 8.5-8.8 17.5-15.6 25.5-1.3-5.8-2-11.7-2-17.7 0-4 0.3-7.8 1.3-11.9l-1.6 1.1c-0.6 3.4-0.9 7.3-0.9 11.5-4 4.5-10.5 10-15.9 13 0.1-7.2 1.4-13.2 3.4-20 3.4-1.8 6.6-4 9.8-6.3l0.1-1.8c-6.7 5.4-14.9 9.9-26.4 13.5 3-10 7.9-17.6 14-25.1h-1.7c-2.3 2.7-4.8 6-6.8 9-5.5 1.5-12 3.4-20.4 3.7 3.8-6 9-11.3 13.4-16.3 4 0 8-0.4 12-1l1.3-1.7c-3.9 0.5-8.3 1-12.8 1s-9.5-0.2-16.5-1.5c7-6.5 15-11.5 24.8-15.2l-0.8-0.4-1.1-0.5c-3.4 1.1-6.9 2.6-10.7 4.8-5.7-1-12.7-3.2-19.2-6.8 6-3.1 13.1-5.7 19.3-7.1 3.2 1.7 6.8 3.4 10.6 4.9l2.1-0.8c-8-2.6-16.5-7.4-25.5-15.9 4.5-0.8 9.5-1.6 15.5-1.7 4.5 0 9 0.4 14.3 1.1l-0.9-1.4c-3.6-0.7-7.4-1.2-12-1.2-4.8-4-9.9-10-13.4-15.6 8.5 0.1 19.9 2.2 32 7.9l-0.6-1.7c-3-1.6-6.4-3-10.3-4-2.6-4.1-5.1-9.6-6.8-15.2 5.2 1.3 10.4 3.5 15.5 6.5 1.2 3.7 2.7 7.1 4.2 10l1.8 0.5c-3.8-6.8-7.6-17.9-8.2-31 6.4 3.8 16.8 12.6 23.4 22.6l0.3-1.9c-1.8-2.6-3.8-5.1-6.6-8.4 0-5.2 0.7-11.3 2-16.9 3.8 3.8 7.3 8.7 10 13.4-0.8 3.3-1.2 6.8-1.3 10.7l1.1 1.5c0.5-10.4 4-21.8 8.5-31.4 4.5 9.1 7.5 19.6 8.5 31.4l1.1-1.5c-0.2-3.4-0.6-6.9-1.4-10.5 2.5-4.4 6.3-9.5 10.3-13.6 1.5 5.6 2 11.7 1.9 16.8-2.4 2.9-4.9 5.8-6.4 8.5l0.2 1.9c6.3-8.6 14.3-16.1 23.3-22.6-0.1 10.6-3.3 22.1-8.5 30.8l1.7-0.5c1.7-3.1 3-6.3 4.5-9.7 4.3-2.5 9.3-4.5 15.5-6.5-2.3 9-7.3 17.9-15.7 25.7l2.4-0.2c2.6-2.5 5-5.5 7.1-9.1 5-1.5 11-3.3 20.4-3.4-3.4 5.5-8.4 11.5-13.2 15.5-4.2 0-7.7 0.4-11.7 1l-0.9 1.6c3.4-0.6 7.4-1.1 13.4-1.1 4.5 0 9.2 0.2 16 1.7-7 6.3-14.5 11.3-25.5 15.9l1.5 0.8"/>
  <path class="cls-1" d="m75 28c3.5 6.5 6 13.5 5.4 21.7l-1 5.8c-0.4-5-2-9.5-4.4-14.2-2.4 4.7-4 8.7-4.4 14.2l-1-5.8c-0.6-8.2 1.9-15.2 5.4-21.7zm0 15.4c2 3.6 3.5 9.1 3.5 14.8l-7 0.3c0-5 1.5-11 3.5-15.1zm12-14.4c1 3.5 1.6 7.5 1.5 11.4-2.5 2.6-5 6.1-7.5 10.1 0.2-4-0.1-8-0.8-12.1 1.8-3.4 4.3-6.8 6.8-9.4zm11.4 5.2c0 10.3-3.4 19.3-9.7 25.7 1.8-3.5 3-9.4 2.8-14.7-4 2.2-8 5.5-11.1 10.4 3.1-9.1 9.1-16.2 18-21.4zm10 6.9zm0 0zm0 0zm0 0zm0 0zm0 0zm0 0zm0 0zm0 0zm0 0zm0 0zm0 0zm0 0zm0 0zm0 0zm0 0zm0 0zm0 0zm0 0zm0 0zm0 0zm0 0zm0 0zm0 0zm0 0zm0 0zm0 0zm0 0zm0 0zm0 0zm0 0zm0 0zm0 0zm0 0zm0 0zm0 0zm0 0zm0 0zm0 0zm0 0zm0 0zm0 0zm0 0zm0 0zm-10.7 4.3c2.8-1.9 6.3-3.4 10.7-4.4-0.9 3.5-2.5 6.9-4.7 10.7-3.3 0.8-7.3 2.5-10.8 4.8 2.1-3 3.6-6.8 4.8-11.1zm18 5.6c-2.2 4-5 7.4-8.3 10.5-2 0.1-4 0.4-6.4 1 1-1.4 1.9-2.8 2.5-4.3-5.1 0-9.5 0.8-13.5 2.8l-0.5 0.1c6.4-5.1 14-9.7 26.2-10.1zm-25.2-4c0 5-1.1 10-3.8 15.5l-7.2-4c2.5-4 6-8 11-11.5zm-27.5-18c2.5 2.6 5 6 6.6 9.4-0.7 3.6-1.1 7.6-1.1 11.8-1.5-3.2-4-6.7-6.9-9.8-0.1-3.9 0.4-7.9 1.4-11.4zm-11.4 5.2c7.9 4.8 13.9 11.3 17.6 21.3-2.7-4-6.7-7.8-10.7-10.3-0.1 5.3 1 10.3 2.5 14.7-5.5-6.4-9.4-14.4-9.4-25.7zm-10.1 6.8c4 1 7.5 2.5 10.9 4.4 1.1 3.6 2.6 7.1 4.8 11.1-3.2-2-6.7-3.6-10.8-4.8-2-3.2-3.9-7.2-4.9-10.7zm-7.1 10c10.6 0 19.1 3.5 26.1 8.9v0.6c-4-1.5-8-2.3-14.1-2.3 0.6 1.3 1.6 2.8 2.6 4.3-2-0.6-4-0.9-6.5-1-3-3-6-6.5-8.1-10.5zm14 8.4c5.1 0.1 10.1 1.1 14.1 4.1l-4 6.5c-4-2.5-7.5-6-10.1-10.6zm70.6 3.6c-2.5 2.5-5.5 4.5-8.3 6h-1c-2.3 1.4-5.2 2.4-8 3.4-2.3-0.9-5.2-1.8-8.7-1.9 2.5-1.5 5-4 7-6.6 2.5-0.8 5-1.2 8.4-1.3l0.6-0.5c3-0.1 6.5 0.3 10 0.9zm-17.3-3.6c-2.7 4.6-6.2 8.1-10.2 10.6l-3.5-6.5c4-2.5 8.5-3.8 13.7-4.1zm-70.9 3.7c3.2-0.6 6.2-0.9 10.1-1l1.1 0.6c3 0.2 5.5 0.4 8.2 1.2 2.3 2.6 4.8 4.6 7 6.5-2.7 0.1-5.7 1-9 2-2.7-1-5.2-1.9-7.8-3.4h-1c-2.9-1.5-5.9-3.5-8.6-5.9zm-2.5 12c3.7-2.1 7.7-3.7 12.2-4.7l5.9 2.6c-1.4 0.5-2.9 1.4-4.4 2.1 1.5 0.8 3 1.4 4.1 2-2.1 0.8-3.6 1.4-5.6 2.4-4-0.8-8.5-2.1-12.2-4.4zm93.2 0c-3.5 2-7.5 3.4-12.1 4.4-1.9-1-3.9-1.6-5.9-2.4 1.5-0.6 2.9-1.2 4.4-2.1-1.5-0.8-2.9-1.5-4.4-2.1l5.9-2.5c4 0.6 8.1 2.2 12.1 4.7zm-77.1 0c4-2.1 8.6-3.6 14.1-3.7v7.5c-5-0.4-9.5-1.4-14.1-3.8zm48.1-3.7c4 0.1 9 1.2 13 3.7-4 2-8.5 3.4-13.5 3.6l0.5-7.3zm-53 9.3 0.7 0.2c2.3-1.2 4.8-2.4 8-3.2 2.8 1.2 5.8 1.7 8.8 1.9-2 1.4-4.5 3.8-6.8 6.3-2.7 0.8-4.7 1-8.2 1.2l-0.6 0.4c-3 0.1-6.9-0.1-10.5-1 2.6-2.1 5.6-4.4 8.6-5.8zm71.2 0c2.8 1.4 5.8 3.7 8.2 5.8-3.4 0.6-6.9 1.1-10.2 1l-0.8-0.4c-2.9-0.1-5.4-0.4-7.9-1.2-2.1-2.5-4.5-4.4-7-6.3 3-0.1 6-0.7 9-1.9 2.5 0.5 5.5 1.8 8 3.2l0.7-0.2zm-68.1 7.5c2.4-0.1 4.4-0.3 6.4-0.7-1 1.2-1.9 2.5-2.4 3.6 1.9 0 3.6-0.1 5-0.4-1.4 1.4-2.6 3-3.9 4.8-3.7 1-8.2 2.1-13.2 2.2 2-3.2 5-7 8.1-9.5zm58.4-0.8c2 0.5 4 0.7 6.1 0.8 3.1 2.5 6.4 6.3 8.4 9.5-4 0-8.5-0.6-13.4-2.2-1.1-1.5-2.6-3.4-4-4.8 1.4 0.3 3.4 0.4 5.3 0.4-0.5-1.1-1.4-2.4-2.4-3.7zm-54 9.7 1.5-0.4c1.5-2.2 3-4 5.2-6.2 2.8-0.5 5.8-1.5 8.3-2.5-1 2-2 5-2.6 8-1.9 2-3.9 3.4-6.4 4.9l-0.5 1.5c-3 1.6-6 3.1-9.8 4.6 0.8-2.5 2.3-6.1 4.3-9.9zm41.4-9.2c2.6 1.1 5.1 2.1 8.1 2.6 2 2 3.5 4 5 6.1l1.4 0.5c1.6 2.4 3.6 6.4 4.2 9.9-3.6-1.1-6.6-2.6-9.5-4.5l-0.5-1.5c-2.1-1.5-4.6-3-6.1-5-0.5-2.5-1.5-5.5-2.6-8.1zm-34.4 13.8c2-1.2 3.5-2.3 5-3.8-0.1 1.5-0.3 3.1-0.3 4.8 1.8-0.8 3.3-1.8 4.3-2.7-0.5 2.1-0.6 4-0.9 6.5-2.6 3-6.1 6-10.5 9 0.4-5 0.9-10 2.4-13.8zm33-1.7c1.4 0.9 2.5 1.9 4.2 2.7 0-1.7 0-3.3-0.1-5.1 1.4 1.4 2.9 2.4 5.1 4 1.3 3.9 2.2 8.4 2.2 13.9-4.4-2.1-7.9-5-10.5-8.8-0.2-2.2-0.4-4.2-0.9-6.7zm-22.6-1.3c2.1-1.6 4.1-3.7 5.7-6.6l0.3-0.1c0.1 2.5 0.7 5.5 1.6 8.5-0.5 2.5-1.5 5-3 8l0.2 1.5c-1.7 3.4-3.7 6-5.7 8.6-1-3.6-1.1-7.1-1-10.5l0.9-1.1c0.1-3 0.3-5.5 1-8.3zm15.1-6.7 0.5-0.1c1.5 2.6 3.5 4.6 5.7 6.8 0.8 2.8 1 5.3 1 8l0.8 1.4c0 3.4-0.1 6.9-1 10.5-2-2.1-4-5.1-6-8.2l0.2-1.7c-1.2-2-2.2-4.2-3-7.6 1-2.6 1.7-5.6 1.8-9.1zm-6.9 10.7 2.4 4.7 2.1-4.7c0.6 1.8 1.4 3.8 2.3 6-0.9 4.3-2.4 8.7-4.4 12.4-2-3.7-3.9-8.1-4.6-12.4 1-2 1.6-4.2 2.2-6zm-9.1-15.7c2.5 1.5 5 3 7.5 4 0.1 4.5 1.5 8.5 4 14 2.5-4.5 3.5-8.5 3.7-14l4.8-2 3-2c2.5 4.5 3.9 9.5 3.9 14-3.9-2-7.9-6-10.9-10.5l-4.5 0.5-4.5-0.5c-2.5 4-6.5 8-10.5 10.2 0-4.2 1-9.2 3.5-13.7zm-5-7.5 0.5 0.5c-3.5 2.1-7 5.5-10.5 10 4.5-0.5 9-1.3 14-3.5l1 0.5c-4 2-7.5 3-11 3.5l-6 0.5 2.5-4c2.5-3 5-5.5 8.5-7.5-3.5 0-7-1-10-2l-5.5-2.4 4.5-2.1c3.5-1 7.5-2 12-2v8.5zm33-8.5c4 0 8 1 12 2l4.4 2.1-5.4 2.4c-3 1-6.5 2-10 2 3 2 6 4.5 8.5 7.5l2.5 4-6-0.5c-3.5-0.5-7-1.5-10.5-3.5l0.5-0.5c4 2 8.5 3 14 3.5-2.5-4.5-6-7.5-10-10l0.5-1-0.5-8z"/>
  <path class="cls-2" d="m69.5 91"/>
  <path class="cls-3" d="m75 57.5c-8.9 0-17.3 7.4-17.3 17.5 0 8.5 6.8 17 17.3 17s17.4-8.5 17.4-17-6.9-17.5-17.4-17.5z"/>
  <path class="cls-4" d="m75 60c-7.5 0-14.7 6-14.7 15 0 7.5 6.2 14.7 14.7 14.7s14.9-6.7 14.9-14.6c0-7.1-5.9-15.1-14.9-15.1z"/>
</svg>