<svg xmlns="http://www.w3.org/2000/svg" viewBox="0 0 150 150">
<!-- SVG created with Arrow, by QuiverAI (https://quiver.ai) -->
  <style type="text/css">.cls-0 {fill:#342F26;}
.cls-1 {fill:url(#SVGID_1_);}
.cls-2 {fill:#D7410C;}
.cls-3 {fill:#F5E8CD;}
.cls-4 {fill:#EEE0CA;}</style>
  <path class="cls-0" d="m129.6 53.3c-1.6-3.7-6.6-11.3-17.1-12.3s-17 4.5-21.5 10.3c-1.8 2.3-4.1 5.4-5.2 7.9 4.1 4.1 6.6 10.3 5.2 18.2-0.2-8.9-5.7-15.4-12.5-20.6l-55.6-40.5c-2.5 6.1 0.1 12.8 5.7 18.3 3 2.9 16.2 11.3 22.5 15.8l-32.9-16.5c-0.4 5.6 2.1 12.6 9.3 16.4 4.1 2.2 14.9 6.2 25 11.7l-31.2-8.2c0.8 5.2 4.9 11.9 12.5 13.8l21.7 4.9-21.9 0.4c1 2.9 4.8 6.5 8.2 7.7 5.9 2.3 12.5 1.3 16.7 4-2.4 3.2-13.2 14-19.9 19.4-7.5 6.3-21.3 17.1-30.6 25.1 1.4 1.8 6.6 3.9 10.9 1.2 4.5-2.7 9.5-6.9 13.2-10.4l-11.2 12.7c2.9 1.8 7.7 1.5 11.2-0.8 2.5-1.7 7.3-7.5 10.3-10.8l7.6-9.2c0.6-0.9 2.1 0.2 4.9 1.3 7.7 3.3 16.2 5.3 25.1 5.2 14.4-0.5 22.5-4.4 29.9-11.2 5.2-4.6 9.2-10.1 12.1-16.6 3.4-7.5 6-17.6 7.9-27.5v-9.7z"/>
  <linearGradient id="SVGID_1_" x1="128.5" x2="141.8" y1="93.05" y2="93.05" gradientTransform="matrix(1 0 0 -1 0 150)" gradientUnits="userSpaceOnUse">
    <stop stop-color="#CE3B13" offset="0"/>
    <stop stop-color="#DC4A12" offset="1"/>
  </linearGradient>
  <path class="cls-1" d="m129.9 53.3 11.9 4.5-11.9 4.7h-0.5c-1.3-2.4-1.8-6.1 0.2-9.4l0.3 0.2z"/>
  <path class="cls-3" d="m75.8 114.9c4.1-15.9 20.8-34.9 43.1-37.5l3.4-0.4c-2.2 8.1-9.7 36.1-42.9 38l-3.6-0.1z"/>
  <path class="cls-4" d="m117.1 52.1c1.7 0 2.9 1.3 2.9 2.9s-1.2 3.4-2.9 3.4c-1.6 0-3.1-1.3-3.1-3 0-1.8 1.4-3.3 3.1-3.3z"/>
</svg>