<svg xmlns="http://www.w3.org/2000/svg" viewBox="0 0 150 149">
<!-- SVG created with Arrow, by QuiverAI (https://quiver.ai) -->
  <style type="text/css">.cls-0 {fill:#E6B007;}
.cls-1 {fill:#D8A006;}
.cls-2 {fill:#F0C008;}
.cls-3 {fill:#CC9007;}
.cls-4 {fill:#AF7506;}</style>
  <circle class="cls-0" cx="75" cy="74.5" r="67"/>
  <polygon class="cls-1" points="70 9.2 75 12.6 80 9.2"/>
  <polygon class="cls-1" points="62.4 10.2 67.9 12.6 72.2 10.2"/>
  <polygon class="cls-1" points="54.6 12.6 59.9 14.1 63.6 10.6"/>
  <polygon class="cls-1" points="45.9 15.9 51.5 16.6 54.6 12.6"/>
  <polygon class="cls-1" points="37.9 20.6 43.4 20.6 45.9 15.9"/>
  <polygon class="cls-1" points="31.6 25.9 36.9 25.1 38.9 20.6"/>
  <polygon class="cls-1" points="24.6 33.4 29.6 31.9 31.6 25.9"/>
  <polygon class="cls-1" points="19.4 40.6 24.1 38.6 25.4 32.6"/>
  <polygon class="cls-1" points="15.6 46.6 20.1 44.6 21.4 37.6"/>
  <polygon class="cls-1" points="12.9 55.1 16.9 52.6 17.9 43.1"/>
  <polygon class="cls-1" points="10.4 65.6 13.9 61.6 13.9 51.6"/>
  <polygon class="cls-1" points="9.4 73.6 12.9 69.1 11.4 63.6"/>
  <polygon class="cls-1" points="9.4 84.6 12.4 79.6 10.4 73.1"/>
  <polygon class="cls-1" points="10.9 92.1 13.9 86.6 11.4 81.1"/>
  <polygon class="cls-1" points="13.9 96.6 15.9 91.1 11.4 89.1"/>
  <polygon class="cls-1" points="16.4 103.6 17.9 98.1 13.4 97.6"/>
  <polygon class="cls-1" points="18.9 109.1 20.9 104.6 16.4 102.1"/>
  <polygon class="cls-1" points="22.4 116.1 24.9 112.1 20.4 110.6"/>
  <polygon class="cls-1" points="27.9 118.6 29.9 115.1 25.4 114.1"/>
  <polygon class="cls-1" points="32.4 123.6 34.4 119.6 29.4 118.6"/>
  <polygon class="cls-1" points="34.4 128.6 36.9 124.6 32.4 123.1"/>
  <polygon class="cls-1" points="39.4 129.6 41.9 126.6 37.4 125.1"/>
  <polygon class="cls-1" points="41.4 133.6 44.4 130.1 39.9 127.6"/>
  <polygon class="cls-1" points="46.4 133.6 49.9 131.6 44.4 129.1"/>
  <polygon class="cls-1" points="51.9 136.6 54.4 133.1 48.9 131.6"/>
  <polygon class="cls-1" points="54.4 136.6 58.4 135.1 52.9 131.6"/>
  <polygon class="cls-1" points="61.4 138.6 65.4 136.6 59.4 134.6"/>
  <polygon class="cls-1" points="69.4 139.6 73.9 138.1 67.9 136.1"/>
  <polygon class="cls-1" points="78.4 139.6 82.4 138.1 76.4 136.1"/>
  <polygon class="cls-1" points="86.4 138.6 90.9 137.1 84.9 135.6"/>
  <polygon class="cls-1" points="94.4 136.6 98.9 135.1 93.4 133.6"/>
  <polygon class="cls-1" points="101.9 134.1 105.4 132.1 100.4 131.1"/>
  <polygon class="cls-1" points="107.4 133.1 109.9 130.1 104.4 129.6"/>
  <polygon class="cls-1" points="109.4 129.6 112.9 128.1 108.4 126.6"/>
  <polygon class="cls-1" points="109.4 124.6 112.9 124.6 108.4 121.6"/>
  <polygon class="cls-1" points="114.4 124.6 117.9 123.6 113.4 121.1"/>
  <polygon class="cls-1" points="119.4 122.1 122.9 119.6 117.9 118.6"/>
  <polygon class="cls-1" points="122.9 118.1 125.4 115.6 120.9 115.6"/>
  <polygon class="cls-1" points="125.9 115.1 128.4 113.1 124.9 112.6"/>
  <polygon class="cls-1" points="127.4 112.6 129.9 110.1 125.9 110.1"/>
  <polygon class="cls-1" points="131.4 109.1 133.9 106.6 129.4 106.1"/>
  <polygon class="cls-1" points="132.4 104.1 134.4 101.1 129.9 102.1"/>
  <polygon class="cls-1" points="135.4 99.6 137.9 98.1 133.9 96.6"/>
  <polygon class="cls-1" points="135.9 96.1 137.4 92.6 133.4 94.1"/>
  <polygon class="cls-1" points="137.9 92.6 140.9 91.1 136.4 89.1"/>
  <polygon class="cls-1" points="138.4 85.1 142.4 83.6 137.4 81.1"/>
  <polygon class="cls-1" points="139.4 80.1 139.4 76.1 136.9 79.6"/>
  <polygon class="cls-1" points="140.9 76.6 143.4 74.6 139.4 73.1"/>
  <polygon class="cls-1" points="140.4 67.6 142.4 65.6 138.9 64.1"/>
  <polygon class="cls-1" points="139.4 59.6 140.9 56.6 136.9 56.1"/>
  <polygon class="cls-1" points="136.9 50.6 137.9 47.6 134.4 47.6"/>
  <polygon class="cls-1" points="133.9 42.6 134.4 39.6 130.9 40.1"/>
  <polygon class="cls-1" points="129.4 35.6 129.4 33.1 125.9 33.6"/>
  <polygon class="cls-1" points="123.4 29.1 123.9 26.1 120.4 26.1"/>
  <polygon class="cls-1" points="116.9 23.6 117.4 20.1 113.9 20.1"/>
  <polygon class="cls-1" points="111.9 21.6 112.9 19.6 108.9 19.1"/>
  <polygon class="cls-1" points="103.9 17.6 104.4 15.6 100.4 15.1"/>
  <polygon class="cls-1" points="95.9 15.6 96.4 12.6 91.9 12.1"/>
  <polygon class="cls-1" points="87.9 13.6 89.4 10.6 84.4 10.1"/>
  <path class="cls-2" d="m46.4 30.6 4-4v4z"/>
  <polygon class="cls-2" points="40.4 109.9 41.4 107.6 41.9 108.6"/>
  <ellipse cx="75" cy="12.6" rx="1.9" ry="2.4" fill="#F0BF08"/>
  <ellipse cx="66.5" cy="9.1" rx="1.9" ry="2" fill="#E6AE07"/>
  <ellipse cx="58.1" cy="10.6" rx="1.9" ry="2" fill="#E6AE07"/>
  <ellipse cx="49.8" cy="13.5" rx="1.9" ry="2.2" fill="#E6AE07"/>
  <ellipse cx="42" cy="17.2" rx="1.9" ry="2" fill="#E6AE07"/>
  <ellipse cx="34.7" cy="22" rx="1.9" ry="2.1" fill="#E6AE07"/>
  <ellipse cx="28.1" cy="27.8" rx="1.9" ry="2" fill="#E6AE07"/>
  <ellipse cx="22.2" cy="34.4" rx="1.9" ry="2" fill="#E6AE07"/>
  <ellipse cx="17.2" cy="41.3" rx="1.9" ry="2" fill="#E6AE07"/>
  <ellipse cx="13.5" cy="48.7" rx="1.9" ry="2" fill="#E6AE07"/>
  <ellipse cx="10.6" cy="57.6" rx="1.9" ry="2" fill="#E6AE07"/>
  <ellipse cx="9.1" cy="66" rx="1.9" ry="2" fill="#E6AE07"/>
  <ellipse cx="8.4" cy="74.6" rx="1.9" ry="2" fill="#E6AE07"/>
  <ellipse cx="9.1" cy="83.2" rx="1.9" ry="2" fill="#E6AE07"/>
  <ellipse cx="10.6" cy="91.3" rx="1.9" ry="2" fill="#E6AE07"/>
  <ellipse cx="13.5" cy="99.3" rx="1.9" ry="2" fill="#E6AE07"/>
  <ellipse cx="17.2" cy="107.6" rx="1.9" ry="2" fill="#E6AE07"/>
  <ellipse cx="22.2" cy="115.1" rx="1.9" ry="2" fill="#E6AE07"/>
  <ellipse cx="28.1" cy="121.2" rx="1.9" ry="2" fill="#E6AE07"/>
  <ellipse cx="34.8" cy="126.9" rx="1.9" ry="2.2" fill="#E6AE07"/>
  <ellipse cx="42" cy="132" rx="1.9" ry="2" fill="#E6AE07"/>
  <ellipse cx="49.9" cy="135.7" rx="1.9" ry="2.2" fill="#E6AE07"/>
  <ellipse cx="58.1" cy="138.4" rx="1.9" ry="2" fill="#E6AE07"/>
  <ellipse cx="66.5" cy="139.9" rx="1.9" ry="2" fill="#E6AE07"/>
  <ellipse cx="75" cy="140.6" rx="1.7" ry="1.9" fill="#E6AE07"/>
  <ellipse cx="83.4" cy="139.9" rx="1.8" ry="2" fill="#E6AE07"/>
  <ellipse cx="92" cy="138.4" rx="1.8" ry="2" fill="#E6AE07"/>
  <ellipse cx="99.9" cy="135.7" rx="1.8" ry="2.2" fill="#E6AE07"/>
  <ellipse cx="107.6" cy="132.1" rx="1.9" ry="2" fill="#E6AE07"/>
  <ellipse cx="115.1" cy="126.9" rx="1.9" ry="2.2" fill="#E6AE07"/>
  <ellipse cx="121.6" cy="121.2" rx="1.9" ry="2" fill="#E6AE07"/>
  <ellipse cx="127.6" cy="115.1" rx="1.8" ry="1.8" fill="#E6AE07"/>
  <ellipse cx="132.9" cy="107.6" rx="1.8" ry="1.9" fill="#E6AE07"/>
  <ellipse cx="136.4" cy="99.3" rx="1.8" ry="1.9" fill="#E6AE07"/>
  <ellipse cx="139.1" cy="91.3" rx="1.9" ry="1.9" fill="#E6AE07"/>
  <ellipse cx="140.6" cy="83.2" rx="1.9" ry="1.9" fill="#E6AE07"/>
  <ellipse cx="141.4" cy="74.6" rx="1.8" ry="1.9" fill="#E6AE07"/>
  <ellipse cx="140.6" cy="66" rx="1.8" ry="1.9" fill="#E6AE07"/>
  <ellipse cx="139.1" cy="57.6" rx="1.8" ry="2" fill="#E6AE07"/>
  <ellipse cx="136.4" cy="48.6" rx="1.8" ry="1.9" fill="#E6AE07"/>
  <ellipse cx="132.9" cy="41.3" rx="1.8" ry="2" fill="#E6AE07"/>
  <ellipse cx="127.9" cy="34.4" rx="1.9" ry="1.9" fill="#E6AE07"/>
  <ellipse cx="121.9" cy="27.8" rx="1.9" ry="2" fill="#E6AE07"/>
  <ellipse cx="115.4" cy="22" rx="1.9" ry="2.1" fill="#E6AE07"/>
  <ellipse cx="107.9" cy="17.2" rx="1.9" ry="2" fill="#E6AE07"/>
  <ellipse cx="99.9" cy="13.5" rx="1.9" ry="2.2" fill="#E6AE07"/>
  <ellipse cx="91.9" cy="10.6" rx="1.9" ry="2" fill="#E6AE07"/>
  <ellipse cx="83.4" cy="9.1" rx="1.8" ry="2.2" fill="#E6AE07"/>
  <ellipse cx="75" cy="8.4" rx="1.8" ry="2.2" fill="#E6AE07"/>
  <polygon class="cls-2" points="100.4 27.1 103.4 30.6 100.4 31.1"/>
  <rect class="cls-3" x="71.1" y="121.6" width="7.5" height="3.5"/>
  <circle class="cls-3" cx="75" cy="123.1" r="2.5"/>
  <circle class="cls-3" cx="75" cy="44.6" r="2.5"/>
  <polygon class="cls-3" points="49.4 47.6 57.9 51.6 55.4 56.6 48.4 54.6"/>
  <polygon class="cls-3" points="80.9 40.6 86.4 41.6 85.9 46.6 80.4 47.6 77.9 42.6"/>
  <polygon class="cls-3" points="94.4 46.6 101.4 48.1 99.9 55.6 93.4 55.6 92.9 51.6 95.4 50.6"/>
  <polygon class="cls-3" points="64.4 100.6 71.4 102.1 69.4 106.6 63.9 104.6"/>
  <polygon class="cls-3" points="80.4 100.1 85.9 101.1 83.9 107.6 79.9 105.1"/>
  <polygon class="cls-3" points="92.9 95.6 98.9 93.6 101.9 98.6 96.4 101.6 94.4 100.6 95.4 97.6"/>
  <polygon class="cls-3" points="105.4 63.1 107.9 62.6 109.4 64.6 108.4 67.1 110.9 66.1 109.4 72.1 102.9 71.1 103.4 69.1 102.4 67.6 103.4 66.1 104.9 66.1"/>
  <polygon class="cls-3" points="101.4 78.1 103.9 79.6 100.9 81.1 102.4 84.1 104.4 83.6 105.4 86.1 106.9 86.6 107.9 86.1 107.9 83.1 110.4 83.6 110.9 81.1 108.4 80.1 109.4 77.1"/>
  <polygon class="cls-3" points="48.4 80.6 46.4 79.6 47.4 77.1 40.4 72.6 41.9 70.1 40.9 66.1 43.4 65.1 44.9 62.6 46.9 66.1 49.4 66.1 48.4 68.6 46.4 69.1 47.4 71.1 49.9 72.6 48.4 75.1 50.4 78.1"/>
  <polygon class="cls-3" points="40.4 80.1 42.4 80.1 40.4 83.1 43.4 83.6 42.9 85.6 44.4 86.6 45.4 86.1 46.4 83.6 48.4 84.1 49.4 82.6 48.4 80.6 44.4 78.1"/>
  <polygon class="cls-3" points="48.4 94.1 50.4 93.6 52.4 91.6 54.4 92.6 56.4 92.1 57.4 94.1 55.9 96.1 58.4 97.1 55.4 101.6 52.9 100.1 50.4 100.6 49.4 98.6 50.4 96.6"/>
  <polygon class="cls-3" points="45.4 115.6 46.9 114.6 48.9 115.1 49.9 115.6 51.4 114.6 52.4 115.1 52.4 117.1 49.9 119.1 48.4 117.6 45.9 118.1"/>
  <polygon class="cls-3" points="97.9 115.1 98.9 114.6 100.4 115.6 101.4 115.1 103.9 117.1 102.9 119.1 99.9 118.1 97.9 117.6"/>
  <polygon class="cls-3" points="104.4 118.1 106.4 118.1 106.4 117.1 107.9 117.1 107.4 121.6 103.4 122.6"/>
  <polygon class="cls-3" points="94.4 122.6 96.9 123.1 96.9 127.6 92.9 128.6 91.4 127.6 91.9 124.6"/>
  <polygon class="cls-3" points="49.4 117.6 47.9 120.6 49.9 121.6 50.4 118.6"/>
  <polygon class="cls-3" points="45.4 118.1 43.9 121.1 45.9 122.6 47.4 119.1"/>
  <polygon class="cls-3" points="39.4 110.6 38.4 110.6 38.4 113.1 39.9 112.1"/>
  <polygon class="cls-3" points="110.4 107.6 111.9 110.6 110.4 111.1 108.4 110.1"/>
  <polygon class="cls-3" points="110.9 110.6 111.9 112.6 111.9 113.1 111.9 112.6 111.9 112.6 111.9 111.1"/>
  <polygon class="cls-3" points="110.9 110.6 111.9 112.6 111.9 113.1 111.9 112.6 111.9 112.6 111.9 111.1"/>
  <polygon class="cls-3" points="111.4 110.6 111.9 112.6 111.9 113.1 111.9 112.6 111.9 112.6 111.9 111.1"/>
  <polygon class="cls-3" points="110.9 110.6 111.9 112.6 111.9 113.1 111.9 112.6 111.9 112.6 111.9 111.1"/>
  <circle class="cls-4" cx="74.9" cy="11.6" r="1.1"/>
  <circle class="cls-4" cx="66.8" cy="12.3" r="1.1"/>
  <circle class="cls-4" cx="58.9" cy="13.9" r="1.1"/>
  <circle class="cls-4" cx="51.2" cy="16.5" r="1.1"/>
  <circle class="cls-4" cx="43.7" cy="20.1" r="1.1"/>
  <circle class="cls-4" cx="36.9" cy="24.7" r="1.1"/>
  <circle class="cls-4" cx="30.5" cy="30.2" r="1.1"/>
  <circle class="cls-4" cx="25" cy="36.5" r="1.1"/>
  <circle class="cls-4" cx="20.4" cy="42.9" r="1.1"/>
  <circle class="cls-4" cx="16.7" cy="50.2" r="1.1"/>
  <circle class="cls-4" cx="14.1" cy="58.4" r="1.1"/>
  <circle class="cls-4" cx="12.5" cy="66.4" r="1.1"/>
  <circle class="cls-4" cx="11.9" cy="74.6" r="1.1"/>
  <circle class="cls-4" cx="12.5" cy="82.6" r="1.1"/>
  <circle class="cls-4" cx="14.1" cy="90.4" r="1.1"/>
  <circle class="cls-4" cx="16.7" cy="98" r="1.1"/>
  <circle class="cls-4" cx="20.4" cy="105.7" r="1.1"/>
  <circle class="cls-4" cx="25" cy="113.1" r="1.1"/>
  <circle class="cls-4" cx="30.6" cy="118.6" r="1.1"/>
  <circle class="cls-4" cx="36.9" cy="124.1" r="1.1"/>
  <circle class="cls-4" cx="43.7" cy="128.7" r="1.1"/>
  <circle class="cls-4" cx="51.3" cy="132.6" r="1.1"/>
  <circle class="cls-4" cx="58.9" cy="135.1" r="1.1"/>
  <circle class="cls-4" cx="66.8" cy="136.6" r="1.1"/>
  <circle class="cls-4" cx="75" cy="137.2" r="1.1"/>
  <circle class="cls-4" cx="82.9" cy="136.6" r="1.1"/>
  <circle class="cls-4" cx="91.1" cy="135.1" r="1.1"/>
  <circle class="cls-4" cx="98.7" cy="132.6" r="1.1"/>
  <circle class="cls-4" cx="105.9" cy="128.7" r="1.1"/>
  <circle class="cls-4" cx="106.4" cy="118.4" r="1.1"/>
  <circle class="cls-4" cx="113.2" cy="124.1" r="1.1"/>
  <circle class="cls-4" cx="119" cy="118.6" r="1.1"/>
  <circle class="cls-4" cx="124.7" cy="113.1" r="1.1"/>
  <circle class="cls-4" cx="129.6" cy="105.7" r="1.1"/>
  <circle class="cls-4" cx="133.4" cy="98" r="1.1"/>
  <circle class="cls-4" cx="135.6" cy="90.4" r="1.1"/>
  <circle class="cls-4" cx="137.1" cy="82.6" r="1.1"/>
  <circle class="cls-4" cx="137.8" cy="74.6" r="1.1"/>
  <circle class="cls-4" cx="137.2" cy="66.4" r="1.1"/>
  <circle class="cls-4" cx="135.6" cy="58.4" r="1.1"/>
  <circle class="cls-4" cx="133.4" cy="50.2" r="1.1"/>
  <circle class="cls-4" cx="129.7" cy="42.9" r="1.1"/>
  <circle class="cls-4" cx="124.9" cy="36.5" r="1.1"/>
  <circle class="cls-4" cx="119.2" cy="30.2" r="1.1"/>
  <circle class="cls-4" cx="113.4" cy="24.7" r="1.1"/>
  <circle class="cls-4" cx="106.1" cy="20.1" r="1.1"/>
  <circle class="cls-4" cx="98.9" cy="16.5" r="1.1"/>
  <circle class="cls-4" cx="91.1" cy="13.9" r="1.1"/>
  <circle class="cls-4" cx="82.9" cy="12.3" r="1.1"/>
</svg>