<svg xmlns="http://www.w3.org/2000/svg" viewBox="0 0 150 150">
<!-- SVG created with Arrow, by QuiverAI (https://quiver.ai) -->
  <style type="text/css">.cls-0 {fill:#DD440E;}
.cls-1 {fill:#ED7D18;}
.cls-2 {fill:#F07A19;}
.cls-3 {fill:#FA4B0C;}
.cls-4 {fill:#FB560F;}
.cls-5 {fill:#E4AA07;}
.cls-6 {fill:#FD5711;}</style>
  <path class="cls-0" d="m93.2 6.9c-2.6 2.3-9.8 10.1-13.6 17.1l-1.6 16 1.5 6h6c3-4.5 7.5-9.9 11.3-14-0.9-10.4-3.6-25.1-3.6-25.1z"/>
  <path class="cls-0" d="m56.9 6.9c-1.5 4.9-2.6 12.8-2.3 20.1l9.4 11h3l1.8-15c-4-7.6-11.3-15.5-11.9-16.1z"/>
  <path class="cls-0" d="m24.7 24.8c1.5 6.7 4.9 13.5 8 18.4l15.3 6.8v-6l-4.4-11c-8.2-4.9-14.4-7.1-18.9-8.2z"/>
  <path class="cls-0" d="m6.6 56.5c4.9 4.9 10.8 9.1 16 12.3l13.4 1.2v-4l-6-11.7c-8.6-0.6-16.7 0.4-23.4 2.2z"/>
  <path class="cls-0" d="m6.6 93c5.8 1.5 12.2 2.4 19.8 2.2l12.6-9.2-1-4-15.4-0.8c-6.2 3.3-11.9 7.8-16 11.8z"/>
  <path class="cls-0" d="m24.6 125c4.6-1 12.3-3.7 18.8-7.6l5.6-14.4-3-1.6-13.3 5.2c-4.4 6.9-7 13.8-8.1 18.4z"/>
  <path class="cls-0" d="m56.9 143.1c3.8-3.6 8.8-9.7 11.9-16.1l-2.8-14h-4l-7.5 10.1c-0.2 7.9 1 15.3 2.4 20z"/>
  <path class="cls-0" d="m93.3 143.1c1.5-5.3 2.6-12.6 2.3-20.1l-9.6-10h-3l-2.2 14c3.8 7.1 9.1 13.4 12.5 16.1z"/>
  <path class="cls-0" d="m125.3 125c-1.4-5.6-3.9-11.9-8.2-18.4l-14.1-6.6 1 7 2.6 10.4c6 3.5 13.5 6.4 18.7 7.6z"/>
  <path class="cls-0" d="m143.4 93c-3.9-4-10.3-9-16-11.8l-14.4-0.2 1 5 9.4 9.2c6.1 0.2 14.5-0.7 20-2.2z"/>
  <path class="cls-0" d="m143.4 56.5c-5.8-1.5-12.8-2.5-20.4-2.4l-11 8.9 2 3.6 13.4 2.2c5.7-2.8 12.1-7.9 16-11.8v-0.5z"/>
  <path class="cls-0" d="m125.3 24.8c-4.3 1.1-10.8 3.1-18.9 8.2l-4.4 11 2 4 13.1-4.8c3.5-5.6 6.9-12.8 8.2-18.4z"/>
  <path class="cls-2" d="m75 7.2c-2.9 5.8-7 14.9-8.2 25.2l-0.2 4.1 3.4 5.5h7l6.1-6c-0.6-10.6-5.1-21.9-8.1-28.8z"/>
  <path class="cls-2" d="m95.6 26.9c-2.5 2.5-6.2 6.7-8.6 10.1l0.4 8 4.6 2 9.9-1.9c4.7-8.7 7.1-19.7 7.1-29-3.6 1.9-9 6.3-12.9 10l-0.5 0.8z"/>
  <path class="cls-2" d="m40.9 16.1c0 9.4 2.7 20.4 7.2 28.8l7.9 4.1 6-3 0.9-9c-3-4.4-6.3-8.1-7.9-9.9-3.9-3.7-9.9-9-14.1-11z"/>
  <path class="cls-2" d="m15.9 40.5c3.7 6.4 9.5 13.1 21.2 22.5l8.9 1 2.9-8-3.5-8.5c-9.3-4.9-20.5-7-29.5-7z"/>
  <path class="cls-2" d="m6.6 75.1c5.8 3 15 7 29.5 8.1l6.9-4.2v-5l-6.1-7.4c-11 0-22.3 4-30.3 8.5z"/>
  <path class="cls-2" d="m15.7 109.1c8.4 0 19.9-2 29.7-7.2l3.6-7.9-3-7-8.9-0.1c-8 5.2-16.7 14.1-21.4 22.2z"/>
  <path class="cls-2" d="m40.9 133.9c6.2-3.5 16-11.3 22.1-20.8l-1-10.1-7-3-7 4.1c-3.9 8.5-7 19.8-7.1 29.8z"/>
  <path class="cls-2" d="m75 142.6c3.6-6.2 8-17.7 8.1-28.6l-5.1-8h-6l-5.2 8.1c0.3 9 3.8 20.9 8.2 28.5z"/>
  <path class="cls-2" d="m108.8 133.4 0.1 0.1-0.1-0.1c0.2 0.1 0.1 0.1 0 0zm0 0c-4.3-2.5-13.7-9.4-21.8-20v-10.4l7-3 7.9 4.1c4 8 7 19 6.9 29.8v-0.5z"/>
  <path class="cls-2" d="m134.3 109.1c-3.9-6.5-10.3-14.7-20.9-22.1h-9.4l-2.6 7 3 7.4c9.7 5.1 20.5 7.5 29.9 7.7z"/>
  <path class="cls-2" d="m143.4 75.1c-5.8 3.3-16 7.3-29.4 7.9l-7-4v-5l7-7.4c10.4 0 22.1 4.3 29.4 8.5z"/>
  <path class="cls-2" d="m134.3 40.6c-7.9 0-17.7 1.4-29.9 6.9l-3.4 7.5 3 8h9.1c9.3-6.5 16.5-14 21.2-22.4z"/>
  <path class="cls-1" d="m75 3.5"/>
  <path class="cls-3" d="m63.6 32.4c-1 5.5-2.2 17.7 1.5 26.6l7.9 9h3l5-9c2.6-9.4-0.1-19.1-2-23l-4 4-4.4 2c-2.5-4.4-5.1-8.1-7-9.6z"/>
  <path class="cls-3" d="m86.4 32.4c-2.3 2.2-5 6.1-7.4 9.6v10l2 8 4.9-1c4.7-8.4 4.1-20.5 0.5-26.6z"/>
  <path class="cls-3" d="m43.6 43.4c2 6.2 5.4 13.1 7.9 15.6l8.5 3 4-3-8.6-11.1c-3.9-2.3-8.5-4-11.8-4.5z"/>
  <path class="cls-3" d="m32 63.6c2.9 2.8 7.9 6 10.5 7.3l10.5 1.1 5-3-8-6.4c-5.9-0.5-14.4 0.3-18 1z"/>
  <path class="cls-3" d="m32.1 86.4c4.3 0.7 9.5 1.5 12.9 1.2l9-3.6v-5l-11.6 0.1c-3.5 1.9-8.3 5-10.3 7.3z"/>
  <path class="cls-3" d="m43.6 106.1c3.8-1 9.5-3.5 11.5-4.7l4.9-8.4-4-4-7.1 5c-1.8 3.4-4.5 9.1-5.3 12.1z"/>
  <path class="cls-3" d="m63.6 117.6c2.5-2.5 6-7.6 8.4-11.6l-2-10-4.9 1-2.5 8c-0.1 4.6 0.4 10.1 1 12.6z"/>
  <path class="cls-3" d="m86.4 117.7c1-4.1 1.5-10.8 1.1-14.1l-6.5-7.6-4 3 2 9c1.9 3.5 5.1 7.6 7.4 9.7z"/>
  <path class="cls-3" d="m106.1 106.1c0.3 0 0.3 0 0 0zm0 0c-2.5-0.7-7.6-2.7-11.1-5.1l-5-8 4-4 7.1 5c1.9 3 4.3 8.1 5 12.1z"/>
  <path class="cls-3" d="m117.9 86.4c-1.8-1.9-5.8-4.9-9.4-7l-10.5-0.4-2 5 9 3.6c4.4 0 10-0.5 12.9-1.2z"/>
  <path class="cls-3" d="m117.9 63.6c-2.3-0.6-9.4-1.2-12.9-1.1l-8 2.5-1 5 11.6 0.9c3.5-1.8 8.3-5 10.3-7.3z"/>
  <path class="cls-3" d="m106.1 43.4c-2.5 0.6-7.6 2.2-11.5 4.6l-4.6 8 4 4 7.1-5c2.3-3.4 4.3-8.1 5-11.6z"/>
  <path class="cls-6" d="m75 28.8c-2.4 5.3-5 12.3-4.7 21.2 0.3 9.4 2.7 14.5 3.7 18h2c1.6-3.9 3.4-11.4 3.4-19.5s-2.8-15.9-4.4-19.7z"/>
  <path class="cls-4" d="m51.9 35c0.7 9.6 4.2 20.4 14.2 30l3.9 3.6 2.4-1.6c-2.3-9.9-7.5-22.6-20.5-32z"/>
  <path class="cls-4" d="m34.8 51.5c6.7 9.6 15.8 16.4 29.2 19.9l4 1 1-2.4c-5.9-6.4-15.6-17.4-34.2-18.5z"/>
  <path class="cls-6" d="m28.3 75.1c6.8 2.9 14.2 4.9 21.7 4.8 7.5-0.3 14.1-1.9 17-2.9l-0.4-3.6c-5.5-2-14-3.8-22.2-2.9-5.8 0.6-11.8 2.6-16.1 4.6z"/>
  <path class="cls-4" d="m34.8 97.6c14.2-1 23.8-6.5 33.2-16l-1-3.6c-11.1 1.6-23.4 8.1-32.2 19.6z"/>
  <path class="cls-4" d="m51.9 115.4c9.7-6.8 16.7-15.5 20.1-30.4l-1.4-3.6c-8 6.7-17 17.2-18.7 34z"/>
  <path class="cls-6" d="m75 121.4c5.1-10.9 6.4-22.5 1.6-37.4h-3.2c-4.8 14.6-3.8 25.6 1.6 37.4z"/>
  <path class="cls-4" d="m98.1 115.4c-0.7-10.3-5-22.5-17.1-34l-3 2.6c2.1 12.6 10.5 25.4 20.1 31.4z"/>
  <path class="cls-4" d="m115.2 97.6c-6.7-9.5-16.3-17.7-31.6-20l-1.6 3.5c8.4 9.3 19.1 15.8 33.2 16.5z"/>
  <path class="cls-6" d="m121.5 75.1c-5.4-2.5-12-4.7-19-4.7-6.9-0.3-13.4 1.2-18.5 2.7v3.9c5.1 1.6 11.6 3 18.6 2.6 5.8-0.1 13.5-2 18.9-4.5z"/>
  <path class="cls-4" d="m115.2 51.5c-13.3 0.6-24.1 6.1-33.6 17.1l2 3.8c11.5-2.8 24-8.8 31.6-20.9z"/>
  <path class="cls-4" d="m98.1 34.9c-9 5.7-17.1 14.7-20.5 31.1l3 2.6c8.5-7.5 16.3-18.5 17.5-33.7z"/>
  <path class="cls-5" d="m75 65.6c-4.9 0-9.4 3.9-9.4 9.4 0 5.1 4.3 9.4 9.4 9.4s9.1-4 9.1-9.3c0-5-4.1-9.5-9.1-9.5z"/>
</svg>